<svg width="602" height="176" viewBox="0 0 602 176" fill="none" xmlns="http://www.w3.org/2000/svg">
<path d="M162.167 19.8848H165.947V22.0234H162.167V25.7832H160.029V22.0234H156.25V19.8848H160.029V16.0762H162.167V19.8848Z" fill="#FF4A17"/>
<path d="M161.835 39.176C161.205 39.176 160.638 39.2854 160.132 39.5042C159.632 39.7177 159.205 40.0302 158.851 40.4417C158.502 40.8479 158.234 41.3401 158.046 41.9182C157.859 42.4963 157.765 43.1474 157.765 43.8713C157.765 44.8297 157.914 45.663 158.21 46.3713C158.513 47.0745 158.96 47.6187 159.554 48.0042C160.153 48.3896 160.901 48.5823 161.796 48.5823C162.307 48.5823 162.786 48.5406 163.234 48.4573C163.687 48.3687 164.127 48.2594 164.554 48.1292V49.2854C164.138 49.4417 163.7 49.5562 163.242 49.6292C162.783 49.7073 162.239 49.7463 161.609 49.7463C160.447 49.7463 159.476 49.5068 158.695 49.0276C157.919 48.5432 157.335 47.8609 156.945 46.9807C156.559 46.1005 156.367 45.0614 156.367 43.8635C156.367 42.9989 156.486 42.2099 156.726 41.4963C156.971 40.7776 157.325 40.1578 157.789 39.637C158.257 39.1161 158.83 38.7151 159.507 38.4338C160.19 38.1474 160.971 38.0042 161.851 38.0042C162.429 38.0042 162.986 38.0614 163.523 38.176C164.059 38.2906 164.544 38.4547 164.976 38.6682L164.445 39.7932C164.08 39.6265 163.679 39.4833 163.242 39.3635C162.809 39.2385 162.341 39.176 161.835 39.176ZM172.671 42.1292H169.851V49.5901H168.57V42.1292H165.789V41.0276H172.671V42.1292ZM178.39 40.8713C179.458 40.8713 180.309 41.2385 180.945 41.9729C181.58 42.7073 181.898 43.8114 181.898 45.2854C181.898 46.2594 181.752 47.0771 181.46 47.7385C181.169 48.4 180.757 48.9 180.226 49.2385C179.7 49.5771 179.078 49.7463 178.359 49.7463C177.906 49.7463 177.507 49.6864 177.164 49.5667C176.82 49.4469 176.526 49.2854 176.281 49.0823C176.036 48.8792 175.833 48.6578 175.671 48.4182H175.578C175.593 48.6213 175.611 48.8661 175.632 49.1526C175.658 49.439 175.671 49.689 175.671 49.9026V53.4182H174.367V41.0276H175.437L175.609 42.2932H175.671C175.838 42.0328 176.041 41.7958 176.281 41.5823C176.52 41.3635 176.812 41.1917 177.156 41.0667C177.505 40.9364 177.916 40.8713 178.39 40.8713ZM178.164 41.9651C177.57 41.9651 177.091 42.0797 176.726 42.3088C176.367 42.538 176.104 42.8818 175.937 43.3401C175.77 43.7932 175.682 44.3635 175.671 45.051V45.301C175.671 46.025 175.75 46.637 175.906 47.137C176.067 47.637 176.33 48.0172 176.695 48.2776C177.065 48.538 177.559 48.6682 178.179 48.6682C178.71 48.6682 179.153 48.525 179.507 48.2385C179.861 47.9521 180.125 47.5536 180.296 47.0432C180.473 46.5276 180.562 45.9364 180.562 45.2698C180.562 44.2594 180.364 43.4573 179.968 42.8635C179.578 42.2646 178.976 41.9651 178.164 41.9651ZM187.367 40.887C188.388 40.887 189.145 41.1161 189.64 41.5745C190.135 42.0328 190.382 42.7646 190.382 43.7698V49.5901H189.437L189.187 48.3245H189.125C188.885 48.637 188.635 48.9 188.375 49.1135C188.114 49.3219 187.812 49.4807 187.468 49.5901C187.13 49.6943 186.713 49.7463 186.218 49.7463C185.697 49.7463 185.234 49.6552 184.828 49.4729C184.427 49.2906 184.109 49.0146 183.875 48.6448C183.645 48.275 183.531 47.8062 183.531 47.2385C183.531 46.3844 183.869 45.7281 184.546 45.2698C185.223 44.8114 186.255 44.5614 187.64 44.5198L189.117 44.4573V43.9338C189.117 43.1943 188.958 42.676 188.64 42.3792C188.322 42.0823 187.875 41.9338 187.296 41.9338C186.848 41.9338 186.421 41.9989 186.015 42.1292C185.609 42.2594 185.223 42.413 184.859 42.5901L184.46 41.6057C184.846 41.4078 185.289 41.2385 185.789 41.0979C186.289 40.9573 186.815 40.887 187.367 40.887ZM189.101 45.3713L187.796 45.426C186.729 45.4677 185.976 45.6422 185.539 45.9495C185.101 46.2568 184.882 46.6917 184.882 47.2542C184.882 47.7437 185.031 48.1057 185.328 48.3401C185.625 48.5745 186.018 48.6917 186.507 48.6917C187.268 48.6917 187.89 48.4807 188.375 48.0588C188.859 47.637 189.101 47.0042 189.101 46.1604V45.3713ZM194.359 41.0276V44.6213H199.132V41.0276H200.429V49.5901H199.132V45.7229H194.359V49.5901H193.054V41.0276H194.359Z" fill="#FEFEFE" fill-opacity="0.7"/>
<path d="M110.66 42.3076C110.66 45.5303 109.594 48.0368 107.461 49.8271C105.329 51.6012 102.286 52.4883 98.3306 52.4883C94.408 52.4883 91.3644 51.6012 89.1997 49.8271C87.0513 48.0531 85.9771 45.5628 85.9771 42.3564C85.9771 40.1592 86.6118 38.3118 87.8813 36.8145C89.1509 35.3008 90.8517 34.3649 92.9839 34.0068V33.9092C91.1284 33.5023 89.631 32.5827 88.4917 31.1504C87.3524 29.7181 86.7827 28.0661 86.7827 26.1943C86.7827 23.3786 87.7756 21.1569 89.7612 19.5293C91.7632 17.9017 94.5871 17.0879 98.2329 17.0879C101.96 17.0879 104.817 17.8854 106.802 19.4805C108.804 21.0592 109.805 23.3135 109.805 26.2432C109.805 28.1149 109.236 29.7588 108.096 31.1748C106.973 32.5908 105.459 33.486 103.555 33.8604V33.958C105.769 34.3161 107.502 35.2275 108.755 36.6924C110.025 38.141 110.66 40.0127 110.66 42.3076ZM102.75 26.6094C102.75 23.4681 101.244 21.8975 98.2329 21.8975C95.2707 21.8975 93.7896 23.4681 93.7896 26.6094C93.7896 28.2533 94.1639 29.4902 94.9126 30.3203C95.6613 31.1341 96.7843 31.541 98.2817 31.541C99.7791 31.541 100.894 31.1585 101.626 30.3936C102.375 29.6286 102.75 28.3672 102.75 26.6094ZM103.555 41.7461C103.555 39.9557 103.108 38.613 102.212 37.7178C101.317 36.8063 99.9744 36.3506 98.1841 36.3506C96.5239 36.3506 95.2463 36.8226 94.3511 37.7666C93.4722 38.7106 93.0327 40.0697 93.0327 41.8438C93.0327 43.862 93.4722 45.335 94.3511 46.2627C95.23 47.1904 96.5728 47.6543 98.3794 47.6543C100.153 47.6543 101.456 47.1904 102.286 46.2627C103.132 45.335 103.555 43.8294 103.555 41.7461ZM137.979 34.7881C137.979 40.5986 136.978 45.0013 134.976 47.9961C132.99 50.9909 130.004 52.4883 126.016 52.4883C122.077 52.4883 119.123 51.0153 117.154 48.0693C115.184 45.1071 114.2 40.68 114.2 34.7881C114.2 28.7497 115.136 24.29 117.007 21.4092C118.895 18.5283 121.963 17.0879 126.211 17.0879C130.28 17.0879 133.259 18.5609 135.147 21.5068C137.035 24.4528 137.979 28.8799 137.979 34.7881ZM131.094 34.7881C131.094 31.6956 130.956 29.2542 130.679 27.4639C130.403 25.6572 129.906 24.3714 129.19 23.6064C128.474 22.8415 127.465 22.459 126.163 22.459C124.779 22.459 123.713 22.8496 122.964 23.6309C122.232 24.3958 121.727 25.6816 121.451 27.4883C121.19 29.2786 121.06 31.7119 121.06 34.7881C121.06 37.8643 121.198 40.3057 121.475 42.1123C121.768 43.9027 122.273 45.1803 122.989 45.9453C123.721 46.7103 124.747 47.0928 126.065 47.0928C128.018 47.0928 129.345 46.1488 130.044 44.2607C130.744 42.3727 131.094 39.2152 131.094 34.7881Z" fill="white"/>
<path d="M396.416 150.36V156H372.344V151.239C372.946 149.921 373.711 148.635 374.638 147.382C375.566 146.112 376.673 144.843 377.959 143.573C379.261 142.287 380.742 140.969 382.402 139.618C383.607 138.642 384.632 137.755 385.478 136.957C386.325 136.143 386.984 135.419 387.456 134.784C387.944 134.149 388.31 133.523 388.554 132.904C388.799 132.27 388.921 131.651 388.921 131.049C388.921 129.551 388.538 128.428 387.773 127.68C387.024 126.931 385.901 126.557 384.404 126.557C382.939 126.557 381.816 126.955 381.035 127.753C380.27 128.534 379.774 129.714 379.546 131.293L372.636 130.902C373.027 127.712 374.215 125.279 376.201 123.603C378.203 121.926 380.921 121.088 384.355 121.088C388.066 121.088 390.914 121.934 392.9 123.627C394.886 125.32 395.879 127.696 395.879 130.756C395.879 132.481 395.521 134.027 394.804 135.395C394.088 136.762 393.177 138.023 392.07 139.179C391.159 140.172 390.125 141.116 388.969 142.011C387.83 142.906 386.723 143.777 385.649 144.623C384.51 145.535 383.468 146.454 382.524 147.382C381.596 148.31 380.905 149.302 380.449 150.36H396.416ZM424.199 138.788C424.199 144.599 423.198 149.001 421.196 151.996C419.21 154.991 416.224 156.488 412.236 156.488C408.297 156.488 405.343 155.015 403.374 152.069C401.404 149.107 400.42 144.68 400.42 138.788C400.42 132.75 401.356 128.29 403.227 125.409C405.115 122.528 408.183 121.088 412.431 121.088C416.5 121.088 419.479 122.561 421.367 125.507C423.255 128.453 424.199 132.88 424.199 138.788ZM417.314 138.788C417.314 135.696 417.176 133.254 416.899 131.464C416.622 129.657 416.126 128.371 415.41 127.606C414.694 126.841 413.685 126.459 412.383 126.459C410.999 126.459 409.933 126.85 409.184 127.631C408.452 128.396 407.947 129.682 407.671 131.488C407.41 133.279 407.28 135.712 407.28 138.788C407.28 141.864 407.418 144.306 407.695 146.112C407.988 147.903 408.493 149.18 409.209 149.945C409.941 150.71 410.967 151.093 412.285 151.093C414.238 151.093 415.565 150.149 416.264 148.261C416.964 146.373 417.314 143.215 417.314 138.788ZM452.69 150.897V156H429.424V150.897H437.944V127.436L429.692 132.587V127.191L438.31 121.601H444.804V150.897H452.69ZM480.376 146.308C480.376 149.53 479.31 152.037 477.177 153.827C475.045 155.601 472.002 156.488 468.047 156.488C464.124 156.488 461.08 155.601 458.916 153.827C456.767 152.053 455.693 149.563 455.693 146.356C455.693 144.159 456.328 142.312 457.597 140.814C458.867 139.301 460.568 138.365 462.7 138.007V137.909C460.844 137.502 459.347 136.583 458.208 135.15C457.068 133.718 456.499 132.066 456.499 130.194C456.499 127.379 457.492 125.157 459.477 123.529C461.479 121.902 464.303 121.088 467.949 121.088C471.676 121.088 474.533 121.885 476.518 123.48C478.52 125.059 479.521 127.313 479.521 130.243C479.521 132.115 478.952 133.759 477.812 135.175C476.689 136.591 475.176 137.486 473.271 137.86V137.958C475.485 138.316 477.218 139.228 478.471 140.692C479.741 142.141 480.376 144.013 480.376 146.308ZM472.466 130.609C472.466 127.468 470.96 125.897 467.949 125.897C464.987 125.897 463.506 127.468 463.506 130.609C463.506 132.253 463.88 133.49 464.629 134.32C465.377 135.134 466.5 135.541 467.998 135.541C469.495 135.541 470.61 135.159 471.343 134.394C472.091 133.629 472.466 132.367 472.466 130.609ZM473.271 145.746C473.271 143.956 472.824 142.613 471.928 141.718C471.033 140.806 469.691 140.351 467.9 140.351C466.24 140.351 464.962 140.823 464.067 141.767C463.188 142.711 462.749 144.07 462.749 145.844C462.749 147.862 463.188 149.335 464.067 150.263C464.946 151.19 466.289 151.654 468.095 151.654C469.87 151.654 471.172 151.19 472.002 150.263C472.848 149.335 473.271 147.829 473.271 145.746Z" fill="white"/>
<path d="M453.416 46.8975V52H430.15V46.8975H438.67V23.4355L430.418 28.5869V23.1914L439.036 17.6006H445.53V46.8975H453.416ZM480.589 34.7881C480.589 40.5986 479.588 45.0013 477.586 47.9961C475.6 50.9909 472.614 52.4883 468.626 52.4883C464.687 52.4883 461.733 51.0153 459.764 48.0693C457.794 45.1071 456.81 40.68 456.81 34.7881C456.81 28.7497 457.746 24.29 459.617 21.4092C461.505 18.5283 464.573 17.0879 468.821 17.0879C472.89 17.0879 475.869 18.5609 477.757 21.5068C479.645 24.4528 480.589 28.8799 480.589 34.7881ZM473.704 34.7881C473.704 31.6956 473.566 29.2542 473.289 27.4639C473.012 25.6572 472.516 24.3714 471.8 23.6064C471.084 22.8415 470.075 22.459 468.773 22.459C467.389 22.459 466.323 22.8496 465.574 23.6309C464.842 24.3958 464.337 25.6816 464.061 27.4883C463.8 29.2786 463.67 31.7119 463.67 34.7881C463.67 37.8643 463.808 40.3057 464.085 42.1123C464.378 43.9027 464.883 45.1803 465.599 45.9453C466.331 46.7103 467.357 47.0928 468.675 47.0928C470.628 47.0928 471.955 46.1488 472.654 44.2607C473.354 42.3727 473.704 39.2152 473.704 34.7881Z" fill="white"/>
<path d="M162.167 125.885H165.947V128.023H162.167V131.783H160.029V128.023H156.25V125.885H160.029V122.076H162.167V125.885Z" fill="#FF4A17"/>
<path d="M161.835 145.176C161.205 145.176 160.638 145.285 160.132 145.504C159.632 145.718 159.205 146.03 158.851 146.442C158.502 146.848 158.234 147.34 158.046 147.918C157.859 148.496 157.765 149.147 157.765 149.871C157.765 150.83 157.914 151.663 158.21 152.371C158.513 153.074 158.96 153.619 159.554 154.004C160.153 154.39 160.901 154.582 161.796 154.582C162.307 154.582 162.786 154.541 163.234 154.457C163.687 154.369 164.127 154.259 164.554 154.129V155.285C164.138 155.442 163.7 155.556 163.242 155.629C162.783 155.707 162.239 155.746 161.609 155.746C160.447 155.746 159.476 155.507 158.695 155.028C157.919 154.543 157.335 153.861 156.945 152.981C156.559 152.101 156.367 151.061 156.367 149.864C156.367 148.999 156.486 148.21 156.726 147.496C156.971 146.778 157.325 146.158 157.789 145.637C158.257 145.116 158.83 144.715 159.507 144.434C160.19 144.147 160.971 144.004 161.851 144.004C162.429 144.004 162.986 144.061 163.523 144.176C164.059 144.291 164.544 144.455 164.976 144.668L164.445 145.793C164.08 145.627 163.679 145.483 163.242 145.364C162.809 145.239 162.341 145.176 161.835 145.176ZM174.218 151.293C174.218 151.996 174.127 152.624 173.945 153.176C173.763 153.728 173.5 154.194 173.156 154.574C172.812 154.955 172.395 155.246 171.906 155.449C171.421 155.647 170.872 155.746 170.257 155.746C169.684 155.746 169.158 155.647 168.679 155.449C168.205 155.246 167.794 154.955 167.445 154.574C167.101 154.194 166.833 153.728 166.64 153.176C166.453 152.624 166.359 151.996 166.359 151.293C166.359 150.356 166.518 149.559 166.835 148.903C167.153 148.241 167.606 147.739 168.195 147.395C168.789 147.046 169.494 146.871 170.312 146.871C171.093 146.871 171.776 147.046 172.359 147.395C172.947 147.744 173.403 148.249 173.726 148.91C174.054 149.567 174.218 150.361 174.218 151.293ZM167.703 151.293C167.703 151.981 167.794 152.577 167.976 153.082C168.158 153.587 168.44 153.978 168.82 154.254C169.2 154.53 169.69 154.668 170.289 154.668C170.882 154.668 171.369 154.53 171.75 154.254C172.135 153.978 172.419 153.587 172.601 153.082C172.783 152.577 172.875 151.981 172.875 151.293C172.875 150.611 172.783 150.022 172.601 149.528C172.419 149.028 172.138 148.642 171.757 148.371C171.377 148.101 170.885 147.965 170.281 147.965C169.39 147.965 168.736 148.259 168.32 148.848C167.908 149.436 167.703 150.252 167.703 151.293ZM182.296 148.129H179.476V155.59H178.195V148.129H175.414V147.028H182.296V148.129ZM188.015 146.871C189.083 146.871 189.934 147.239 190.57 147.973C191.205 148.707 191.523 149.811 191.523 151.285C191.523 152.259 191.377 153.077 191.085 153.739C190.794 154.4 190.382 154.9 189.851 155.239C189.325 155.577 188.703 155.746 187.984 155.746C187.531 155.746 187.132 155.686 186.789 155.567C186.445 155.447 186.151 155.285 185.906 155.082C185.661 154.879 185.458 154.658 185.296 154.418H185.203C185.218 154.621 185.236 154.866 185.257 155.153C185.283 155.439 185.296 155.689 185.296 155.903V159.418H183.992V147.028H185.062L185.234 148.293H185.296C185.463 148.033 185.666 147.796 185.906 147.582C186.145 147.364 186.437 147.192 186.781 147.067C187.13 146.936 187.541 146.871 188.015 146.871ZM187.789 147.965C187.195 147.965 186.716 148.08 186.351 148.309C185.992 148.538 185.729 148.882 185.562 149.34C185.395 149.793 185.307 150.364 185.296 151.051V151.301C185.296 152.025 185.375 152.637 185.531 153.137C185.692 153.637 185.955 154.017 186.32 154.278C186.69 154.538 187.184 154.668 187.804 154.668C188.335 154.668 188.778 154.525 189.132 154.239C189.486 153.952 189.75 153.554 189.921 153.043C190.098 152.528 190.187 151.936 190.187 151.27C190.187 150.259 189.989 149.457 189.593 148.864C189.203 148.265 188.601 147.965 187.789 147.965ZM192.437 147.028H193.828L195.718 151.996C195.828 152.288 195.929 152.569 196.023 152.84C196.117 153.106 196.2 153.361 196.273 153.606C196.346 153.851 196.403 154.087 196.445 154.317H196.5C196.572 154.056 196.677 153.715 196.812 153.293C196.947 152.866 197.093 152.431 197.25 151.989L199.039 147.028H200.437L196.71 156.848C196.513 157.374 196.281 157.832 196.015 158.223C195.755 158.614 195.437 158.913 195.062 159.121C194.687 159.335 194.234 159.442 193.703 159.442C193.458 159.442 193.242 159.426 193.054 159.395C192.867 159.369 192.705 159.337 192.57 159.301V158.262C192.684 158.288 192.822 158.311 192.984 158.332C193.151 158.353 193.322 158.364 193.5 158.364C193.822 158.364 194.101 158.301 194.335 158.176C194.575 158.056 194.781 157.879 194.953 157.645C195.125 157.41 195.273 157.132 195.398 156.809L195.867 155.606L192.437 147.028ZM208.078 147.028V154.489H209.304V158.551H208.046V155.59H201.984V158.551H200.742V154.489H201.414C201.903 153.811 202.309 153.069 202.632 152.262C202.955 151.455 203.2 150.608 203.367 149.723C203.533 148.832 203.622 147.934 203.632 147.028H208.078ZM206.82 148.059H204.789C204.742 148.819 204.63 149.593 204.453 150.379C204.281 151.166 204.052 151.916 203.765 152.629C203.479 153.337 203.145 153.957 202.765 154.489H206.82V148.059ZM212.312 147.028V150.621H217.085V147.028H218.382V155.59H217.085V151.723H212.312V155.59H211.007V147.028H212.312ZM222.367 147.028V152.41C222.367 152.515 222.364 152.65 222.359 152.817C222.354 152.978 222.346 153.153 222.335 153.34C222.325 153.522 222.315 153.699 222.304 153.871C222.299 154.038 222.291 154.176 222.281 154.285L226.953 147.028H228.546V155.59H227.335V150.34C227.335 150.173 227.338 149.96 227.343 149.699C227.348 149.439 227.356 149.184 227.367 148.934C227.377 148.679 227.385 148.481 227.39 148.34L222.734 155.59H221.132V147.028H222.367ZM236.296 147.028H237.726L234.031 151.16L238.023 155.59H236.5L232.609 151.246V155.59H231.304V147.028H232.609V151.184L236.296 147.028ZM246.953 151.293C246.953 151.996 246.861 152.624 246.679 153.176C246.497 153.728 246.234 154.194 245.89 154.574C245.546 154.955 245.13 155.246 244.64 155.449C244.156 155.647 243.606 155.746 242.992 155.746C242.419 155.746 241.893 155.647 241.414 155.449C240.94 155.246 240.528 154.955 240.179 154.574C239.835 154.194 239.567 153.728 239.375 153.176C239.187 152.624 239.093 151.996 239.093 151.293C239.093 150.356 239.252 149.559 239.57 148.903C239.888 148.241 240.341 147.739 240.929 147.395C241.523 147.046 242.229 146.871 243.046 146.871C243.828 146.871 244.51 147.046 245.093 147.395C245.682 147.744 246.138 148.249 246.46 148.91C246.789 149.567 246.953 150.361 246.953 151.293ZM240.437 151.293C240.437 151.981 240.528 152.577 240.71 153.082C240.893 153.587 241.174 153.978 241.554 154.254C241.934 154.53 242.424 154.668 243.023 154.668C243.617 154.668 244.104 154.53 244.484 154.254C244.869 153.978 245.153 153.587 245.335 153.082C245.518 152.577 245.609 151.981 245.609 151.293C245.609 150.611 245.518 150.022 245.335 149.528C245.153 149.028 244.872 148.642 244.492 148.371C244.111 148.101 243.619 147.965 243.015 147.965C242.125 147.965 241.471 148.259 241.054 148.848C240.643 149.436 240.437 150.252 240.437 151.293ZM256 149.176C256 149.712 255.843 150.132 255.531 150.434C255.218 150.731 254.815 150.931 254.32 151.035V151.098C254.856 151.171 255.317 151.364 255.703 151.676C256.093 151.983 256.289 152.455 256.289 153.09C256.289 153.58 256.171 154.012 255.937 154.387C255.703 154.762 255.335 155.056 254.835 155.27C254.335 155.483 253.684 155.59 252.882 155.59H249.195V147.028H252.851C253.466 147.028 254.007 147.098 254.476 147.239C254.95 147.374 255.322 147.598 255.593 147.91C255.864 148.223 256 148.645 256 149.176ZM254.937 153.09C254.937 152.585 254.744 152.22 254.359 151.996C253.979 151.772 253.424 151.66 252.695 151.66H250.5V154.535H252.726C253.445 154.535 253.992 154.426 254.367 154.207C254.747 153.983 254.937 153.611 254.937 153.09ZM254.679 149.324C254.679 148.918 254.531 148.616 254.234 148.418C253.937 148.215 253.45 148.114 252.773 148.114H250.5V150.574H252.546C253.25 150.574 253.781 150.473 254.14 150.27C254.5 150.067 254.679 149.752 254.679 149.324Z" fill="#FEFEFE" fill-opacity="0.7"/>
<path d="M499.563 145V133.578H506.274V134.75H500.891V138.438H502.664C503.763 138.438 504.623 138.573 505.242 138.844C505.862 139.115 506.297 139.492 506.547 139.977C506.802 140.461 506.93 141.023 506.93 141.664C506.93 142.716 506.615 143.536 505.984 144.125C505.359 144.708 504.32 145 502.867 145H499.563ZM500.891 143.859H502.727C503.758 143.859 504.487 143.68 504.914 143.32C505.346 142.956 505.563 142.404 505.563 141.664C505.563 141.148 505.458 140.74 505.25 140.438C505.042 140.135 504.714 139.919 504.266 139.789C503.818 139.659 503.229 139.594 502.5 139.594H500.891V143.859ZM509.164 145V136.438H510.469V139.969H512.813C513.542 139.969 514.141 140.06 514.609 140.242C515.083 140.424 515.435 140.695 515.664 141.055C515.893 141.414 516.008 141.859 516.008 142.391C516.008 142.922 515.893 143.383 515.664 143.773C515.44 144.164 515.086 144.466 514.602 144.68C514.123 144.893 513.498 145 512.727 145H509.164ZM510.469 143.945H512.602C513.248 143.945 513.763 143.831 514.149 143.602C514.534 143.372 514.727 142.99 514.727 142.453C514.727 141.927 514.547 141.562 514.188 141.359C513.828 141.151 513.313 141.047 512.641 141.047H510.469V143.945ZM517.422 145V136.438H518.719V145H517.422ZM527.883 145H526.563V137.523H523.961C523.857 138.872 523.724 140.029 523.563 140.992C523.406 141.951 523.208 142.734 522.969 143.344C522.734 143.948 522.448 144.393 522.109 144.68C521.776 144.961 521.378 145.102 520.914 145.102C520.774 145.102 520.641 145.094 520.516 145.078C520.391 145.062 520.284 145.036 520.195 145V144.016C520.263 144.036 520.333 144.052 520.406 144.062C520.484 144.073 520.565 144.078 520.649 144.078C520.883 144.078 521.096 143.982 521.289 143.789C521.487 143.591 521.664 143.294 521.82 142.898C521.982 142.503 522.125 142.003 522.25 141.398C522.375 140.789 522.484 140.073 522.578 139.25C522.677 138.422 522.763 137.484 522.836 136.438H527.883V145ZM544.875 139.273C544.875 140.154 544.763 140.956 544.539 141.68C544.315 142.398 543.982 143.018 543.539 143.539C543.102 144.055 542.557 144.453 541.906 144.734C541.255 145.016 540.5 145.156 539.641 145.156C538.755 145.156 537.982 145.016 537.32 144.734C536.664 144.453 536.117 144.052 535.68 143.531C535.248 143.01 534.922 142.388 534.703 141.664C534.49 140.94 534.383 140.138 534.383 139.258C534.383 138.091 534.576 137.068 534.961 136.188C535.346 135.307 535.93 134.622 536.711 134.133C537.498 133.643 538.482 133.398 539.664 133.398C540.794 133.398 541.745 133.641 542.516 134.125C543.292 134.609 543.878 135.292 544.274 136.172C544.675 137.047 544.875 138.081 544.875 139.273ZM535.781 139.273C535.781 140.242 535.919 141.081 536.195 141.789C536.471 142.497 536.893 143.044 537.461 143.43C538.034 143.815 538.761 144.008 539.641 144.008C540.526 144.008 541.25 143.815 541.813 143.43C542.38 143.044 542.8 142.497 543.07 141.789C543.341 141.081 543.477 140.242 543.477 139.273C543.477 137.799 543.167 136.648 542.547 135.82C541.932 134.987 540.971 134.57 539.664 134.57C538.779 134.57 538.05 134.76 537.477 135.141C536.904 135.521 536.477 136.062 536.195 136.766C535.919 137.464 535.781 138.299 535.781 139.273ZM550.656 145.156C549.886 145.156 549.206 144.997 548.617 144.68C548.029 144.362 547.57 143.878 547.242 143.227C546.914 142.576 546.75 141.755 546.75 140.766C546.75 139.729 546.922 138.883 547.266 138.227C547.615 137.565 548.094 137.076 548.703 136.758C549.313 136.44 550.005 136.281 550.781 136.281C551.208 136.281 551.62 136.326 552.016 136.414C552.417 136.497 552.745 136.604 553 136.734L552.609 137.82C552.349 137.716 552.047 137.622 551.703 137.539C551.365 137.456 551.047 137.414 550.75 137.414C550.156 137.414 549.662 137.542 549.266 137.797C548.875 138.052 548.581 138.427 548.383 138.922C548.19 139.417 548.094 140.026 548.094 140.75C548.094 141.443 548.188 142.034 548.375 142.523C548.568 143.013 548.852 143.388 549.227 143.648C549.607 143.904 550.081 144.031 550.649 144.031C551.102 144.031 551.511 143.984 551.875 143.891C552.24 143.792 552.57 143.677 552.867 143.547V144.703C552.581 144.849 552.261 144.961 551.906 145.039C551.557 145.117 551.141 145.156 550.656 145.156ZM556.203 136.438V140.031H560.977V136.438H562.274V145H560.977V141.133H556.203V145H554.899V136.438H556.203ZM572.406 140.703C572.406 141.406 572.315 142.034 572.133 142.586C571.951 143.138 571.688 143.604 571.344 143.984C571 144.365 570.583 144.656 570.094 144.859C569.609 145.057 569.06 145.156 568.445 145.156C567.873 145.156 567.346 145.057 566.867 144.859C566.393 144.656 565.982 144.365 565.633 143.984C565.289 143.604 565.021 143.138 564.828 142.586C564.641 142.034 564.547 141.406 564.547 140.703C564.547 139.766 564.706 138.969 565.024 138.312C565.341 137.651 565.794 137.148 566.383 136.805C566.977 136.456 567.682 136.281 568.5 136.281C569.281 136.281 569.964 136.456 570.547 136.805C571.136 137.154 571.591 137.659 571.914 138.32C572.242 138.977 572.406 139.771 572.406 140.703ZM565.891 140.703C565.891 141.391 565.982 141.987 566.164 142.492C566.346 142.997 566.628 143.388 567.008 143.664C567.388 143.94 567.878 144.078 568.477 144.078C569.07 144.078 569.557 143.94 569.938 143.664C570.323 143.388 570.607 142.997 570.789 142.492C570.971 141.987 571.063 141.391 571.063 140.703C571.063 140.021 570.971 139.432 570.789 138.938C570.607 138.438 570.326 138.052 569.945 137.781C569.565 137.51 569.073 137.375 568.469 137.375C567.578 137.375 566.925 137.669 566.508 138.258C566.096 138.846 565.891 139.661 565.891 140.703ZM581.453 138.586C581.453 139.122 581.297 139.542 580.984 139.844C580.672 140.141 580.268 140.341 579.774 140.445V140.508C580.31 140.581 580.771 140.773 581.156 141.086C581.547 141.393 581.742 141.865 581.742 142.5C581.742 142.99 581.625 143.422 581.391 143.797C581.156 144.172 580.789 144.466 580.289 144.68C579.789 144.893 579.138 145 578.336 145H574.649V136.438H578.305C578.919 136.438 579.461 136.508 579.93 136.648C580.404 136.784 580.776 137.008 581.047 137.32C581.318 137.633 581.453 138.055 581.453 138.586ZM580.391 142.5C580.391 141.995 580.198 141.63 579.813 141.406C579.432 141.182 578.878 141.07 578.149 141.07H575.953V143.945H578.18C578.899 143.945 579.445 143.836 579.82 143.617C580.201 143.393 580.391 143.021 580.391 142.5ZM580.133 138.734C580.133 138.328 579.984 138.026 579.688 137.828C579.391 137.625 578.904 137.523 578.227 137.523H575.953V139.984H578C578.703 139.984 579.234 139.883 579.594 139.68C579.953 139.477 580.133 139.161 580.133 138.734ZM587.039 136.297C588.06 136.297 588.818 136.526 589.313 136.984C589.807 137.443 590.055 138.174 590.055 139.18V145H589.109L588.859 143.734H588.797C588.557 144.047 588.307 144.31 588.047 144.523C587.787 144.732 587.484 144.891 587.141 145C586.802 145.104 586.386 145.156 585.891 145.156C585.37 145.156 584.906 145.065 584.5 144.883C584.099 144.701 583.781 144.424 583.547 144.055C583.318 143.685 583.203 143.216 583.203 142.648C583.203 141.794 583.542 141.138 584.219 140.68C584.896 140.221 585.927 139.971 587.313 139.93L588.789 139.867V139.344C588.789 138.604 588.63 138.086 588.313 137.789C587.995 137.492 587.547 137.344 586.969 137.344C586.521 137.344 586.094 137.409 585.688 137.539C585.281 137.669 584.896 137.823 584.531 138L584.133 137.016C584.518 136.818 584.961 136.648 585.461 136.508C585.961 136.367 586.487 136.297 587.039 136.297ZM588.774 140.781L587.469 140.836C586.401 140.878 585.649 141.052 585.211 141.359C584.774 141.667 584.555 142.102 584.555 142.664C584.555 143.154 584.703 143.516 585 143.75C585.297 143.984 585.69 144.102 586.18 144.102C586.94 144.102 587.563 143.891 588.047 143.469C588.531 143.047 588.774 142.414 588.774 141.57V140.781ZM594.031 136.438V140.031H598.805V136.438H600.102V145H598.805V141.133H594.031V145H592.727V136.438H594.031Z" fill="#FEFEFE" fill-opacity="0.7"/>
<path d="M504.943 21.4434V25.4277H502.736V21.4434H498.84V19.2559H502.736V15.2715H504.943V19.2559H508.869V21.4434H504.943Z" fill="#FF4A17"/>
<path d="M500.789 38.8401V48.5901H499.297V37.5823H508.234V48.5901H506.742V38.8401H500.789ZM517.727 44.3245C517.727 45.7984 517.466 46.9052 516.945 47.6448C516.43 48.3792 515.654 48.7463 514.617 48.7463C513.315 48.7463 512.44 48.2568 511.992 47.2776H511.953C511.974 47.314 511.984 47.7568 511.984 48.6057V51.9104H510.578V41.8635C510.578 41.4312 510.573 41.0719 510.563 40.7854C510.557 40.4937 510.547 40.2776 510.531 40.137H511.891C511.896 40.1578 511.904 40.2594 511.914 40.4417C511.93 40.6239 511.943 40.8219 511.953 41.0354C511.964 41.2437 511.969 41.3974 511.969 41.4963H512C512.25 40.9755 512.581 40.5953 512.992 40.3557C513.404 40.1109 513.945 39.9885 514.617 39.9885C515.659 39.9885 516.438 40.3375 516.953 41.0354C517.469 41.7333 517.727 42.8297 517.727 44.3245ZM516.25 44.3557C516.25 43.1786 516.091 42.3375 515.774 41.8323C515.456 41.3271 514.951 41.0745 514.258 41.0745C513.487 41.0745 512.914 41.3427 512.539 41.8792C512.169 42.4104 511.984 43.2724 511.984 44.4651C511.984 45.5745 512.162 46.3922 512.516 46.9182C512.87 47.4443 513.445 47.7073 514.242 47.7073C514.94 47.7073 515.448 47.4521 515.766 46.9417C516.089 46.426 516.25 45.564 516.25 44.3557ZM526.633 44.3557C526.633 45.8349 526.307 46.9364 525.656 47.6604C525.005 48.3844 524.06 48.7463 522.82 48.7463C521.586 48.7463 520.654 48.3713 520.024 47.6213C519.393 46.8661 519.078 45.7776 519.078 44.3557C519.078 42.8974 519.393 41.8036 520.024 41.0745C520.659 40.3453 521.607 39.9807 522.867 39.9807C524.159 39.9807 525.109 40.3375 525.719 41.051C526.328 41.7594 526.633 42.8609 526.633 44.3557ZM525.156 44.3557C525.156 43.189 524.982 42.3427 524.633 41.8167C524.289 41.2854 523.708 41.0198 522.891 41.0198C522.068 41.0198 521.471 41.2906 521.102 41.8323C520.737 42.3687 520.555 43.2099 520.555 44.3557C520.555 45.4703 520.734 46.3088 521.094 46.8713C521.458 47.4286 522.029 47.7073 522.805 47.7073C523.649 47.7073 524.25 47.4364 524.609 46.8948C524.974 46.3531 525.156 45.5068 525.156 44.3557ZM528.383 48.5901V51.7776H527.109V47.5667H528.039C528.43 46.9156 528.768 45.9911 529.055 44.7932C529.341 43.5953 529.604 42.0432 529.844 40.137H534.875V47.5667H536.016V51.7776H534.742V48.5901H528.383ZM529.586 47.5667H533.469V41.1604H531.078C530.886 42.5771 530.672 43.8114 530.438 44.8635C530.203 45.9104 529.919 46.8114 529.586 47.5667ZM537.789 51.9104C537.414 51.9104 537.091 51.8818 536.82 51.8245V50.7698C537.018 50.801 537.237 50.8167 537.477 50.8167C537.914 50.8167 538.318 50.6526 538.688 50.3245C539.063 50.0015 539.396 49.4104 539.688 48.551L536.336 40.137H537.836L539.617 44.8088C539.748 45.1422 539.886 45.5198 540.031 45.9417C540.182 46.3635 540.3 46.7359 540.383 47.0588C540.513 46.689 540.643 46.3219 540.774 45.9573C540.909 45.5927 541.039 45.2281 541.164 44.8635L542.781 40.137H544.266L541.016 48.5901C540.839 49.038 540.669 49.4286 540.508 49.762C540.346 50.1005 540.19 50.3792 540.039 50.5979C539.737 51.0406 539.401 51.3687 539.031 51.5823C538.667 51.801 538.253 51.9104 537.789 51.9104ZM546.781 44.8635V48.5901H545.375V40.137H546.781V43.8401C546.938 43.8401 547.078 43.8193 547.203 43.7776C547.328 43.7307 547.458 43.6422 547.594 43.512C547.662 43.4443 547.734 43.3661 547.813 43.2776C547.891 43.1838 547.971 43.0771 548.055 42.9573C548.143 42.8375 548.336 42.5432 548.633 42.0745C548.93 41.6005 549.331 40.9547 549.836 40.137H551.305L549.617 42.676C549.138 43.3844 548.805 43.814 548.617 43.9651L551.375 48.5901H549.813L547.641 44.7073C547.542 44.7489 547.406 44.7854 547.234 44.8167C547.068 44.8479 546.917 44.8635 546.781 44.8635ZM555.852 41.1604V48.5901H554.445V41.1604H551.758V40.137H558.539V41.1604H555.852ZM566.852 44.3557C566.852 45.8349 566.526 46.9364 565.875 47.6604C565.224 48.3844 564.279 48.7463 563.039 48.7463C561.805 48.7463 560.873 48.3713 560.242 47.6213C559.612 46.8661 559.297 45.7776 559.297 44.3557C559.297 42.8974 559.612 41.8036 560.242 41.0745C560.878 40.3453 561.826 39.9807 563.086 39.9807C564.378 39.9807 565.328 40.3375 565.938 41.051C566.547 41.7594 566.852 42.8609 566.852 44.3557ZM565.375 44.3557C565.375 43.189 565.201 42.3427 564.852 41.8167C564.508 41.2854 563.927 41.0198 563.109 41.0198C562.287 41.0198 561.69 41.2906 561.32 41.8323C560.956 42.3687 560.774 43.2099 560.774 44.3557C560.774 45.4703 560.953 46.3088 561.313 46.8713C561.677 47.4286 562.248 47.7073 563.024 47.7073C563.867 47.7073 564.469 47.4364 564.828 46.8948C565.193 46.3531 565.375 45.5068 565.375 44.3557ZM571.938 40.137C572.979 40.137 573.761 40.3193 574.281 40.6838C574.802 41.0484 575.063 41.5719 575.063 42.2542C575.063 42.7385 574.914 43.1422 574.617 43.4651C574.32 43.788 573.888 44.0042 573.32 44.1135V44.1682C574.664 44.3453 575.336 45.0068 575.336 46.1526C575.336 46.9182 575.05 47.5172 574.477 47.9495C573.909 48.3765 573.123 48.5901 572.117 48.5901H568.641V40.137H571.938ZM570.047 43.7073H571.734C572.401 43.7073 572.875 43.6135 573.156 43.426C573.443 43.2385 573.586 42.9104 573.586 42.4417C573.586 42.0146 573.453 41.7021 573.188 41.5042C572.922 41.3062 572.474 41.2073 571.844 41.2073H570.047V43.7073ZM570.047 47.551H571.891C572.609 47.551 573.115 47.4417 573.406 47.2229C573.698 46.9989 573.844 46.6448 573.844 46.1604C573.844 45.6344 573.688 45.2646 573.375 45.051C573.068 44.8323 572.542 44.7229 571.797 44.7229H570.047V47.551Z" fill="#FEFEFE" fill-opacity="0.7"/>
<path d="M22.9492 148.993V156H16.4062V148.993H0.756836V143.842L15.2832 121.601H22.9492V143.891H27.5391V148.993H22.9492ZM6.34766 143.891H16.4062V132.636C16.4062 131.757 16.4307 130.805 16.4795 129.779C16.5446 128.754 16.5934 128.095 16.626 127.802C16.4144 128.257 16.1133 128.819 15.7227 129.486C15.3483 130.137 14.8844 130.894 14.3311 131.757L6.34766 143.891ZM54.1016 146.308C54.1016 149.53 53.0355 152.037 50.9033 153.827C48.7712 155.601 45.7275 156.488 41.7725 156.488C37.8499 156.488 34.8063 155.601 32.6416 153.827C30.4932 152.053 29.4189 149.563 29.4189 146.356C29.4189 144.159 30.0537 142.312 31.3232 140.814C32.5928 139.301 34.2936 138.365 36.4258 138.007V137.909C34.5703 137.502 33.0729 136.583 31.9336 135.15C30.7943 133.718 30.2246 132.066 30.2246 130.194C30.2246 127.379 31.2174 125.157 33.2031 123.529C35.2051 121.902 38.029 121.088 41.6748 121.088C45.402 121.088 48.2585 121.885 50.2441 123.48C52.2461 125.059 53.2471 127.313 53.2471 130.243C53.2471 132.115 52.6774 133.759 51.5381 135.175C50.415 136.591 48.9014 137.486 46.9971 137.86V137.958C49.2106 138.316 50.944 139.228 52.1973 140.692C53.4668 142.141 54.1016 144.013 54.1016 146.308ZM46.1914 130.609C46.1914 127.468 44.6859 125.897 41.6748 125.897C38.7126 125.897 37.2314 127.468 37.2314 130.609C37.2314 132.253 37.6058 133.49 38.3545 134.32C39.1032 135.134 40.2262 135.541 41.7236 135.541C43.221 135.541 44.3359 135.159 45.0684 134.394C45.8171 133.629 46.1914 132.367 46.1914 130.609ZM46.9971 145.746C46.9971 143.956 46.5495 142.613 45.6543 141.718C44.7591 140.806 43.4163 140.351 41.626 140.351C39.9658 140.351 38.6882 140.823 37.793 141.767C36.9141 142.711 36.4746 144.07 36.4746 145.844C36.4746 147.862 36.9141 149.335 37.793 150.263C38.6719 151.19 40.0146 151.654 41.8213 151.654C43.5954 151.654 44.8975 151.19 45.7275 150.263C46.5739 149.335 46.9971 147.829 46.9971 145.746ZM81.4209 138.788C81.4209 144.599 80.4199 149.001 78.418 151.996C76.4323 154.991 73.4456 156.488 69.458 156.488C65.5192 156.488 62.5651 155.015 60.5957 152.069C58.6263 149.107 57.6416 144.68 57.6416 138.788C57.6416 132.75 58.5775 128.29 60.4492 125.409C62.3372 122.528 65.4053 121.088 69.6533 121.088C73.7223 121.088 76.7008 122.561 78.5889 125.507C80.4769 128.453 81.4209 132.88 81.4209 138.788ZM74.5361 138.788C74.5361 135.696 74.3978 133.254 74.1211 131.464C73.8444 129.657 73.348 128.371 72.6318 127.606C71.9157 126.841 70.9066 126.459 69.6045 126.459C68.221 126.459 67.1549 126.85 66.4062 127.631C65.6738 128.396 65.1693 129.682 64.8926 131.488C64.6322 133.279 64.502 135.712 64.502 138.788C64.502 141.864 64.6403 144.306 64.917 146.112C65.21 147.903 65.7145 149.18 66.4307 149.945C67.1631 150.71 68.1885 151.093 69.5068 151.093C71.46 151.093 72.7865 150.149 73.4863 148.261C74.1862 146.373 74.5361 143.215 74.5361 138.788ZM109.253 138.788C109.253 144.599 108.252 149.001 106.25 151.996C104.264 154.991 101.278 156.488 97.29 156.488C93.3512 156.488 90.3971 155.015 88.4277 152.069C86.4583 149.107 85.4736 144.68 85.4736 138.788C85.4736 132.75 86.4095 128.29 88.2812 125.409C90.1693 122.528 93.2373 121.088 97.4854 121.088C101.554 121.088 104.533 122.561 106.421 125.507C108.309 128.453 109.253 132.88 109.253 138.788ZM102.368 138.788C102.368 135.696 102.23 133.254 101.953 131.464C101.676 129.657 101.18 128.371 100.464 127.606C99.7477 126.841 98.7386 126.459 97.4365 126.459C96.0531 126.459 94.987 126.85 94.2383 127.631C93.5059 128.396 93.0013 129.682 92.7246 131.488C92.4642 133.279 92.334 135.712 92.334 138.788C92.334 141.864 92.4723 144.306 92.749 146.112C93.042 147.903 93.5465 149.18 94.2627 149.945C94.9951 150.71 96.0205 151.093 97.3389 151.093C99.292 151.093 100.618 150.149 101.318 148.261C102.018 146.373 102.368 143.215 102.368 138.788ZM137.085 138.788C137.085 144.599 136.084 149.001 134.082 151.996C132.096 154.991 129.11 156.488 125.122 156.488C121.183 156.488 118.229 155.015 116.26 152.069C114.29 149.107 113.306 144.68 113.306 138.788C113.306 132.75 114.242 128.29 116.113 125.409C118.001 122.528 121.069 121.088 125.317 121.088C129.386 121.088 132.365 122.561 134.253 125.507C136.141 128.453 137.085 132.88 137.085 138.788ZM130.2 138.788C130.2 135.696 130.062 133.254 129.785 131.464C129.508 129.657 129.012 128.371 128.296 127.606C127.58 126.841 126.571 126.459 125.269 126.459C123.885 126.459 122.819 126.85 122.07 127.631C121.338 128.396 120.833 129.682 120.557 131.488C120.296 133.279 120.166 135.712 120.166 138.788C120.166 141.864 120.304 144.306 120.581 146.112C120.874 147.903 121.379 149.18 122.095 149.945C122.827 150.71 123.853 151.093 125.171 151.093C127.124 151.093 128.451 150.149 129.15 148.261C129.85 146.373 130.2 143.215 130.2 138.788Z" fill="white"/>
</svg>
