<svg width="320" height="51" viewBox="0 0 320 51" fill="none" xmlns="http://www.w3.org/2000/svg">
<g clip-path="url(#clip0_28_123)">
<path d="M21.548 32.0397H18.9565V23.6943H21.548V32.0397ZM20.2508 22.5559C19.4221 22.5559 18.75 21.8696 18.75 21.0409C18.75 20.6428 18.9081 20.2611 19.1896 19.9796C19.471 19.6982 19.8528 19.54 20.2508 19.54C20.6489 19.54 21.0306 19.6982 21.3121 19.9796C21.5935 20.2611 21.7517 20.6428 21.7517 21.0409C21.7517 21.8696 21.0792 22.5559 20.2508 22.5559ZM31.2472 32.0397H28.6613V27.9773C28.6613 27.0091 28.6417 25.7674 27.3139 25.7674C25.9665 25.7674 25.76 26.8193 25.76 27.9075V32.0397H23.1713V23.6943H25.6568V24.8327H25.6931C26.0391 24.177 26.8842 23.4851 28.1451 23.4851C30.7679 23.4851 31.25 25.2122 31.25 27.4555V32.0397H31.2472Z" fill="white"/>
</g>
<rect x="8" y="8.79004" width="34" height="34" rx="17" stroke="white" stroke-width="2"/>
<g clip-path="url(#clip1_28_123)">
<path d="M79.9651 23.244C79.9731 23.355 79.9731 23.4661 79.9731 23.5771C79.9731 26.9639 77.3953 30.8661 72.684 30.8661C71.2326 30.8661 69.8842 30.4457 68.75 29.7161C68.9562 29.7399 69.1545 29.7478 69.3687 29.7478C70.5663 29.7478 71.6688 29.3433 72.5492 28.6533C71.4229 28.6295 70.4791 27.8919 70.1539 26.8766C70.3125 26.9004 70.4711 26.9163 70.6377 26.9163C70.8677 26.9163 71.0977 26.8845 71.3119 26.829C70.138 26.5911 69.2576 25.56 69.2576 24.3148V24.283C69.5986 24.4734 69.9952 24.5924 70.4156 24.6082C69.7255 24.1482 69.2735 23.363 69.2735 22.4746C69.2735 21.9988 69.4003 21.5625 69.6224 21.1818C70.8835 22.7364 72.7792 23.7516 74.9048 23.8627C74.8652 23.6723 74.8414 23.474 74.8414 23.2757C74.8414 21.8639 75.9835 20.7139 77.4032 20.7139C78.1409 20.7139 78.8071 21.0232 79.2751 21.5229C79.854 21.4118 80.4093 21.1977 80.901 20.9042C80.7106 21.4991 80.3061 21.9988 79.7748 22.316C80.2903 22.2605 80.79 22.1177 81.25 21.9195C80.9011 22.4271 80.4648 22.8791 79.9651 23.244Z" fill="white"/>
</g>
<rect x="58" y="8.79004" width="34" height="34" rx="17" stroke="white" stroke-width="2"/>
<g clip-path="url(#clip2_28_123)">
<path d="M130.989 22.7707C130.845 22.2294 130.422 21.8031 129.884 21.6584C128.909 21.3955 125 21.3955 125 21.3955C125 21.3955 121.091 21.3955 120.116 21.6584C119.579 21.8031 119.155 22.2294 119.011 22.7707C118.75 23.7518 118.75 25.7989 118.75 25.7989C118.75 25.7989 118.75 27.846 119.011 28.8271C119.155 29.3684 119.579 29.777 120.116 29.9217C121.091 30.1846 125 30.1846 125 30.1846C125 30.1846 128.909 30.1846 129.884 29.9217C130.422 29.777 130.845 29.3684 130.989 28.8271C131.25 27.846 131.25 25.7989 131.25 25.7989C131.25 25.7989 131.25 23.7518 130.989 22.7707ZM123.722 27.6575V23.9403L126.989 25.799L123.722 27.6575Z" fill="white"/>
</g>
<rect x="108" y="8.79004" width="34" height="34" rx="17" stroke="white" stroke-width="2"/>
<g clip-path="url(#clip3_28_123)">
<path d="M171.376 27.439C171.376 28.1617 170.786 28.7521 170.063 28.7521C169.34 28.7521 168.75 28.1617 168.75 27.439C168.75 26.7164 169.34 26.126 170.063 26.126H171.376V27.439ZM172.038 27.439C172.038 26.7164 172.628 26.126 173.351 26.126C174.074 26.126 174.664 26.7164 174.664 27.439V30.7269C174.664 31.4496 174.074 32.04 173.351 32.04C172.628 32.04 172.038 31.4496 172.038 30.7269V27.439ZM173.351 22.1662C172.628 22.1662 172.038 21.5757 172.038 20.8531C172.038 20.1304 172.628 19.54 173.351 19.54C174.074 19.54 174.664 20.1304 174.664 20.8531V22.1662H173.351ZM173.351 22.828C174.074 22.828 174.664 23.4184 174.664 24.141C174.664 24.8637 174.074 25.4541 173.351 25.4541H170.063C169.34 25.4541 168.75 24.8637 168.75 24.141C168.75 23.4184 169.34 22.828 170.063 22.828H173.351ZM178.624 24.141C178.624 23.4184 179.214 22.828 179.937 22.828C180.66 22.828 181.25 23.4184 181.25 24.141C181.25 24.8637 180.66 25.4541 179.937 25.4541H178.624V24.141ZM177.962 24.141C177.962 24.8637 177.372 25.4541 176.649 25.4541C175.926 25.4541 175.336 24.8637 175.336 24.141V20.8531C175.336 20.1304 175.926 19.54 176.649 19.54C177.372 19.54 177.962 20.1304 177.962 20.8531V24.141ZM176.649 29.4139C177.372 29.4139 177.962 30.0043 177.962 30.7269C177.962 31.4496 177.372 32.04 176.649 32.04C175.926 32.04 175.336 31.4496 175.336 30.7269V29.4139H176.649ZM176.649 28.7521C175.926 28.7521 175.336 28.1617 175.336 27.439C175.336 26.7164 175.926 26.126 176.649 26.126H179.937C180.66 26.126 181.25 26.7164 181.25 27.439C181.25 28.1617 180.66 28.7521 179.937 28.7521H176.649Z" fill="white"/>
</g>
<rect x="158" y="8.79004" width="34" height="34" rx="17" stroke="white" stroke-width="2"/>
<defs>
<clipPath id="clip0_28_123">
<rect width="15" height="15" fill="white" transform="translate(17.5 18.29)"/>
</clipPath>
<clipPath id="clip1_28_123">
<rect width="13" height="11" fill="white" transform="translate(68.5 20.29)"/>
</clipPath>
<clipPath id="clip2_28_123">
<rect width="13" height="9" fill="white" transform="translate(118.5 21.29)"/>
</clipPath>
<clipPath id="clip3_28_123">
<rect width="13" height="13" fill="white" transform="translate(168.5 19.29)"/>
</clipPath>
</defs>
</svg>
