<svg width="992" height="56" viewBox="0 0 992 56" fill="none" xmlns="http://www.w3.org/2000/svg">
<path d="M12.793 46.4883C9.22852 46.4883 6.486 45.7152 4.56543 44.1689C2.66113 42.6227 1.3916 40.1243 0.756836 36.6738L7.91016 35.624C8.20312 37.3981 8.74837 38.7165 9.5459 39.5791C10.3434 40.4255 11.4421 40.8486 12.8418 40.8486C14.2741 40.8486 15.3564 40.3685 16.0889 39.4082C16.8376 38.4479 17.2119 37.0726 17.2119 35.2822V17.2402H10.3516V11.6006H24.3896V35.1113C24.3896 38.6921 23.3724 41.4834 21.3379 43.4854C19.3034 45.4873 16.4551 46.4883 12.793 46.4883ZM59.2285 40.4336V46H31.1768V11.6006H58.2275V17.167H38.3789V25.8096H56.7383V31.376H38.3789V40.4336H59.2285ZM80.0537 17.167V46H72.8516V17.167H61.7432V11.6006H91.1865V17.167H80.0537ZM127.612 28.6416C127.612 32.2223 126.888 35.3555 125.439 38.041C124.007 40.7103 121.981 42.7855 119.36 44.2666C116.756 45.7477 113.696 46.4883 110.181 46.4883C106.584 46.4883 103.491 45.7721 100.903 44.3398C98.3154 42.8913 96.3298 40.8324 94.9463 38.1631C93.5628 35.4938 92.8711 32.32 92.8711 28.6416C92.8711 24.9632 93.5547 21.8138 94.9219 19.1934C96.3053 16.5729 98.291 14.571 100.879 13.1875C103.483 11.7878 106.6 11.0879 110.229 11.0879C113.875 11.0879 116.992 11.7959 119.58 13.2119C122.168 14.6117 124.154 16.6217 125.537 19.2422C126.921 21.8626 127.612 24.9958 127.612 28.6416ZM120.264 28.6416C120.264 24.9307 119.385 22.0254 117.627 19.9258C115.869 17.8099 113.403 16.752 110.229 16.752C107.007 16.752 104.517 17.8018 102.759 19.9014C101.001 21.9847 100.122 24.8981 100.122 28.6416C100.122 31.1481 100.529 33.3128 101.343 35.1357C102.157 36.9587 103.312 38.3665 104.81 39.3594C106.323 40.3359 108.114 40.8242 110.181 40.8242C113.403 40.8242 115.885 39.7663 117.627 37.6504C119.385 35.5345 120.264 32.5316 120.264 28.6416ZM147.388 46.4883C144.23 46.4883 141.561 45.9756 139.38 44.9502C137.199 43.9085 135.547 42.3949 134.424 40.4092C133.301 38.4072 132.739 35.974 132.739 33.1094V11.6006H139.941V32.5479C139.941 35.266 140.584 37.333 141.87 38.749C143.172 40.1488 145.076 40.8486 147.583 40.8486C150.155 40.8486 152.132 40.1162 153.516 38.6514C154.899 37.1702 155.591 35.0544 155.591 32.3037V11.6006H162.793V32.7432C162.793 35.6403 162.183 38.1143 160.962 40.165C159.757 42.2158 158.008 43.7865 155.713 44.877C153.418 45.9512 150.643 46.4883 147.388 46.4883ZM176.416 32.9385V46H169.214V11.6006H186.401C190.503 11.6006 193.669 12.4876 195.898 14.2617C198.128 16.0195 199.243 18.5505 199.243 21.8545C199.243 24.2633 198.56 26.3467 197.192 28.1045C195.825 29.846 193.978 30.9935 191.65 31.5469L200.952 46H192.847L184.863 32.9385H176.416ZM191.992 22.1475C191.992 20.5036 191.463 19.2666 190.405 18.4365C189.347 17.6064 187.76 17.1914 185.645 17.1914H176.416V27.3477H185.84C187.858 27.3477 189.388 26.8919 190.43 25.9805C191.471 25.069 191.992 23.7913 191.992 22.1475ZM230.566 30.0576V36.0146H217.871V30.0576H230.566Z" fill="white"/>
<path d="M4.56543 44.1689L3.93508 44.9453L3.93832 44.9479L4.56543 44.1689ZM0.756836 36.6738L0.611634 35.6844L-0.41426 35.835L-0.226661 36.8548L0.756836 36.6738ZM7.91016 35.624L8.89679 35.4611L8.73676 34.492L7.76495 34.6346L7.91016 35.624ZM9.5459 39.5791L8.81159 40.258L8.81811 40.2649L9.5459 39.5791ZM16.0889 39.4082L15.3002 38.7933L15.2937 38.8018L16.0889 39.4082ZM17.2119 17.2402H18.2119V16.2402H17.2119V17.2402ZM10.3516 17.2402H9.35156V18.2402H10.3516V17.2402ZM10.3516 11.6006V10.6006H9.35156V11.6006H10.3516ZM24.3896 11.6006H25.3896V10.6006H24.3896V11.6006ZM12.793 45.4883C9.35777 45.4883 6.87124 44.7415 5.19254 43.39L3.93832 44.9479C6.10076 46.6888 9.09926 47.4883 12.793 47.4883V45.4883ZM5.19577 43.3926C3.54187 42.0497 2.35026 39.8084 1.74033 36.4929L-0.226661 36.8548C0.432944 40.4403 1.78039 43.1957 3.93509 44.9453L5.19577 43.3926ZM0.902038 37.6632L8.05536 36.6134L7.76495 34.6346L0.611634 35.6844L0.902038 37.6632ZM6.92352 35.787C7.23263 37.6588 7.82827 39.1943 8.81163 40.258L10.2802 38.9002C9.66848 38.2386 9.17362 37.1374 8.89679 35.4611L6.92352 35.787ZM8.81811 40.2649C9.84246 41.352 11.2271 41.8486 12.8418 41.8486V39.8486C11.657 39.8486 10.8444 39.4989 10.2737 38.8933L8.81811 40.2649ZM12.8418 41.8486C14.5208 41.8486 15.9261 41.2706 16.884 40.0147L15.2937 38.8018C14.7868 39.4664 14.0274 39.8486 12.8418 39.8486V41.8486ZM16.8775 40.0231C17.8144 38.8214 18.2119 37.1945 18.2119 35.2822H16.2119C16.2119 36.9507 15.8607 38.0745 15.3002 38.7933L16.8775 40.0231ZM18.2119 35.2822V17.2402H16.2119V35.2822H18.2119ZM17.2119 16.2402H10.3516V18.2402H17.2119V16.2402ZM11.3516 17.2402V11.6006H9.35156V17.2402H11.3516ZM10.3516 12.6006H24.3896V10.6006H10.3516V12.6006ZM23.3896 11.6006V35.1113H25.3896V11.6006H23.3896ZM23.3896 35.1113C23.3896 38.4962 22.434 41.0038 20.6365 42.7726L22.0393 44.1981C24.3107 41.963 25.3896 38.8879 25.3896 35.1113H23.3896ZM20.6365 42.7726C18.8379 44.5424 16.2702 45.4883 12.793 45.4883V47.4883C16.6399 47.4883 19.7689 46.4322 22.0393 44.1981L20.6365 42.7726ZM59.2285 40.4336H60.2285V39.4336H59.2285V40.4336ZM59.2285 46V47H60.2285V46H59.2285ZM31.1768 46H30.1768V47H31.1768V46ZM31.1768 11.6006V10.6006H30.1768V11.6006H31.1768ZM58.2275 11.6006H59.2275V10.6006H58.2275V11.6006ZM58.2275 17.167V18.167H59.2275V17.167H58.2275ZM38.3789 17.167V16.167H37.3789V17.167H38.3789ZM38.3789 25.8096H37.3789V26.8096H38.3789V25.8096ZM56.7383 25.8096H57.7383V24.8096H56.7383V25.8096ZM56.7383 31.376V32.376H57.7383V31.376H56.7383ZM38.3789 31.376V30.376H37.3789V31.376H38.3789ZM38.3789 40.4336H37.3789V41.4336H38.3789V40.4336ZM58.2285 40.4336V46H60.2285V40.4336H58.2285ZM59.2285 45H31.1768V47H59.2285V45ZM32.1768 46V11.6006H30.1768V46H32.1768ZM31.1768 12.6006H58.2275V10.6006H31.1768V12.6006ZM57.2275 11.6006V17.167H59.2275V11.6006H57.2275ZM58.2275 16.167H38.3789V18.167H58.2275V16.167ZM37.3789 17.167V25.8096H39.3789V17.167H37.3789ZM38.3789 26.8096H56.7383V24.8096H38.3789V26.8096ZM55.7383 25.8096V31.376H57.7383V25.8096H55.7383ZM56.7383 30.376H38.3789V32.376H56.7383V30.376ZM37.3789 31.376V40.4336H39.3789V31.376H37.3789ZM38.3789 41.4336H59.2285V39.4336H38.3789V41.4336ZM80.0537 17.167V16.167H79.0537V17.167H80.0537ZM80.0537 46V47H81.0537V46H80.0537ZM72.8516 46H71.8516V47H72.8516V46ZM72.8516 17.167H73.8516V16.167H72.8516V17.167ZM61.7432 17.167H60.7432V18.167H61.7432V17.167ZM61.7432 11.6006V10.6006H60.7432V11.6006H61.7432ZM91.1865 11.6006H92.1865V10.6006H91.1865V11.6006ZM91.1865 17.167V18.167H92.1865V17.167H91.1865ZM79.0537 17.167V46H81.0537V17.167H79.0537ZM80.0537 45H72.8516V47H80.0537V45ZM73.8516 46V17.167H71.8516V46H73.8516ZM72.8516 16.167H61.7432V18.167H72.8516V16.167ZM62.7432 17.167V11.6006H60.7432V17.167H62.7432ZM61.7432 12.6006H91.1865V10.6006H61.7432V12.6006ZM90.1865 11.6006V17.167H92.1865V11.6006H90.1865ZM91.1865 16.167H80.0537V18.167H91.1865V16.167ZM125.439 38.041L124.559 37.5663L124.558 37.5682L125.439 38.041ZM119.36 44.2666L118.868 43.396L118.866 43.3974L119.36 44.2666ZM100.903 44.3398L100.415 45.2125L100.419 45.2148L100.903 44.3398ZM94.9219 19.1934L94.0375 18.7265L94.0353 18.7308L94.9219 19.1934ZM100.879 13.1875L101.35 14.0694L101.352 14.0683L100.879 13.1875ZM119.58 13.2119L119.1 14.0892L119.104 14.0915L119.58 13.2119ZM117.627 19.9258L116.858 20.5648L116.86 20.5677L117.627 19.9258ZM102.759 19.9014L103.523 20.5462L103.526 20.5433L102.759 19.9014ZM104.81 39.3594L104.257 40.1929L104.267 40.1997L104.81 39.3594ZM117.627 37.6504L116.858 37.0114L116.855 37.0149L117.627 37.6504ZM126.612 28.6416C126.612 32.0854 125.917 35.05 124.559 37.5663L126.32 38.5158C127.859 35.6609 128.612 32.3592 128.612 28.6416H126.612ZM124.558 37.5682C123.215 40.0719 121.323 42.0086 118.868 43.396L119.852 45.1372C122.639 43.5623 124.799 41.3487 126.321 38.5138L124.558 37.5682ZM118.866 43.3974C116.437 44.779 113.553 45.4883 110.181 45.4883V47.4883C113.839 47.4883 117.076 46.7165 119.855 45.1358L118.866 43.3974ZM110.181 45.4883C106.717 45.4883 103.798 44.7992 101.388 43.4649L100.419 45.2148C103.184 46.7451 106.451 47.4883 110.181 47.4883V45.4883ZM101.392 43.4672C98.9769 42.1155 97.1289 40.2012 95.8341 37.7029L94.0585 38.6232C95.5306 41.4635 97.6539 43.667 100.415 45.2124L101.392 43.4672ZM95.8341 37.7029C94.539 35.2042 93.8711 32.1951 93.8711 28.6416H91.8711C91.8711 32.4448 92.5866 35.7834 94.0585 38.6232L95.8341 37.7029ZM93.8711 28.6416C93.8711 25.0856 94.5318 22.1028 95.8085 19.6559L94.0353 18.7308C92.5776 21.5248 91.8711 24.8408 91.8711 28.6416H93.8711ZM95.8062 19.6602C97.0975 17.2144 98.9402 15.3578 101.35 14.0694L100.407 12.3056C97.6418 13.7841 95.5132 15.9315 94.0376 18.7265L95.8062 19.6602ZM101.352 14.0683C103.781 12.7627 106.728 12.0879 110.229 12.0879V10.0879C106.472 10.0879 103.185 10.8128 100.405 12.3067L101.352 14.0683ZM110.229 12.0879C113.747 12.0879 116.69 12.7706 119.1 14.0892L120.06 12.3347C117.294 10.8212 114.004 10.0879 110.229 10.0879V12.0879ZM119.104 14.0915C121.517 15.3964 123.361 17.2622 124.653 19.7091L126.421 18.7753C124.946 15.9812 122.819 13.8269 120.056 12.3323L119.104 14.0915ZM124.653 19.7091C125.945 22.1561 126.612 25.1215 126.612 28.6416H128.612C128.612 24.87 127.896 21.5691 126.421 18.7753L124.653 19.7091ZM121.264 28.6416C121.264 24.7794 120.348 21.6185 118.394 19.2838L116.86 20.5677C118.421 22.4323 119.264 25.0819 119.264 28.6416H121.264ZM118.396 19.2868C116.418 16.9056 113.65 15.752 110.229 15.752V17.752C113.157 17.752 115.32 18.7142 116.858 20.5648L118.396 19.2868ZM110.229 15.752C106.769 15.752 103.974 16.8918 101.992 19.2594L103.526 20.5433C105.059 18.7117 107.245 17.752 110.229 17.752V15.752ZM101.994 19.2565C100.036 21.5776 99.1221 24.75 99.1221 28.6416H101.122C101.122 25.0463 101.966 22.3918 103.523 20.5462L101.994 19.2565ZM99.1221 28.6416C99.1221 31.2538 99.5459 33.5639 100.43 35.5434L102.256 34.7281C101.512 33.0618 101.122 31.0424 101.122 28.6416H99.1221ZM100.43 35.5434C101.312 37.5197 102.584 39.0837 104.257 40.1928L105.362 38.5259C104.04 37.6494 103.001 36.3976 102.256 34.7281L100.43 35.5434ZM104.267 40.1997C105.966 41.2952 107.95 41.8242 110.181 41.8242V39.8242C108.277 39.8242 106.681 39.3767 105.352 38.5191L104.267 40.1997ZM110.181 41.8242C113.644 41.8242 116.433 40.6742 118.399 38.2859L116.855 37.0149C115.338 38.8583 113.163 39.8242 110.181 39.8242V41.8242ZM118.396 38.2894C120.354 35.9323 121.264 32.6698 121.264 28.6416H119.264C119.264 32.3933 118.415 35.1367 116.858 37.0114L118.396 38.2894ZM139.38 44.9502L138.949 45.8526L138.954 45.8552L139.38 44.9502ZM134.424 40.4092L133.552 40.8984L133.553 40.9015L134.424 40.4092ZM132.739 11.6006V10.6006H131.739V11.6006H132.739ZM139.941 11.6006H140.941V10.6006H139.941V11.6006ZM141.87 38.749L141.13 39.4213L141.138 39.4301L141.87 38.749ZM153.516 38.6514L154.243 39.338L154.246 39.334L153.516 38.6514ZM155.591 11.6006V10.6006H154.591V11.6006H155.591ZM162.793 11.6006H163.793V10.6006H162.793V11.6006ZM160.962 40.165L160.103 39.6535L160.1 39.6586L160.962 40.165ZM155.713 44.877L156.137 45.7827L156.142 45.7802L155.713 44.877ZM147.388 45.4883C144.334 45.4883 141.819 44.9918 139.805 44.0452L138.954 45.8552C141.303 46.9594 144.127 47.4883 147.388 47.4883V45.4883ZM139.811 44.0478C137.803 43.089 136.31 41.7131 135.294 39.9169L133.553 40.9015C134.784 43.0766 136.594 44.7281 138.949 45.8526L139.811 44.0478ZM135.296 39.9199C134.275 38.1001 133.739 35.8445 133.739 33.1094H131.739C131.739 36.1034 132.326 38.7143 133.552 40.8984L135.296 39.9199ZM133.739 33.1094V11.6006H131.739V33.1094H133.739ZM132.739 12.6006H139.941V10.6006H132.739V12.6006ZM138.941 11.6006V32.5479H140.941V11.6006H138.941ZM138.941 32.5479C138.941 35.4104 139.618 37.7565 141.13 39.4213L142.61 38.0768C141.551 36.9095 140.941 35.1215 140.941 32.5479H138.941ZM141.138 39.4301C142.683 41.0914 144.89 41.8486 147.583 41.8486V39.8486C145.263 39.8486 143.661 39.2062 142.602 38.0679L141.138 39.4301ZM147.583 41.8486C150.349 41.8486 152.621 41.0547 154.243 39.338L152.789 37.9647C151.643 39.1778 149.96 39.8486 147.583 39.8486V41.8486ZM154.246 39.334C155.857 37.6099 156.591 35.2158 156.591 32.3037H154.591C154.591 34.8929 153.941 36.7306 152.785 37.9688L154.246 39.334ZM156.591 32.3037V11.6006H154.591V32.3037H156.591ZM155.591 12.6006H162.793V10.6006H155.591V12.6006ZM161.793 11.6006V32.7432H163.793V11.6006H161.793ZM161.793 32.7432C161.793 35.4988 161.213 37.7875 160.103 39.6536L161.821 40.6765C163.152 38.441 163.793 35.7818 163.793 32.7432H161.793ZM160.1 39.6586C159.004 41.5248 157.411 42.963 155.284 43.9737L156.142 45.7802C158.605 44.6099 160.511 42.9069 161.824 40.6715L160.1 39.6586ZM155.289 43.9713C153.159 44.9683 150.537 45.4883 147.388 45.4883V47.4883C150.749 47.4883 153.677 46.934 156.137 45.7826L155.289 43.9713ZM176.416 32.9385V31.9385H175.416V32.9385H176.416ZM176.416 46V47H177.416V46H176.416ZM169.214 46H168.214V47H169.214V46ZM169.214 11.6006V10.6006H168.214V11.6006H169.214ZM195.898 14.2617L195.276 15.0443L195.279 15.047L195.898 14.2617ZM197.192 28.1045L197.979 28.722L197.982 28.7184L197.192 28.1045ZM191.65 31.5469L191.419 30.574L190.045 30.9006L190.809 32.0881L191.65 31.5469ZM200.952 46V47H202.785L201.793 45.4588L200.952 46ZM192.847 46L191.993 46.5215L192.286 47H192.847V46ZM184.863 32.9385L185.717 32.417L185.424 31.9385H184.863V32.9385ZM190.405 18.4365L191.023 17.6498L190.405 18.4365ZM176.416 17.1914V16.1914H175.416V17.1914H176.416ZM176.416 27.3477H175.416V28.3477H176.416V27.3477ZM190.43 25.9805L189.771 25.2279L190.43 25.9805ZM175.416 32.9385V46H177.416V32.9385H175.416ZM176.416 45H169.214V47H176.416V45ZM170.214 46V11.6006H168.214V46H170.214ZM169.214 12.6006H186.401V10.6006H169.214V12.6006ZM186.401 12.6006C190.373 12.6006 193.286 13.4612 195.276 15.0443L196.521 13.4792C194.051 11.514 190.632 10.6006 186.401 10.6006V12.6006ZM195.279 15.047C197.228 16.5829 198.243 18.8004 198.243 21.8545H200.243C200.243 18.3005 199.029 15.4562 196.518 13.4764L195.279 15.047ZM198.243 21.8545C198.243 24.0603 197.622 25.923 196.403 27.4906L197.982 28.7184C199.497 26.7704 200.243 24.4664 200.243 21.8545H198.243ZM196.406 27.487C195.19 29.036 193.546 30.0684 191.419 30.574L191.882 32.5198C194.41 31.9186 196.461 30.6561 197.979 28.722L196.406 27.487ZM190.809 32.0881L200.111 46.5412L201.793 45.4588L192.491 31.0057L190.809 32.0881ZM200.952 45H192.847V47H200.952V45ZM193.7 45.4785L185.717 32.417L184.01 33.46L191.993 46.5215L193.7 45.4785ZM184.863 31.9385H176.416V33.9385H184.863V31.9385ZM192.992 22.1475C192.992 20.2722 192.376 18.7117 191.023 17.6498L189.788 19.2233C190.55 19.8215 190.992 20.735 190.992 22.1475H192.992ZM191.023 17.6498C189.713 16.6221 187.864 16.1914 185.645 16.1914V18.1914C187.657 18.1914 188.982 18.5908 189.788 19.2233L191.023 17.6498ZM185.645 16.1914H176.416V18.1914H185.645V16.1914ZM175.416 17.1914V27.3477H177.416V17.1914H175.416ZM176.416 28.3477H185.84V26.3477H176.416V28.3477ZM185.84 28.3477C187.992 28.3477 189.796 27.8634 191.088 26.733L189.771 25.2279C188.98 25.9204 187.725 26.3477 185.84 26.3477V28.3477ZM191.088 26.733C192.388 25.5958 192.992 24.0203 192.992 22.1475H190.992C190.992 23.5624 190.555 24.5422 189.771 25.2279L191.088 26.733ZM230.566 30.0576H231.566V29.0576H230.566V30.0576ZM230.566 36.0146V37.0146H231.566V36.0146H230.566ZM217.871 36.0146H216.871V37.0146H217.871V36.0146ZM217.871 30.0576V29.0576H216.871V30.0576H217.871ZM229.566 30.0576V36.0146H231.566V30.0576H229.566ZM230.566 35.0146H217.871V37.0146H230.566V35.0146ZM218.871 36.0146V30.0576H216.871V36.0146H218.871ZM217.871 31.0576H230.566V29.0576H217.871V31.0576ZM251.367 46.0488L251.616 45.0802L251.603 45.0771L251.367 46.0488ZM248.633 45.0234L247.684 44.7072L247.43 45.471L248.121 45.8827L248.633 45.0234ZM250.635 39.0176L251.062 38.1132L250.042 37.6323L249.686 38.7014L250.635 39.0176ZM256.494 39.6035L256.026 38.7197L256.015 38.7256L256.494 39.6035ZM258.057 38.1875L258.857 38.7875L258.864 38.7782L258.87 38.7687L258.057 38.1875ZM260.083 34.3545L260.991 34.773L261.212 34.2946L260.942 33.8422L260.083 34.3545ZM246.509 11.6006V10.6006H244.748L245.65 12.1129L246.509 11.6006ZM254.004 11.6006L254.872 11.105L254.585 10.6006H254.004V11.6006ZM263.477 28.2021L262.608 28.6977L263.594 30.4257L264.392 28.6035L263.477 28.2021ZM270.752 11.6006V10.6006H270.098L269.836 11.1992L270.752 11.6006ZM278.052 11.6006L278.953 12.0342L279.643 10.6006H278.052V11.6006ZM265.234 38.2363L264.333 37.8027L264.333 37.8042L265.234 38.2363ZM262.158 43.3633L262.914 44.0178L262.915 44.0169L262.158 43.3633ZM258.984 45.7559L259.374 46.677L259.38 46.6743L258.984 45.7559ZM254.81 45.4883C253.739 45.4883 252.676 45.3528 251.616 45.0803L251.118 47.0173C252.337 47.3308 253.568 47.4883 254.81 47.4883V45.4883ZM251.603 45.0771C250.519 44.8139 249.712 44.5021 249.144 44.1641L248.121 45.8827C248.921 46.3586 249.936 46.7304 251.131 47.0206L251.603 45.0771ZM249.581 45.3397L251.583 39.3338L249.686 38.7014L247.684 44.7072L249.581 45.3397ZM250.208 39.9219C251.742 40.6457 253.192 41.043 254.541 41.043V39.043C253.579 39.043 252.425 38.7567 251.062 38.1132L250.208 39.9219ZM254.541 41.043C255.432 41.043 256.257 40.8721 256.973 40.4814L256.015 38.7256C255.657 38.9208 255.18 39.043 254.541 39.043V41.043ZM256.962 40.4873C257.679 40.1079 258.305 39.5225 258.857 38.7875L257.257 37.5875C256.831 38.1546 256.416 38.5131 256.026 38.7197L256.962 40.4873ZM258.87 38.7687C259.42 37.9998 260.129 36.6434 260.991 34.773L259.175 33.9359C258.312 35.8091 257.67 37.008 257.243 37.6063L258.87 38.7687ZM260.942 33.8422L247.368 11.0883L245.65 12.1129L259.224 34.8668L260.942 33.8422ZM246.509 12.6006H254.004V10.6006H246.509V12.6006ZM253.135 12.0962L262.608 28.6977L264.345 27.7066L254.872 11.105L253.135 12.0962ZM264.392 28.6035L271.668 12.002L269.836 11.1992L262.561 27.8008L264.392 28.6035ZM270.752 12.6006H278.052V10.6006H270.752V12.6006ZM277.151 11.167L264.333 37.8027L266.135 38.6699L278.953 12.0342L277.151 11.167ZM264.333 37.8042C263.222 40.1225 262.242 41.7365 261.401 42.7097L262.915 44.0169C263.93 42.8416 265.001 41.0376 266.136 38.6684L264.333 37.8042ZM261.402 42.7088C260.544 43.7002 259.605 44.3998 258.589 44.8374L259.38 46.6743C260.707 46.1028 261.884 45.2074 262.914 44.0178L261.402 42.7088ZM258.595 44.8347C257.593 45.258 256.341 45.4883 254.81 45.4883V47.4883C256.533 47.4883 258.064 47.2303 259.374 46.677L258.595 44.8347ZM288.11 17.5576V16.5576H287.11V17.5576H288.11ZM288.11 46V47H289.11V46H288.11ZM280.933 46H279.933V47H280.933V46ZM280.933 11.6006V10.6006H279.933V11.6006H280.933ZM310.181 11.6006H311.181V10.6006H310.181V11.6006ZM310.181 46V47H311.181V46H310.181ZM303.223 46H302.223V47H303.223V46ZM303.223 17.5576H304.223V16.5576H303.223V17.5576ZM287.11 17.5576V46H289.11V17.5576H287.11ZM288.11 45H280.933V47H288.11V45ZM281.933 46V11.6006H279.933V46H281.933ZM280.933 12.6006H310.181V10.6006H280.933V12.6006ZM309.181 11.6006V46H311.181V11.6006H309.181ZM310.181 45H303.223V47H310.181V45ZM304.223 46V17.5576H302.223V46H304.223ZM303.223 16.5576H288.11V18.5576H303.223V16.5576ZM343.628 28.4219L342.768 27.911L342.767 27.9134L343.628 28.4219ZM339.307 32.4502L339.763 33.34L339.769 33.3368L339.307 32.4502ZM324.072 33.8906V32.8906H323.072V33.8906H324.072ZM324.072 46V47H325.072V46H324.072ZM316.87 46H315.87V47H316.87V46ZM316.87 11.6006V10.6006H315.87V11.6006H316.87ZM341.821 14.457L341.169 15.2151L341.175 15.2202L341.821 14.457ZM324.072 17.1914V16.1914H323.072V17.1914H324.072ZM324.072 28.3486H323.072V29.3486H324.072V28.3486ZM336.304 26.8838L336.976 27.6238L336.982 27.6182L336.304 26.8838ZM344.166 22.4893C344.166 24.5598 343.692 26.357 342.768 27.911L344.488 28.9328C345.615 27.0362 346.166 24.8784 346.166 22.4893H344.166ZM342.767 27.9134C341.859 29.4513 340.561 30.6677 338.844 31.5636L339.769 33.3368C341.795 32.2796 343.379 30.8105 344.489 28.9303L342.767 27.9134ZM338.85 31.5605C337.149 32.4335 335.082 32.8906 332.617 32.8906V34.8906C335.328 34.8906 337.721 34.3875 339.763 33.3399L338.85 31.5605ZM332.617 32.8906H324.072V34.8906H332.617V32.8906ZM323.072 33.8906V46H325.072V33.8906H323.072ZM324.072 45H316.87V47H324.072V45ZM317.87 46V11.6006H315.87V46H317.87ZM316.87 12.6006H332.324V10.6006H316.87V12.6006ZM332.324 12.6006C336.3 12.6006 339.199 13.5204 341.169 15.2151L342.473 13.699C340.016 11.5851 336.584 10.6006 332.324 10.6006V12.6006ZM341.175 15.2202C343.138 16.8823 344.166 19.2559 344.166 22.4893H346.166C346.166 18.789 344.964 15.8078 342.467 13.6939L341.175 15.2202ZM338.915 22.6113C338.915 20.6032 338.315 18.9293 336.962 17.7834C335.642 16.6644 333.768 16.1914 331.519 16.1914V18.1914C333.533 18.1914 334.858 18.6217 335.669 19.3093C336.449 19.9701 336.915 21.0062 336.915 22.6113H338.915ZM331.519 16.1914H324.072V18.1914H331.519V16.1914ZM323.072 17.1914V28.3486H325.072V17.1914H323.072ZM324.072 29.3486H331.714V27.3486H324.072V29.3486ZM331.714 29.3486C333.856 29.3486 335.66 28.8208 336.976 27.6237L335.631 26.1438C334.799 26.8999 333.543 27.3486 331.714 27.3486V29.3486ZM336.982 27.6182C338.313 26.388 338.915 24.666 338.915 22.6113H336.915C336.915 24.2676 336.442 25.3939 335.625 26.1494L336.982 27.6182ZM353.931 37.2109V36.2109H353.219L352.986 36.8829L353.931 37.2109ZM350.879 46V47H351.59L351.824 46.328L350.879 46ZM343.677 46L342.737 45.6573L342.247 47H343.677V46ZM356.226 11.6006V10.6006H355.526L355.286 11.2579L356.226 11.6006ZM364.722 11.6006L365.662 11.2591L365.422 10.6006H364.722V11.6006ZM377.222 46V47H378.649L378.162 45.6585L377.222 46ZM370.093 46L369.148 46.328L369.381 47H370.093V46ZM367.041 37.2109L367.986 36.8829L367.752 36.2109H367.041V37.2109ZM360.474 16.8984L361.427 16.5962L360.36 13.2308L359.503 16.6559L360.474 16.8984ZM359.155 21.1709L358.211 20.8424L358.209 20.8488L359.155 21.1709ZM355.542 31.791L354.595 31.4689L354.145 32.791H355.542V31.791ZM365.43 31.791V32.791H366.829L366.376 31.4671L365.43 31.791ZM361.719 20.9512L360.772 21.2743L360.773 21.2751L361.719 20.9512ZM352.986 36.8829L349.934 45.672L351.824 46.328L354.875 37.5389L352.986 36.8829ZM350.879 45H343.677V47H350.879V45ZM344.616 46.3427L357.165 11.9433L355.286 11.2579L342.737 45.6573L344.616 46.3427ZM356.226 12.6006H364.722V10.6006H356.226V12.6006ZM363.782 11.9421L376.282 46.3415L378.162 45.6585L365.662 11.2591L363.782 11.9421ZM377.222 45H370.093V47H377.222V45ZM371.037 45.672L367.986 36.8829L366.096 37.5389L369.148 46.328L371.037 45.672ZM367.041 36.2109H353.931V38.2109H367.041V36.2109ZM359.503 16.6559C359.348 17.2787 359.127 18.0377 358.838 18.9362L360.742 19.5482C361.039 18.6238 361.274 17.8202 361.444 17.141L359.503 16.6559ZM358.838 18.9362C358.545 19.8476 358.337 20.4804 358.211 20.8424L360.1 21.4994C360.234 21.1127 360.449 20.4597 360.742 19.5482L358.838 18.9362ZM358.209 20.8488L354.595 31.4689L356.489 32.1131L360.102 21.493L358.209 20.8488ZM355.542 32.791H365.43V30.791H355.542V32.791ZM366.376 31.4671L362.665 20.6273L360.773 21.2751L364.484 32.1149L366.376 31.4671ZM362.665 20.628C362.443 19.9769 362.236 19.3175 362.046 18.6501L360.122 19.1995C360.322 19.8993 360.539 20.5909 360.772 21.2743L362.665 20.628ZM362.046 18.6501C361.848 17.9574 361.641 17.2728 361.427 16.5962L359.52 17.2007C359.729 17.8587 359.93 18.525 360.122 19.1995L362.046 18.6501ZM381.909 46H380.909V47H381.909V46ZM381.909 11.6006V10.6006H380.909V11.6006H381.909ZM407.178 13.7979L406.614 14.6241L406.622 14.6289L407.178 13.7979ZM408.789 25.1992L408.011 24.5711L408.01 24.5722L408.789 25.1992ZM403.857 27.9092L403.649 26.9312L403.741 28.9024L403.857 27.9092ZM410.205 30.5459L409.502 31.257L409.51 31.2649L410.205 30.5459ZM401.685 17.9238L401.13 18.7559L401.136 18.7601L401.685 17.9238ZM389.111 16.9473V15.9473H388.111V16.9473H389.111ZM389.111 25.4678H388.111V26.4678H389.111V25.4678ZM401.782 24.418L402.391 25.2111L402.393 25.2096L401.782 24.418ZM389.111 30.79V29.79H388.111V30.79H389.111ZM389.111 40.6533H388.111V41.6533H389.111V40.6533ZM403.564 39.4082L404.182 40.1949L404.183 40.1937L403.564 39.4082ZM411.402 36.1855C411.402 39.0199 410.361 41.1241 408.298 42.6285L409.476 44.2445C412.1 42.3309 413.402 39.6012 413.402 36.1855H411.402ZM408.298 42.6285C406.185 44.1689 403.165 45 399.121 45V47C403.41 47 406.901 46.1221 409.476 44.2445L408.298 42.6285ZM399.121 45H381.909V47H399.121V45ZM382.909 46V11.6006H380.909V46H382.909ZM381.909 12.6006H397.656V10.6006H381.909V12.6006ZM397.656 12.6006C401.767 12.6006 404.706 13.3226 406.614 14.6241L407.741 12.9716C405.353 11.3434 401.944 10.6006 397.656 10.6006V12.6006ZM406.622 14.6289C408.48 15.8723 409.425 17.6917 409.425 20.2432H411.425C411.425 17.098 410.205 14.6205 407.734 12.9668L406.622 14.6289ZM409.425 20.2432C409.425 21.9979 408.94 23.4202 408.011 24.5711L409.567 25.8273C410.819 24.2764 411.425 22.3946 411.425 20.2432H409.425ZM408.01 24.5722C407.121 25.6774 405.71 26.4916 403.649 26.9312L404.066 28.8872C406.432 28.3827 408.309 27.3904 409.568 25.8262L408.01 24.5722ZM403.741 28.9024C406.385 29.2116 408.262 30.0312 409.502 31.257L410.908 29.8348C409.251 28.196 406.896 27.2578 403.974 26.916L403.741 28.9024ZM409.51 31.2649C410.75 32.4637 411.402 34.0684 411.402 36.1855H413.402C413.402 33.6151 412.59 31.4601 410.9 29.8269L409.51 31.2649ZM404.174 21.2197C404.174 19.4507 403.591 17.9784 402.233 17.0876L401.136 18.7601C401.763 19.1714 402.174 19.8963 402.174 21.2197H404.174ZM402.239 17.0918C401.023 16.281 399.333 15.9473 397.314 15.9473V17.9473C399.17 17.9473 400.393 18.2646 401.13 18.7559L402.239 17.0918ZM397.314 15.9473H389.111V17.9473H397.314V15.9473ZM388.111 16.9473V25.4678H390.111V16.9473H388.111ZM389.111 26.4678H397.363V24.4678H389.111V26.4678ZM397.363 26.4678C399.467 26.4678 401.215 26.1146 402.391 25.2111L401.173 23.6248C400.527 24.1211 399.328 24.4678 397.363 24.4678V26.4678ZM402.393 25.2096C403.618 24.264 404.174 22.8736 404.174 21.2197H402.174C402.174 22.3979 401.802 23.1396 401.171 23.6264L402.393 25.2096ZM406.176 35.624C406.176 33.7401 405.48 32.2 404.014 31.1782C402.614 30.2022 400.639 29.79 398.242 29.79V31.79C400.468 31.79 401.959 32.1835 402.87 32.8189C403.716 33.4084 404.176 34.2853 404.176 35.624H406.176ZM398.242 29.79H389.111V31.79H398.242V29.79ZM388.111 30.79V40.6533H390.111V30.79H388.111ZM389.111 41.6533H398.511V39.6533H389.111V41.6533ZM398.511 41.6533C400.901 41.6533 402.86 41.2319 404.182 40.1949L402.947 38.6215C402.153 39.2446 400.743 39.6533 398.511 39.6533V41.6533ZM404.183 40.1937C405.553 39.1149 406.176 37.5303 406.176 35.624H404.176C404.176 37.0706 403.725 38.0088 402.946 38.6227L404.183 40.1937ZM424.536 39.1641L425.489 39.4678L425.491 39.4627L424.536 39.1641ZM421.387 44.7305L420.73 43.9767L421.387 44.7305ZM413.623 45.9756H412.623V46.5677L413.142 46.8524L413.623 45.9756ZM413.623 39.9453L414.097 39.0648L412.623 38.2711V39.9453H413.623ZM415.942 39.7012L416.537 40.5053L416.548 40.4972L416.559 40.4887L415.942 39.7012ZM416.968 38.4072L417.847 38.8843L417.851 38.8764L416.968 38.4072ZM417.749 36.4541L416.798 36.1437L416.795 36.1558L417.749 36.4541ZM418.506 33.6221L419.482 33.8405L419.483 33.8365L418.506 33.6221ZM419.58 27.5674L418.594 27.403L418.592 27.4114L419.58 27.5674ZM421.924 11.6006V10.6006H421.053L420.933 11.4626L421.924 11.6006ZM445.166 11.6006H446.166V10.6006H445.166V11.6006ZM445.166 46V47H446.166V46H445.166ZM438.232 46H437.232V47H438.232V46ZM438.232 17.5576H439.232V16.5576H438.232V17.5576ZM428.296 17.5576V16.5576H427.427L427.306 17.4182L428.296 17.5576ZM427.1 26.0537L428.089 26.1966L428.09 26.1931L427.1 26.0537ZM423.583 38.8604C422.778 41.388 421.8 43.0432 420.73 43.9767L422.044 45.4842C423.512 44.2042 424.634 42.1484 425.489 39.4678L423.583 38.8604ZM420.73 43.9767C419.699 44.8751 418.181 45.3906 416.04 45.3906V47.3906C418.489 47.3906 420.535 46.7994 422.044 45.4842L420.73 43.9767ZM416.04 45.3906C414.973 45.3906 414.379 45.2497 414.104 45.0988L413.142 46.8524C413.876 47.2549 414.894 47.3906 416.04 47.3906V45.3906ZM414.623 45.9756V39.9453H412.623V45.9756H414.623ZM413.149 40.8258C413.592 41.0644 414.157 41.1162 414.673 41.1162V39.1162C414.464 39.1162 414.311 39.1038 414.205 39.0865C414.092 39.0682 414.07 39.0505 414.097 39.0648L413.149 40.8258ZM414.673 41.1162C415.356 41.1162 415.988 40.9111 416.537 40.5053L415.348 38.897C415.148 39.0446 414.934 39.1162 414.673 39.1162V41.1162ZM416.559 40.4887C417.072 40.0866 417.494 39.5332 417.847 38.8843L416.089 37.9301C415.823 38.4206 415.561 38.7298 415.326 38.9137L416.559 40.4887ZM417.851 38.8764C418.165 38.2845 418.447 37.5718 418.703 36.7524L416.795 36.1558C416.562 36.8989 416.324 37.4883 416.085 37.9381L417.851 38.8764ZM418.7 36.7645C418.973 35.9287 419.233 34.9526 419.482 33.8405L417.53 33.4036C417.291 34.4725 417.046 35.3844 416.798 36.1437L418.7 36.7645ZM419.483 33.8365C419.633 33.1528 419.79 32.3499 419.954 31.4297L417.985 31.0781C417.824 31.9808 417.672 32.7567 417.529 33.4077L419.483 33.8365ZM419.954 31.4297C420.119 30.5087 420.323 29.2724 420.568 27.7233L418.592 27.4114C418.349 28.9549 418.146 30.1762 417.985 31.0781L419.954 31.4297ZM420.566 27.7318C420.828 26.1601 421.147 24.0939 421.522 21.5356L419.543 21.2457C419.169 23.798 418.853 25.8497 418.594 27.403L420.566 27.7318ZM421.522 21.5356C421.896 18.977 422.361 15.7112 422.914 11.7386L420.933 11.4626C420.38 15.4327 419.917 18.6935 419.543 21.2457L421.522 21.5356ZM421.924 12.6006H445.166V10.6006H421.924V12.6006ZM444.166 11.6006V46H446.166V11.6006H444.166ZM445.166 45H438.232V47H445.166V45ZM439.232 46V17.5576H437.232V46H439.232ZM438.232 16.5576H428.296V18.5576H438.232V16.5576ZM427.306 17.4182L426.109 25.9143L428.09 26.1931L429.286 17.697L427.306 17.4182ZM426.11 25.9108C425.232 31.9928 424.386 36.2946 423.582 38.8655L425.491 39.4627C426.346 36.7275 427.21 32.2891 428.089 26.1966L426.11 25.9108ZM465.479 32.9385V31.9385H464.918L464.625 32.417L465.479 32.9385ZM457.495 46V47H458.056L458.348 46.5215L457.495 46ZM449.39 46L448.549 45.4588L447.557 47H449.39V46ZM458.691 31.5469L459.532 32.0881L460.297 30.9006L458.923 30.574L458.691 31.5469ZM453.149 28.1045L452.36 28.7184L452.363 28.722L453.149 28.1045ZM454.443 14.2617L455.062 15.047L455.063 15.0465L454.443 14.2617ZM481.128 11.6006H482.128V10.6006H481.128V11.6006ZM481.128 46V47H482.128V46H481.128ZM473.926 46H472.926V47H473.926V46ZM473.926 32.9385H474.926V31.9385H473.926V32.9385ZM459.888 25.9805L459.217 26.722L459.223 26.7276L459.229 26.733L459.888 25.9805ZM473.926 27.3477V28.3477H474.926V27.3477H473.926ZM473.926 17.1914H474.926V16.1914H473.926V17.1914ZM464.625 32.417L456.642 45.4785L458.348 46.5215L466.332 33.46L464.625 32.417ZM457.495 45H449.39V47H457.495V45ZM450.231 46.5412L459.532 32.0881L457.85 31.0057L448.549 45.4588L450.231 46.5412ZM458.923 30.574C456.796 30.0684 455.152 29.036 453.936 27.487L452.363 28.722C453.881 30.6561 455.932 31.9186 458.46 32.5198L458.923 30.574ZM453.939 27.4906C452.72 25.923 452.099 24.0603 452.099 21.8545H450.099C450.099 24.4664 450.845 26.7704 452.36 28.7184L453.939 27.4906ZM452.099 21.8545C452.099 18.8004 453.114 16.5829 455.062 15.047L453.824 13.4764C451.313 15.4562 450.099 18.3005 450.099 21.8545H452.099ZM455.063 15.0465C457.071 13.4605 459.986 12.6006 463.94 12.6006V10.6006C459.724 10.6006 456.308 11.5148 453.824 13.477L455.063 15.0465ZM463.94 12.6006H481.128V10.6006H463.94V12.6006ZM480.128 11.6006V46H482.128V11.6006H480.128ZM481.128 45H473.926V47H481.128V45ZM474.926 46V32.9385H472.926V46H474.926ZM473.926 31.9385H465.479V33.9385H473.926V31.9385ZM457.35 22.1475C457.35 24.0029 457.944 25.5708 459.217 26.722L460.559 25.2389C459.78 24.5346 459.35 23.5472 459.35 22.1475H457.35ZM459.229 26.733C460.522 27.8645 462.336 28.3477 464.502 28.3477V26.3477C462.598 26.3477 461.336 25.9193 460.546 25.2279L459.229 26.733ZM464.502 28.3477H473.926V26.3477H464.502V28.3477ZM474.926 27.3477V17.1914H472.926V27.3477H474.926ZM473.926 16.1914H464.697V18.1914H473.926V16.1914ZM464.697 16.1914C462.478 16.1914 460.629 16.6221 459.319 17.6498L460.554 19.2233C461.36 18.5908 462.685 18.1914 464.697 18.1914V16.1914ZM459.319 17.6498C457.966 18.7117 457.35 20.2722 457.35 22.1475H459.35C459.35 20.735 459.791 19.8215 460.554 19.2233L459.319 17.6498ZM510.864 19.5107L511.863 19.5562L509.992 19.0213L510.864 19.5107ZM495.996 46V47H496.582L496.868 46.4895L495.996 46ZM487.793 46H486.793V47H487.793V46ZM487.793 11.6006V10.6006H486.793V11.6006H487.793ZM494.189 11.6006H495.189V10.6006H494.189V11.6006ZM493.994 38.3096L492.995 38.262L494.867 38.7984L493.994 38.3096ZM508.96 11.6006V10.6006H508.374L508.088 11.1118L508.96 11.6006ZM517.065 11.6006H518.065V10.6006H517.065V11.6006ZM517.065 46V47H518.065V46H517.065ZM510.669 46H509.669V47H510.669V46ZM510.718 23.2217L511.717 23.2534V23.2529L510.718 23.2217ZM495.264 7.03516L494.626 7.8053L494.63 7.80842L495.264 7.03516ZM492.651 0.736328V-0.263672H491.605L491.652 0.781736L492.651 0.736328ZM498.12 0.736328L499.119 0.68614L499.071 -0.263672H498.12V0.736328ZM507.056 0.736328V-0.263672H506.105L506.057 0.68614L507.056 0.736328ZM512.524 0.736328L513.523 0.78148L513.571 -0.263672H512.524V0.736328ZM509.888 7.05957L510.521 7.83353L510.522 7.83284L509.888 7.05957ZM509.992 19.0213L495.124 45.5105L496.868 46.4895L511.736 20.0002L509.992 19.0213ZM495.996 45H487.793V47H495.996V45ZM488.793 46V11.6006H486.793V46H488.793ZM487.793 12.6006H494.189V10.6006H487.793V12.6006ZM493.189 11.6006V31.5957H495.189V11.6006H493.189ZM493.189 31.5957C493.189 32.4463 493.173 33.4291 493.141 34.5452L495.14 34.6032C495.173 33.4732 495.189 32.4704 495.189 31.5957H493.189ZM493.141 34.5452C493.109 35.6609 493.06 36.8997 492.995 38.262L494.993 38.3571C495.058 36.985 495.107 35.7336 495.14 34.6032L493.141 34.5452ZM494.867 38.7984L509.832 12.0894L508.088 11.1118L493.122 37.8207L494.867 38.7984ZM508.96 12.6006H517.065V10.6006H508.96V12.6006ZM516.065 11.6006V46H518.065V11.6006H516.065ZM517.065 45H510.669V47H517.065V45ZM511.669 46V25.7119H509.669V46H511.669ZM511.669 25.7119C511.669 25.0921 511.685 24.2738 511.717 23.2534L509.718 23.1899C509.686 24.2203 509.669 25.0622 509.669 25.7119H511.669ZM511.717 23.2529C511.75 22.2174 511.798 20.9853 511.863 19.5562L509.865 19.4653C509.8 20.9007 509.751 22.1427 509.718 23.1904L511.717 23.2529ZM502.588 8.03711C499.444 8.03711 497.272 7.38857 495.898 6.26189L494.63 7.80842C496.511 9.35101 499.221 10.0371 502.588 10.0371V8.03711ZM495.902 6.26503C494.579 5.16946 493.773 3.38225 493.65 0.69092L491.652 0.781736C491.79 3.81958 492.726 6.23158 494.626 7.80529L495.902 6.26503ZM492.651 1.73633H498.12V-0.263672H492.651V1.73633ZM497.121 0.786516C497.209 2.53202 497.66 4.01029 498.623 5.05702C499.607 6.1268 500.983 6.59473 502.588 6.59473V4.59473C501.377 4.59473 500.601 4.25292 500.095 3.70323C499.569 3.1305 499.194 2.17957 499.119 0.68614L497.121 0.786516ZM502.588 6.59473C504.192 6.59473 505.569 6.1268 506.553 5.05702C507.515 4.01029 507.967 2.53202 508.054 0.786516L506.057 0.68614C505.982 2.17957 505.607 3.1305 505.081 3.70323C504.575 4.25292 503.799 4.59473 502.588 4.59473V6.59473ZM507.056 1.73633H512.524V-0.263672H507.056V1.73633ZM511.525 0.691177C511.403 3.39773 510.59 5.19088 509.254 6.2863L510.522 7.83284C512.441 6.25899 513.385 3.83664 513.523 0.78148L511.525 0.691177ZM509.254 6.28561C507.898 7.39536 505.735 8.03711 502.588 8.03711V10.0371C505.951 10.0371 508.655 9.3605 510.521 7.83353L509.254 6.28561ZM562.793 34.2812L563.146 33.3457L562.216 32.9947L561.86 33.9225L562.793 34.2812ZM569.067 36.6494L569.994 37.0263L570.38 36.0761L569.42 35.7138L569.067 36.6494ZM563.11 44.0713L563.637 44.9217L563.638 44.9208L563.11 44.0713ZM544.336 44.3887L543.856 45.2659L543.86 45.2683L544.336 44.3887ZM538.403 38.2607L537.511 38.7123L537.513 38.7166L538.403 38.2607ZM544.092 13.1387L544.562 14.0215L544.566 14.0191L544.092 13.1387ZM563.281 13.5293L562.742 14.3712L562.745 14.3736L563.281 13.5293ZM568.628 20.6582L568.891 21.6229L569.904 21.3462L569.579 20.3479L568.628 20.6582ZM562.28 22.3916L561.326 22.6889L561.612 23.6106L562.544 23.3563L562.28 22.3916ZM559.106 18.29L558.558 19.1261L558.568 19.1326L559.106 18.29ZM546.143 19.7793L545.376 19.1367L545.373 19.1403L546.143 19.7793ZM544.775 35.3066L543.854 35.6966L543.858 35.7036L544.775 35.3066ZM548.193 39.4326L547.66 40.2786L547.671 40.2852L548.193 39.4326ZM553.735 41.8242C556.089 41.8242 558.149 41.2328 559.857 39.9991C561.56 38.7691 562.836 36.9561 563.726 34.64L561.86 33.9225C561.073 35.9684 560.002 37.4268 558.686 38.3779C557.374 39.3251 555.743 39.8242 553.735 39.8242V41.8242ZM562.44 35.2168L568.714 37.585L569.42 35.7138L563.146 33.3457L562.44 35.2168ZM568.141 36.2725C566.856 39.43 564.996 41.723 562.583 43.2218L563.638 44.9208C566.466 43.1643 568.576 40.5095 569.994 37.0263L568.141 36.2725ZM562.584 43.2209C560.166 44.7172 557.231 45.4883 553.735 45.4883V47.4883C557.531 47.4883 560.846 46.6481 563.637 44.9217L562.584 43.2209ZM553.735 45.4883C550.182 45.4883 547.221 44.8124 544.812 43.5091L543.86 45.2683C546.626 46.7644 549.932 47.4883 553.735 47.4883V45.4883ZM544.816 43.5114C542.407 42.1933 540.571 40.2989 539.293 37.8049L537.513 38.7166C538.97 41.5611 541.089 43.752 543.856 45.2659L544.816 43.5114ZM539.296 37.8092C538.031 35.3106 537.377 32.2667 537.377 28.6416H535.377C535.377 32.5034 536.074 35.8723 537.511 38.7123L539.296 37.8092ZM537.377 28.6416C537.377 24.9763 538.009 21.9489 539.224 19.5185L537.436 18.6241C536.047 21.4021 535.377 24.7548 535.377 28.6416H537.377ZM539.224 19.5185C540.435 17.0977 542.208 15.2736 544.562 14.0215L543.622 12.2558C540.897 13.7056 538.829 15.8366 537.436 18.6241L539.224 19.5185ZM544.566 14.0191C546.925 12.7491 549.861 12.0879 553.418 12.0879V10.0879C549.619 10.0879 546.337 10.7939 543.618 12.2582L544.566 14.0191ZM553.418 12.0879C557.326 12.0879 560.41 12.8763 562.742 14.3712L563.821 12.6874C561.075 10.9271 557.583 10.0879 553.418 10.0879V12.0879ZM562.745 14.3736C565.069 15.848 566.716 18.0247 567.677 20.9685L569.579 20.3479C568.489 17.0092 566.572 14.4333 563.817 12.685L562.745 14.3736ZM568.365 19.6935L562.017 21.4269L562.544 23.3563L568.891 21.6229L568.365 19.6935ZM563.235 22.0944C562.625 20.135 561.414 18.5785 559.645 17.4475L558.568 19.1326C559.956 20.0198 560.861 21.1977 561.326 22.6889L563.235 22.0944ZM559.655 17.454C557.907 16.3071 555.863 15.752 553.564 15.752V17.752C555.53 17.752 557.18 18.2222 558.558 19.1261L559.655 17.454ZM553.564 15.752C550.09 15.752 547.303 16.8394 545.376 19.1367L546.909 20.4219C548.367 18.6827 550.529 17.752 553.564 17.752V15.752ZM545.373 19.1403C543.49 21.4071 542.628 24.6272 542.628 28.6416H544.628C544.628 24.8761 545.442 22.188 546.912 20.4183L545.373 19.1403ZM542.628 28.6416C542.628 31.3688 543.023 33.732 543.855 35.6966L545.696 34.9167C544.998 33.268 544.628 31.1878 544.628 28.6416H542.628ZM543.858 35.7036C544.709 37.6736 545.973 39.2152 547.66 40.2785L548.727 38.5867C547.419 37.7621 546.404 36.5529 545.693 34.9097L543.858 35.7036ZM547.671 40.2852C549.374 41.3292 551.412 41.8242 553.735 41.8242V39.8242C551.697 39.8242 550.04 39.3915 548.716 38.58L547.671 40.2852ZM573.804 46H572.804V47H573.804V46ZM573.804 11.6006V10.6006H572.804V11.6006H573.804ZM599.072 13.7979L598.509 14.6241L598.516 14.6289L599.072 13.7979ZM600.684 25.1992L599.905 24.5711L599.905 24.5722L600.684 25.1992ZM595.752 27.9092L595.543 26.9312L595.636 28.9024L595.752 27.9092ZM602.1 30.5459L601.396 31.257L601.405 31.2649L602.1 30.5459ZM593.579 17.9238L593.024 18.7559L593.031 18.7601L593.579 17.9238ZM581.006 16.9473V15.9473H580.006V16.9473H581.006ZM581.006 25.4678H580.006V26.4678H581.006V25.4678ZM593.677 24.418L594.286 25.2111L594.288 25.2096L593.677 24.418ZM581.006 30.79V29.79H580.006V30.79H581.006ZM581.006 40.6533H580.006V41.6533H581.006V40.6533ZM595.459 39.4082L596.076 40.1949L596.078 40.1937L595.459 39.4082ZM603.297 36.1855C603.297 39.0199 602.255 41.1241 600.192 42.6285L601.37 44.2445C603.995 42.3309 605.297 39.6012 605.297 36.1855H603.297ZM600.192 42.6285C598.08 44.1689 595.06 45 591.016 45V47C595.305 47 598.795 46.1221 601.37 44.2445L600.192 42.6285ZM591.016 45H573.804V47H591.016V45ZM574.804 46V11.6006H572.804V46H574.804ZM573.804 12.6006H589.551V10.6006H573.804V12.6006ZM589.551 12.6006C593.662 12.6006 596.6 13.3226 598.509 14.6241L599.636 12.9716C597.247 11.3434 593.838 10.6006 589.551 10.6006V12.6006ZM598.516 14.6289C600.374 15.8723 601.319 17.6917 601.319 20.2432H603.319C603.319 17.098 602.1 14.6205 599.628 12.9668L598.516 14.6289ZM601.319 20.2432C601.319 21.9979 600.834 23.4202 599.905 24.5711L601.462 25.8273C602.714 24.2764 603.319 22.3946 603.319 20.2432H601.319ZM599.905 24.5722C599.015 25.6774 597.605 26.4916 595.543 26.9312L595.961 28.8872C598.326 28.3827 600.204 27.3904 601.463 25.8262L599.905 24.5722ZM595.636 28.9024C598.279 29.2116 600.157 30.0312 601.396 31.257L602.803 29.8348C601.145 28.196 598.791 27.2578 595.868 26.916L595.636 28.9024ZM601.405 31.2649C602.645 32.4637 603.297 34.0684 603.297 36.1855H605.297C605.297 33.6151 604.484 31.4601 602.795 29.8269L601.405 31.2649ZM596.068 21.2197C596.068 19.4507 595.486 17.9784 594.127 17.0876L593.031 18.7601C593.658 19.1714 594.068 19.8963 594.068 21.2197H596.068ZM594.134 17.0918C592.918 16.281 591.227 15.9473 589.209 15.9473V17.9473C591.064 17.9473 592.287 18.2646 593.024 18.7559L594.134 17.0918ZM589.209 15.9473H581.006V17.9473H589.209V15.9473ZM580.006 16.9473V25.4678H582.006V16.9473H580.006ZM581.006 26.4678H589.258V24.4678H581.006V26.4678ZM589.258 26.4678C591.362 26.4678 593.109 26.1146 594.286 25.2111L593.068 23.6248C592.421 24.1211 591.223 24.4678 589.258 24.4678V26.4678ZM594.288 25.2096C595.513 24.264 596.068 22.8736 596.068 21.2197H594.068C594.068 22.3979 593.696 23.1396 593.066 23.6264L594.288 25.2096ZM598.07 35.624C598.07 33.7401 597.374 32.2 595.909 31.1782C594.509 30.2022 592.533 29.79 590.137 29.79V31.79C592.362 31.79 593.854 32.1835 594.765 32.8189C595.611 33.4084 596.07 34.2853 596.07 35.624H598.07ZM590.137 29.79H581.006V31.79H590.137V29.79ZM580.006 30.79V40.6533H582.006V30.79H580.006ZM581.006 41.6533H590.405V39.6533H581.006V41.6533ZM590.405 41.6533C592.795 41.6533 594.755 41.2319 596.076 40.1949L594.842 38.6215C594.047 39.2446 592.638 39.6533 590.405 39.6533V41.6533ZM596.078 40.1937C597.447 39.1149 598.07 37.5303 598.07 35.624H596.07C596.07 37.0706 595.619 38.0088 594.84 38.6227L596.078 40.1937ZM639.99 38.041L639.11 37.5663L639.109 37.5682L639.99 38.041ZM633.911 44.2666L633.419 43.396L633.417 43.3974L633.911 44.2666ZM615.454 44.3398L614.966 45.2125L614.97 45.2148L615.454 44.3398ZM609.473 19.1934L608.588 18.7265L608.586 18.7308L609.473 19.1934ZM615.43 13.1875L615.901 14.0694L615.903 14.0683L615.43 13.1875ZM634.131 13.2119L633.651 14.0892L633.655 14.0915L634.131 13.2119ZM632.178 19.9258L631.409 20.5648L631.411 20.5677L632.178 19.9258ZM617.31 19.9014L618.074 20.5462L618.076 20.5433L617.31 19.9014ZM619.36 39.3594L618.808 40.1929L618.818 40.1997L619.36 39.3594ZM632.178 37.6504L631.409 37.0114L631.406 37.0149L632.178 37.6504ZM641.163 28.6416C641.163 32.0854 640.467 35.05 639.11 37.5663L640.87 38.5158C642.41 35.6609 643.163 32.3592 643.163 28.6416H641.163ZM639.109 37.5682C637.766 40.0719 635.874 42.0086 633.419 43.396L634.403 45.1372C637.189 43.5623 639.35 41.3487 640.871 38.5138L639.109 37.5682ZM633.417 43.3974C630.988 44.779 628.104 45.4883 624.731 45.4883V47.4883C628.39 47.4883 631.626 46.7165 634.406 45.1358L633.417 43.3974ZM624.731 45.4883C621.267 45.4883 618.349 44.7992 615.938 43.4649L614.97 45.2148C617.735 46.7451 621.001 47.4883 624.731 47.4883V45.4883ZM615.943 43.4672C613.528 42.1155 611.68 40.2012 610.385 37.7029L608.609 38.6232C610.081 41.4635 612.205 43.667 614.966 45.2124L615.943 43.4672ZM610.385 37.7029C609.09 35.2042 608.422 32.1951 608.422 28.6416H606.422C606.422 32.4448 607.137 35.7834 608.609 38.6232L610.385 37.7029ZM608.422 28.6416C608.422 25.0856 609.083 22.1028 610.359 19.6559L608.586 18.7308C607.128 21.5248 606.422 24.8408 606.422 28.6416H608.422ZM610.357 19.6602C611.648 17.2144 613.491 15.3578 615.901 14.0694L614.958 12.3056C612.193 13.7841 610.064 15.9315 608.588 18.7265L610.357 19.6602ZM615.903 14.0683C618.332 12.7627 621.279 12.0879 624.78 12.0879V10.0879C621.023 10.0879 617.736 10.8128 614.956 12.3067L615.903 14.0683ZM624.78 12.0879C628.297 12.0879 631.241 12.7706 633.651 14.0892L634.611 12.3347C631.845 10.8212 628.555 10.0879 624.78 10.0879V12.0879ZM633.655 14.0915C636.068 15.3964 637.912 17.2622 639.204 19.7091L640.972 18.7753C639.497 15.9812 637.37 13.8269 634.607 12.3323L633.655 14.0915ZM639.204 19.7091C640.495 22.1561 641.163 25.1215 641.163 28.6416H643.163C643.163 24.87 642.447 21.5691 640.972 18.7753L639.204 19.7091ZM635.814 28.6416C635.814 24.7794 634.899 21.6185 632.945 19.2838L631.411 20.5677C632.972 22.4323 633.814 25.0819 633.814 28.6416H635.814ZM632.947 19.2868C630.969 16.9056 628.2 15.752 624.78 15.752V17.752C627.708 17.752 629.871 18.7142 631.409 20.5648L632.947 19.2868ZM624.78 15.752C621.32 15.752 618.525 16.8918 616.543 19.2594L618.076 20.5433C619.61 18.7117 621.796 17.752 624.78 17.752V15.752ZM616.545 19.2565C614.587 21.5776 613.673 24.75 613.673 28.6416H615.673C615.673 25.0463 616.517 22.3918 618.074 20.5462L616.545 19.2565ZM613.673 28.6416C613.673 31.2538 614.097 33.5639 614.98 35.5434L616.807 34.7281C616.063 33.0618 615.673 31.0424 615.673 28.6416H613.673ZM614.98 35.5434C615.863 37.5197 617.135 39.0837 618.808 40.1928L619.913 38.5259C618.591 37.6494 617.552 36.3976 616.807 34.7281L614.98 35.5434ZM618.818 40.1997C620.516 41.2952 622.501 41.8242 624.731 41.8242V39.8242C622.828 39.8242 621.232 39.3767 619.902 38.5191L618.818 40.1997ZM624.731 41.8242C628.194 41.8242 630.984 40.6742 632.95 38.2859L631.406 37.0149C629.888 38.8583 627.714 39.8242 624.731 39.8242V41.8242ZM632.947 38.2894C634.905 35.9323 635.814 32.6698 635.814 28.6416H633.814C633.814 32.3933 632.966 35.1367 631.409 37.0114L632.947 38.2894ZM670.679 19.5107L671.678 19.5562L669.807 19.0213L670.679 19.5107ZM655.811 46V47H656.396L656.683 46.4895L655.811 46ZM647.607 46H646.607V47H647.607V46ZM647.607 11.6006V10.6006H646.607V11.6006H647.607ZM654.004 11.6006H655.004V10.6006H654.004V11.6006ZM653.809 38.3096L652.81 38.262L654.681 38.7984L653.809 38.3096ZM668.774 11.6006V10.6006H668.188L667.902 11.1118L668.774 11.6006ZM676.88 11.6006H677.88V10.6006H676.88V11.6006ZM676.88 46V47H677.88V46H676.88ZM670.483 46H669.483V47H670.483V46ZM670.532 23.2217L671.532 23.2534V23.2529L670.532 23.2217ZM669.807 19.0213L654.939 45.5105L656.683 46.4895L671.551 20.0002L669.807 19.0213ZM655.811 45H647.607V47H655.811V45ZM648.607 46V11.6006H646.607V46H648.607ZM647.607 12.6006H654.004V10.6006H647.607V12.6006ZM653.004 11.6006V31.5957H655.004V11.6006H653.004ZM653.004 31.5957C653.004 32.4463 652.988 33.4291 652.956 34.5452L654.955 34.6032C654.987 33.4732 655.004 32.4704 655.004 31.5957H653.004ZM652.956 34.5452C652.923 35.6609 652.875 36.8997 652.81 38.262L654.807 38.3571C654.873 36.985 654.922 35.7336 654.955 34.6032L652.956 34.5452ZM654.681 38.7984L669.647 12.0894L667.902 11.1118L652.936 37.8207L654.681 38.7984ZM668.774 12.6006H676.88V10.6006H668.774V12.6006ZM675.88 11.6006V46H677.88V11.6006H675.88ZM676.88 45H670.483V47H676.88V45ZM671.483 46V25.7119H669.483V46H671.483ZM671.483 25.7119C671.483 25.0921 671.499 24.2738 671.532 23.2534L669.533 23.1899C669.5 24.2203 669.483 25.0622 669.483 25.7119H671.483ZM671.532 23.2529C671.564 22.2174 671.613 20.9853 671.678 19.5562L669.68 19.4653C669.615 20.9007 669.565 22.1427 669.533 23.1904L671.532 23.2529ZM689.966 46V47H690.966V46H689.966ZM683.569 46H682.569V47H683.569V46ZM683.569 11.6006V10.6006H682.569V11.6006H683.569ZM693.213 11.6006L694.165 11.296L693.943 10.6006H693.213V11.6006ZM699.365 30.8389L700.334 30.5894L700.326 30.5616L700.318 30.5343L699.365 30.8389ZM700.22 34.0859L699.254 34.3454L699.255 34.3491L700.22 34.0859ZM701.074 37.3086L700.106 37.558L701.018 41.0993L702.035 37.5867L701.074 37.3086ZM701.587 35.4775L702.552 35.7385L702.554 35.732L701.587 35.4775ZM702.075 33.6221L701.115 33.344L701.111 33.3558L701.108 33.3676L702.075 33.6221ZM702.612 31.791L701.658 31.4921L701.656 31.4991L701.654 31.506L702.612 31.791ZM708.936 11.6006V10.6006H708.201L707.981 11.3017L708.936 11.6006ZM718.53 11.6006H719.53V10.6006H718.53V11.6006ZM718.53 46V47H719.53V46H718.53ZM712.134 46H711.134V47H712.134V46ZM712.183 22.3184L711.183 22.2843L711.183 22.2954L712.183 22.3184ZM712.378 17.6553L713.377 17.7038L711.41 17.4026L712.378 17.6553ZM710.864 23.2217L709.903 22.9456L709.9 22.9551L710.864 23.2217ZM709.814 26.8105L710.766 27.118L710.767 27.116L709.814 26.8105ZM703.613 46V47H704.341L704.565 46.3075L703.613 46ZM698.486 46L697.535 46.3075L697.759 47H698.486V46ZM692.285 26.8105L691.324 27.0849L691.328 27.1016L691.334 27.118L692.285 26.8105ZM689.673 17.6553L690.634 17.3809L688.674 17.7069L689.673 17.6553ZM689.893 22.3672L688.893 22.4061L688.893 22.4066L689.893 22.3672ZM688.966 25.1504V46H690.966V25.1504H688.966ZM689.966 45H683.569V47H689.966V45ZM684.569 46V11.6006H682.569V46H684.569ZM683.569 12.6006H693.213V10.6006H683.569V12.6006ZM692.26 11.9052L698.413 31.1435L700.318 30.5343L694.165 11.296L692.26 11.9052ZM698.397 31.0883C698.674 32.1659 698.96 33.2516 699.254 34.3454L701.185 33.8265C700.893 32.7393 700.609 31.6602 700.334 30.5894L698.397 31.0883ZM699.255 34.3491C699.547 35.4187 699.83 36.4884 700.106 37.558L702.043 37.0592C701.765 35.9804 701.479 34.9016 701.185 33.8228L699.255 34.3491ZM702.035 37.5867C702.215 36.9626 702.388 36.3466 702.552 35.7384L700.622 35.2166C700.46 35.8129 700.291 36.4176 700.114 37.0305L702.035 37.5867ZM702.554 35.732C702.564 35.6945 702.605 35.5376 702.615 35.5001C702.625 35.4626 702.666 35.3057 702.676 35.2682C702.686 35.2307 702.727 35.0737 702.737 35.0362C702.747 34.9987 702.788 34.8418 702.798 34.8043C702.874 34.5175 702.967 34.1634 703.042 33.8766L701.108 33.3676C701.098 33.4051 701.057 33.562 701.047 33.5995C701.037 33.637 700.996 33.7939 700.986 33.8314C700.976 33.8689 700.935 34.0259 700.925 34.0634C700.915 34.1009 700.874 34.2578 700.864 34.2953C700.789 34.5821 700.695 34.9362 700.62 35.223L702.554 35.732ZM703.036 33.9001C703.214 33.2839 703.393 32.6758 703.571 32.076L701.654 31.506C701.474 32.1106 701.294 32.7233 701.115 33.344L703.036 33.9001ZM703.567 32.0899L709.89 11.8995L707.981 11.3017L701.658 31.4921L703.567 32.0899ZM708.936 12.6006H718.53V10.6006H708.936V12.6006ZM717.53 11.6006V46H719.53V11.6006H717.53ZM718.53 45H712.134V47H718.53V45ZM713.134 46V25.1504H711.134V46H713.134ZM713.134 25.1504C713.134 24.6918 713.15 23.7593 713.182 22.3413L711.183 22.2954C711.15 23.7095 711.134 24.665 711.134 25.1504H713.134ZM713.182 22.3524C713.231 20.9257 713.296 19.3762 713.377 17.7038L711.379 17.6068C711.298 19.2872 711.232 20.8465 711.183 22.2843L713.182 22.3524ZM711.41 17.4026C710.842 19.5787 710.34 21.4259 709.903 22.9456L711.825 23.4978C712.268 21.9576 712.775 20.0939 713.345 17.908L711.41 17.4026ZM709.9 22.9551C709.479 24.4801 709.133 25.6614 708.862 26.5051L710.767 27.116C711.049 26.2344 711.404 25.0231 711.828 23.4883L709.9 22.9551ZM708.863 26.503L702.662 45.6925L704.565 46.3075L710.766 27.118L708.863 26.503ZM703.613 45H698.486V47H703.613V45ZM699.438 45.6925L693.237 26.503L691.334 27.118L697.535 46.3075L699.438 45.6925ZM693.247 26.5362L690.634 17.3809L688.711 17.9297L691.324 27.0849L693.247 26.5362ZM688.674 17.7069C688.772 19.5926 688.845 21.1586 688.893 22.4061L690.892 22.3283C690.843 21.0692 690.769 19.494 690.672 17.6036L688.674 17.7069ZM688.893 22.4066C688.942 23.6407 688.966 24.5524 688.966 25.1504H690.966C690.966 24.5114 690.941 23.5676 690.892 22.3277L688.893 22.4066ZM768.408 40.9707L769.247 41.5154L769.249 41.5115L768.408 40.9707ZM764.014 44.6816L764.433 45.5896L764.439 45.5866L764.014 44.6816ZM739.136 46H738.136V47H739.136V46ZM739.136 11.6006V10.6006H738.136V11.6006H739.136ZM765.039 11.6006H766.039V10.6006H765.039V11.6006ZM765.039 17.1426V18.1426H766.039V17.1426H765.039ZM746.338 17.1426V16.1426H745.338V17.1426H746.338ZM746.338 25.2969H745.338V26.2969H746.338V25.2969ZM766.846 27.9824L766.191 28.7383L766.194 28.7413L766.846 27.9824ZM760.962 32.084L760.367 32.8882L760.374 32.893L760.381 32.8977L760.962 32.084ZM746.338 30.8389V29.8389H745.338V30.8389H746.338ZM746.338 40.3848H745.338V41.3848H746.338V40.3848ZM761.011 39.1885L761.601 39.9957L761.603 39.9941L761.011 39.1885ZM768.946 35.4775C768.946 37.3708 768.479 39.0107 767.567 40.4299L769.249 41.5115C770.388 39.7406 770.946 37.7184 770.946 35.4775H768.946ZM767.57 40.426C766.657 41.8306 765.344 42.9511 763.588 43.7766L764.439 45.5866C766.492 44.6218 768.108 43.2683 769.247 41.5154L767.57 40.426ZM763.595 43.7737C761.85 44.5788 759.737 45 757.227 45V47C759.957 47 762.369 46.5423 764.433 45.5896L763.595 43.7737ZM757.227 45H739.136V47H757.227V45ZM740.136 46V11.6006H738.136V46H740.136ZM739.136 12.6006H765.039V10.6006H739.136V12.6006ZM764.039 11.6006V17.1426H766.039V11.6006H764.039ZM765.039 16.1426H746.338V18.1426H765.039V16.1426ZM745.338 17.1426V25.2969H747.338V17.1426H745.338ZM746.338 26.2969H758.008V24.2969H746.338V26.2969ZM758.008 26.2969C761.688 26.2969 764.367 27.1582 766.191 28.7383L767.5 27.2265C765.191 25.2259 761.978 24.2969 758.008 24.2969V26.2969ZM766.194 28.7413C767.999 30.2901 768.946 32.4877 768.946 35.4775H770.946C770.946 32.0221 769.826 29.2229 767.497 27.2236L766.194 28.7413ZM763.671 35.5752C763.671 33.7692 762.969 32.2889 761.543 31.2703L760.381 32.8977C761.233 33.5067 761.671 34.3538 761.671 35.5752H763.671ZM761.556 31.2798C760.185 30.2661 758.248 29.8389 755.908 29.8389V31.8389C758.06 31.8389 759.493 32.2418 760.367 32.8882L761.556 31.2798ZM755.908 29.8389H746.338V31.8389H755.908V29.8389ZM745.338 30.8389V40.3848H747.338V30.8389H745.338ZM746.338 41.3848H756.055V39.3848H746.338V41.3848ZM756.055 41.3848C758.357 41.3848 760.261 40.9758 761.601 39.9956L760.42 38.3813C759.58 38.9962 758.18 39.3848 756.055 39.3848V41.3848ZM761.603 39.9941C763.01 38.9598 763.671 37.4299 763.671 35.5752H761.671C761.671 36.9106 761.225 37.7896 760.418 38.3828L761.603 39.9941ZM775.342 46.0488L775.591 45.0802L775.578 45.0771L775.342 46.0488ZM772.607 45.0234L771.659 44.7072L771.404 45.471L772.096 45.8827L772.607 45.0234ZM774.609 39.0176L775.036 38.1132L774.017 37.6323L773.661 38.7014L774.609 39.0176ZM780.469 39.6035L780.001 38.7197L779.99 38.7256L780.469 39.6035ZM782.031 38.1875L782.831 38.7875L782.838 38.7782L782.845 38.7687L782.031 38.1875ZM784.058 34.3545L784.966 34.773L785.186 34.2946L784.916 33.8422L784.058 34.3545ZM770.483 11.6006V10.6006H768.722L769.625 12.1129L770.483 11.6006ZM777.979 11.6006L778.847 11.105L778.559 10.6006H777.979V11.6006ZM787.451 28.2021L786.583 28.6977L787.569 30.4257L788.367 28.6035L787.451 28.2021ZM794.727 11.6006V10.6006H794.073L793.811 11.1992L794.727 11.6006ZM802.026 11.6006L802.927 12.0342L803.617 10.6006H802.026V11.6006ZM789.209 38.2363L788.308 37.8027L788.307 37.8042L789.209 38.2363ZM786.133 43.3633L786.889 44.0178L786.89 44.0169L786.133 43.3633ZM782.959 45.7559L783.348 46.677L783.354 46.6743L782.959 45.7559ZM778.784 45.4883C777.714 45.4883 776.65 45.3528 775.591 45.0803L775.093 47.0173C776.312 47.3308 777.543 47.4883 778.784 47.4883V45.4883ZM775.578 45.0771C774.494 44.8139 773.687 44.5021 773.119 44.1641L772.096 45.8827C772.895 46.3586 773.911 46.7304 775.106 47.0206L775.578 45.0771ZM773.556 45.3397L775.558 39.3338L773.661 38.7014L771.659 44.7072L773.556 45.3397ZM774.183 39.9219C775.716 40.6457 777.167 41.043 778.516 41.043V39.043C777.553 39.043 776.4 38.7567 775.036 38.1132L774.183 39.9219ZM778.516 41.043C779.407 41.043 780.231 40.8721 780.948 40.4814L779.99 38.7256C779.632 38.9208 779.154 39.043 778.516 39.043V41.043ZM780.937 40.4873C781.653 40.1079 782.28 39.5225 782.831 38.7875L781.231 37.5875C780.806 38.1546 780.391 38.5131 780.001 38.7197L780.937 40.4873ZM782.845 38.7687C783.394 37.9998 784.104 36.6434 784.966 34.773L783.149 33.9359C782.286 35.8091 781.645 37.008 781.218 37.6063L782.845 38.7687ZM784.916 33.8422L771.342 11.0883L769.625 12.1129L783.199 34.8668L784.916 33.8422ZM770.483 12.6006H777.979V10.6006H770.483V12.6006ZM777.11 12.0962L786.583 28.6977L788.32 27.7066L778.847 11.105L777.11 12.0962ZM788.367 28.6035L795.642 12.002L793.811 11.1992L786.535 27.8008L788.367 28.6035ZM794.727 12.6006H802.026V10.6006H794.727V12.6006ZM801.125 11.167L788.308 37.8027L790.11 38.6699L802.927 12.0342L801.125 11.167ZM788.307 37.8042C787.196 40.1225 786.216 41.7365 785.376 42.7097L786.89 44.0169C787.905 42.8416 788.976 41.0376 790.111 38.6684L788.307 37.8042ZM785.377 42.7088C784.519 43.7002 783.58 44.3998 782.564 44.8374L783.354 46.6743C784.682 46.1028 785.859 45.2074 786.889 44.0178L785.377 42.7088ZM782.57 44.8347C781.568 45.258 780.316 45.4883 778.784 45.4883V47.4883C780.508 47.4883 782.039 47.2303 783.348 46.677L782.57 44.8347ZM805.566 46V45H804.566V46H805.566ZM805.566 55.9609V56.9609H806.566V55.9609H805.566ZM799.463 55.9609H798.463V56.9609H799.463V55.9609ZM799.463 40.043V39.043H798.463V40.043H799.463ZM803.271 40.043V41.043H803.863L804.148 40.5246L803.271 40.043ZM806.396 32.1572L807.357 32.4372L807.357 32.4359L806.396 32.1572ZM808.472 22.4648L809.462 22.6056L809.462 22.6007L808.472 22.4648ZM809.961 11.6006V10.6006H809.089L808.97 11.4648L809.961 11.6006ZM829.224 11.6006H830.224V10.6006H829.224V11.6006ZM829.224 40.043H828.224V41.043H829.224V40.043ZM833.74 40.043H834.74V39.043H833.74V40.043ZM833.74 55.9609V56.9609H834.74V55.9609H833.74ZM827.637 55.9609H826.637V56.9609H827.637V55.9609ZM827.637 46H828.637V45H827.637V46ZM810.815 40.043L809.911 39.6154L809.236 41.043H810.815V40.043ZM822.266 40.043V41.043H823.266V40.043H822.266ZM822.266 17.5576H823.266V16.5576H822.266V17.5576ZM815.869 17.5576V16.5576H814.993L814.878 17.4263L815.869 17.5576ZM815.112 23.2705L816.103 23.4089L816.104 23.4018L815.112 23.2705ZM812.476 35.5996L813.432 35.8918L813.433 35.8894L812.476 35.5996ZM804.566 46V55.9609H806.566V46H804.566ZM805.566 54.9609H799.463V56.9609H805.566V54.9609ZM800.463 55.9609V40.043H798.463V55.9609H800.463ZM799.463 41.043H803.271V39.043H799.463V41.043ZM804.148 40.5246C805.364 38.3112 806.431 35.6104 807.357 32.4372L805.436 31.8772C804.539 34.9541 803.522 37.5104 802.395 39.5613L804.148 40.5246ZM807.357 32.4359C808.282 29.2483 808.983 25.9713 809.462 22.6056L807.482 22.3241C807.016 25.599 806.334 28.7836 805.436 31.8786L807.357 32.4359ZM809.462 22.6007L810.952 11.7364L808.97 11.4648L807.481 22.329L809.462 22.6007ZM809.961 12.6006H829.224V10.6006H809.961V12.6006ZM828.224 11.6006V40.043H830.224V11.6006H828.224ZM829.224 41.043H833.74V39.043H829.224V41.043ZM832.74 40.043V55.9609H834.74V40.043H832.74ZM833.74 54.9609H827.637V56.9609H833.74V54.9609ZM828.637 55.9609V46H826.637V55.9609H828.637ZM827.637 45H805.566V47H827.637V45ZM810.815 41.043H822.266V39.043H810.815V41.043ZM823.266 40.043V17.5576H821.266V40.043H823.266ZM822.266 16.5576H815.869V18.5576H822.266V16.5576ZM814.878 17.4263L814.121 23.1392L816.104 23.4018L816.86 17.6889L814.878 17.4263ZM814.122 23.1321C813.816 25.3223 813.438 27.4629 812.987 29.5541L814.942 29.9752C815.403 27.8347 815.79 25.6458 816.103 23.4089L814.122 23.1321ZM812.987 29.5541C812.536 31.6476 812.047 33.5658 811.518 35.3098L813.433 35.8894C813.979 34.0853 814.482 32.1135 814.942 29.9752L812.987 29.5541ZM811.519 35.3074C810.991 37.0349 810.454 38.4677 809.911 39.6154L811.719 40.4705C812.316 39.2094 812.886 37.6799 813.432 35.8918L811.519 35.3074ZM840.186 46.0488L840.435 45.0802L840.422 45.0771L840.186 46.0488ZM837.451 45.0234L836.503 44.7072L836.248 45.471L836.94 45.8827L837.451 45.0234ZM839.453 39.0176L839.88 38.1132L838.861 37.6323L838.504 38.7014L839.453 39.0176ZM845.312 39.6035L844.845 38.7197L844.834 38.7256L845.312 39.6035ZM846.875 38.1875L847.675 38.7875L847.682 38.7782L847.689 38.7687L846.875 38.1875ZM848.901 34.3545L849.81 34.773L850.03 34.2946L849.76 33.8422L848.901 34.3545ZM835.327 11.6006V10.6006H833.566L834.468 12.1129L835.327 11.6006ZM842.822 11.6006L843.691 11.105L843.403 10.6006H842.822V11.6006ZM852.295 28.2021L851.426 28.6977L852.412 30.4257L853.211 28.6035L852.295 28.2021ZM859.57 11.6006V10.6006H858.917L858.654 11.1992L859.57 11.6006ZM866.87 11.6006L867.771 12.0342L868.461 10.6006H866.87V11.6006ZM854.053 38.2363L853.152 37.8027L853.151 37.8042L854.053 38.2363ZM850.977 43.3633L851.733 44.0178L851.733 44.0169L850.977 43.3633ZM847.803 45.7559L848.192 46.677L848.198 46.6743L847.803 45.7559ZM843.628 45.4883C842.558 45.4883 841.494 45.3528 840.435 45.0803L839.937 47.0173C841.156 47.3308 842.387 47.4883 843.628 47.4883V45.4883ZM840.422 45.0771C839.338 44.8139 838.53 44.5021 837.963 44.1641L836.94 45.8827C837.739 46.3586 838.755 46.7304 839.95 47.0206L840.422 45.0771ZM838.4 45.3397L840.402 39.3338L838.504 38.7014L836.503 44.7072L838.4 45.3397ZM839.026 39.9219C840.56 40.6457 842.011 41.043 843.359 41.043V39.043C842.397 39.043 841.243 38.7567 839.88 38.1132L839.026 39.9219ZM843.359 41.043C844.25 41.043 845.075 40.8721 845.791 40.4814L844.834 38.7256C844.476 38.9208 843.998 39.043 843.359 39.043V41.043ZM845.78 40.4873C846.497 40.1079 847.124 39.5225 847.675 38.7875L846.075 37.5875C845.65 38.1546 845.235 38.5131 844.845 38.7197L845.78 40.4873ZM847.689 38.7687C848.238 37.9998 848.948 36.6434 849.81 34.773L847.993 33.9359C847.13 35.8091 846.489 37.008 846.061 37.6063L847.689 38.7687ZM849.76 33.8422L836.186 11.0883L834.468 12.1129L848.043 34.8668L849.76 33.8422ZM835.327 12.6006H842.822V10.6006H835.327V12.6006ZM841.954 12.0962L851.426 28.6977L853.163 27.7066L843.691 11.105L841.954 12.0962ZM853.211 28.6035L860.486 12.002L858.654 11.1992L851.379 27.8008L853.211 28.6035ZM859.57 12.6006H866.87V10.6006H859.57V12.6006ZM865.969 11.167L853.152 37.8027L854.954 38.6699L867.771 12.0342L865.969 11.167ZM853.151 37.8042C852.04 40.1225 851.06 41.7365 850.22 42.7097L851.733 44.0169C852.748 42.8416 853.819 41.0376 854.955 38.6684L853.151 37.8042ZM850.221 42.7088C849.362 43.7002 848.423 44.3998 847.407 44.8374L848.198 46.6743C849.526 46.1028 850.703 45.2074 851.733 44.0178L850.221 42.7088ZM847.414 44.8347C846.412 45.258 845.16 45.4883 843.628 45.4883V47.4883C845.351 47.4883 846.882 47.2303 848.192 46.677L847.414 44.8347ZM869.751 46H868.751V47H869.751V46ZM869.751 11.6006V10.6006H868.751V11.6006H869.751ZM876.709 11.6006H877.709V10.6006H876.709V11.6006ZM876.709 40.043H875.709V41.043H876.709V40.043ZM887.524 40.043V41.043H888.524V40.043H887.524ZM887.524 11.6006V10.6006H886.524V11.6006H887.524ZM894.482 11.6006H895.482V10.6006H894.482V11.6006ZM894.482 40.043H893.482V41.043H894.482V40.043ZM905.273 40.043V41.043H906.273V40.043H905.273ZM905.273 11.6006V10.6006H904.273V11.6006H905.273ZM912.231 11.6006H913.231V10.6006H912.231V11.6006ZM912.231 40.043H911.231V41.043H912.231V40.043ZM916.992 40.043H917.992V39.043H916.992V40.043ZM916.992 55.9609V56.9609H917.992V55.9609H916.992ZM910.889 55.9609H909.889V56.9609H910.889V55.9609ZM910.889 46H911.889V45H910.889V46ZM870.751 46V11.6006H868.751V46H870.751ZM869.751 12.6006H876.709V10.6006H869.751V12.6006ZM875.709 11.6006V40.043H877.709V11.6006H875.709ZM876.709 41.043H887.524V39.043H876.709V41.043ZM888.524 40.043V11.6006H886.524V40.043H888.524ZM887.524 12.6006H894.482V10.6006H887.524V12.6006ZM893.482 11.6006V40.043H895.482V11.6006H893.482ZM894.482 41.043H905.273V39.043H894.482V41.043ZM906.273 40.043V11.6006H904.273V40.043H906.273ZM905.273 12.6006H912.231V10.6006H905.273V12.6006ZM911.231 11.6006V40.043H913.231V11.6006H911.231ZM912.231 41.043H916.992V39.043H912.231V41.043ZM915.992 40.043V55.9609H917.992V40.043H915.992ZM916.992 54.9609H910.889V56.9609H916.992V54.9609ZM911.889 55.9609V46H909.889V55.9609H911.889ZM910.889 45H869.751V47H910.889V45ZM943.774 19.5107L944.773 19.5562L942.902 19.0213L943.774 19.5107ZM928.906 46V47H929.492L929.778 46.4895L928.906 46ZM920.703 46H919.703V47H920.703V46ZM920.703 11.6006V10.6006H919.703V11.6006H920.703ZM927.1 11.6006H928.1V10.6006H927.1V11.6006ZM926.904 38.3096L925.905 38.262L927.777 38.7984L926.904 38.3096ZM941.87 11.6006V10.6006H941.284L940.998 11.1118L941.87 11.6006ZM949.976 11.6006H950.976V10.6006H949.976V11.6006ZM949.976 46V47H950.976V46H949.976ZM943.579 46H942.579V47H943.579V46ZM943.628 23.2217L944.627 23.2534V23.2529L943.628 23.2217ZM942.902 19.0213L928.034 45.5105L929.778 46.4895L944.646 20.0002L942.902 19.0213ZM928.906 45H920.703V47H928.906V45ZM921.703 46V11.6006H919.703V46H921.703ZM920.703 12.6006H927.1V10.6006H920.703V12.6006ZM926.1 11.6006V31.5957H928.1V11.6006H926.1ZM926.1 31.5957C926.1 32.4463 926.084 33.4291 926.051 34.5452L928.05 34.6032C928.083 33.4732 928.1 32.4704 928.1 31.5957H926.1ZM926.051 34.5452C926.019 35.6609 925.97 36.8997 925.905 38.262L927.903 38.3571C927.969 36.985 928.018 35.7336 928.05 34.6032L926.051 34.5452ZM927.777 38.7984L942.742 12.0894L940.998 11.1118L926.032 37.8207L927.777 38.7984ZM941.87 12.6006H949.976V10.6006H941.87V12.6006ZM948.976 11.6006V46H950.976V11.6006H948.976ZM949.976 45H943.579V47H949.976V45ZM944.579 46V25.7119H942.579V46H944.579ZM944.579 25.7119C944.579 25.0921 944.595 24.2738 944.627 23.2534L942.628 23.1899C942.596 24.2203 942.579 25.0622 942.579 25.7119H944.579ZM944.627 23.2529C944.66 22.2174 944.708 20.9853 944.773 19.5562L942.775 19.4653C942.71 20.9007 942.661 22.1427 942.628 23.1904L944.627 23.2529ZM963.062 46V47H964.062V46H963.062ZM956.665 46H955.665V47H956.665V46ZM956.665 11.6006V10.6006H955.665V11.6006H956.665ZM966.309 11.6006L967.261 11.296L967.039 10.6006H966.309V11.6006ZM972.461 30.8389L973.429 30.5894L973.422 30.5616L973.413 30.5343L972.461 30.8389ZM973.315 34.0859L972.35 34.3454L972.351 34.3491L973.315 34.0859ZM974.17 37.3086L973.202 37.558L974.114 41.0993L975.13 37.5867L974.17 37.3086ZM974.683 35.4775L975.648 35.7385L975.65 35.732L974.683 35.4775ZM975.171 33.6221L974.21 33.344L974.207 33.3558L974.204 33.3676L975.171 33.6221ZM975.708 31.791L974.754 31.4921L974.752 31.4991L974.749 31.506L975.708 31.791ZM982.031 11.6006V10.6006H981.297L981.077 11.3017L982.031 11.6006ZM991.626 11.6006H992.626V10.6006H991.626V11.6006ZM991.626 46V47H992.626V46H991.626ZM985.229 46H984.229V47H985.229V46ZM985.278 22.3184L984.279 22.2843L984.279 22.2954L985.278 22.3184ZM985.474 17.6553L986.472 17.7038L984.506 17.4026L985.474 17.6553ZM983.96 23.2217L982.999 22.9456L982.996 22.9551L983.96 23.2217ZM982.91 26.8105L983.862 27.118L983.862 27.116L982.91 26.8105ZM976.709 46V47H977.437L977.661 46.3075L976.709 46ZM971.582 46L970.63 46.3075L970.854 47H971.582V46ZM965.381 26.8105L964.419 27.0849L964.424 27.1016L964.429 27.118L965.381 26.8105ZM962.769 17.6553L963.73 17.3809L961.77 17.7069L962.769 17.6553ZM962.988 22.3672L961.989 22.4061L961.989 22.4066L962.988 22.3672ZM962.062 25.1504V46H964.062V25.1504H962.062ZM963.062 45H956.665V47H963.062V45ZM957.665 46V11.6006H955.665V46H957.665ZM956.665 12.6006H966.309V10.6006H956.665V12.6006ZM965.356 11.9052L971.508 31.1435L973.413 30.5343L967.261 11.296L965.356 11.9052ZM971.493 31.0883C971.77 32.1659 972.056 33.2516 972.35 34.3454L974.281 33.8265C973.989 32.7393 973.705 31.6602 973.429 30.5894L971.493 31.0883ZM972.351 34.3491C972.642 35.4187 972.926 36.4884 973.202 37.558L975.138 37.0592C974.86 35.9804 974.574 34.9016 974.28 33.8228L972.351 34.3491ZM975.13 37.5867C975.311 36.9626 975.484 36.3466 975.648 35.7384L973.717 35.2166C973.556 35.8129 973.387 36.4176 973.209 37.0305L975.13 37.5867ZM975.65 35.732C975.66 35.6945 975.701 35.5376 975.711 35.5001C975.721 35.4626 975.762 35.3057 975.772 35.2682C975.782 35.2307 975.823 35.0737 975.833 35.0362C975.843 34.9987 975.884 34.8418 975.894 34.8043C975.969 34.5175 976.062 34.1634 976.138 33.8766L974.204 33.3676C974.194 33.4051 974.153 33.562 974.143 33.5995C974.133 33.637 974.092 33.7939 974.082 33.8314C974.072 33.8689 974.031 34.0259 974.021 34.0634C974.011 34.1009 973.97 34.2578 973.96 34.2953C973.884 34.5821 973.791 34.9362 973.716 35.223L975.65 35.732ZM976.131 33.9001C976.31 33.2839 976.488 32.6758 976.667 32.076L974.749 31.506C974.57 32.1106 974.39 32.7233 974.21 33.344L976.131 33.9001ZM976.662 32.0899L982.986 11.8995L981.077 11.3017L974.754 31.4921L976.662 32.0899ZM982.031 12.6006H991.626V10.6006H982.031V12.6006ZM990.626 11.6006V46H992.626V11.6006H990.626ZM991.626 45H985.229V47H991.626V45ZM986.229 46V25.1504H984.229V46H986.229ZM986.229 25.1504C986.229 24.6918 986.245 23.7593 986.278 22.3413L984.279 22.2954C984.246 23.7095 984.229 24.665 984.229 25.1504H986.229ZM986.278 22.3524C986.326 20.9257 986.391 19.3762 986.472 17.7038L984.475 17.6068C984.393 19.2872 984.328 20.8465 984.279 22.2843L986.278 22.3524ZM984.506 17.4026C983.938 19.5787 983.435 21.4259 982.999 22.9456L984.921 23.4978C985.363 21.9576 985.87 20.0939 986.441 17.908L984.506 17.4026ZM982.996 22.9551C982.574 24.4801 982.229 25.6614 981.958 26.5051L983.862 27.116C984.145 26.2344 984.499 25.0231 984.924 23.4883L982.996 22.9551ZM981.959 26.503L975.757 45.6925L977.661 46.3075L983.862 27.118L981.959 26.503ZM976.709 45H971.582V47H976.709V45ZM972.534 45.6925L966.332 26.503L964.429 27.118L970.63 46.3075L972.534 45.6925ZM966.342 26.5362L963.73 17.3809L961.807 17.9297L964.419 27.0849L966.342 26.5362ZM961.77 17.7069C961.867 19.5926 961.94 21.1586 961.989 22.4061L963.988 22.3283C963.938 21.0692 963.865 19.494 963.767 17.6036L961.77 17.7069ZM961.989 22.4066C962.038 23.6407 962.062 24.5524 962.062 25.1504H964.062C964.062 24.5114 964.036 23.5676 963.987 22.3277L961.989 22.4066Z" fill="white"/>
</svg>
