<svg width="246" height="110" viewBox="0 0 246 110" fill="none" xmlns="http://www.w3.org/2000/svg">
<path d="M7.54688 20.2539V19.2539H6.54688V20.2539H7.54688ZM7.54688 35V36H8.54688V35H7.54688ZM0.344727 35H-0.655273V36H0.344727V35ZM0.344727 0.600586V-0.399414H-0.655273V0.600586H0.344727ZM7.54688 0.600586H8.54688V-0.399414H7.54688V0.600586ZM7.54688 14.2969H6.54688V15.2969H7.54688V14.2969ZM22.5371 14.2969V15.2969H23.5371V14.2969H22.5371ZM22.5371 0.600586V-0.399414H21.5371V0.600586H22.5371ZM29.7393 0.600586H30.7393V-0.399414H29.7393V0.600586ZM29.7393 35V36H30.7393V35H29.7393ZM22.5371 35H21.5371V36H22.5371V35ZM22.5371 20.2539H23.5371V19.2539H22.5371V20.2539ZM6.54688 20.2539V35H8.54688V20.2539H6.54688ZM7.54688 34H0.344727V36H7.54688V34ZM1.34473 35V0.600586H-0.655273V35H1.34473ZM0.344727 1.60059H7.54688V-0.399414H0.344727V1.60059ZM6.54688 0.600586V14.2969H8.54688V0.600586H6.54688ZM7.54688 15.2969H22.5371V13.2969H7.54688V15.2969ZM23.5371 14.2969V0.600586H21.5371V14.2969H23.5371ZM22.5371 1.60059H29.7393V-0.399414H22.5371V1.60059ZM28.7393 0.600586V35H30.7393V0.600586H28.7393ZM29.7393 34H22.5371V36H29.7393V34ZM23.5371 35V20.2539H21.5371V35H23.5371ZM22.5371 19.2539H7.54688V21.2539H22.5371V19.2539ZM44.6318 26.2109V25.2109H43.9205L43.6872 25.8829L44.6318 26.2109ZM41.5801 35V36H42.2914L42.5248 35.328L41.5801 35ZM34.3779 35L33.4385 34.6573L32.9487 36H34.3779V35ZM46.9268 0.600586V-0.399414H46.2271L45.9873 0.257879L46.9268 0.600586ZM55.4229 0.600586L56.3627 0.259057L56.1234 -0.399414H55.4229V0.600586ZM67.9229 35V36H69.3502L68.8627 34.6585L67.9229 35ZM60.7939 35L59.8493 35.328L60.0826 36H60.7939V35ZM57.7422 26.2109L58.6869 25.8829L58.4535 25.2109H57.7422V26.2109ZM51.1748 5.89844L52.128 5.59619L51.0609 2.23076L50.2047 5.6559L51.1748 5.89844ZM49.8564 10.1709L48.9119 9.84237L48.9097 9.8488L49.8564 10.1709ZM46.2432 20.791L45.2965 20.4689L44.8466 21.791H46.2432V20.791ZM56.1309 20.791V21.791H57.5302L57.077 20.4671L56.1309 20.791ZM52.4199 9.95117L51.4736 10.2743L51.4738 10.2751L52.4199 9.95117ZM43.6872 25.8829L40.6354 34.672L42.5248 35.328L45.5765 26.5389L43.6872 25.8829ZM41.5801 34H34.3779V36H41.5801V34ZM35.3174 35.3427L47.8662 0.943293L45.9873 0.257879L33.4385 34.6573L35.3174 35.3427ZM46.9268 1.60059H55.4229V-0.399414H46.9268V1.60059ZM54.483 0.942115L66.983 35.3415L68.8627 34.6585L56.3627 0.259057L54.483 0.942115ZM67.9229 34H60.7939V36H67.9229V34ZM61.7386 34.672L58.6869 25.8829L56.7975 26.5389L59.8493 35.328L61.7386 34.672ZM57.7422 25.2109H44.6318V27.2109H57.7422V25.2109ZM50.2047 5.6559C50.049 6.27874 49.828 7.03765 49.5392 7.93618L51.4432 8.5482C51.7404 7.62381 51.9751 6.82022 52.1449 6.14097L50.2047 5.6559ZM49.5392 7.93618C49.2462 8.84764 49.0378 9.48041 48.9119 9.84238L50.8009 10.4994C50.9355 10.1127 51.1503 9.45965 51.4432 8.5482L49.5392 7.93618ZM48.9097 9.8488L45.2965 20.4689L47.1899 21.1131L50.8032 10.493L48.9097 9.8488ZM46.2432 21.791H56.1309V19.791H46.2432V21.791ZM57.077 20.4671L53.366 9.62728L51.4738 10.2751L55.1848 21.1149L57.077 20.4671ZM53.3663 9.62803C53.1439 8.97685 52.9374 8.31754 52.7467 7.65008L50.8236 8.19953C51.0236 8.89925 51.2402 9.59086 51.4736 10.2743L53.3663 9.62803ZM52.7467 7.65008C52.5488 6.95742 52.3426 6.27279 52.128 5.59619L50.2216 6.20068C50.4302 6.85872 50.6309 7.525 50.8236 8.19953L52.7467 7.65008ZM116.165 0.600586H117.165V-0.399414H116.165V0.600586ZM116.165 35V36H117.165V35H116.165ZM72.6104 35H71.6104V36H72.6104V35ZM72.6104 0.600586V-0.399414H71.6104V0.600586H72.6104ZM79.5684 0.600586H80.5684V-0.399414H79.5684V0.600586ZM79.5684 29.043H78.5684V30.043H79.5684V29.043ZM90.8965 29.043V30.043H91.8965V29.043H90.8965ZM90.8965 0.600586V-0.399414H89.8965V0.600586H90.8965ZM97.8545 0.600586H98.8545V-0.399414H97.8545V0.600586ZM97.8545 29.043H96.8545V30.043H97.8545V29.043ZM109.207 29.043V30.043H110.207V29.043H109.207ZM109.207 0.600586V-0.399414H108.207V0.600586H109.207ZM115.165 0.600586V35H117.165V0.600586H115.165ZM116.165 34H72.6104V36H116.165V34ZM73.6104 35V0.600586H71.6104V35H73.6104ZM72.6104 1.60059H79.5684V-0.399414H72.6104V1.60059ZM78.5684 0.600586V29.043H80.5684V0.600586H78.5684ZM79.5684 30.043H90.8965V28.043H79.5684V30.043ZM91.8965 29.043V0.600586H89.8965V29.043H91.8965ZM90.8965 1.60059H97.8545V-0.399414H90.8965V1.60059ZM96.8545 0.600586V29.043H98.8545V0.600586H96.8545ZM97.8545 30.043H109.207V28.043H97.8545V30.043ZM110.207 29.043V0.600586H108.207V29.043H110.207ZM109.207 1.60059H116.165V-0.399414H109.207V1.60059ZM145.901 8.51074L146.9 8.55615L145.029 8.02128L145.901 8.51074ZM131.033 35V36H131.619L131.905 35.4895L131.033 35ZM122.83 35H121.83V36H122.83V35ZM122.83 0.600586V-0.399414H121.83V0.600586H122.83ZM129.227 0.600586H130.227V-0.399414H129.227V0.600586ZM129.031 27.3096L128.032 27.262L129.904 27.7984L129.031 27.3096ZM143.997 0.600586V-0.399414H143.411L143.125 0.111764L143.997 0.600586ZM152.103 0.600586H153.103V-0.399414H152.103V0.600586ZM152.103 35V36H153.103V35H152.103ZM145.706 35H144.706V36H145.706V35ZM145.755 12.2217L146.754 12.2534L146.754 12.2529L145.755 12.2217ZM145.029 8.02128L130.161 34.5105L131.905 35.4895L146.773 9.0002L145.029 8.02128ZM131.033 34H122.83V36H131.033V34ZM123.83 35V0.600586H121.83V35H123.83ZM122.83 1.60059H129.227V-0.399414H122.83V1.60059ZM128.227 0.600586V20.5957H130.227V0.600586H128.227ZM128.227 20.5957C128.227 21.4463 128.211 22.4291 128.178 23.5452L130.177 23.6032C130.21 22.4732 130.227 21.4704 130.227 20.5957H128.227ZM128.178 23.5452C128.146 24.6609 128.097 25.8997 128.032 27.262L130.03 27.3571C130.095 25.985 130.145 24.7336 130.177 23.6032L128.178 23.5452ZM129.904 27.7984L144.869 1.08941L143.125 0.111764L128.159 26.8207L129.904 27.7984ZM143.997 1.60059H152.103V-0.399414H143.997V1.60059ZM151.103 0.600586V35H153.103V0.600586H151.103ZM152.103 34H145.706V36H152.103V34ZM146.706 35V14.7119H144.706V35H146.706ZM146.706 14.7119C146.706 14.0921 146.722 13.2738 146.754 12.2534L144.755 12.1899C144.723 13.2203 144.706 14.0622 144.706 14.7119H146.706ZM146.754 12.2529C146.787 11.2174 146.835 9.98533 146.9 8.55615L144.902 8.46533C144.837 9.90074 144.788 11.1427 144.755 12.1904L146.754 12.2529ZM7.54688 85.2539V84.2539H6.54688V85.2539H7.54688ZM7.54688 100V101H8.54688V100H7.54688ZM0.344727 100H-0.655273V101H0.344727V100ZM0.344727 65.6006V64.6006H-0.655273V65.6006H0.344727ZM7.54688 65.6006H8.54688V64.6006H7.54688V65.6006ZM7.54688 79.2969H6.54688V80.2969H7.54688V79.2969ZM22.5371 79.2969V80.2969H23.5371V79.2969H22.5371ZM22.5371 65.6006V64.6006H21.5371V65.6006H22.5371ZM29.7393 65.6006H30.7393V64.6006H29.7393V65.6006ZM29.7393 100V101H30.7393V100H29.7393ZM22.5371 100H21.5371V101H22.5371V100ZM22.5371 85.2539H23.5371V84.2539H22.5371V85.2539ZM6.54688 85.2539V100H8.54688V85.2539H6.54688ZM7.54688 99H0.344727V101H7.54688V99ZM1.34473 100V65.6006H-0.655273V100H1.34473ZM0.344727 66.6006H7.54688V64.6006H0.344727V66.6006ZM6.54688 65.6006V79.2969H8.54688V65.6006H6.54688ZM7.54688 80.2969H22.5371V78.2969H7.54688V80.2969ZM23.5371 79.2969V65.6006H21.5371V79.2969H23.5371ZM22.5371 66.6006H29.7393V64.6006H22.5371V66.6006ZM28.7393 65.6006V100H30.7393V65.6006H28.7393ZM29.7393 99H22.5371V101H29.7393V99ZM23.5371 100V85.2539H21.5371V100H23.5371ZM22.5371 84.2539H7.54688V86.2539H22.5371V84.2539ZM44.6318 91.2109V90.2109H43.9205L43.6872 90.8829L44.6318 91.2109ZM41.5801 100V101H42.2914L42.5248 100.328L41.5801 100ZM34.3779 100L33.4385 99.6573L32.9487 101H34.3779V100ZM46.9268 65.6006V64.6006H46.2271L45.9873 65.2579L46.9268 65.6006ZM55.4229 65.6006L56.3627 65.2591L56.1234 64.6006H55.4229V65.6006ZM67.9229 100V101H69.3502L68.8627 99.6585L67.9229 100ZM60.7939 100L59.8493 100.328L60.0826 101H60.7939V100ZM57.7422 91.2109L58.6869 90.8829L58.4535 90.2109H57.7422V91.2109ZM51.1748 70.8984L52.128 70.5962L51.0609 67.2308L50.2047 70.6559L51.1748 70.8984ZM49.8564 75.1709L48.9119 74.8424L48.9097 74.8488L49.8564 75.1709ZM46.2432 85.791L45.2965 85.4689L44.8466 86.791H46.2432V85.791ZM56.1309 85.791V86.791H57.5302L57.077 85.4671L56.1309 85.791ZM52.4199 74.9512L51.4736 75.2743L51.4738 75.2751L52.4199 74.9512ZM43.6872 90.8829L40.6354 99.672L42.5248 100.328L45.5765 91.5389L43.6872 90.8829ZM41.5801 99H34.3779V101H41.5801V99ZM35.3174 100.343L47.8662 65.9433L45.9873 65.2579L33.4385 99.6573L35.3174 100.343ZM46.9268 66.6006H55.4229V64.6006H46.9268V66.6006ZM54.483 65.9421L66.983 100.342L68.8627 99.6585L56.3627 65.2591L54.483 65.9421ZM67.9229 99H60.7939V101H67.9229V99ZM61.7386 99.672L58.6869 90.8829L56.7975 91.5389L59.8493 100.328L61.7386 99.672ZM57.7422 90.2109H44.6318V92.2109H57.7422V90.2109ZM50.2047 70.6559C50.049 71.2787 49.828 72.0377 49.5392 72.9362L51.4432 73.5482C51.7404 72.6238 51.9751 71.8202 52.1449 71.141L50.2047 70.6559ZM49.5392 72.9362C49.2462 73.8476 49.0378 74.4804 48.9119 74.8424L50.8009 75.4994C50.9355 75.1127 51.1503 74.4596 51.4432 73.5482L49.5392 72.9362ZM48.9097 74.8488L45.2965 85.4689L47.1899 86.1131L50.8032 75.493L48.9097 74.8488ZM46.2432 86.791H56.1309V84.791H46.2432V86.791ZM57.077 85.4671L53.366 74.6273L51.4738 75.2751L55.1848 86.1149L57.077 85.4671ZM53.3663 74.628C53.1439 73.9769 52.9374 73.3175 52.7467 72.6501L50.8236 73.1995C51.0236 73.8993 51.2402 74.5909 51.4736 75.2743L53.3663 74.628ZM52.7467 72.6501C52.5488 71.9574 52.3426 71.2728 52.128 70.5962L50.2216 71.2007C50.4302 71.8587 50.6309 72.525 50.8236 73.1995L52.7467 72.6501ZM79.8125 71.167V70.167H78.8125V71.167H79.8125ZM79.8125 99.9756V100.976H80.8125V99.9756H79.8125ZM72.6104 99.9756H71.6104V100.976H72.6104V99.9756ZM72.6104 65.6006V64.6006H71.6104V65.6006H72.6104ZM96.6338 65.6006H97.6338V64.6006H96.6338V65.6006ZM96.6338 71.167V72.167H97.6338V71.167H96.6338ZM78.8125 71.167V99.9756H80.8125V71.167H78.8125ZM79.8125 98.9756H72.6104V100.976H79.8125V98.9756ZM73.6104 99.9756V65.6006H71.6104V99.9756H73.6104ZM72.6104 66.6006H96.6338V64.6006H72.6104V66.6006ZM95.6338 65.6006V71.167H97.6338V65.6006H95.6338ZM96.6338 70.167H79.8125V72.167H96.6338V70.167ZM127.737 82.4219L126.878 81.911L126.876 81.9134L127.737 82.4219ZM123.416 86.4502L123.872 87.34L123.879 87.3368L123.416 86.4502ZM108.182 87.8906V86.8906H107.182V87.8906H108.182ZM108.182 100V101H109.182V100H108.182ZM100.979 100H99.9795V101H100.979V100ZM100.979 65.6006V64.6006H99.9795V65.6006H100.979ZM125.931 68.457L125.278 69.2151L125.284 69.2202L125.931 68.457ZM108.182 71.1914V70.1914H107.182V71.1914H108.182ZM108.182 82.3486H107.182V83.3486H108.182V82.3486ZM120.413 80.8838L121.086 81.6238L121.092 81.6182L120.413 80.8838ZM128.275 76.4893C128.275 78.5598 127.801 80.357 126.878 81.911L128.597 82.9328C129.724 81.0362 130.275 78.8784 130.275 76.4893H128.275ZM126.876 81.9134C125.968 83.4513 124.671 84.6677 122.953 85.5636L123.879 87.3368C125.905 86.2796 127.488 84.8105 128.598 82.9303L126.876 81.9134ZM122.96 85.5605C121.258 86.4335 119.192 86.8906 116.727 86.8906V88.8906C119.437 88.8906 121.831 88.3875 123.872 87.3399L122.96 85.5605ZM116.727 86.8906H108.182V88.8906H116.727V86.8906ZM107.182 87.8906V100H109.182V87.8906H107.182ZM108.182 99H100.979V101H108.182V99ZM101.979 100V65.6006H99.9795V100H101.979ZM100.979 66.6006H116.434V64.6006H100.979V66.6006ZM116.434 66.6006C120.409 66.6006 123.309 67.5204 125.279 69.2151L126.583 67.699C124.126 65.5851 120.694 64.6006 116.434 64.6006V66.6006ZM125.284 69.2202C127.247 70.8823 128.275 73.2559 128.275 76.4893H130.275C130.275 72.789 129.074 69.8078 126.577 67.6939L125.284 69.2202ZM123.024 76.6113C123.024 74.6032 122.424 72.9293 121.072 71.7834C119.751 70.6644 117.878 70.1914 115.628 70.1914V72.1914C117.643 72.1914 118.967 72.6217 119.779 73.3093C120.559 73.9701 121.024 75.0062 121.024 76.6113H123.024ZM115.628 70.1914H108.182V72.1914H115.628V70.1914ZM107.182 71.1914V82.3486H109.182V71.1914H107.182ZM108.182 83.3486H115.823V81.3486H108.182V83.3486ZM115.823 83.3486C117.965 83.3486 119.769 82.8208 121.086 81.6237L119.74 80.1439C118.909 80.8999 117.652 81.3486 115.823 81.3486V83.3486ZM121.092 81.6182C122.423 80.388 123.024 78.666 123.024 76.6113H121.024C121.024 78.2676 120.552 79.3939 119.734 80.1494L121.092 81.6182ZM138.04 91.2109V90.2109H137.329L137.095 90.8829L138.04 91.2109ZM134.988 100V101H135.7L135.933 100.328L134.988 100ZM127.786 100L126.847 99.6573L126.357 101H127.786V100ZM140.335 65.6006V64.6006H139.635L139.396 65.2579L140.335 65.6006ZM148.831 65.6006L149.771 65.2591L149.532 64.6006H148.831V65.6006ZM161.331 100V101H162.758L162.271 99.6585L161.331 100ZM154.202 100L153.257 100.328L153.491 101H154.202V100ZM151.15 91.2109L152.095 90.8829L151.862 90.2109H151.15V91.2109ZM144.583 70.8984L145.536 70.5962L144.469 67.2308L143.613 70.6559L144.583 70.8984ZM143.265 75.1709L142.32 74.8424L142.318 74.8488L143.265 75.1709ZM139.651 85.791L138.705 85.4689L138.255 86.791H139.651V85.791ZM149.539 85.791V86.791H150.938L150.485 85.4671L149.539 85.791ZM145.828 74.9512L144.882 75.2743L144.882 75.2751L145.828 74.9512ZM137.095 90.8829L134.044 99.672L135.933 100.328L138.985 91.5389L137.095 90.8829ZM134.988 99H127.786V101H134.988V99ZM128.726 100.343L141.274 65.9433L139.396 65.2579L126.847 99.6573L128.726 100.343ZM140.335 66.6006H148.831V64.6006H140.335V66.6006ZM147.891 65.9421L160.391 100.342L162.271 99.6585L149.771 65.2591L147.891 65.9421ZM161.331 99H154.202V101H161.331V99ZM155.147 99.672L152.095 90.8829L150.206 91.5389L153.257 100.328L155.147 99.672ZM151.15 90.2109H138.04V92.2109H151.15V90.2109ZM143.613 70.6559C143.457 71.2787 143.236 72.0377 142.947 72.9362L144.851 73.5482C145.149 72.6238 145.383 71.8202 145.553 71.141L143.613 70.6559ZM142.947 72.9362C142.654 73.8476 142.446 74.4804 142.32 74.8424L144.209 75.4994C144.344 75.1127 144.558 74.4596 144.851 73.5482L142.947 72.9362ZM142.318 74.8488L138.705 85.4689L140.598 86.1131L144.211 75.493L142.318 74.8488ZM139.651 86.791H149.539V84.791H139.651V86.791ZM150.485 85.4671L146.774 74.6273L144.882 75.2751L148.593 86.1149L150.485 85.4671ZM146.774 74.628C146.552 73.9769 146.346 73.3175 146.155 72.6501L144.232 73.1995C144.432 73.8993 144.648 74.5909 144.882 75.2743L146.774 74.628ZM146.155 72.6501C145.957 71.9574 145.751 71.2728 145.536 70.5962L143.63 71.2007C143.838 71.8587 144.039 72.525 144.232 73.1995L146.155 72.6501ZM171.072 100V99H170.072V100H171.072ZM171.072 109.961V110.961H172.072V109.961H171.072ZM164.969 109.961H163.969V110.961H164.969V109.961ZM164.969 94.043V93.043H163.969V94.043H164.969ZM168.777 94.043V95.043H169.369L169.654 94.5246L168.777 94.043ZM171.902 86.1572L172.862 86.4372L172.863 86.4359L171.902 86.1572ZM173.978 76.4648L174.968 76.6056L174.968 76.6007L173.978 76.4648ZM175.467 65.6006V64.6006H174.595L174.476 65.4648L175.467 65.6006ZM194.729 65.6006H195.729V64.6006H194.729V65.6006ZM194.729 94.043H193.729V95.043H194.729V94.043ZM199.246 94.043H200.246V93.043H199.246V94.043ZM199.246 109.961V110.961H200.246V109.961H199.246ZM193.143 109.961H192.143V110.961H193.143V109.961ZM193.143 100H194.143V99H193.143V100ZM176.321 94.043L175.417 93.6154L174.742 95.043H176.321V94.043ZM187.771 94.043V95.043H188.771V94.043H187.771ZM187.771 71.5576H188.771V70.5576H187.771V71.5576ZM181.375 71.5576V70.5576H180.499L180.384 71.4263L181.375 71.5576ZM180.618 77.2705L181.609 77.4089L181.609 77.4018L180.618 77.2705ZM177.981 89.5996L178.938 89.8918L178.939 89.8894L177.981 89.5996ZM170.072 100V109.961H172.072V100H170.072ZM171.072 108.961H164.969V110.961H171.072V108.961ZM165.969 109.961V94.043H163.969V109.961H165.969ZM164.969 95.043H168.777V93.043H164.969V95.043ZM169.654 94.5246C170.87 92.3112 171.937 89.6104 172.862 86.4372L170.942 85.8772C170.045 88.9541 169.028 91.5104 167.901 93.5613L169.654 94.5246ZM172.863 86.4359C173.788 83.2483 174.489 79.9713 174.968 76.6056L172.987 76.3241C172.522 79.599 171.84 82.7836 170.942 85.8786L172.863 86.4359ZM174.968 76.6007L176.458 65.7364L174.476 65.4648L172.987 76.329L174.968 76.6007ZM175.467 66.6006H194.729V64.6006H175.467V66.6006ZM193.729 65.6006V94.043H195.729V65.6006H193.729ZM194.729 95.043H199.246V93.043H194.729V95.043ZM198.246 94.043V109.961H200.246V94.043H198.246ZM199.246 108.961H193.143V110.961H199.246V108.961ZM194.143 109.961V100H192.143V109.961H194.143ZM193.143 99H171.072V101H193.143V99ZM176.321 95.043H187.771V93.043H176.321V95.043ZM188.771 94.043V71.5576H186.771V94.043H188.771ZM187.771 70.5576H181.375V72.5576H187.771V70.5576ZM180.384 71.4263L179.627 77.1392L181.609 77.4018L182.366 71.6889L180.384 71.4263ZM179.628 77.1321C179.322 79.3223 178.944 81.4629 178.493 83.5541L180.448 83.9752C180.909 81.8347 181.296 79.6458 181.609 77.4089L179.628 77.1321ZM178.493 83.5541C178.042 85.6476 177.552 87.5658 177.024 89.3098L178.939 89.8894C179.485 88.0853 179.988 86.1135 180.448 83.9752L178.493 83.5541ZM177.025 89.3074C176.497 91.0349 175.96 92.4677 175.417 93.6154L177.225 94.4705C177.822 93.2094 178.391 91.6799 178.938 89.8918L177.025 89.3074ZM231.814 94.9707L232.653 95.5154L232.656 95.5115L231.814 94.9707ZM227.42 98.6816L227.839 99.5896L227.845 99.5866L227.42 98.6816ZM203.519 100H202.519V101H203.519V100ZM203.519 65.6006V64.6006H202.519V65.6006H203.519ZM210.721 65.6006H211.721V64.6006H210.721V65.6006ZM210.721 79.2969H209.721V80.2969H210.721V79.2969ZM230.252 81.9824L229.597 82.7383L229.601 82.7413L230.252 81.9824ZM245.779 65.6006H246.779V64.6006H245.779V65.6006ZM245.779 100V101H246.779V100H245.779ZM238.577 100H237.577V101H238.577V100ZM238.577 65.6006V64.6006H237.577V65.6006H238.577ZM224.368 86.084L223.774 86.8882L223.78 86.893L223.787 86.8977L224.368 86.084ZM210.721 84.8389V83.8389H209.721V84.8389H210.721ZM210.721 94.3848H209.721V95.3848H210.721V94.3848ZM224.417 93.1885L225.007 93.9957L225.009 93.9941L224.417 93.1885ZM232.353 89.4775C232.353 91.3708 231.886 93.0107 230.973 94.4299L232.656 95.5115C233.794 93.7406 234.353 91.7184 234.353 89.4775H232.353ZM230.976 94.426C230.064 95.8306 228.751 96.9511 226.994 97.7766L227.845 99.5866C229.898 98.6218 231.515 97.2683 232.653 95.5154L230.976 94.426ZM227.001 97.7737C225.256 98.5788 223.144 99 220.633 99V101C223.363 101 225.775 100.542 227.839 99.5896L227.001 97.7737ZM220.633 99H203.519V101H220.633V99ZM204.519 100V65.6006H202.519V100H204.519ZM203.519 66.6006H210.721V64.6006H203.519V66.6006ZM209.721 65.6006V79.2969H211.721V65.6006H209.721ZM210.721 80.2969H221.414V78.2969H210.721V80.2969ZM221.414 80.2969C225.094 80.2969 227.773 81.1582 229.597 82.7383L230.907 81.2265C228.597 79.2259 225.384 78.2969 221.414 78.2969V80.2969ZM229.601 82.7413C231.405 84.2901 232.353 86.4877 232.353 89.4775H234.353C234.353 86.0221 233.233 83.2229 230.903 81.2236L229.601 82.7413ZM244.779 65.6006V100H246.779V65.6006H244.779ZM245.779 99H238.577V101H245.779V99ZM239.577 100V65.6006H237.577V100H239.577ZM238.577 66.6006H245.779V64.6006H238.577V66.6006ZM227.077 89.5752C227.077 87.7692 226.376 86.2889 224.949 85.2702L223.787 86.8977C224.639 87.5067 225.077 88.3538 225.077 89.5752H227.077ZM224.963 85.2798C223.591 84.2661 221.654 83.8389 219.314 83.8389V85.8389C221.467 85.8389 222.899 86.2418 223.774 86.8882L224.963 85.2798ZM219.314 83.8389H210.721V85.8389H219.314V83.8389ZM209.721 84.8389V94.3848H211.721V84.8389H209.721ZM210.721 95.3848H219.461V93.3848H210.721V95.3848ZM219.461 95.3848C221.763 95.3848 223.667 94.9758 225.007 93.9956L223.827 92.3813C222.986 92.9962 221.586 93.3848 219.461 93.3848V95.3848ZM225.009 93.9941C226.416 92.9598 227.077 91.4299 227.077 89.5752H225.077C225.077 90.9106 224.631 91.7896 223.825 92.3828L225.009 93.9941Z" fill="white"/>
</svg>
