<svg width="370" height="106" viewBox="0 0 370 106" fill="none" xmlns="http://www.w3.org/2000/svg">
<path d="M29.9 40H22.35V26.2C20.25 26.9333 18.3167 27.4833 16.55 27.85C14.8167 28.2167 13.0667 28.4 11.3 28.4C7.96667 28.4 5.35 27.6 3.45 26C1.58333 24.3667 0.65 22.05 0.65 19.05V4.3H8.2V16.9C8.2 18.6333 8.6 19.9333 9.4 20.8C10.2 21.6667 11.55 22.1 13.45 22.1C14.85 22.1 16.25 21.95 17.65 21.65C19.05 21.35 20.6167 20.9 22.35 20.3V4.3H29.9V40ZM45.477 23.5C45.477 24.0667 45.4436 24.7667 45.377 25.6C45.3436 26.4333 45.2936 27.2833 45.227 28.15C45.1936 29.0167 45.1436 29.7833 45.077 30.45C45.0103 31.1167 44.9603 31.5833 44.927 31.85L57.527 12.7H66.477V40H59.277V29.1C59.277 28.2 59.3103 27.2167 59.377 26.15C59.4436 25.05 59.5103 24.0333 59.577 23.1C59.677 22.1333 59.7436 21.4 59.777 20.9L47.227 40H38.277V12.7H45.477V23.5ZM96.8633 18.3H87.9133V40H80.4633V18.3H71.5133V12.7H96.8633V18.3ZM113.1 12.15C116.767 12.15 119.567 12.95 121.5 14.55C123.467 16.1167 124.45 18.5333 124.45 21.8V40H119.25L117.8 36.3H117.6C116.833 37.2667 116.033 38.0667 115.2 38.7C114.4 39.3333 113.467 39.7833 112.4 40.05C111.367 40.35 110.083 40.5 108.55 40.5C106.95 40.5 105.5 40.2 104.2 39.6C102.933 38.9667 101.933 38.0167 101.2 36.75C100.467 35.45 100.1 33.8167 100.1 31.85C100.1 28.95 101.117 26.8167 103.15 25.45C105.183 24.05 108.233 23.2833 112.3 23.15L117.05 23V21.8C117.05 20.3667 116.667 19.3167 115.9 18.65C115.167 17.9833 114.133 17.65 112.8 17.65C111.467 17.65 110.167 17.85 108.9 18.25C107.633 18.6167 106.367 19.0833 105.1 19.65L102.65 14.6C104.117 13.8333 105.733 13.2333 107.5 12.8C109.3 12.3667 111.167 12.15 113.1 12.15ZM114.15 27.45C111.75 27.5167 110.083 27.95 109.15 28.75C108.217 29.55 107.75 30.6 107.75 31.9C107.75 33.0333 108.083 33.85 108.75 34.35C109.417 34.8167 110.283 35.05 111.35 35.05C112.95 35.05 114.3 34.5833 115.4 33.65C116.5 32.6833 117.05 31.3333 117.05 29.6V27.35L114.15 27.45ZM158.226 0.949999C158.059 2.68333 157.576 4.21667 156.776 5.55C155.976 6.85 154.726 7.86667 153.026 8.6C151.326 9.33333 149.042 9.7 146.176 9.7C143.242 9.7 140.942 9.35 139.276 8.65C137.642 7.91666 136.476 6.9 135.776 5.6C135.076 4.3 134.659 2.75 134.526 0.949999H141.176C141.342 2.78333 141.809 4 142.576 4.6C143.342 5.2 144.592 5.5 146.326 5.5C147.759 5.5 148.926 5.18333 149.826 4.55C150.759 3.88333 151.309 2.68333 151.476 0.949999H158.226ZM139.276 23.5C139.276 24.0667 139.242 24.7667 139.176 25.6C139.142 26.4333 139.092 27.2833 139.026 28.15C138.992 29.0167 138.942 29.7833 138.876 30.45C138.809 31.1167 138.759 31.5833 138.726 31.85L151.326 12.7H160.276V40H153.076V29.1C153.076 28.2 153.109 27.2167 153.176 26.15C153.242 25.05 153.309 24.0333 153.376 23.1C153.476 22.1333 153.542 21.4 153.576 20.9L141.026 40H132.076V12.7H139.276V23.5ZM190.662 18.3H181.712V40H174.262V18.3H165.312V12.7H190.662V18.3ZM206.461 12.2C208.994 12.2 211.161 12.6833 212.961 13.65C214.794 14.6167 216.211 16.0167 217.211 17.85C218.211 19.6833 218.711 21.9333 218.711 24.6V28.2H201.111C201.177 30.3 201.794 31.95 202.961 33.15C204.161 34.35 205.811 34.95 207.911 34.95C209.677 34.95 211.277 34.7833 212.711 34.45C214.144 34.0833 215.627 33.5333 217.161 32.8V38.55C215.827 39.2167 214.411 39.7 212.911 40C211.444 40.3333 209.661 40.5 207.561 40.5C204.827 40.5 202.411 40 200.311 39C198.211 37.9667 196.561 36.4167 195.361 34.35C194.161 32.2833 193.561 29.6833 193.561 26.55C193.561 23.35 194.094 20.7 195.161 18.6C196.261 16.4667 197.777 14.8667 199.711 13.8C201.644 12.7333 203.894 12.2 206.461 12.2ZM206.511 17.5C205.077 17.5 203.877 17.9667 202.911 18.9C201.977 19.8333 201.427 21.2833 201.261 23.25H211.711C211.711 22.15 211.511 21.1667 211.111 20.3C210.744 19.4333 210.177 18.75 209.411 18.25C208.644 17.75 207.677 17.5 206.511 17.5ZM9.35 77.7V88.2H19.75V77.7H27.2V105H19.75V93.75H9.35V105H1.9V77.7H9.35ZM46.2055 77.15C49.8721 77.15 52.6721 77.95 54.6055 79.55C56.5721 81.1167 57.5555 83.5333 57.5555 86.8V105H52.3555L50.9055 101.3H50.7055C49.9388 102.267 49.1388 103.067 48.3055 103.7C47.5055 104.333 46.5721 104.783 45.5055 105.05C44.4721 105.35 43.1888 105.5 41.6555 105.5C40.0555 105.5 38.6055 105.2 37.3055 104.6C36.0388 103.967 35.0388 103.017 34.3055 101.75C33.5721 100.45 33.2055 98.8167 33.2055 96.85C33.2055 93.95 34.2221 91.8167 36.2555 90.45C38.2888 89.05 41.3388 88.2833 45.4055 88.15L50.1555 88V86.8C50.1555 85.3667 49.7721 84.3167 49.0055 83.65C48.2721 82.9833 47.2388 82.65 45.9055 82.65C44.5721 82.65 43.2721 82.85 42.0055 83.25C40.7388 83.6167 39.4721 84.0833 38.2055 84.65L35.7555 79.6C37.2221 78.8333 38.8388 78.2333 40.6055 77.8C42.4055 77.3667 44.2721 77.15 46.2055 77.15ZM47.2555 92.45C44.8555 92.5167 43.1888 92.95 42.2555 93.75C41.3221 94.55 40.8555 95.6 40.8555 96.9C40.8555 98.0333 41.1888 98.85 41.8555 99.35C42.5221 99.8167 43.3888 100.05 44.4555 100.05C46.0555 100.05 47.4055 99.5833 48.5055 98.65C49.6055 97.6833 50.1555 96.3333 50.1555 94.6V92.35L47.2555 92.45ZM105.831 77.7V105H65.1813V77.7H72.6313V99.4H81.7813V77.7H89.2313V99.4H98.3813V77.7H105.831ZM120.819 88.5C120.819 89.0667 120.785 89.7667 120.719 90.6C120.685 91.4333 120.635 92.2833 120.569 93.15C120.535 94.0167 120.485 94.7833 120.419 95.45C120.352 96.1167 120.302 96.5833 120.269 96.85L132.869 77.7H141.819V105H134.619V94.1C134.619 93.2 134.652 92.2167 134.719 91.15C134.785 90.05 134.852 89.0333 134.919 88.1C135.019 87.1333 135.085 86.4 135.119 85.9L122.569 105H113.619V77.7H120.819V88.5Z" fill="#FEFEFE"/>
<path d="M29.9 40V41H30.9V40H29.9ZM22.35 40H21.35V41H22.35V40ZM22.35 26.2H23.35V24.7916L22.0203 25.2559L22.35 26.2ZM16.55 27.85L16.3468 26.8709L16.343 26.8717L16.55 27.85ZM3.45 26L2.7915 26.7526L2.79862 26.7588L2.80586 26.7649L3.45 26ZM0.65 4.3V3.3H-0.35V4.3H0.65ZM8.2 4.3H9.2V3.3H8.2V4.3ZM9.4 20.8L8.6652 21.4783L9.4 20.8ZM17.65 21.65L17.4405 20.6722L17.65 21.65ZM22.35 20.3L22.6771 21.245L23.35 21.0121V20.3H22.35ZM22.35 4.3V3.3H21.35V4.3H22.35ZM29.9 4.3H30.9V3.3H29.9V4.3ZM29.9 39H22.35V41H29.9V39ZM23.35 40V26.2H21.35V40H23.35ZM22.0203 25.2559C19.9526 25.978 18.0621 26.5149 16.3468 26.8709L16.7532 28.8291C18.5713 28.4518 20.5474 27.8887 22.6797 27.1441L22.0203 25.2559ZM16.343 26.8717C14.6776 27.224 12.9969 27.4 11.3 27.4V29.4C13.1364 29.4 14.9558 29.2094 16.757 28.8284L16.343 26.8717ZM11.3 27.4C8.12134 27.4 5.76028 26.6382 4.09414 25.2351L2.80586 26.7649C4.93972 28.5618 7.812 29.4 11.3 29.4V27.4ZM4.10851 25.2474C2.50397 23.8435 1.65 21.8276 1.65 19.05H-0.35C-0.35 22.2724 0.662693 24.8899 2.7915 26.7526L4.10851 25.2474ZM1.65 19.05V4.3H-0.35V19.05H1.65ZM0.65 5.3H8.2V3.3H0.65V5.3ZM7.2 4.3V16.9H9.2V4.3H7.2ZM7.2 16.9C7.2 18.7685 7.62952 20.3563 8.6652 21.4783L10.1348 20.1217C9.57048 19.5104 9.2 18.4982 9.2 16.9H7.2ZM8.6652 21.4783C9.74338 22.6463 11.4365 23.1 13.45 23.1V21.1C11.6635 21.1 10.6566 20.687 10.1348 20.1217L8.6652 21.4783ZM13.45 23.1C14.922 23.1 16.3922 22.9422 17.8595 22.6278L17.4405 20.6722C16.1078 20.9578 14.778 21.1 13.45 21.1V23.1ZM17.8595 22.6278C19.3086 22.3173 20.9154 21.8548 22.6771 21.245L22.0229 19.355C20.3179 19.9452 18.7914 20.3827 17.4405 20.6722L17.8595 22.6278ZM23.35 20.3V4.3H21.35V20.3H23.35ZM22.35 5.3H29.9V3.3H22.35V5.3ZM28.9 4.3V40H30.9V4.3H28.9ZM45.377 25.6L44.3801 25.5203L44.3785 25.5401L44.3778 25.56L45.377 25.6ZM45.227 28.15L44.2299 28.0733L44.2284 28.0924L44.2277 28.1116L45.227 28.15ZM45.077 30.45L46.072 30.5495L45.077 30.45ZM44.927 31.85L43.9347 31.726L45.7623 32.3997L44.927 31.85ZM57.527 12.7V11.7H56.9879L56.6916 12.1503L57.527 12.7ZM66.477 12.7H67.477V11.7H66.477V12.7ZM66.477 40V41H67.477V40H66.477ZM59.277 40H58.277V41H59.277V40ZM59.377 26.15L60.375 26.2124L60.3751 26.2105L59.377 26.15ZM59.577 23.1L58.5823 22.9971L58.5806 23.0129L58.5795 23.0288L59.577 23.1ZM59.777 20.9L60.7747 20.9665L61.0275 17.1758L58.9412 20.3509L59.777 20.9ZM47.227 40V41H47.7664L48.0627 40.5491L47.227 40ZM38.277 40H37.277V41H38.277V40ZM38.277 12.7V11.7H37.277V12.7H38.277ZM45.477 12.7H46.477V11.7H45.477V12.7ZM44.477 23.5C44.477 24.0308 44.4456 24.7023 44.3801 25.5203L46.3738 25.6797C46.4417 24.8311 46.477 24.1025 46.477 23.5H44.477ZM44.3778 25.56C44.3449 26.3806 44.2957 27.2184 44.2299 28.0733L46.224 28.2267C46.2916 27.3483 46.3423 26.4861 46.3762 25.64L44.3778 25.56ZM44.2277 28.1116C44.1949 28.9634 44.1461 29.709 44.0819 30.3505L46.072 30.5495C46.1412 29.8576 46.1923 29.0699 46.2262 28.1884L44.2277 28.1116ZM44.0819 30.3505C44.0152 31.0175 43.9663 31.473 43.9347 31.726L45.9192 31.974C45.9543 31.6937 46.0054 31.2159 46.072 30.5495L44.0819 30.3505ZM45.7623 32.3997L58.3623 13.2497L56.6916 12.1503L44.0916 31.3003L45.7623 32.3997ZM57.527 13.7H66.477V11.7H57.527V13.7ZM65.477 12.7V40H67.477V12.7H65.477ZM66.477 39H59.277V41H66.477V39ZM60.277 40V29.1H58.277V40H60.277ZM60.277 29.1C60.277 28.2242 60.3094 27.262 60.375 26.2124L58.3789 26.0876C58.3112 27.1713 58.277 28.1758 58.277 29.1H60.277ZM60.3751 26.2105C60.4416 25.1135 60.508 24.1004 60.5744 23.1712L58.5795 23.0288C58.5125 23.9662 58.4456 24.9865 58.3788 26.0895L60.3751 26.2105ZM60.5716 23.2029C60.672 22.2331 60.7402 21.4852 60.7747 20.9665L58.7792 20.8335C58.7471 21.3148 58.6819 22.0336 58.5823 22.9971L60.5716 23.2029ZM58.9412 20.3509L46.3912 39.4509L48.0627 40.5491L60.6127 21.4491L58.9412 20.3509ZM47.227 39H38.277V41H47.227V39ZM39.277 40V12.7H37.277V40H39.277ZM38.277 13.7H45.477V11.7H38.277V13.7ZM44.477 12.7V23.5H46.477V12.7H44.477ZM96.8633 18.3V19.3H97.8633V18.3H96.8633ZM87.9133 18.3V17.3H86.9133V18.3H87.9133ZM87.9133 40V41H88.9133V40H87.9133ZM80.4633 40H79.4633V41H80.4633V40ZM80.4633 18.3H81.4633V17.3H80.4633V18.3ZM71.5133 18.3H70.5133V19.3H71.5133V18.3ZM71.5133 12.7V11.7H70.5133V12.7H71.5133ZM96.8633 12.7H97.8633V11.7H96.8633V12.7ZM96.8633 17.3H87.9133V19.3H96.8633V17.3ZM86.9133 18.3V40H88.9133V18.3H86.9133ZM87.9133 39H80.4633V41H87.9133V39ZM81.4633 40V18.3H79.4633V40H81.4633ZM80.4633 17.3H71.5133V19.3H80.4633V17.3ZM72.5133 18.3V12.7H70.5133V18.3H72.5133ZM71.5133 13.7H96.8633V11.7H71.5133V13.7ZM95.8633 12.7V18.3H97.8633V12.7H95.8633ZM121.5 14.55L120.862 15.3204L120.87 15.3263L120.877 15.3322L121.5 14.55ZM124.45 40V41H125.45V40H124.45ZM119.25 40L118.319 40.3649L118.568 41H119.25V40ZM117.8 36.3L118.731 35.9351L118.482 35.3H117.8V36.3ZM117.6 36.3V35.3H117.117L116.817 35.6786L117.6 36.3ZM115.2 38.7L114.595 37.9038L114.587 37.9098L114.579 37.916L115.2 38.7ZM112.4 40.05L112.157 39.0799L112.139 39.0844L112.121 39.0897L112.4 40.05ZM104.2 39.6L103.753 40.4944L103.767 40.5014L103.781 40.508L104.2 39.6ZM101.2 36.75L100.329 37.2414L100.335 37.251L101.2 36.75ZM103.15 25.45L103.708 26.28L103.717 26.2736L103.15 25.45ZM112.3 23.15L112.268 22.1505L112.267 22.1505L112.3 23.15ZM117.05 23L117.082 23.9995L118.05 23.9689V23H117.05ZM115.9 18.65L115.227 19.3899L115.235 19.3974L115.244 19.4046L115.9 18.65ZM108.9 18.25L109.178 19.2106L109.19 19.2072L109.201 19.2036L108.9 18.25ZM105.1 19.65L104.2 20.0865L104.623 20.9587L105.508 20.5628L105.1 19.65ZM102.65 14.6L102.187 13.7138L101.327 14.1633L101.75 15.0365L102.65 14.6ZM107.5 12.8L107.266 11.8278L107.262 11.8288L107.5 12.8ZM114.15 27.45L114.178 28.4496L114.184 28.4494L114.15 27.45ZM109.15 28.75L108.499 27.9907L109.15 28.75ZM108.75 34.35L108.15 35.15L108.163 35.1598L108.177 35.1692L108.75 34.35ZM115.4 33.65L116.047 34.4125L116.054 34.4069L116.06 34.4012L115.4 33.65ZM117.05 27.35H118.05V26.3149L117.016 26.3506L117.05 27.35ZM113.1 13.15C116.638 13.15 119.175 13.9239 120.862 15.3204L122.138 13.7796C119.958 11.9761 116.895 11.15 113.1 11.15V13.15ZM120.877 15.3322C122.538 16.6551 123.45 18.7392 123.45 21.8H125.45C125.45 18.3275 124.396 15.5782 122.123 13.7678L120.877 15.3322ZM123.45 21.8V40H125.45V21.8H123.45ZM124.45 39H119.25V41H124.45V39ZM120.181 39.6351L118.731 35.9351L116.869 36.6649L118.319 40.3649L120.181 39.6351ZM117.8 35.3H117.6V37.3H117.8V35.3ZM116.817 35.6786C116.093 36.5911 115.351 37.3291 114.595 37.9038L115.805 39.4962C116.716 38.8042 117.574 37.9422 118.383 36.9214L116.817 35.6786ZM114.579 37.916C113.899 38.4544 113.097 38.8449 112.157 39.0799L112.643 41.0201C113.836 40.7217 114.901 40.2123 115.821 39.484L114.579 37.916ZM112.121 39.0897C111.208 39.3548 110.025 39.5 108.55 39.5V41.5C110.141 41.5 111.525 41.3452 112.679 41.0103L112.121 39.0897ZM108.55 39.5C107.078 39.5 105.773 39.2246 104.619 38.692L103.781 40.508C105.227 41.1754 106.822 41.5 108.55 41.5V39.5ZM104.647 38.7056C103.562 38.1627 102.704 37.3524 102.065 36.249L100.335 37.251C101.162 38.6809 102.305 39.7706 103.753 40.4944L104.647 38.7056ZM102.071 36.2587C101.445 35.1488 101.1 33.6975 101.1 31.85H99.1C99.1 33.9358 99.4884 35.7512 100.329 37.2413L102.071 36.2587ZM101.1 31.85C101.1 29.2125 102.005 27.4247 103.708 26.2799L102.592 24.62C100.229 26.2086 99.1 28.6875 99.1 31.85H101.1ZM103.717 26.2736C105.521 25.0317 108.346 24.2802 112.333 24.1495L112.267 22.1505C108.121 22.2865 104.846 23.0683 102.583 24.6264L103.717 26.2736ZM112.332 24.1495L117.082 23.9995L117.018 22.0005L112.268 22.1505L112.332 24.1495ZM118.05 23V21.8H116.05V23H118.05ZM118.05 21.8C118.05 20.2003 117.62 18.8201 116.556 17.8954L115.244 19.4046C115.714 19.8133 116.05 20.533 116.05 21.8H118.05ZM116.573 17.9101C115.6 17.0254 114.295 16.65 112.8 16.65V18.65C113.972 18.65 114.734 18.9412 115.227 19.3899L116.573 17.9101ZM112.8 16.65C111.365 16.65 109.963 16.8655 108.599 17.2964L109.201 19.2036C110.37 18.8345 111.568 18.65 112.8 18.65V16.65ZM108.622 17.2894C107.309 17.6696 105.998 18.1526 104.692 18.7372L105.508 20.5628C106.735 20.0141 107.958 19.5637 109.178 19.2106L108.622 17.2894ZM106 19.2135L103.55 14.1635L101.75 15.0365L104.2 20.0865L106 19.2135ZM103.113 15.4862C104.502 14.7603 106.042 14.1872 107.738 13.7712L107.262 11.8288C105.425 12.2794 103.731 12.9064 102.187 13.7138L103.113 15.4862ZM107.734 13.7722C109.454 13.3581 111.242 13.15 113.1 13.15V11.15C111.091 11.15 109.146 11.3752 107.266 11.8278L107.734 13.7722ZM114.122 26.4504C111.68 26.5182 109.709 26.9539 108.499 27.9907L109.801 29.5093C110.458 28.9461 111.82 28.5151 114.178 28.4496L114.122 26.4504ZM108.499 27.9907C107.33 28.9928 106.75 30.3272 106.75 31.9H108.75C108.75 30.8728 109.103 30.1072 109.801 29.5093L108.499 27.9907ZM106.75 31.9C106.75 33.2261 107.148 34.3983 108.15 35.15L109.35 33.55C109.019 33.3017 108.75 32.8406 108.75 31.9H106.75ZM108.177 35.1692C109.057 35.7852 110.141 36.05 111.35 36.05V34.05C110.425 34.05 109.777 33.8481 109.323 33.5308L108.177 35.1692ZM111.35 36.05C113.159 36.05 114.746 35.5162 116.047 34.4125L114.753 32.8875C113.854 33.6505 112.741 34.05 111.35 34.05V36.05ZM116.06 34.4012C117.416 33.2094 118.05 31.563 118.05 29.6H116.05C116.05 31.1037 115.584 32.1572 114.74 32.8988L116.06 34.4012ZM118.05 29.6V27.35H116.05V29.6H118.05ZM117.016 26.3506L114.116 26.4506L114.184 28.4494L117.084 28.3494L117.016 26.3506ZM158.226 0.949999L159.221 1.04571L159.327 -0.0500011H158.226V0.949999ZM156.776 5.55L157.627 6.07413L157.633 6.0645L156.776 5.55ZM153.026 8.6L152.63 7.68179L153.026 8.6ZM139.276 8.65L138.866 9.56227L138.877 9.56726L138.889 9.57198L139.276 8.65ZM135.776 5.6L134.895 6.0741L135.776 5.6ZM134.526 0.949999V-0.0500011H133.449L133.529 1.02387L134.526 0.949999ZM141.176 0.949999L142.172 0.859464L142.089 -0.0500011H141.176V0.949999ZM142.576 4.6L141.959 5.3875V5.38751L142.576 4.6ZM149.826 4.55L150.401 5.36782L150.407 5.36373L149.826 4.55ZM151.476 0.949999V-0.0500011H150.567L150.48 0.854287L151.476 0.949999ZM139.176 25.6L138.179 25.5203L138.177 25.5401L138.177 25.56L139.176 25.6ZM139.026 28.15L138.029 28.0733L138.027 28.0924L138.027 28.1116L139.026 28.15ZM138.876 30.45L139.871 30.5495L138.876 30.45ZM138.726 31.85L137.734 31.726L139.561 32.3997L138.726 31.85ZM151.326 12.7V11.7H150.787L150.49 12.1503L151.326 12.7ZM160.276 12.7H161.276V11.7H160.276V12.7ZM160.276 40V41H161.276V40H160.276ZM153.076 40H152.076V41H153.076V40ZM153.176 26.15L154.174 26.2124L154.174 26.2105L153.176 26.15ZM153.376 23.1L152.381 22.9971L152.379 23.0129L152.378 23.0288L153.376 23.1ZM153.576 20.9L154.574 20.9665L154.826 17.1758L152.74 20.3509L153.576 20.9ZM141.026 40V41H141.565L141.862 40.5491L141.026 40ZM132.076 40H131.076V41H132.076V40ZM132.076 12.7V11.7H131.076V12.7H132.076ZM139.276 12.7H140.276V11.7H139.276V12.7ZM157.23 0.854287C157.076 2.45739 156.633 3.84432 155.918 5.0355L157.633 6.0645C158.519 4.58901 159.042 2.90928 159.221 1.04571L157.23 0.854287ZM155.924 5.0259C155.253 6.11639 154.182 7.01225 152.63 7.68179L153.422 9.51821C155.27 8.72108 156.699 7.5836 157.627 6.0741L155.924 5.0259ZM152.63 7.68179C151.104 8.3398 148.973 8.7 146.176 8.7V10.7C149.112 10.7 151.547 10.3269 153.422 9.51821L152.63 7.68179ZM146.176 8.7C143.303 8.7 141.154 8.35434 139.663 7.72802L138.889 9.57198C140.731 10.3457 143.182 10.7 146.176 10.7V8.7ZM139.685 7.73773C138.209 7.07489 137.231 6.19347 136.656 5.1259L134.895 6.0741C135.72 7.60653 137.076 8.75844 138.866 9.56227L139.685 7.73773ZM136.656 5.1259C136.036 3.97394 135.648 2.56644 135.523 0.876127L133.529 1.02387C133.67 2.93355 134.116 4.62605 134.895 6.0741L136.656 5.1259ZM134.526 1.95H141.176V-0.0500011H134.526V1.95ZM140.18 1.04053C140.352 2.92825 140.848 4.51739 141.959 5.3875L143.192 3.81249C142.771 3.4826 142.333 2.63842 142.172 0.859464L140.18 1.04053ZM141.959 5.38751C142.994 6.1972 144.524 6.5 146.326 6.5V4.5C144.661 4.5 143.691 4.2028 143.192 3.81249L141.959 5.38751ZM146.326 6.5C147.903 6.5 149.288 6.15095 150.401 5.3678L149.25 3.73219C148.563 4.21572 147.615 4.5 146.326 4.5V6.5ZM150.407 5.36373C151.676 4.45761 152.291 2.91699 152.471 1.04571L150.48 0.854287C150.327 2.44968 149.843 3.30906 149.245 3.73626L150.407 5.36373ZM151.476 1.95H158.226V-0.0500011H151.476V1.95ZM138.276 23.5C138.276 24.0308 138.244 24.7023 138.179 25.5203L140.173 25.6797C140.24 24.8311 140.276 24.1025 140.276 23.5H138.276ZM138.177 25.56C138.144 26.3806 138.094 27.2184 138.029 28.0733L140.023 28.2267C140.09 27.3483 140.141 26.4861 140.175 25.64L138.177 25.56ZM138.027 28.1116C137.994 28.9634 137.945 29.709 137.881 30.3505L139.871 30.5495C139.94 29.8576 139.991 29.0699 140.025 28.1884L138.027 28.1116ZM137.881 30.3505C137.814 31.0175 137.765 31.473 137.734 31.726L139.718 31.974C139.753 31.6937 139.804 31.2159 139.871 30.5495L137.881 30.3505ZM139.561 32.3997L152.161 13.2497L150.49 12.1503L137.89 31.3003L139.561 32.3997ZM151.326 13.7H160.276V11.7H151.326V13.7ZM159.276 12.7V40H161.276V12.7H159.276ZM160.276 39H153.076V41H160.276V39ZM154.076 40V29.1H152.076V40H154.076ZM154.076 29.1C154.076 28.2242 154.108 27.262 154.174 26.2124L152.178 26.0876C152.11 27.1713 152.076 28.1758 152.076 29.1H154.076ZM154.174 26.2105C154.24 25.1135 154.307 24.1004 154.373 23.1712L152.378 23.0288C152.311 23.9662 152.244 24.9865 152.178 26.0895L154.174 26.2105ZM154.37 23.2029C154.471 22.2331 154.539 21.4852 154.574 20.9665L152.578 20.8335C152.546 21.3148 152.481 22.0336 152.381 22.9971L154.37 23.2029ZM152.74 20.3509L140.19 39.4509L141.862 40.5491L154.412 21.4491L152.74 20.3509ZM141.026 39H132.076V41H141.026V39ZM133.076 40V12.7H131.076V40H133.076ZM132.076 13.7H139.276V11.7H132.076V13.7ZM138.276 12.7V23.5H140.276V12.7H138.276ZM190.662 18.3V19.3H191.662V18.3H190.662ZM181.712 18.3V17.3H180.712V18.3H181.712ZM181.712 40V41H182.712V40H181.712ZM174.262 40H173.262V41H174.262V40ZM174.262 18.3H175.262V17.3H174.262V18.3ZM165.312 18.3H164.312V19.3H165.312V18.3ZM165.312 12.7V11.7H164.312V12.7H165.312ZM190.662 12.7H191.662V11.7H190.662V12.7ZM190.662 17.3H181.712V19.3H190.662V17.3ZM180.712 18.3V40H182.712V18.3H180.712ZM181.712 39H174.262V41H181.712V39ZM175.262 40V18.3H173.262V40H175.262ZM174.262 17.3H165.312V19.3H174.262V17.3ZM166.312 18.3V12.7H164.312V18.3H166.312ZM165.312 13.7H190.662V11.7H165.312V13.7ZM189.662 12.7V18.3H191.662V12.7H189.662ZM212.961 13.65L212.487 14.531L212.494 14.5346L212.961 13.65ZM217.211 17.85L216.333 18.3289L217.211 17.85ZM218.711 28.2V29.2H219.711V28.2H218.711ZM201.111 28.2V27.2H200.078L200.111 28.2317L201.111 28.2ZM202.961 33.15L202.243 33.8471L202.253 33.8571L202.961 33.15ZM212.711 34.45L212.937 35.424L212.948 35.4215L212.958 35.4188L212.711 34.45ZM217.161 32.8H218.161V31.2133L216.729 31.8979L217.161 32.8ZM217.161 38.55L217.608 39.4444L218.161 39.168V38.55H217.161ZM212.911 40L212.714 39.0194L212.702 39.022L212.689 39.0249L212.911 40ZM200.311 39L199.869 39.8973L199.881 39.9029L200.311 39ZM195.361 34.35L194.496 34.8521L195.361 34.35ZM195.161 18.6L194.272 18.1417L194.269 18.1471L195.161 18.6ZM199.711 13.8L199.227 12.9244L199.711 13.8ZM202.911 18.9L202.216 18.1806L202.21 18.1867L202.203 18.1929L202.911 18.9ZM201.261 23.25L200.264 23.1656L200.172 24.25H201.261V23.25ZM211.711 23.25V24.25H212.711V23.25H211.711ZM211.111 20.3L210.19 20.6896L210.196 20.7045L210.203 20.7191L211.111 20.3ZM209.411 18.25L209.957 17.4124L209.411 18.25ZM206.461 13.2C208.868 13.2 210.864 13.659 212.487 14.531L213.434 12.769C211.457 11.7076 209.12 11.2 206.461 11.2V13.2ZM212.494 14.5346C214.152 15.4087 215.426 16.6669 216.333 18.3289L218.088 17.3711C216.995 15.3664 215.436 13.8246 213.427 12.7654L212.494 14.5346ZM216.333 18.3289C217.233 19.9801 217.711 22.0554 217.711 24.6H219.711C219.711 21.8113 219.188 19.3865 218.088 17.3711L216.333 18.3289ZM217.711 24.6V28.2H219.711V24.6H217.711ZM218.711 27.2H201.111V29.2H218.711V27.2ZM200.111 28.2317C200.184 30.5148 200.862 32.4259 202.244 33.8471L203.678 32.4529C202.726 31.4741 202.171 30.0852 202.11 28.1683L200.111 28.2317ZM202.253 33.8571C203.683 35.2871 205.612 35.95 207.911 35.95V33.95C206.009 33.95 204.638 33.4129 203.668 32.4429L202.253 33.8571ZM207.911 35.95C209.739 35.95 211.416 35.7776 212.937 35.424L212.484 33.476C211.138 33.789 209.616 33.95 207.911 33.95V35.95ZM212.958 35.4188C214.463 35.0338 216.008 34.4596 217.592 33.7021L216.729 31.8979C215.246 32.6071 213.824 33.1329 212.463 33.4812L212.958 35.4188ZM216.161 32.8V38.55H218.161V32.8H216.161ZM216.713 37.6556C215.462 38.2815 214.13 38.7364 212.714 39.0194L213.107 40.9806C214.692 40.6636 216.193 40.1519 217.608 39.4444L216.713 37.6556ZM212.689 39.0249C211.317 39.3366 209.613 39.5 207.561 39.5V41.5C209.708 41.5 211.571 41.3301 213.132 40.9751L212.689 39.0249ZM207.561 39.5C204.95 39.5 202.685 39.0229 200.74 38.0971L199.881 39.9029C202.136 40.9771 204.704 41.5 207.561 41.5V39.5ZM200.752 38.1027C198.833 37.1584 197.329 35.7478 196.225 33.8479L194.496 34.8521C195.793 37.0856 197.588 38.7749 199.869 39.8973L200.752 38.1027ZM196.225 33.8479C195.137 31.9741 194.561 29.5603 194.561 26.55H192.561C192.561 29.8063 193.184 32.5926 194.496 34.8521L196.225 33.8479ZM194.561 26.55C194.561 23.4537 195.078 20.9715 196.052 19.0529L194.269 18.1471C193.11 20.4285 192.561 23.2463 192.561 26.55H194.561ZM196.049 19.0583C197.067 17.0852 198.449 15.6381 200.194 14.6756L199.227 12.9244C197.105 14.0952 195.454 15.8482 194.272 18.1417L196.049 19.0583ZM200.194 14.6756C201.957 13.7029 204.035 13.2 206.461 13.2V11.2C203.753 11.2 201.331 11.7638 199.227 12.9244L200.194 14.6756ZM206.511 16.5C204.837 16.5 203.382 17.0545 202.216 18.1806L203.605 19.6194C204.372 18.8789 205.317 18.5 206.511 18.5V16.5ZM202.203 18.1929C201.038 19.3586 200.441 21.0762 200.264 23.1656L202.257 23.3344C202.413 21.4905 202.917 20.3081 203.618 19.6071L202.203 18.1929ZM201.261 24.25H211.711V22.25H201.261V24.25ZM212.711 23.25C212.711 22.0273 212.488 20.8976 212.019 19.8809L210.203 20.7191C210.533 21.4357 210.711 22.2727 210.711 23.25H212.711ZM212.032 19.9104C211.59 18.8659 210.895 18.0243 209.957 17.4124L208.864 19.0876C209.459 19.4757 209.898 20.0008 210.19 20.6896L212.032 19.9104ZM209.957 17.4124C208.988 16.7808 207.818 16.5 206.511 16.5V18.5C207.536 18.5 208.299 18.7192 208.864 19.0876L209.957 17.4124ZM9.35 77.7H10.35V76.7H9.35V77.7ZM9.35 88.2H8.35V89.2H9.35V88.2ZM19.75 88.2V89.2H20.75V88.2H19.75ZM19.75 77.7V76.7H18.75V77.7H19.75ZM27.2 77.7H28.2V76.7H27.2V77.7ZM27.2 105V106H28.2V105H27.2ZM19.75 105H18.75V106H19.75V105ZM19.75 93.75H20.75V92.75H19.75V93.75ZM9.35 93.75V92.75H8.35V93.75H9.35ZM9.35 105V106H10.35V105H9.35ZM1.9 105H0.9V106H1.9V105ZM1.9 77.7V76.7H0.9V77.7H1.9ZM8.35 77.7V88.2H10.35V77.7H8.35ZM9.35 89.2H19.75V87.2H9.35V89.2ZM20.75 88.2V77.7H18.75V88.2H20.75ZM19.75 78.7H27.2V76.7H19.75V78.7ZM26.2 77.7V105H28.2V77.7H26.2ZM27.2 104H19.75V106H27.2V104ZM20.75 105V93.75H18.75V105H20.75ZM19.75 92.75H9.35V94.75H19.75V92.75ZM8.35 93.75V105H10.35V93.75H8.35ZM9.35 104H1.9V106H9.35V104ZM2.9 105V77.7H0.9V105H2.9ZM1.9 78.7H9.35V76.7H1.9V78.7ZM54.6055 79.55L53.9679 80.3204L53.9751 80.3263L53.9824 80.3322L54.6055 79.55ZM57.5555 105V106H58.5555V105H57.5555ZM52.3555 105L51.4244 105.365L51.6733 106H52.3555V105ZM50.9055 101.3L51.8365 100.935L51.5876 100.3H50.9055V101.3ZM50.7055 101.3V100.3H50.2222L49.922 100.679L50.7055 101.3ZM48.3055 103.7L47.7004 102.904L47.6925 102.91L47.6848 102.916L48.3055 103.7ZM45.5055 105.05L45.2629 104.08L45.2447 104.084L45.2267 104.09L45.5055 105.05ZM37.3055 104.6L36.8583 105.494L36.8722 105.501L36.8864 105.508L37.3055 104.6ZM34.3055 101.75L33.4344 102.241L33.44 102.251L34.3055 101.75ZM36.2555 90.45L36.8133 91.28L36.8226 91.2737L36.2555 90.45ZM45.4055 88.15L45.3739 87.1505L45.3727 87.1505L45.4055 88.15ZM50.1555 88L50.187 88.9995L51.1555 88.9689V88H50.1555ZM49.0055 83.65L48.3328 84.3899L48.341 84.3974L48.3493 84.4046L49.0055 83.65ZM42.0055 83.25L42.2835 84.2106L42.2951 84.2072L42.3066 84.2036L42.0055 83.25ZM38.2055 84.65L37.3058 85.0865L37.7289 85.9587L38.6138 85.5628L38.2055 84.65ZM35.7555 79.6L35.2922 78.7138L34.4322 79.1634L34.8558 80.0365L35.7555 79.6ZM40.6055 77.8L40.3714 76.8278L40.3672 76.8288L40.6055 77.8ZM47.2555 92.45L47.2832 93.4496L47.2899 93.4494L47.2555 92.45ZM42.2555 93.75L41.6047 92.9907L42.2555 93.75ZM41.8555 99.35L41.2555 100.15L41.2686 100.16L41.282 100.169L41.8555 99.35ZM48.5055 98.65L49.1524 99.4125L49.1591 99.4069L49.1656 99.4012L48.5055 98.65ZM50.1555 92.35H51.1555V91.3149L50.121 91.3506L50.1555 92.35ZM46.2055 78.15C49.7437 78.15 52.2805 78.9239 53.9679 80.3204L55.243 78.7796C53.0638 76.9761 50.0006 76.15 46.2055 76.15V78.15ZM53.9824 80.3322C55.6431 81.6551 56.5555 83.7392 56.5555 86.8H58.5555C58.5555 83.3275 57.5011 80.5782 55.2285 78.7678L53.9824 80.3322ZM56.5555 86.8V105H58.5555V86.8H56.5555ZM57.5555 104H52.3555V106H57.5555V104ZM53.2865 104.635L51.8365 100.935L49.9744 101.665L51.4244 105.365L53.2865 104.635ZM50.9055 100.3H50.7055V102.3H50.9055V100.3ZM49.922 100.679C49.1983 101.591 48.4566 102.329 47.7004 102.904L48.9106 104.496C49.821 103.804 50.6793 102.942 51.489 101.921L49.922 100.679ZM47.6848 102.916C47.0046 103.454 46.2026 103.845 45.2629 104.08L45.748 106.02C46.9417 105.722 48.0063 105.212 48.9262 104.484L47.6848 102.916ZM45.2267 104.09C44.3133 104.355 43.131 104.5 41.6555 104.5V106.5C43.2466 106.5 44.6309 106.345 45.7843 106.01L45.2267 104.09ZM41.6555 104.5C40.1831 104.5 38.8785 104.225 37.7245 103.692L36.8864 105.508C38.3325 106.175 39.9279 106.5 41.6555 106.5V104.5ZM37.7527 103.706C36.667 103.163 35.8097 102.352 35.1709 101.249L33.44 102.251C34.2679 103.681 35.4106 104.771 36.8583 105.494L37.7527 103.706ZM35.1764 101.259C34.5504 100.149 34.2055 98.6975 34.2055 96.85H32.2055C32.2055 98.9358 32.5939 100.751 33.4345 102.241L35.1764 101.259ZM34.2055 96.85C34.2055 94.2125 35.1101 92.4247 36.8133 91.28L35.6976 89.62C33.3341 91.2086 32.2055 93.6875 32.2055 96.85H34.2055ZM36.8226 91.2737C38.6264 90.0317 41.4513 89.2802 45.4382 89.1495L45.3727 87.1505C41.2263 87.2865 37.9512 88.0683 35.6884 89.6264L36.8226 91.2737ZM45.437 89.1495L50.187 88.9995L50.1239 87.0005L45.3739 87.1505L45.437 89.1495ZM51.1555 88V86.8H49.1555V88H51.1555ZM51.1555 86.8C51.1555 85.2003 50.725 83.8201 49.6616 82.8954L48.3493 84.4046C48.8192 84.8133 49.1555 85.533 49.1555 86.8H51.1555ZM49.6781 82.9101C48.705 82.0254 47.4003 81.65 45.9055 81.65V83.65C47.0773 83.65 47.8392 83.9412 48.3328 84.3899L49.6781 82.9101ZM45.9055 81.65C44.4704 81.65 43.0688 81.8655 41.7043 82.2964L42.3066 84.2036C43.4755 83.8345 44.6739 83.65 45.9055 83.65V81.65ZM41.7274 82.2894C40.414 82.6696 39.1039 83.1526 37.7971 83.7372L38.6138 85.5628C39.8404 85.0141 41.0636 84.5637 42.2835 84.2106L41.7274 82.2894ZM39.1052 84.2135L36.6552 79.1635L34.8558 80.0365L37.3058 85.0865L39.1052 84.2135ZM36.2187 80.4862C37.6074 79.7603 39.1475 79.1872 40.8437 78.7712L40.3672 76.8288C38.5301 77.2794 36.8368 77.9063 35.2922 78.7138L36.2187 80.4862ZM40.8395 78.7722C42.5596 78.3581 44.3475 78.15 46.2055 78.15V76.15C44.1968 76.15 42.2514 76.3752 40.3714 76.8278L40.8395 78.7722ZM47.2277 91.4504C44.7851 91.5182 42.8144 91.9539 41.6047 92.9907L42.9063 94.5093C43.5632 93.9461 44.9259 93.5151 47.2832 93.4496L47.2277 91.4504ZM41.6047 92.9907C40.4356 93.9928 39.8555 95.3272 39.8555 96.9H41.8555C41.8555 95.8728 42.2087 95.1072 42.9063 94.5093L41.6047 92.9907ZM39.8555 96.9C39.8555 98.2261 40.2532 99.3983 41.2555 100.15L42.4555 98.55C42.1244 98.3017 41.8555 97.8406 41.8555 96.9H39.8555ZM41.282 100.169C42.162 100.785 43.2468 101.05 44.4555 101.05V99.05C43.5308 99.05 42.8823 98.8481 42.4289 98.5308L41.282 100.169ZM44.4555 101.05C46.2648 101.05 47.8517 100.516 49.1524 99.4125L47.8585 97.8875C46.9592 98.6505 45.8461 99.05 44.4555 99.05V101.05ZM49.1656 99.4012C50.5217 98.2094 51.1555 96.563 51.1555 94.6H49.1555C49.1555 96.1037 48.6893 97.1572 47.8454 97.8988L49.1656 99.4012ZM51.1555 94.6V92.35H49.1555V94.6H51.1555ZM50.121 91.3506L47.221 91.4506L47.2899 93.4494L50.1899 93.3494L50.121 91.3506ZM105.831 77.7H106.831V76.7H105.831V77.7ZM105.831 105V106H106.831V105H105.831ZM65.1813 105H64.1813V106H65.1813V105ZM65.1813 77.7V76.7H64.1813V77.7H65.1813ZM72.6312 77.7H73.6312V76.7H72.6312V77.7ZM72.6312 99.4H71.6312V100.4H72.6312V99.4ZM81.7812 99.4V100.4H82.7812V99.4H81.7812ZM81.7812 77.7V76.7H80.7812V77.7H81.7812ZM89.2312 77.7H90.2312V76.7H89.2312V77.7ZM89.2312 99.4H88.2312V100.4H89.2312V99.4ZM98.3812 99.4V100.4H99.3812V99.4H98.3812ZM98.3812 77.7V76.7H97.3812V77.7H98.3812ZM104.831 77.7V105H106.831V77.7H104.831ZM105.831 104H65.1813V106H105.831V104ZM66.1813 105V77.7H64.1813V105H66.1813ZM65.1813 78.7H72.6312V76.7H65.1813V78.7ZM71.6312 77.7V99.4H73.6312V77.7H71.6312ZM72.6312 100.4H81.7812V98.4H72.6312V100.4ZM82.7812 99.4V77.7H80.7812V99.4H82.7812ZM81.7812 78.7H89.2312V76.7H81.7812V78.7ZM88.2312 77.7V99.4H90.2312V77.7H88.2312ZM89.2312 100.4H98.3812V98.4H89.2312V100.4ZM99.3812 99.4V77.7H97.3812V99.4H99.3812ZM98.3812 78.7H105.831V76.7H98.3812V78.7ZM120.719 90.6L119.722 90.5203L119.72 90.5401L119.72 90.56L120.719 90.6ZM120.569 93.15L119.572 93.0733L119.57 93.0924L119.569 93.1116L120.569 93.15ZM120.419 95.45L121.414 95.5495L120.419 95.45ZM120.269 96.85L119.276 96.726L121.104 97.3997L120.269 96.85ZM132.869 77.7V76.7H132.33L132.033 77.1503L132.869 77.7ZM141.819 77.7H142.819V76.7H141.819V77.7ZM141.819 105V106H142.819V105H141.819ZM134.619 105H133.619V106H134.619V105ZM134.719 91.15L135.717 91.2124L135.717 91.2105L134.719 91.15ZM134.919 88.1L133.924 87.9971L133.922 88.0129L133.921 88.0288L134.919 88.1ZM135.119 85.9L136.117 85.9665L136.369 82.1758L134.283 85.3509L135.119 85.9ZM122.569 105V106H123.108L123.404 105.549L122.569 105ZM113.619 105H112.619V106H113.619V105ZM113.619 77.7V76.7H112.619V77.7H113.619ZM120.819 77.7H121.819V76.7H120.819V77.7ZM119.819 88.5C119.819 89.0308 119.787 89.7023 119.722 90.5203L121.716 90.6797C121.783 89.8311 121.819 89.1025 121.819 88.5H119.819ZM119.72 90.56C119.687 91.3806 119.637 92.2184 119.572 93.0733L121.566 93.2267C121.633 92.3483 121.684 91.4861 121.718 90.64L119.72 90.56ZM119.569 93.1116C119.537 93.9634 119.488 94.709 119.424 95.3505L121.414 95.5495C121.483 94.8576 121.534 94.0699 121.568 93.1884L119.569 93.1116ZM119.424 95.3505C119.357 96.0175 119.308 96.473 119.276 96.726L121.261 96.974C121.296 96.6937 121.347 96.2159 121.414 95.5495L119.424 95.3505ZM121.104 97.3997L133.704 78.2497L132.033 77.1503L119.433 96.3003L121.104 97.3997ZM132.869 78.7H141.819V76.7H132.869V78.7ZM140.819 77.7V105H142.819V77.7H140.819ZM141.819 104H134.619V106H141.819V104ZM135.619 105V94.1H133.619V105H135.619ZM135.619 94.1C135.619 93.2242 135.651 92.262 135.717 91.2124L133.721 91.0876C133.653 92.1713 133.619 93.1758 133.619 94.1H135.619ZM135.717 91.2105C135.783 90.1135 135.85 89.1004 135.916 88.1712L133.921 88.0288C133.854 88.9662 133.787 89.9865 133.721 91.0895L135.717 91.2105ZM135.913 88.2029C136.014 87.2331 136.082 86.4852 136.117 85.9665L134.121 85.8335C134.089 86.3148 134.024 87.0336 133.924 87.9971L135.913 88.2029ZM134.283 85.3509L121.733 104.451L123.404 105.549L135.954 86.4491L134.283 85.3509ZM122.569 104H113.619V106H122.569V104ZM114.619 105V77.7H112.619V105H114.619ZM113.619 78.7H120.819V76.7H113.619V78.7ZM119.819 77.7V88.5H121.819V77.7H119.819ZM168.969 77.7H169.969V76.7H168.969V77.7ZM168.969 88.2H167.969V89.2H168.969V88.2ZM179.369 88.2V89.2H180.369V88.2H179.369ZM179.369 77.7V76.7H178.369V77.7H179.369ZM186.819 77.7H187.819V76.7H186.819V77.7ZM186.819 105V106H187.819V105H186.819ZM179.369 105H178.369V106H179.369V105ZM179.369 93.75H180.369V92.75H179.369V93.75ZM168.969 93.75V92.75H167.969V93.75H168.969ZM168.969 105V106H169.969V105H168.969ZM161.519 105H160.519V106H161.519V105ZM161.519 77.7V76.7H160.519V77.7H161.519ZM167.969 77.7V88.2H169.969V77.7H167.969ZM168.969 89.2H179.369V87.2H168.969V89.2ZM180.369 88.2V77.7H178.369V88.2H180.369ZM179.369 78.7H186.819V76.7H179.369V78.7ZM185.819 77.7V105H187.819V77.7H185.819ZM186.819 104H179.369V106H186.819V104ZM180.369 105V93.75H178.369V105H180.369ZM179.369 92.75H168.969V94.75H179.369V92.75ZM167.969 93.75V105H169.969V93.75H167.969ZM168.969 104H161.519V106H168.969V104ZM162.519 105V77.7H160.519V105H162.519ZM161.519 78.7H168.969V76.7H161.519V78.7ZM218.475 97.35L217.533 97.0125L217.53 97.0205L217.528 97.0284L218.475 97.35ZM215.825 101.85L215.098 101.163L215.098 101.163L215.825 101.85ZM211.675 104.6L212.019 105.539L212.028 105.536L212.036 105.532L211.675 104.6ZM200.825 104.6L200.457 105.53L200.468 105.534L200.48 105.539L200.825 104.6ZM196.675 101.85L195.948 102.537L195.958 102.547L196.675 101.85ZM193.925 97.35L192.983 97.6875L192.986 97.6953L192.989 97.7031L193.925 97.35ZM194.575 83.65L195.463 84.1087L195.466 84.1029L194.575 83.65ZM199.175 78.85L199.657 79.7262L199.175 78.85ZM213.075 78.85L212.586 79.7228L213.075 78.85ZM217.725 83.65L216.845 84.1249L216.848 84.1308L217.725 83.65ZM201.125 95.85L200.166 96.135L200.171 96.1507L200.176 96.1662L201.125 95.85ZM202.975 98.6L202.37 99.3962L202.38 99.404L202.39 99.4115L202.975 98.6ZM209.425 98.6L210.025 99.4L210.03 99.3962L209.425 98.6ZM211.225 95.85L210.273 95.5415L210.271 95.5496L210.268 95.5578L211.225 95.85ZM211.225 86.8L210.268 87.0922L210.272 87.1043L210.276 87.1162L211.225 86.8ZM201.875 85.25L201.039 84.7L201.036 84.705L201.875 85.25ZM218.425 91.3C218.425 93.4748 218.121 95.374 217.533 97.0125L219.416 97.6875C220.095 95.7927 220.425 93.6585 220.425 91.3H218.425ZM217.528 97.0284C216.969 98.6724 216.156 100.044 215.098 101.163L216.551 102.537C217.826 101.189 218.78 99.5609 219.421 97.6716L217.528 97.0284ZM215.098 101.163C214.073 102.249 212.817 103.085 211.313 103.668L212.036 105.532C213.799 104.849 215.31 103.851 216.552 102.537L215.098 101.163ZM211.33 103.661C209.825 104.214 208.095 104.5 206.125 104.5V106.5C208.287 106.5 210.257 106.186 212.019 105.539L211.33 103.661ZM206.125 104.5C204.331 104.5 202.683 104.217 201.169 103.661L200.48 105.539C202.233 106.183 204.118 106.5 206.125 106.5V104.5ZM201.193 103.67C199.72 103.087 198.457 102.249 197.392 101.153L195.958 102.547C197.226 103.851 198.729 104.846 200.457 105.53L201.193 103.67ZM197.401 101.163C196.335 100.036 195.485 98.6534 194.86 96.9969L192.989 97.7031C193.697 99.5799 194.681 101.197 195.948 102.537L197.401 101.163ZM194.866 97.0125C194.279 95.374 193.975 93.4748 193.975 91.3H191.975C191.975 93.6585 192.304 95.7927 192.983 97.6875L194.866 97.0125ZM193.975 91.3C193.975 88.3794 194.489 85.997 195.463 84.1086L193.686 83.1914C192.527 85.4363 191.975 88.154 191.975 91.3H193.975ZM195.466 84.1029C196.445 82.1758 197.838 80.7262 199.657 79.7262L198.693 77.9738C196.511 79.1738 194.838 80.9241 193.683 83.1971L195.466 84.1029ZM199.657 79.7262C201.482 78.722 203.677 78.2 206.275 78.2V76.2C203.406 76.2 200.867 76.778 198.693 77.9738L199.657 79.7262ZM206.275 78.2C208.694 78.2 210.789 78.7172 212.586 79.7228L213.563 77.9772C211.427 76.7828 208.988 76.2 206.275 76.2V78.2ZM212.586 79.7228C214.377 80.7245 215.796 82.1817 216.845 84.1249L218.605 83.1751C217.387 80.9183 215.705 79.1755 213.563 77.9772L212.586 79.7228ZM216.848 84.1308C217.88 86.0138 218.425 88.3878 218.425 91.3H220.425C220.425 88.1456 219.836 85.4196 218.601 83.1692L216.848 84.1308ZM199.575 91.3C199.575 93.1612 199.763 94.7805 200.166 96.135L202.083 95.565C201.752 94.4528 201.575 93.0388 201.575 91.3H199.575ZM200.176 96.1662C200.626 97.5167 201.345 98.6176 202.37 99.3962L203.58 97.8038C202.937 97.3157 202.423 96.5833 202.073 95.5338L200.176 96.1662ZM202.39 99.4115C203.438 100.166 204.744 100.5 206.225 100.5V98.5C205.039 98.5 204.178 98.2339 203.559 97.7885L202.39 99.4115ZM206.225 100.5C207.703 100.5 209.002 100.167 210.025 99.4L208.825 97.8C208.247 98.2329 207.413 98.5 206.225 98.5V100.5ZM210.03 99.3962C211.061 98.6123 211.765 97.502 212.181 96.1422L210.268 95.5578C209.95 96.598 209.455 97.3211 208.82 97.8038L210.03 99.3962ZM212.176 96.1585C212.618 94.7952 212.825 93.1673 212.825 91.3H210.825C210.825 93.0328 210.631 94.4381 210.273 95.5415L212.176 96.1585ZM212.825 91.3C212.825 89.4341 212.618 87.8189 212.173 86.4838L210.276 87.1162C210.631 88.1811 210.825 89.5659 210.825 91.3H212.825ZM212.181 86.5078C211.765 85.1462 211.056 84.0425 210.009 83.2885L208.84 84.9115C209.46 85.3575 209.951 86.0538 210.268 87.0922L212.181 86.5078ZM210.009 83.2885C208.961 82.5339 207.655 82.2 206.175 82.2V84.2C207.361 84.2 208.222 84.4661 208.84 84.9115L210.009 83.2885ZM206.175 82.2C203.95 82.2 202.164 82.9929 201.039 84.7L202.71 85.8C203.386 84.7738 204.466 84.2 206.175 84.2V82.2ZM201.036 84.705C200.014 86.2782 199.575 88.5266 199.575 91.3H201.575C201.575 88.6734 202.002 86.8885 202.713 85.795L201.036 84.705ZM248.382 88.6L247.64 87.9297L247.633 87.9364L247.628 87.9432L248.382 88.6ZM244.332 90.6L244.167 89.6136L243.332 89.7529V90.6H244.332ZM244.332 90.8H243.332V91.6847L244.21 91.7925L244.332 90.8ZM248.882 92.75L248.196 93.4782L248.202 93.4832L248.207 93.488L248.882 92.75ZM249.932 100.1L249.025 99.6771L249.02 99.6897L249.014 99.7024L249.932 100.1ZM247.832 102.7L247.227 101.903L247.832 102.7ZM244.082 104.4L243.829 103.432L243.824 103.434L244.082 104.4ZM225.582 105H224.582V106H225.582V105ZM225.582 77.7V76.7H224.582V77.7H225.582ZM244.282 78.4L244.012 79.363L244.023 79.3661L244.035 79.369L244.282 78.4ZM248.282 80.6L247.551 81.2832L247.557 81.2893L247.563 81.2954L248.282 80.6ZM241.682 94.15L241.167 95.0075L241.18 95.0152L241.193 95.0225L241.682 94.15ZM233.032 93.4V92.4H232.032V93.4H233.032ZM233.032 99.85H232.032V100.85H233.032V99.85ZM241.532 99.1L242.017 99.9742L242.028 99.9682L241.532 99.1ZM241.232 83.55L241.746 82.6925L241.232 83.55ZM233.032 82.95V81.95H232.032V82.95H233.032ZM233.032 88.35H232.032V89.35H233.032V88.35ZM240.982 87.7L241.458 88.5794L241.47 88.5725L240.982 87.7ZM248.782 84.85C248.782 86.0835 248.397 87.0906 247.64 87.9297L249.124 89.2703C250.233 88.0427 250.782 86.5499 250.782 84.85H248.782ZM247.628 87.9432C246.924 88.751 245.815 89.339 244.167 89.6136L244.496 91.5864C246.449 91.261 248.039 90.5156 249.136 89.2568L247.628 87.9432ZM243.332 90.6V90.8H245.332V90.6H243.332ZM244.21 91.7925C245.948 92.006 247.251 92.5881 248.196 93.4782L249.567 92.0218C248.246 90.7785 246.515 90.0607 244.454 89.8075L244.21 91.7925ZM248.207 93.488C249.154 94.3539 249.632 95.4469 249.632 96.85H251.632C251.632 94.9198 250.943 93.2794 249.556 92.012L248.207 93.488ZM249.632 96.85C249.632 97.8791 249.427 98.8171 249.025 99.6771L250.838 100.523C251.37 99.3829 251.632 98.1542 251.632 96.85H249.632ZM249.014 99.7024C248.657 100.527 248.073 101.262 247.227 101.903L248.436 103.497C249.524 102.671 250.34 101.673 250.849 100.498L249.014 99.7024ZM247.227 101.903C246.392 102.537 245.272 103.056 243.829 103.432L244.334 105.368C245.958 104.944 247.338 104.33 248.436 103.497L247.227 101.903ZM243.824 103.434C242.434 103.804 240.693 104 238.582 104V106C240.804 106 242.729 105.796 244.339 105.366L243.824 103.434ZM238.582 104H225.582V106H238.582V104ZM226.582 105V77.7H224.582V105H226.582ZM225.582 78.7H238.582V76.7H225.582V78.7ZM238.582 78.7C240.644 78.7 242.451 78.9258 244.012 79.363L244.551 77.437C242.779 76.9409 240.786 76.7 238.582 76.7V78.7ZM244.035 79.369C245.594 79.7665 246.743 80.4194 247.551 81.2832L249.012 79.9168C247.887 78.714 246.369 77.9002 244.529 77.431L244.035 79.369ZM247.563 81.2954C248.34 82.0981 248.782 83.2409 248.782 84.85H250.782C250.782 82.8591 250.223 81.1685 249 79.9046L247.563 81.2954ZM243.932 96.45C243.932 95.0727 243.362 93.9447 242.17 93.2775L241.193 95.0225C241.668 95.2886 241.932 95.6939 241.932 96.45H243.932ZM242.196 93.2925C241.132 92.6543 239.666 92.4 237.932 92.4V94.4C239.531 94.4 240.564 94.6457 241.167 95.0075L242.196 93.2925ZM237.932 92.4H233.032V94.4H237.932V92.4ZM232.032 93.4V99.85H234.032V93.4H232.032ZM233.032 100.85H238.082V98.85H233.032V100.85ZM238.082 100.85C239.593 100.85 240.925 100.581 242.017 99.9742L241.046 98.2258C240.338 98.6189 239.37 98.85 238.082 98.85V100.85ZM242.028 99.9682C243.324 99.2275 243.932 97.9788 243.932 96.45H241.932C241.932 97.3879 241.606 97.9059 241.036 98.2318L242.028 99.9682ZM243.232 85.45C243.232 84.2804 242.753 83.2968 241.746 82.6925L240.717 84.4075C241.043 84.6032 241.232 84.8863 241.232 85.45H243.232ZM241.746 82.6925C240.852 82.156 239.655 81.95 238.282 81.95V83.95C239.509 83.95 240.278 84.144 240.717 84.4075L241.746 82.6925ZM238.282 81.95H233.032V83.95H238.282V81.95ZM232.032 82.95V88.35H234.032V82.95H232.032ZM233.032 89.35H237.432V87.35H233.032V89.35ZM237.432 89.35C239.06 89.35 240.441 89.13 241.458 88.5793L240.505 86.8207C239.922 87.1367 238.936 87.35 237.432 87.35V89.35ZM241.47 88.5725C242.65 87.9119 243.232 86.809 243.232 85.45H241.232C241.232 86.1577 240.98 86.5547 240.493 86.8275L241.47 88.5725ZM280.877 97.35L279.936 97.0125L279.933 97.0205L279.93 97.0284L280.877 97.35ZM278.227 101.85L277.5 101.163L277.5 101.163L278.227 101.85ZM274.077 104.6L274.422 105.539L274.43 105.536L274.438 105.532L274.077 104.6ZM263.227 104.6L262.859 105.53L262.87 105.534L262.882 105.539L263.227 104.6ZM259.077 101.85L258.35 102.537L258.36 102.547L259.077 101.85ZM256.327 97.35L255.386 97.6875L255.388 97.6953L255.391 97.7031L256.327 97.35ZM256.977 83.65L257.866 84.1087L257.869 84.1029L256.977 83.65ZM261.577 78.85L262.059 79.7262L261.577 78.85ZM275.477 78.85L274.989 79.7228L275.477 78.85ZM280.127 83.65L279.247 84.1249L279.25 84.1308L280.127 83.65ZM263.527 95.85L262.568 96.135L262.573 96.1507L262.578 96.1662L263.527 95.85ZM265.377 98.6L264.772 99.3962L264.782 99.404L264.793 99.4115L265.377 98.6ZM271.827 98.6L272.427 99.4L272.432 99.3962L271.827 98.6ZM273.627 95.85L272.676 95.5415L272.673 95.5496L272.671 95.5578L273.627 95.85ZM273.627 86.8L272.671 87.0922L272.674 87.1043L272.678 87.1162L273.627 86.8ZM264.277 85.25L263.442 84.7L263.439 84.705L264.277 85.25ZM280.827 91.3C280.827 93.4748 280.523 95.374 279.936 97.0125L281.818 97.6875C282.498 95.7927 282.827 93.6585 282.827 91.3H280.827ZM279.93 97.0284C279.372 98.6724 278.559 100.044 277.5 101.163L278.953 102.537C280.228 101.189 281.182 99.5609 281.824 97.6716L279.93 97.0284ZM277.5 101.163C276.475 102.249 275.219 103.085 273.715 103.668L274.438 105.532C276.202 104.849 277.712 103.851 278.954 102.537L277.5 101.163ZM273.732 103.661C272.228 104.214 270.498 104.5 268.527 104.5V106.5C270.69 106.5 272.659 106.186 274.422 105.539L273.732 103.661ZM268.527 104.5C266.734 104.5 265.085 104.217 263.572 103.661L262.882 105.539C264.636 106.183 266.52 106.5 268.527 106.5V104.5ZM263.595 103.67C262.123 103.087 260.859 102.249 259.794 101.153L258.36 102.547C259.628 103.851 261.131 104.846 262.859 105.53L263.595 103.67ZM259.803 101.163C258.738 100.036 257.888 98.6534 257.263 96.9969L255.391 97.7031C256.1 99.5799 257.083 101.197 258.35 102.537L259.803 101.163ZM257.268 97.0125C256.681 95.374 256.377 93.4748 256.377 91.3H254.377C254.377 93.6585 254.706 95.7927 255.386 97.6875L257.268 97.0125ZM256.377 91.3C256.377 88.3794 256.891 85.997 257.866 84.1086L256.088 83.1914C254.93 85.4363 254.377 88.154 254.377 91.3H256.377ZM257.869 84.1029C258.847 82.1758 260.241 80.7262 262.059 79.7262L261.095 77.9738C258.913 79.1738 257.24 80.9241 256.085 83.1971L257.869 84.1029ZM262.059 79.7262C263.885 78.722 266.079 78.2 268.677 78.2V76.2C265.808 76.2 263.269 76.778 261.095 77.9738L262.059 79.7262ZM268.677 78.2C271.097 78.2 273.191 78.7172 274.989 79.7228L275.965 77.9772C273.83 76.7828 271.39 76.2 268.677 76.2V78.2ZM274.989 79.7228C276.78 80.7245 278.198 82.1817 279.247 84.1249L281.007 83.1751C279.789 80.9183 278.107 79.1755 275.965 77.9772L274.989 79.7228ZM279.25 84.1308C280.283 86.0138 280.827 88.3878 280.827 91.3H282.827C282.827 88.1456 282.238 85.4196 281.004 83.1692L279.25 84.1308ZM261.977 91.3C261.977 93.1612 262.166 94.7805 262.568 96.135L264.486 95.565C264.155 94.4528 263.977 93.0388 263.977 91.3H261.977ZM262.578 96.1662C263.028 97.5167 263.747 98.6176 264.772 99.3962L265.982 97.8038C265.34 97.3157 264.825 96.5833 264.476 95.5338L262.578 96.1662ZM264.793 99.4115C265.841 100.166 267.146 100.5 268.627 100.5V98.5C267.441 98.5 266.58 98.2339 265.961 97.7885L264.793 99.4115ZM268.627 100.5C270.105 100.5 271.404 100.167 272.427 99.4L271.227 97.8C270.65 98.2329 269.816 98.5 268.627 98.5V100.5ZM272.432 99.3962C273.464 98.6123 274.168 97.502 274.583 96.1422L272.671 95.5578C272.353 96.598 271.857 97.3211 271.222 97.8038L272.432 99.3962ZM274.578 96.1585C275.02 94.7952 275.227 93.1673 275.227 91.3H273.227C273.227 93.0328 273.034 94.4381 272.676 95.5415L274.578 96.1585ZM275.227 91.3C275.227 89.4341 275.021 87.8189 274.576 86.4838L272.678 87.1162C273.033 88.1811 273.227 89.5659 273.227 91.3H275.227ZM274.583 86.5078C274.167 85.1462 273.459 84.0425 272.411 83.2885L271.243 84.9115C271.862 85.3575 272.353 86.0538 272.671 87.0922L274.583 86.5078ZM272.411 83.2885C271.363 82.5339 270.058 82.2 268.577 82.2V84.2C269.763 84.2 270.624 84.4661 271.243 84.9115L272.411 83.2885ZM268.577 82.2C266.352 82.2 264.566 82.9929 263.442 84.7L265.112 85.8C265.788 84.7738 266.868 84.2 268.577 84.2V82.2ZM263.439 84.705C262.416 86.2782 261.977 88.5266 261.977 91.3H263.977C263.977 88.6734 264.405 86.8885 265.115 85.795L263.439 84.705ZM292.184 104.05L291.718 104.935L291.731 104.941L292.184 104.05ZM287.834 99.45L288.734 99.0144V99.0144L287.834 99.45ZM288.034 83.35L287.154 82.8751L288.034 83.35ZM292.734 78.7L292.293 77.8026L292.287 77.8056L292.734 78.7ZM304.584 77.75L304.325 78.7159L304.331 78.7174L304.584 77.75ZM308.234 79.05L309.168 79.4073L309.496 78.5498L308.67 78.1498L308.234 79.05ZM306.034 84.8L305.663 85.7285L306.605 86.1055L306.968 85.1573L306.034 84.8ZM302.734 83.65L302.447 84.6079L302.455 84.6103L302.734 83.65ZM296.484 84.15L297.053 84.9722L297.064 84.9649L297.074 84.9574L296.484 84.15ZM294.534 86.9L293.591 86.5685L293.588 86.5761L293.585 86.5838L294.534 86.9ZM294.584 95.95L293.643 96.2896L293.649 96.3056L293.656 96.3214L294.584 95.95ZM296.584 98.6L296.015 99.4222L296.026 99.4297L296.037 99.437L296.584 98.6ZM303.884 98.85L304.2 99.7987L304.212 99.7948L304.224 99.7906L303.884 98.85ZM307.384 97.1H308.384V95.2619L306.841 96.2604L307.384 97.1ZM307.384 103.45L307.927 104.29L308.384 103.994V103.45H307.384ZM303.784 105L303.554 104.027L303.538 104.031L303.523 104.035L303.784 105ZM299.084 104.5C296.501 104.5 294.365 104.037 292.637 103.159L291.731 104.941C293.803 105.996 296.267 106.5 299.084 106.5V104.5ZM292.65 103.165C290.952 102.272 289.648 100.903 288.734 99.0144L286.934 99.8856C288.02 102.13 289.616 103.828 291.718 104.935L292.65 103.165ZM288.734 99.0144C287.821 97.1273 287.334 94.6401 287.334 91.5H285.334C285.334 94.8266 285.847 97.6393 286.934 99.8856L288.734 99.0144ZM287.334 91.5C287.334 88.2702 287.884 85.7326 288.914 83.8249L287.154 82.8751C285.917 85.1674 285.334 88.0631 285.334 91.5H287.334ZM288.914 83.8249C289.957 81.8931 291.378 80.4961 293.181 79.5944L292.287 77.8056C290.09 78.9039 288.378 80.6069 287.154 82.8751L288.914 83.8249ZM293.175 79.5974C295.051 78.675 297.229 78.2 299.734 78.2V76.2C296.972 76.2 294.484 76.725 292.293 77.8027L293.175 79.5974ZM299.734 78.2C301.539 78.2 303.065 78.3777 304.325 78.7158L304.843 76.7842C303.37 76.3889 301.662 76.2 299.734 76.2V78.2ZM304.331 78.7174C305.683 79.0716 306.836 79.4846 307.798 79.9502L308.67 78.1498C307.565 77.6154 306.285 77.1617 304.837 76.7826L304.331 78.7174ZM307.3 78.6926L305.1 84.4426L306.968 85.1573L309.168 79.4073L307.3 78.6926ZM306.405 83.8715C305.213 83.3947 304.082 83.0001 303.013 82.6897L302.455 84.6103C303.452 84.8999 304.521 85.272 305.663 85.7285L306.405 83.8715ZM303.021 82.6922C301.932 82.3654 300.836 82.2 299.734 82.2V84.2C300.632 84.2 301.536 84.3346 302.447 84.6078L303.021 82.6922ZM299.734 82.2C298.268 82.2 296.965 82.5596 295.894 83.3426L297.074 84.9574C297.736 84.4738 298.6 84.2 299.734 84.2V82.2ZM295.915 83.3278C294.837 84.0741 294.077 85.1847 293.591 86.5685L295.477 87.2315C295.858 86.1487 296.398 85.4259 297.053 84.9722L295.915 83.3278ZM293.585 86.5838C293.14 87.9204 292.934 89.5531 292.934 91.45H294.934C294.934 89.6803 295.128 88.2796 295.483 87.2162L293.585 86.5838ZM292.934 91.45C292.934 93.322 293.158 94.946 293.643 96.2896L295.525 95.6104C295.143 94.554 294.934 93.178 294.934 91.45H292.934ZM293.656 96.3214C294.181 97.6348 294.958 98.6905 296.015 99.4222L297.153 97.7778C296.477 97.3095 295.92 96.5986 295.512 95.5786L293.656 96.3214ZM296.037 99.437C297.095 100.129 298.344 100.45 299.734 100.45V98.45C298.657 98.45 297.806 98.2044 297.131 97.763L296.037 99.437ZM299.734 100.45C301.384 100.45 302.877 100.24 304.2 99.7987L303.568 97.9013C302.491 98.2603 301.218 98.45 299.734 98.45V100.45ZM304.224 99.7906C305.499 99.33 306.734 98.7118 307.927 97.9396L306.841 96.2604C305.768 96.9549 304.669 97.5034 303.544 97.9094L304.224 99.7906ZM306.384 97.1V103.45H308.384V97.1H306.384ZM306.841 102.61C305.8 103.284 304.705 103.754 303.554 104.027L304.014 105.973C305.396 105.646 306.702 105.083 307.927 104.29L306.841 102.61ZM303.523 104.035C302.405 104.337 300.934 104.5 299.084 104.5V106.5C301.034 106.5 302.696 106.33 304.045 105.965L303.523 104.035ZM336.268 83.3V84.3H337.268V83.3H336.268ZM327.318 83.3V82.3H326.318V83.3H327.318ZM327.318 105V106H328.318V105H327.318ZM319.868 105H318.868V106H319.868V105ZM319.868 83.3H320.868V82.3H319.868V83.3ZM310.918 83.3H309.918V84.3H310.918V83.3ZM310.918 77.7V76.7H309.918V77.7H310.918ZM336.268 77.7H337.268V76.7H336.268V77.7ZM336.268 82.3H327.318V84.3H336.268V82.3ZM326.318 83.3V105H328.318V83.3H326.318ZM327.318 104H319.868V106H327.318V104ZM320.868 105V83.3H318.868V105H320.868ZM319.868 82.3H310.918V84.3H319.868V82.3ZM311.918 83.3V77.7H309.918V83.3H311.918ZM310.918 78.7H336.268V76.7H310.918V78.7ZM335.268 77.7V83.3H337.268V77.7H335.268ZM348.404 90.6L347.407 90.5203L347.406 90.5401L347.405 90.56L348.404 90.6ZM348.254 93.15L347.257 93.0733L347.256 93.0924L347.255 93.1116L348.254 93.15ZM348.104 95.45L349.099 95.5495L348.104 95.45ZM347.954 96.85L346.962 96.726L348.79 97.3997L347.954 96.85ZM360.554 77.7V76.7H360.015L359.719 77.1503L360.554 77.7ZM369.504 77.7H370.504V76.7H369.504V77.7ZM369.504 105V106H370.504V105H369.504ZM362.304 105H361.304V106H362.304V105ZM362.404 91.15L363.402 91.2124L363.402 91.2105L362.404 91.15ZM362.604 88.1L361.61 87.9971L361.608 88.0129L361.607 88.0288L362.604 88.1ZM362.804 85.9L363.802 85.9665L364.055 82.1758L361.969 85.3509L362.804 85.9ZM350.254 105V106H350.794L351.09 105.549L350.254 105ZM341.304 105H340.304V106H341.304V105ZM341.304 77.7V76.7H340.304V77.7H341.304ZM348.504 77.7H349.504V76.7H348.504V77.7ZM347.504 88.5C347.504 89.0308 347.473 89.7023 347.407 90.5203L349.401 90.6797C349.469 89.8311 349.504 89.1025 349.504 88.5H347.504ZM347.405 90.56C347.372 91.3806 347.323 92.2184 347.257 93.0733L349.251 93.2267C349.319 92.3483 349.37 91.4861 349.404 90.64L347.405 90.56ZM347.255 93.1116C347.222 93.9634 347.173 94.709 347.109 95.3505L349.099 95.5495C349.169 94.8576 349.22 94.0699 349.254 93.1884L347.255 93.1116ZM347.109 95.3505C347.043 96.0175 346.994 96.473 346.962 96.726L348.947 96.974C348.982 96.6937 349.033 96.2159 349.099 95.5495L347.109 95.3505ZM348.79 97.3997L361.39 78.2497L359.719 77.1503L347.119 96.3003L348.79 97.3997ZM360.554 78.7H369.504V76.7H360.554V78.7ZM368.504 77.7V105H370.504V77.7H368.504ZM369.504 104H362.304V106H369.504V104ZM363.304 105V94.1H361.304V105H363.304ZM363.304 94.1C363.304 93.2242 363.337 92.262 363.402 91.2124L361.406 91.0876C361.339 92.1713 361.304 93.1758 361.304 94.1H363.304ZM363.402 91.2105C363.469 90.1135 363.535 89.1004 363.602 88.1712L361.607 88.0288C361.54 88.9662 361.473 89.9865 361.406 91.0895L363.402 91.2105ZM363.599 88.2029C363.699 87.2331 363.768 86.4852 363.802 85.9665L361.807 85.8335C361.774 86.3148 361.709 87.0336 361.61 87.9971L363.599 88.2029ZM361.969 85.3509L349.419 104.451L351.09 105.549L363.64 86.4491L361.969 85.3509ZM350.254 104H341.304V106H350.254V104ZM342.304 105V77.7H340.304V105H342.304ZM341.304 78.7H348.504V76.7H341.304V78.7ZM347.504 77.7V88.5H349.504V77.7H347.504Z" fill="white"/>
</svg>
