<svg width="598" height="120" viewBox="0 0 598 120" fill="none" xmlns="http://www.w3.org/2000/svg">
<path d="M9.74121 26.1504V47H3.34473V12.6006H12.9883L19.1406 31.8389C19.4173 32.9131 19.7021 33.9954 19.9951 35.0859C20.2881 36.1602 20.5729 37.2344 20.8496 38.3086C21.0286 37.6901 21.1995 37.0798 21.3623 36.4775C21.5251 35.859 21.6878 35.2406 21.8506 34.6221C22.0296 34.0036 22.2087 33.3932 22.3877 32.791L28.7109 12.6006H38.3057V47H31.9092V26.1504C31.9092 25.6784 31.9255 24.7344 31.958 23.3184C32.0068 21.8861 32.0719 20.3317 32.1533 18.6553C31.5837 20.8363 31.0791 22.6917 30.6396 24.2217C30.2165 25.7516 29.8665 26.9479 29.5898 27.8105L23.3887 47H18.2617L12.0605 27.8105L9.44824 18.6553C9.5459 20.5433 9.61914 22.1139 9.66797 23.3672C9.7168 24.6042 9.74121 25.5319 9.74121 26.1504ZM74.8291 36.4775C74.8291 38.5446 74.3164 40.3757 73.291 41.9707C72.2656 43.5495 70.8008 44.7865 68.8965 45.6816C66.9922 46.5605 64.7298 47 62.1094 47H44.9951V12.6006H52.1973V26.2969H62.8906C66.7155 26.2969 69.6615 27.1921 71.7285 28.9824C73.7956 30.7565 74.8291 33.2549 74.8291 36.4775ZM87.2559 12.6006V47H80.0537V12.6006H87.2559ZM67.5537 36.5752C67.5537 35.0615 66.984 33.8978 65.8447 33.084C64.7217 32.2539 63.0371 31.8389 60.791 31.8389H52.1973V41.3848H60.9375C63.151 41.3848 64.8031 40.986 65.8936 40.1885C67.0003 39.3747 67.5537 38.1702 67.5537 36.5752ZM115.088 18.167V46.9756H107.886V12.6006H131.909V18.167H115.088ZM169.019 29.6416C169.019 33.2223 168.294 36.3555 166.846 39.041C165.413 41.7103 163.387 43.7855 160.767 45.2666C158.162 46.7477 155.103 47.4883 151.587 47.4883C147.99 47.4883 144.897 46.7721 142.31 45.3398C139.722 43.8913 137.736 41.8324 136.353 39.1631C134.969 36.4938 134.277 33.32 134.277 29.6416C134.277 25.9632 134.961 22.8138 136.328 20.1934C137.712 17.5729 139.697 15.571 142.285 14.1875C144.889 12.7878 148.006 12.0879 151.636 12.0879C155.282 12.0879 158.398 12.7959 160.986 14.2119C163.574 15.6117 165.56 17.6217 166.943 20.2422C168.327 22.8626 169.019 25.9958 169.019 29.6416ZM161.67 29.6416C161.67 25.9307 160.791 23.0254 159.033 20.9258C157.275 18.8099 154.81 17.752 151.636 17.752C148.413 17.752 145.923 18.8018 144.165 20.9014C142.407 22.9847 141.528 25.8981 141.528 29.6416C141.528 32.1481 141.935 34.3128 142.749 36.1357C143.563 37.9587 144.718 39.3665 146.216 40.3594C147.729 41.3359 149.52 41.8242 151.587 41.8242C154.81 41.8242 157.292 40.7663 159.033 38.6504C160.791 36.5345 161.67 33.5316 161.67 29.6416ZM202.783 23.4893C202.783 25.7191 202.271 27.6966 201.245 29.4219C200.236 31.1309 198.796 32.4736 196.924 33.4502C195.052 34.4105 192.822 34.8906 190.234 34.8906H181.689V47H174.487V12.6006H189.941C194.059 12.6006 197.225 13.5527 199.438 15.457C201.668 17.3451 202.783 20.0225 202.783 23.4893ZM195.532 23.6113C195.532 19.998 193.4 18.1914 189.136 18.1914H181.689V29.3486H189.331C191.317 29.3486 192.847 28.8604 193.921 27.8838C194.995 26.891 195.532 25.4668 195.532 23.6113ZM207.861 47V56.9609H201.758V41.043H205.566C206.738 38.9108 207.78 36.2822 208.691 33.1572C209.603 30.016 210.295 26.7852 210.767 23.4648L212.256 12.6006H231.519V41.043H236.035V56.9609H229.932V47H207.861ZM213.11 41.043H224.561V18.5576H218.164L217.407 24.2705C217.098 26.484 216.715 28.6488 216.26 30.7646C215.804 32.8805 215.308 34.8255 214.771 36.5996C214.233 38.3574 213.68 39.8385 213.11 41.043ZM263.354 20.5107L248.486 47H240.283V12.6006H246.68V32.5957C246.68 33.4583 246.663 34.4512 246.631 35.5742C246.598 36.6973 246.549 37.9424 246.484 39.3096L261.45 12.6006H269.556V47H263.159V26.7119C263.159 26.0771 263.175 25.2471 263.208 24.2217C263.241 23.18 263.289 21.943 263.354 20.5107ZM282.642 26.1504V47H276.245V12.6006H285.889L292.041 31.8389C292.318 32.9131 292.603 33.9954 292.896 35.0859C293.188 36.1602 293.473 37.2344 293.75 38.3086C293.929 37.6901 294.1 37.0798 294.263 36.4775C294.425 35.859 294.588 35.2406 294.751 34.6221C294.93 34.0036 295.109 33.3932 295.288 32.791L301.611 12.6006H311.206V47H304.81V26.1504C304.81 25.6784 304.826 24.7344 304.858 23.3184C304.907 21.8861 304.972 20.3317 305.054 18.6553C304.484 20.8363 303.979 22.6917 303.54 24.2217C303.117 25.7516 302.767 26.9479 302.49 27.8105L296.289 47H291.162L284.961 27.8105L282.349 18.6553C282.446 20.5433 282.52 22.1139 282.568 23.3672C282.617 24.6042 282.642 25.5319 282.642 26.1504ZM333.96 41.8242C338.322 41.8242 341.341 39.6432 343.018 35.2812L349.292 37.6494C347.941 40.9697 345.955 43.4437 343.335 45.0713C340.731 46.6826 337.606 47.4883 333.96 47.4883C330.282 47.4883 327.148 46.7884 324.561 45.3887C321.973 43.9727 319.995 41.93 318.628 39.2607C317.277 36.5915 316.602 33.3851 316.602 29.6416C316.602 25.8656 317.253 22.6755 318.555 20.0713C319.857 17.4671 321.777 15.4896 324.316 14.1387C326.855 12.7715 329.964 12.0879 333.643 12.0879C337.679 12.0879 340.967 12.9017 343.506 14.5293C346.045 16.1406 347.827 18.5169 348.853 21.6582L342.505 23.3916C341.968 21.6663 340.91 20.2992 339.331 19.29C337.769 18.2646 335.921 17.752 333.789 17.752C330.534 17.752 328.06 18.7611 326.367 20.7793C324.691 22.7975 323.853 25.7516 323.853 29.6416C323.853 32.2783 324.235 34.5 325 36.3066C325.781 38.1133 326.921 39.4886 328.418 40.4326C329.932 41.3604 331.779 41.8242 333.96 41.8242ZM367.627 33.9385L359.644 47H351.538L360.84 32.5469C358.512 31.9935 356.665 30.846 355.298 29.1045C353.931 27.3467 353.247 25.2633 353.247 22.8545C353.247 19.5505 354.362 17.0195 356.592 15.2617C358.838 13.4876 362.004 12.6006 366.089 12.6006H383.276V47H376.074V33.9385H367.627ZM360.498 23.1475C360.498 24.7751 361.011 26.0527 362.036 26.9805C363.078 27.8919 364.616 28.3477 366.65 28.3477H376.074V18.1914H366.846C364.73 18.1914 363.143 18.6064 362.085 19.4365C361.027 20.2666 360.498 21.5036 360.498 23.1475Z" fill="white"/>
<path d="M10.5469 92.2539V91.2539H9.54688V92.2539H10.5469ZM10.5469 107V108H11.5469V107H10.5469ZM3.34473 107H2.34473V108H3.34473V107ZM3.34473 72.6006V71.6006H2.34473V72.6006H3.34473ZM10.5469 72.6006H11.5469V71.6006H10.5469V72.6006ZM10.5469 86.2969H9.54688V87.2969H10.5469V86.2969ZM25.5371 86.2969V87.2969H26.5371V86.2969H25.5371ZM25.5371 72.6006V71.6006H24.5371V72.6006H25.5371ZM32.7393 72.6006H33.7393V71.6006H32.7393V72.6006ZM32.7393 107V108H33.7393V107H32.7393ZM25.5371 107H24.5371V108H25.5371V107ZM25.5371 92.2539H26.5371V91.2539H25.5371V92.2539ZM9.54688 92.2539V107H11.5469V92.2539H9.54688ZM10.5469 106H3.34473V108H10.5469V106ZM4.34473 107V72.6006H2.34473V107H4.34473ZM3.34473 73.6006H10.5469V71.6006H3.34473V73.6006ZM9.54688 72.6006V86.2969H11.5469V72.6006H9.54688ZM10.5469 87.2969H25.5371V85.2969H10.5469V87.2969ZM26.5371 86.2969V72.6006H24.5371V86.2969H26.5371ZM25.5371 73.6006H32.7393V71.6006H25.5371V73.6006ZM31.7393 72.6006V107H33.7393V72.6006H31.7393ZM32.7393 106H25.5371V108H32.7393V106ZM26.5371 107V92.2539H24.5371V107H26.5371ZM25.5371 91.2539H10.5469V93.2539H25.5371V91.2539ZM47.6318 98.2109V97.2109H46.9205L46.6872 97.8829L47.6318 98.2109ZM44.5801 107V108H45.2914L45.5248 107.328L44.5801 107ZM37.3779 107L36.4385 106.657L35.9487 108H37.3779V107ZM49.9268 72.6006V71.6006H49.2271L48.9873 72.2579L49.9268 72.6006ZM58.4229 72.6006L59.3627 72.2591L59.1234 71.6006H58.4229V72.6006ZM70.9229 107V108H72.3502L71.8627 106.658L70.9229 107ZM63.7939 107L62.8493 107.328L63.0826 108H63.7939V107ZM60.7422 98.2109L61.6869 97.8829L61.4535 97.2109H60.7422V98.2109ZM54.1748 77.8984L55.128 77.5962L54.0609 74.2308L53.2047 77.6559L54.1748 77.8984ZM52.8564 82.1709L51.9119 81.8424L51.9097 81.8488L52.8564 82.1709ZM49.2432 92.791L48.2965 92.4689L47.8466 93.791H49.2432V92.791ZM59.1309 92.791V93.791H60.5302L60.077 92.4671L59.1309 92.791ZM55.4199 81.9512L54.4736 82.2743L54.4738 82.2751L55.4199 81.9512ZM46.6872 97.8829L43.6354 106.672L45.5248 107.328L48.5765 98.5389L46.6872 97.8829ZM44.5801 106H37.3779V108H44.5801V106ZM38.3174 107.343L50.8662 72.9433L48.9873 72.2579L36.4385 106.657L38.3174 107.343ZM49.9268 73.6006H58.4229V71.6006H49.9268V73.6006ZM57.483 72.9421L69.983 107.342L71.8627 106.658L59.3627 72.2591L57.483 72.9421ZM70.9229 106H63.7939V108H70.9229V106ZM64.7386 106.672L61.6869 97.8829L59.7975 98.5389L62.8493 107.328L64.7386 106.672ZM60.7422 97.2109H47.6318V99.2109H60.7422V97.2109ZM53.2047 77.6559C53.049 78.2787 52.828 79.0377 52.5392 79.9362L54.4432 80.5482C54.7404 79.6238 54.9751 78.8202 55.1449 78.141L53.2047 77.6559ZM52.5392 79.9362C52.2462 80.8476 52.0378 81.4804 51.9119 81.8424L53.8009 82.4994C53.9355 82.1127 54.1503 81.4597 54.4432 80.5482L52.5392 79.9362ZM51.9097 81.8488L48.2965 92.4689L50.1899 93.1131L53.8032 82.493L51.9097 81.8488ZM49.2432 93.791H59.1309V91.791H49.2432V93.791ZM60.077 92.4671L56.366 81.6273L54.4738 82.2751L58.1848 93.1149L60.077 92.4671ZM56.3663 81.628C56.1439 80.9769 55.9374 80.3175 55.7467 79.6501L53.8236 80.1995C54.0236 80.8993 54.2402 81.5909 54.4736 82.2743L56.3663 81.628ZM55.7467 79.6501C55.5488 78.9574 55.3426 78.2728 55.128 77.5962L53.2216 78.2007C53.4302 78.8587 53.6309 79.525 53.8236 80.1995L55.7467 79.6501ZM119.165 72.6006H120.165V71.6006H119.165V72.6006ZM119.165 107V108H120.165V107H119.165ZM75.6104 107H74.6104V108H75.6104V107ZM75.6104 72.6006V71.6006H74.6104V72.6006H75.6104ZM82.5684 72.6006H83.5684V71.6006H82.5684V72.6006ZM82.5684 101.043H81.5684V102.043H82.5684V101.043ZM93.8965 101.043V102.043H94.8965V101.043H93.8965ZM93.8965 72.6006V71.6006H92.8965V72.6006H93.8965ZM100.854 72.6006H101.854V71.6006H100.854V72.6006ZM100.854 101.043H99.8545V102.043H100.854V101.043ZM112.207 101.043V102.043H113.207V101.043H112.207ZM112.207 72.6006V71.6006H111.207V72.6006H112.207ZM118.165 72.6006V107H120.165V72.6006H118.165ZM119.165 106H75.6104V108H119.165V106ZM76.6104 107V72.6006H74.6104V107H76.6104ZM75.6104 73.6006H82.5684V71.6006H75.6104V73.6006ZM81.5684 72.6006V101.043H83.5684V72.6006H81.5684ZM82.5684 102.043H93.8965V100.043H82.5684V102.043ZM94.8965 101.043V72.6006H92.8965V101.043H94.8965ZM93.8965 73.6006H100.854V71.6006H93.8965V73.6006ZM99.8545 72.6006V101.043H101.854V72.6006H99.8545ZM100.854 102.043H112.207V100.043H100.854V102.043ZM113.207 101.043V72.6006H111.207V101.043H113.207ZM112.207 73.6006H119.165V71.6006H112.207V73.6006ZM148.901 80.5107L149.9 80.5562L148.029 80.0213L148.901 80.5107ZM134.033 107V108H134.619L134.905 107.489L134.033 107ZM125.83 107H124.83V108H125.83V107ZM125.83 72.6006V71.6006H124.83V72.6006H125.83ZM132.227 72.6006H133.227V71.6006H132.227V72.6006ZM132.031 99.3096L131.032 99.262L132.904 99.7984L132.031 99.3096ZM146.997 72.6006V71.6006H146.411L146.125 72.1118L146.997 72.6006ZM155.103 72.6006H156.103V71.6006H155.103V72.6006ZM155.103 107V108H156.103V107H155.103ZM148.706 107H147.706V108H148.706V107ZM148.755 84.2217L149.754 84.2534L149.754 84.2529L148.755 84.2217ZM148.029 80.0213L133.161 106.511L134.905 107.489L149.773 81.0002L148.029 80.0213ZM134.033 106H125.83V108H134.033V106ZM126.83 107V72.6006H124.83V107H126.83ZM125.83 73.6006H132.227V71.6006H125.83V73.6006ZM131.227 72.6006V92.5957H133.227V72.6006H131.227ZM131.227 92.5957C131.227 93.4463 131.211 94.4291 131.178 95.5452L133.177 95.6032C133.21 94.4732 133.227 93.4704 133.227 92.5957H131.227ZM131.178 95.5452C131.146 96.6609 131.097 97.8997 131.032 99.262L133.03 99.3571C133.095 97.985 133.145 96.7336 133.177 95.6032L131.178 95.5452ZM132.904 99.7984L147.869 73.0894L146.125 72.1118L131.159 98.8207L132.904 99.7984ZM146.997 73.6006H155.103V71.6006H146.997V73.6006ZM154.103 72.6006V107H156.103V72.6006H154.103ZM155.103 106H148.706V108H155.103V106ZM149.706 107V86.7119H147.706V107H149.706ZM149.706 86.7119C149.706 86.0921 149.722 85.2738 149.754 84.2534L147.755 84.1899C147.723 85.2203 147.706 86.0622 147.706 86.7119H149.706ZM149.754 84.2529C149.787 83.2174 149.835 81.9853 149.9 80.5562L147.902 80.4653C147.837 81.9007 147.788 83.1427 147.755 84.1904L149.754 84.2529ZM168.188 107V108H169.188V107H168.188ZM161.792 107H160.792V108H161.792V107ZM161.792 72.6006V71.6006H160.792V72.6006H161.792ZM171.436 72.6006L172.388 72.296L172.166 71.6006H171.436V72.6006ZM177.588 91.8389L178.556 91.5894L178.549 91.5616L178.54 91.5343L177.588 91.8389ZM178.442 95.0859L177.477 95.3454L177.478 95.3491L178.442 95.0859ZM179.297 98.3086L178.328 98.558L179.241 102.099L180.257 98.5867L179.297 98.3086ZM179.81 96.4775L180.775 96.7385L180.777 96.732L179.81 96.4775ZM180.298 94.6221L179.337 94.344L179.334 94.3558L179.331 94.3676L180.298 94.6221ZM180.835 92.791L179.881 92.4921L179.878 92.4991L179.876 92.506L180.835 92.791ZM187.158 72.6006V71.6006H186.423L186.204 72.3017L187.158 72.6006ZM196.753 72.6006H197.753V71.6006H196.753V72.6006ZM196.753 107V108H197.753V107H196.753ZM190.356 107H189.356V108H190.356V107ZM190.405 83.3184L189.406 83.2843L189.406 83.2954L190.405 83.3184ZM190.601 78.6553L191.599 78.7038L189.633 78.4026L190.601 78.6553ZM189.087 84.2217L188.126 83.9456L188.123 83.9551L189.087 84.2217ZM188.037 87.8105L188.989 88.118L188.989 88.116L188.037 87.8105ZM181.836 107V108H182.564L182.787 107.307L181.836 107ZM176.709 107L175.757 107.307L175.981 108H176.709V107ZM170.508 87.8105L169.546 88.0849L169.551 88.1016L169.556 88.118L170.508 87.8105ZM167.896 78.6553L168.857 78.3809L166.897 78.7069L167.896 78.6553ZM168.115 83.3672L167.116 83.4061L167.116 83.4066L168.115 83.3672ZM167.188 86.1504V107H169.188V86.1504H167.188ZM168.188 106H161.792V108H168.188V106ZM162.792 107V72.6006H160.792V107H162.792ZM161.792 73.6006H171.436V71.6006H161.792V73.6006ZM170.483 72.9052L176.635 92.1435L178.54 91.5343L172.388 72.296L170.483 72.9052ZM176.619 92.0883C176.897 93.1659 177.183 94.2516 177.477 95.3454L179.408 94.8265C179.116 93.7393 178.832 92.6602 178.556 91.5894L176.619 92.0883ZM177.478 95.3491C177.769 96.4187 178.053 97.4884 178.328 98.558L180.265 98.0592C179.987 96.9804 179.701 95.9016 179.407 94.8228L177.478 95.3491ZM180.257 98.5867C180.438 97.9626 180.611 97.3466 180.775 96.7384L178.844 96.2166C178.683 96.8129 178.514 97.4176 178.336 98.0305L180.257 98.5867ZM180.777 96.732C180.787 96.6945 180.828 96.5376 180.838 96.5001C180.848 96.4626 180.889 96.3057 180.899 96.2682C180.909 96.2307 180.95 96.0737 180.96 96.0362C180.97 95.9987 181.011 95.8418 181.021 95.8043C181.096 95.5175 181.189 95.1634 181.265 94.8766L179.331 94.3676C179.321 94.4051 179.28 94.562 179.27 94.5995C179.26 94.637 179.219 94.7939 179.209 94.8314C179.199 94.8689 179.158 95.0259 179.148 95.0634C179.138 95.1009 179.097 95.2578 179.087 95.2953C179.011 95.5821 178.918 95.9362 178.842 96.223L180.777 96.732ZM181.258 94.9001C181.437 94.2839 181.615 93.6758 181.794 93.076L179.876 92.506C179.697 93.1106 179.517 93.7233 179.337 94.344L181.258 94.9001ZM181.789 93.0899L188.113 72.8995L186.204 72.3017L179.881 92.4921L181.789 93.0899ZM187.158 73.6006H196.753V71.6006H187.158V73.6006ZM195.753 72.6006V107H197.753V72.6006H195.753ZM196.753 106H190.356V108H196.753V106ZM191.356 107V86.1504H189.356V107H191.356ZM191.356 86.1504C191.356 85.6918 191.372 84.7593 191.405 83.3413L189.406 83.2954C189.373 84.7095 189.356 85.665 189.356 86.1504H191.356ZM191.405 83.3524C191.453 81.9257 191.518 80.3762 191.599 78.7038L189.602 78.6068C189.52 80.2872 189.455 81.8465 189.406 83.2843L191.405 83.3524ZM189.633 78.4026C189.065 80.5787 188.562 82.4259 188.126 83.9456L190.048 84.4978C190.49 82.9576 190.997 81.0939 191.568 78.908L189.633 78.4026ZM188.123 83.9551C187.701 85.4801 187.356 86.6614 187.085 87.5051L188.989 88.116C189.272 87.2344 189.626 86.0231 190.051 84.4883L188.123 83.9551ZM187.086 87.503L180.884 106.693L182.787 107.307L188.989 88.118L187.086 87.503ZM181.836 106H176.709V108H181.836V106ZM177.661 106.693L171.459 87.503L169.556 88.118L175.757 107.307L177.661 106.693ZM171.469 87.5362L168.857 78.3809L166.934 78.9297L169.546 88.0849L171.469 87.5362ZM166.897 78.7069C166.994 80.5926 167.067 82.1586 167.116 83.4061L169.114 83.3283C169.065 82.0692 168.992 80.494 168.894 78.6036L166.897 78.7069ZM167.116 83.4066C167.165 84.6407 167.188 85.5524 167.188 86.1504H169.188C169.188 85.5114 169.163 84.5676 169.114 83.3277L167.116 83.4066ZM226.489 80.5107L227.488 80.5562L225.617 80.0213L226.489 80.5107ZM211.621 107V108H212.207L212.493 107.489L211.621 107ZM203.418 107H202.418V108H203.418V107ZM203.418 72.6006V71.6006H202.418V72.6006H203.418ZM209.814 72.6006H210.814V71.6006H209.814V72.6006ZM209.619 99.3096L208.62 99.262L210.492 99.7984L209.619 99.3096ZM224.585 72.6006V71.6006H223.999L223.713 72.1118L224.585 72.6006ZM232.69 72.6006H233.69V71.6006H232.69V72.6006ZM232.69 107V108H233.69V107H232.69ZM226.294 107H225.294V108H226.294V107ZM226.343 84.2217L227.342 84.2534L227.342 84.2529L226.343 84.2217ZM225.617 80.0213L210.749 106.511L212.493 107.489L227.361 81.0002L225.617 80.0213ZM211.621 106H203.418V108H211.621V106ZM204.418 107V72.6006H202.418V107H204.418ZM203.418 73.6006H209.814V71.6006H203.418V73.6006ZM208.814 72.6006V92.5957H210.814V72.6006H208.814ZM208.814 92.5957C208.814 93.4463 208.798 94.4291 208.766 95.5452L210.765 95.6032C210.798 94.4732 210.814 93.4704 210.814 92.5957H208.814ZM208.766 95.5452C208.734 96.6609 208.685 97.8997 208.62 99.262L210.618 99.3571C210.683 97.985 210.732 96.7336 210.765 95.6032L208.766 95.5452ZM210.492 99.7984L225.457 73.0894L223.713 72.1118L208.747 98.8207L210.492 99.7984ZM224.585 73.6006H232.69V71.6006H224.585V73.6006ZM231.69 72.6006V107H233.69V72.6006H231.69ZM232.69 106H226.294V108H232.69V106ZM227.294 107V86.7119H225.294V107H227.294ZM227.294 86.7119C227.294 86.0921 227.31 85.2738 227.342 84.2534L225.343 84.1899C225.311 85.2203 225.294 86.0622 225.294 86.7119H227.294ZM227.342 84.2529C227.375 83.2174 227.423 81.9853 227.488 80.5562L225.49 80.4653C225.425 81.9007 225.376 83.1427 225.343 84.1904L227.342 84.2529ZM260.474 78.5576V77.5576H259.474V78.5576H260.474ZM260.474 107V108H261.474V107H260.474ZM253.296 107H252.296V108H253.296V107ZM253.296 72.6006V71.6006H252.296V72.6006H253.296ZM282.544 72.6006H283.544V71.6006H282.544V72.6006ZM282.544 107V108H283.544V107H282.544ZM275.586 107H274.586V108H275.586V107ZM275.586 78.5576H276.586V77.5576H275.586V78.5576ZM259.474 78.5576V107H261.474V78.5576H259.474ZM260.474 106H253.296V108H260.474V106ZM254.296 107V72.6006H252.296V107H254.296ZM253.296 73.6006H282.544V71.6006H253.296V73.6006ZM281.544 72.6006V107H283.544V72.6006H281.544ZM282.544 106H275.586V108H282.544V106ZM276.586 107V78.5576H274.586V107H276.586ZM275.586 77.5576H260.474V79.5576H275.586V77.5576ZM315.991 89.4219L315.132 88.911L315.13 88.9134L315.991 89.4219ZM311.67 93.4502L312.126 94.34L312.132 94.3368L311.67 93.4502ZM296.436 94.8906V93.8906H295.436V94.8906H296.436ZM296.436 107V108H297.436V107H296.436ZM289.233 107H288.233V108H289.233V107ZM289.233 72.6006V71.6006H288.233V72.6006H289.233ZM314.185 75.457L313.532 76.2151L313.538 76.2202L314.185 75.457ZM296.436 78.1914V77.1914H295.436V78.1914H296.436ZM296.436 89.3486H295.436V90.3486H296.436V89.3486ZM308.667 87.8838L309.34 88.6238L309.346 88.6182L308.667 87.8838ZM316.529 83.4893C316.529 85.5598 316.055 87.357 315.132 88.911L316.851 89.9328C317.978 88.0362 318.529 85.8784 318.529 83.4893H316.529ZM315.13 88.9134C314.222 90.4513 312.925 91.6677 311.207 92.5636L312.132 94.3368C314.159 93.2796 315.742 91.8105 316.852 89.9303L315.13 88.9134ZM311.213 92.5605C309.512 93.4335 307.446 93.8906 304.98 93.8906V95.8906C307.691 95.8906 310.085 95.3875 312.126 94.3399L311.213 92.5605ZM304.98 93.8906H296.436V95.8906H304.98V93.8906ZM295.436 94.8906V107H297.436V94.8906H295.436ZM296.436 106H289.233V108H296.436V106ZM290.233 107V72.6006H288.233V107H290.233ZM289.233 73.6006H304.688V71.6006H289.233V73.6006ZM304.688 73.6006C308.663 73.6006 311.562 74.5204 313.532 76.2151L314.837 74.699C312.38 72.5851 308.947 71.6006 304.688 71.6006V73.6006ZM313.538 76.2202C315.501 77.8823 316.529 80.2559 316.529 83.4893H318.529C318.529 79.789 317.327 76.8078 314.831 74.6939L313.538 76.2202ZM311.278 83.6113C311.278 81.6032 310.678 79.9293 309.326 78.7834C308.005 77.6644 306.131 77.1914 303.882 77.1914V79.1914C305.897 79.1914 307.221 79.6217 308.033 80.3093C308.813 80.9701 309.278 82.0062 309.278 83.6113H311.278ZM303.882 77.1914H296.436V79.1914H303.882V77.1914ZM295.436 78.1914V89.3486H297.436V78.1914H295.436ZM296.436 90.3486H304.077V88.3486H296.436V90.3486ZM304.077 90.3486C306.219 90.3486 308.023 89.8208 309.34 88.6237L307.994 87.1438C307.163 87.8999 305.906 88.3486 304.077 88.3486V90.3486ZM309.346 88.6182C310.677 87.388 311.278 85.666 311.278 83.6113H309.278C309.278 85.2676 308.806 86.3939 307.988 87.1494L309.346 88.6182ZM353.174 99.041L352.294 98.5663L352.293 98.5682L353.174 99.041ZM347.095 105.267L346.603 104.396L346.6 104.397L347.095 105.267ZM328.638 105.34L328.149 106.212L328.153 106.215L328.638 105.34ZM322.656 80.1934L321.772 79.7265L321.77 79.7308L322.656 80.1934ZM328.613 74.1875L329.085 75.0694L329.087 75.0683L328.613 74.1875ZM347.314 74.2119L346.834 75.0892L346.839 75.0915L347.314 74.2119ZM345.361 80.9258L344.592 81.5648L344.595 81.5677L345.361 80.9258ZM330.493 80.9014L331.257 81.5462L331.26 81.5433L330.493 80.9014ZM332.544 100.359L331.991 101.193L332.002 101.2L332.544 100.359ZM345.361 98.6504L344.592 98.0114L344.589 98.0149L345.361 98.6504ZM354.347 89.6416C354.347 93.0854 353.651 96.05 352.294 98.5663L354.054 99.5158C355.594 96.6609 356.347 93.3592 356.347 89.6416H354.347ZM352.293 98.5682C350.949 101.072 349.057 103.009 346.603 104.396L347.587 106.137C350.373 104.562 352.534 102.349 354.055 99.5138L352.293 98.5682ZM346.6 104.397C344.171 105.779 341.288 106.488 337.915 106.488V108.488C341.574 108.488 344.81 107.716 347.589 106.136L346.6 104.397ZM337.915 106.488C334.451 106.488 331.533 105.799 329.122 104.465L328.153 106.215C330.918 107.745 334.185 108.488 337.915 108.488V106.488ZM329.126 104.467C326.711 103.116 324.863 101.201 323.569 98.7029L321.793 99.6232C323.265 102.464 325.388 104.667 328.149 106.212L329.126 104.467ZM323.569 98.7029C322.273 96.2042 321.605 93.1951 321.605 89.6416H319.605C319.605 93.4448 320.321 96.7834 321.793 99.6232L323.569 98.7029ZM321.605 89.6416C321.605 86.0856 322.266 83.1028 323.543 80.6559L321.77 79.7308C320.312 82.5248 319.605 85.8408 319.605 89.6416H321.605ZM323.541 80.6602C324.832 78.2144 326.675 76.3578 329.085 75.0694L328.142 73.3056C325.376 74.7841 323.248 76.9315 321.772 79.7265L323.541 80.6602ZM329.087 75.0683C331.516 73.7627 334.462 73.0879 337.964 73.0879V71.0879C334.206 71.0879 330.919 71.8128 328.14 73.3067L329.087 75.0683ZM337.964 73.0879C341.481 73.0879 344.425 73.7706 346.834 75.0892L347.794 73.3347C345.029 71.8212 341.738 71.0879 337.964 71.0879V73.0879ZM346.839 75.0915C349.251 76.3964 351.095 78.2622 352.387 80.7091L354.156 79.7753C352.681 76.9812 350.553 74.8269 347.79 73.3323L346.839 75.0915ZM352.387 80.7091C353.679 83.1561 354.347 86.1215 354.347 89.6416H356.347C356.347 85.87 355.631 82.5691 354.156 79.7753L352.387 80.7091ZM348.998 89.6416C348.998 85.7794 348.083 82.6185 346.128 80.2838L344.595 81.5677C346.156 83.4323 346.998 86.0819 346.998 89.6416H348.998ZM346.131 80.2868C344.152 77.9056 341.384 76.752 337.964 76.752V78.752C340.891 78.752 343.055 79.7142 344.592 81.5648L346.131 80.2868ZM337.964 76.752C334.503 76.752 331.709 77.8918 329.726 80.2594L331.26 81.5433C332.793 79.7117 334.979 78.752 337.964 78.752V76.752ZM329.729 80.2565C327.77 82.5776 326.856 85.75 326.856 89.6416H328.856C328.856 86.0463 329.7 83.3918 331.257 81.5462L329.729 80.2565ZM326.856 89.6416C326.856 92.2538 327.28 94.5639 328.164 96.5434L329.99 95.7281C329.246 94.0618 328.856 92.0424 328.856 89.6416H326.856ZM328.164 96.5434C329.046 98.5197 330.319 100.084 331.991 101.193L333.097 99.5259C331.775 98.6494 330.736 97.3976 329.99 95.7281L328.164 96.5434ZM332.002 101.2C333.7 102.295 335.685 102.824 337.915 102.824V100.824C336.011 100.824 334.415 100.377 333.086 99.5191L332.002 101.2ZM337.915 102.824C341.378 102.824 344.168 101.674 346.133 99.2859L344.589 98.0149C343.072 99.8583 340.897 100.824 337.915 100.824V102.824ZM346.131 99.2894C348.089 96.9323 348.998 93.6698 348.998 89.6416H346.998C346.998 93.3933 346.15 96.1367 344.592 98.0114L346.131 99.2894ZM363.33 107V106H362.33V107H363.33ZM363.33 116.961V117.961H364.33V116.961H363.33ZM357.227 116.961H356.227V117.961H357.227V116.961ZM357.227 101.043V100.043H356.227V101.043H357.227ZM361.035 101.043V102.043H361.627L361.911 101.525L361.035 101.043ZM364.16 93.1572L365.12 93.4372L365.121 93.4359L364.16 93.1572ZM366.235 83.4648L367.225 83.6056L367.226 83.6007L366.235 83.4648ZM367.725 72.6006V71.6006H366.852L366.734 72.4648L367.725 72.6006ZM386.987 72.6006H387.987V71.6006H386.987V72.6006ZM386.987 101.043H385.987V102.043H386.987V101.043ZM391.504 101.043H392.504V100.043H391.504V101.043ZM391.504 116.961V117.961H392.504V116.961H391.504ZM385.4 116.961H384.4V117.961H385.4V116.961ZM385.4 107H386.4V106H385.4V107ZM368.579 101.043L367.675 100.615L367 102.043H368.579V101.043ZM380.029 101.043V102.043H381.029V101.043H380.029ZM380.029 78.5576H381.029V77.5576H380.029V78.5576ZM373.633 78.5576V77.5576H372.757L372.641 78.4263L373.633 78.5576ZM372.876 84.2705L373.866 84.4089L373.867 84.4018L372.876 84.2705ZM370.239 96.5996L371.196 96.8918L371.196 96.8894L370.239 96.5996ZM362.33 107V116.961H364.33V107H362.33ZM363.33 115.961H357.227V117.961H363.33V115.961ZM358.227 116.961V101.043H356.227V116.961H358.227ZM357.227 102.043H361.035V100.043H357.227V102.043ZM361.911 101.525C363.128 99.3112 364.195 96.6104 365.12 93.4372L363.2 92.8772C362.303 95.9541 361.286 98.5104 360.159 100.561L361.911 101.525ZM365.121 93.4359C366.045 90.2483 366.747 86.9713 367.225 83.6056L365.245 83.3241C364.78 86.599 364.098 89.7836 363.2 92.8786L365.121 93.4359ZM367.226 83.6007L368.715 72.7364L366.734 72.4648L365.245 83.329L367.226 83.6007ZM367.725 73.6006H386.987V71.6006H367.725V73.6006ZM385.987 72.6006V101.043H387.987V72.6006H385.987ZM386.987 102.043H391.504V100.043H386.987V102.043ZM390.504 101.043V116.961H392.504V101.043H390.504ZM391.504 115.961H385.4V117.961H391.504V115.961ZM386.4 116.961V107H384.4V116.961H386.4ZM385.4 106H363.33V108H385.4V106ZM368.579 102.043H380.029V100.043H368.579V102.043ZM381.029 101.043V78.5576H379.029V101.043H381.029ZM380.029 77.5576H373.633V79.5576H380.029V77.5576ZM372.641 78.4263L371.885 84.1392L373.867 84.4018L374.624 78.6889L372.641 78.4263ZM371.886 84.1321C371.58 86.3223 371.201 88.4629 370.751 90.5541L372.706 90.9752C373.167 88.8347 373.554 86.6458 373.866 84.4089L371.886 84.1321ZM370.751 90.5541C370.3 92.6476 369.81 94.5658 369.282 96.3098L371.196 96.8894C371.743 95.0853 372.246 93.1135 372.706 90.9752L370.751 90.5541ZM369.283 96.3074C368.755 98.0349 368.218 99.4677 367.675 100.615L369.483 101.471C370.08 100.209 370.649 98.6799 371.196 96.8918L369.283 96.3074ZM397.949 107.049L398.198 106.08L398.185 106.077L397.949 107.049ZM395.215 106.023L394.266 105.707L394.012 106.471L394.703 106.883L395.215 106.023ZM397.217 100.018L397.644 99.1132L396.624 98.6323L396.268 99.7014L397.217 100.018ZM403.076 100.604L402.608 99.7197L402.597 99.7256L403.076 100.604ZM404.639 99.1875L405.439 99.7875L405.446 99.7782L405.452 99.7687L404.639 99.1875ZM406.665 95.3545L407.573 95.773L407.794 95.2946L407.524 94.8422L406.665 95.3545ZM393.091 72.6006V71.6006H391.33L392.232 73.1129L393.091 72.6006ZM400.586 72.6006L401.454 72.105L401.167 71.6006H400.586V72.6006ZM410.059 89.2021L409.19 89.6977L410.176 91.4257L410.975 89.6035L410.059 89.2021ZM417.334 72.6006V71.6006H416.68L416.418 72.1992L417.334 72.6006ZM424.634 72.6006L425.535 73.0342L426.225 71.6006H424.634V72.6006ZM411.816 99.2363L410.915 98.8027L410.915 98.8042L411.816 99.2363ZM408.74 104.363L409.496 105.018L409.497 105.017L408.74 104.363ZM405.566 106.756L405.956 107.677L405.962 107.674L405.566 106.756ZM401.392 106.488C400.322 106.488 399.258 106.353 398.198 106.08L397.7 108.017C398.919 108.331 400.15 108.488 401.392 108.488V106.488ZM398.185 106.077C397.101 105.814 396.294 105.502 395.726 105.164L394.703 106.883C395.503 107.359 396.518 107.73 397.713 108.021L398.185 106.077ZM396.164 106.34L398.165 100.334L396.268 99.7014L394.266 105.707L396.164 106.34ZM396.79 100.922C398.324 101.646 399.774 102.043 401.123 102.043V100.043C400.161 100.043 399.007 99.7567 397.644 99.1132L396.79 100.922ZM401.123 102.043C402.014 102.043 402.839 101.872 403.555 101.481L402.597 99.7256C402.239 99.9208 401.762 100.043 401.123 100.043V102.043ZM403.544 101.487C404.261 101.108 404.887 100.523 405.439 99.7875L403.839 98.5875C403.413 99.1546 402.999 99.5131 402.608 99.7197L403.544 101.487ZM405.452 99.7687C406.002 98.9998 406.711 97.6434 407.573 95.773L405.757 94.9359C404.894 96.8091 404.252 98.008 403.825 98.6063L405.452 99.7687ZM407.524 94.8422L393.95 72.0883L392.232 73.1129L405.806 95.8668L407.524 94.8422ZM393.091 73.6006H400.586V71.6006H393.091V73.6006ZM399.717 73.0962L409.19 89.6977L410.927 88.7066L401.454 72.105L399.717 73.0962ZM410.975 89.6035L418.25 73.002L416.418 72.1992L409.143 88.8008L410.975 89.6035ZM417.334 73.6006H424.634V71.6006H417.334V73.6006ZM423.733 72.167L410.915 98.8027L412.717 99.6699L425.535 73.0342L423.733 72.167ZM410.915 98.8042C409.804 101.123 408.824 102.737 407.983 103.71L409.497 105.017C410.512 103.842 411.583 102.038 412.718 99.6684L410.915 98.8042ZM407.984 103.709C407.126 104.7 406.187 105.4 405.171 105.837L405.962 107.674C407.289 107.103 408.466 106.207 409.496 105.018L407.984 103.709ZM405.177 105.835C404.175 106.258 402.923 106.488 401.392 106.488V108.488C403.115 108.488 404.646 108.23 405.956 107.677L405.177 105.835ZM434.692 92.2295V91.2295H433.692V92.2295H434.692ZM434.692 107V108H435.692V107H434.692ZM427.515 107H426.515V108H427.515V107ZM427.515 72.6006V71.6006H426.515V72.6006H427.515ZM434.717 72.6006H435.717V71.6006H434.717V72.6006ZM434.717 87.2246H433.717V88.2246H434.717V87.2246ZM436.035 86.8584L436.507 87.7399L436.519 87.7334L436.531 87.7266L436.035 86.8584ZM437.451 85.7109L438.17 86.4064L438.175 86.4008L438.18 86.3953L437.451 85.7109ZM441.211 80.5107L440.367 79.9742L440.364 79.9787L441.211 80.5107ZM446.24 72.6006V71.6006H445.691L445.396 72.064L446.24 72.6006ZM453.564 72.6006L454.401 73.1481L455.414 71.6006H453.564V72.6006ZM447.095 82.4883L447.93 83.0379L447.932 83.0358L447.095 82.4883ZM442.92 87.957L442.326 87.1529L441.583 87.7014L442.071 88.4851L442.92 87.957ZM454.761 107V108H456.56L455.61 106.472L454.761 107ZM446.924 107L446.06 107.505L446.35 108H446.924V107ZM437.793 91.375L438.656 90.8705L438.127 89.965L437.248 90.5366L437.793 91.375ZM433.692 92.2295V107H435.692V92.2295H433.692ZM434.692 106H427.515V108H434.692V106ZM428.515 107V72.6006H426.515V107H428.515ZM427.515 73.6006H434.717V71.6006H427.515V73.6006ZM433.717 72.6006V87.2246H435.717V72.6006H433.717ZM434.717 88.2246C435.337 88.2246 435.938 88.0448 436.507 87.7399L435.563 85.9769C435.221 86.1603 434.943 86.2246 434.717 86.2246V88.2246ZM436.531 87.7266C437.091 87.4067 437.637 86.9574 438.17 86.4064L436.733 85.0155C436.289 85.4736 435.891 85.7893 435.539 85.9902L436.531 87.7266ZM438.18 86.3953C439.241 85.2648 440.536 83.4648 442.058 81.0428L440.364 79.9787C438.859 82.3744 437.647 84.0412 436.722 85.0266L438.18 86.3953ZM442.055 81.0473L447.084 73.1371L445.396 72.064L440.367 79.9742L442.055 81.0473ZM446.24 73.6006H453.564V71.6006H446.24V73.6006ZM452.728 72.0531L446.258 81.9408L447.932 83.0358L454.401 73.1481L452.728 72.0531ZM446.259 81.9387C445.248 83.4756 444.406 84.6828 443.73 85.568C443.032 86.4822 442.573 86.97 442.326 87.1529L443.514 88.7612C444.016 88.3907 444.626 87.6903 445.32 86.7816C446.036 85.8438 446.907 84.5934 447.93 83.0379L446.259 81.9387ZM442.071 88.4851L453.912 107.528L455.61 106.472L443.769 87.429L442.071 88.4851ZM454.761 106H446.924V108H454.761V106ZM447.787 106.495L438.656 90.8705L436.93 91.8795L446.06 107.505L447.787 106.495ZM437.248 90.5366C437.046 90.6681 436.677 90.8305 436.081 90.9985L436.624 92.9234C437.298 92.7333 437.889 92.505 438.338 92.2134L437.248 90.5366ZM436.081 90.9985C435.503 91.1617 435.044 91.2295 434.692 91.2295V93.2295C435.284 93.2295 435.933 93.1183 436.624 92.9234L436.081 90.9985ZM474.829 78.167V77.167H473.829V78.167H474.829ZM474.829 107V108H475.829V107H474.829ZM467.627 107H466.627V108H467.627V107ZM467.627 78.167H468.627V77.167H467.627V78.167ZM456.519 78.167H455.519V79.167H456.519V78.167ZM456.519 72.6006V71.6006H455.519V72.6006H456.519ZM485.962 72.6006H486.962V71.6006H485.962V72.6006ZM485.962 78.167V79.167H486.962V78.167H485.962ZM473.829 78.167V107H475.829V78.167H473.829ZM474.829 106H467.627V108H474.829V106ZM468.627 107V78.167H466.627V107H468.627ZM467.627 77.167H456.519V79.167H467.627V77.167ZM457.519 78.167V72.6006H455.519V78.167H457.519ZM456.519 73.6006H485.962V71.6006H456.519V73.6006ZM484.962 72.6006V78.167H486.962V72.6006H484.962ZM485.962 77.167H474.829V79.167H485.962V77.167ZM494.849 98.2109V97.2109H494.137L493.904 97.8829L494.849 98.2109ZM491.797 107V108H492.508L492.742 107.328L491.797 107ZM484.595 107L483.655 106.657L483.165 108H484.595V107ZM497.144 72.6006V71.6006H496.444L496.204 72.2579L497.144 72.6006ZM505.64 72.6006L506.58 72.2591L506.34 71.6006H505.64V72.6006ZM518.14 107V108H519.567L519.08 106.658L518.14 107ZM511.011 107L510.066 107.328L510.299 108H511.011V107ZM507.959 98.2109L508.904 97.8829L508.67 97.2109H507.959V98.2109ZM501.392 77.8984L502.345 77.5962L501.278 74.2308L500.421 77.6559L501.392 77.8984ZM500.073 82.1709L499.129 81.8424L499.127 81.8488L500.073 82.1709ZM496.46 92.791L495.513 92.4689L495.063 93.791H496.46V92.791ZM506.348 92.791V93.791H507.747L507.294 92.4671L506.348 92.791ZM502.637 81.9512L501.69 82.2743L501.691 82.2751L502.637 81.9512ZM493.904 97.8829L490.852 106.672L492.742 107.328L495.793 98.5389L493.904 97.8829ZM491.797 106H484.595V108H491.797V106ZM485.534 107.343L498.083 72.9433L496.204 72.2579L483.655 106.657L485.534 107.343ZM497.144 73.6006H505.64V71.6006H497.144V73.6006ZM504.7 72.9421L517.2 107.342L519.08 106.658L506.58 72.2591L504.7 72.9421ZM518.14 106H511.011V108H518.14V106ZM511.955 106.672L508.904 97.8829L507.014 98.5389L510.066 107.328L511.955 106.672ZM507.959 97.2109H494.849V99.2109H507.959V97.2109ZM500.421 77.6559C500.266 78.2787 500.045 79.0377 499.756 79.9362L501.66 80.5482C501.957 79.6238 502.192 78.8202 502.362 78.141L500.421 77.6559ZM499.756 79.9362C499.463 80.8476 499.255 81.4804 499.129 81.8424L501.018 82.4994C501.152 82.1127 501.367 81.4597 501.66 80.5482L499.756 79.9362ZM499.127 81.8488L495.513 92.4689L497.407 93.1131L501.02 82.493L499.127 81.8488ZM496.46 93.791H506.348V91.791H496.46V93.791ZM507.294 92.4671L503.583 81.6273L501.691 82.2751L505.402 93.1149L507.294 92.4671ZM503.583 81.628C503.361 80.9769 503.154 80.3175 502.963 79.6501L501.04 80.1995C501.24 80.8993 501.457 81.5909 501.69 82.2743L503.583 81.628ZM502.963 79.6501C502.766 78.9574 502.559 78.2728 502.345 77.5962L500.438 78.2007C500.647 78.8587 500.848 79.525 501.04 80.1995L502.963 79.6501ZM529.224 107V108H530.224V107H529.224ZM522.827 107H521.827V108H522.827V107ZM522.827 72.6006V71.6006H521.827V72.6006H522.827ZM532.471 72.6006L533.423 72.296L533.201 71.6006H532.471V72.6006ZM538.623 91.8389L539.591 91.5894L539.584 91.5616L539.576 91.5343L538.623 91.8389ZM539.478 95.0859L538.512 95.3454L538.513 95.3491L539.478 95.0859ZM540.332 98.3086L539.364 98.558L540.276 102.099L541.293 98.5867L540.332 98.3086ZM540.845 96.4775L541.81 96.7385L541.812 96.732L540.845 96.4775ZM541.333 94.6221L540.372 94.344L540.369 94.3558L540.366 94.3676L541.333 94.6221ZM541.87 92.791L540.916 92.4921L540.914 92.4991L540.912 92.506L541.87 92.791ZM548.193 72.6006V71.6006H547.459L547.239 72.3017L548.193 72.6006ZM557.788 72.6006H558.788V71.6006H557.788V72.6006ZM557.788 107V108H558.788V107H557.788ZM551.392 107H550.392V108H551.392V107ZM551.44 83.3184L550.441 83.2843L550.441 83.2954L551.44 83.3184ZM551.636 78.6553L552.635 78.7038L550.668 78.4026L551.636 78.6553ZM550.122 84.2217L549.161 83.9456L549.158 83.9551L550.122 84.2217ZM549.072 87.8105L550.024 88.118L550.024 88.116L549.072 87.8105ZM542.871 107V108H543.599L543.823 107.307L542.871 107ZM537.744 107L536.793 107.307L537.016 108H537.744V107ZM531.543 87.8105L530.581 88.0849L530.586 88.1016L530.591 88.118L531.543 87.8105ZM528.931 78.6553L529.892 78.3809L527.932 78.7069L528.931 78.6553ZM529.15 83.3672L528.151 83.4061L528.151 83.4066L529.15 83.3672ZM528.224 86.1504V107H530.224V86.1504H528.224ZM529.224 106H522.827V108H529.224V106ZM523.827 107V72.6006H521.827V107H523.827ZM522.827 73.6006H532.471V71.6006H522.827V73.6006ZM531.518 72.9052L537.671 92.1435L539.576 91.5343L533.423 72.296L531.518 72.9052ZM537.655 92.0883C537.932 93.1659 538.218 94.2516 538.512 95.3454L540.443 94.8265C540.151 93.7393 539.867 92.6602 539.591 91.5894L537.655 92.0883ZM538.513 95.3491C538.805 96.4187 539.088 97.4884 539.364 98.558L541.3 98.0592C541.023 96.9804 540.737 95.9016 540.442 94.8228L538.513 95.3491ZM541.293 98.5867C541.473 97.9626 541.646 97.3466 541.81 96.7384L539.879 96.2166C539.718 96.8129 539.549 97.4176 539.371 98.0305L541.293 98.5867ZM541.812 96.732C541.822 96.6945 541.863 96.5376 541.873 96.5001C541.883 96.4626 541.924 96.3057 541.934 96.2682C541.944 96.2307 541.985 96.0737 541.995 96.0362C542.005 95.9987 542.046 95.8418 542.056 95.8043C542.131 95.5175 542.225 95.1634 542.3 94.8766L540.366 94.3676C540.356 94.4051 540.315 94.562 540.305 94.5995C540.295 94.637 540.254 94.7939 540.244 94.8314C540.234 94.8689 540.193 95.0259 540.183 95.0634C540.173 95.1009 540.132 95.2578 540.122 95.2953C540.046 95.5821 539.953 95.9362 539.878 96.223L541.812 96.732ZM542.294 94.9001C542.472 94.2839 542.65 93.6758 542.829 93.076L540.912 92.506C540.732 93.1106 540.552 93.7233 540.372 94.344L542.294 94.9001ZM542.824 93.0899L549.148 72.8995L547.239 72.3017L540.916 92.4921L542.824 93.0899ZM548.193 73.6006H557.788V71.6006H548.193V73.6006ZM556.788 72.6006V107H558.788V72.6006H556.788ZM557.788 106H551.392V108H557.788V106ZM552.392 107V86.1504H550.392V107H552.392ZM552.392 86.1504C552.392 85.6918 552.408 84.7593 552.44 83.3413L550.441 83.2954C550.408 84.7095 550.392 85.665 550.392 86.1504H552.392ZM552.44 83.3524C552.488 81.9257 552.553 80.3762 552.635 78.7038L550.637 78.6068C550.555 80.2872 550.49 81.8465 550.441 83.2843L552.44 83.3524ZM550.668 78.4026C550.1 80.5787 549.597 82.4259 549.161 83.9456L551.083 84.4978C551.526 82.9576 552.032 81.0939 552.603 78.908L550.668 78.4026ZM549.158 83.9551C548.736 85.4801 548.391 86.6614 548.12 87.5051L550.024 88.116C550.307 87.2344 550.661 86.0231 551.086 84.4883L549.158 83.9551ZM548.121 87.503L541.92 106.693L543.823 107.307L550.024 88.118L548.121 87.503ZM542.871 106H537.744V108H542.871V106ZM538.696 106.693L532.495 87.503L530.591 88.118L536.793 107.307L538.696 106.693ZM532.505 87.5362L529.892 78.3809L527.969 78.9297L530.581 88.0849L532.505 87.5362ZM527.932 78.7069C528.03 80.5926 528.103 82.1586 528.151 83.4061L530.15 83.3283C530.101 82.0692 530.027 80.494 529.929 78.6036L527.932 78.7069ZM528.151 83.4066C528.2 84.6407 528.224 85.5524 528.224 86.1504H530.224C530.224 85.5114 530.199 84.5676 530.15 83.3277L528.151 83.4066ZM587.524 80.5107L588.523 80.5562L586.652 80.0213L587.524 80.5107ZM572.656 107V108H573.242L573.528 107.489L572.656 107ZM564.453 107H563.453V108H564.453V107ZM564.453 72.6006V71.6006H563.453V72.6006H564.453ZM570.85 72.6006H571.85V71.6006H570.85V72.6006ZM570.654 99.3096L569.655 99.262L571.527 99.7984L570.654 99.3096ZM585.62 72.6006V71.6006H585.034L584.748 72.1118L585.62 72.6006ZM593.726 72.6006H594.726V71.6006H593.726V72.6006ZM593.726 107V108H594.726V107H593.726ZM587.329 107H586.329V108H587.329V107ZM587.378 84.2217L588.377 84.2534V84.2529L587.378 84.2217ZM586.652 80.0213L571.784 106.511L573.528 107.489L588.396 81.0002L586.652 80.0213ZM572.656 106H564.453V108H572.656V106ZM565.453 107V72.6006H563.453V107H565.453ZM564.453 73.6006H570.85V71.6006H564.453V73.6006ZM569.85 72.6006V92.5957H571.85V72.6006H569.85ZM569.85 92.5957C569.85 93.4463 569.834 94.4291 569.801 95.5452L571.8 95.6032C571.833 94.4732 571.85 93.4704 571.85 92.5957H569.85ZM569.801 95.5452C569.769 96.6609 569.72 97.8997 569.655 99.262L571.653 99.3571C571.719 97.985 571.768 96.7336 571.8 95.6032L569.801 95.5452ZM571.527 99.7984L586.492 73.0894L584.748 72.1118L569.782 98.8207L571.527 99.7984ZM585.62 73.6006H593.726V71.6006H585.62V73.6006ZM592.726 72.6006V107H594.726V72.6006H592.726ZM593.726 106H587.329V108H593.726V106ZM588.329 107V86.7119H586.329V107H588.329ZM588.329 86.7119C588.329 86.0921 588.345 85.2738 588.377 84.2534L586.378 84.1899C586.346 85.2203 586.329 86.0622 586.329 86.7119H588.329ZM588.377 84.2529C588.41 83.2174 588.458 81.9853 588.523 80.5562L586.525 80.4653C586.46 81.9007 586.411 83.1427 586.378 84.1904L588.377 84.2529Z" fill="white"/>
</svg>
