<svg width="580" height="45" viewBox="0 0 580 45" fill="none" xmlns="http://www.w3.org/2000/svg">
<path d="M6.45862 25.2031V24.2031H5.45862V25.2031H6.45862ZM6.45862 37V38H7.45862V37H6.45862ZM0.696899 37H-0.303101V38H0.696899V37ZM0.696899 9.48047V8.48047H-0.303101V9.48047H0.696899ZM6.45862 9.48047H7.45862V8.48047H6.45862V9.48047ZM6.45862 20.4375H5.45862V21.4375H6.45862V20.4375ZM18.4508 20.4375V21.4375H19.4508V20.4375H18.4508ZM18.4508 9.48047V8.48047H17.4508V9.48047H18.4508ZM24.2125 9.48047H25.2125V8.48047H24.2125V9.48047ZM24.2125 37V38H25.2125V37H24.2125ZM18.4508 37H17.4508V38H18.4508V37ZM18.4508 25.2031H19.4508V24.2031H18.4508V25.2031ZM5.45862 25.2031V37H7.45862V25.2031H5.45862ZM6.45862 36H0.696899V38H6.45862V36ZM1.6969 37V9.48047H-0.303101V37H1.6969ZM0.696899 10.4805H6.45862V8.48047H0.696899V10.4805ZM5.45862 9.48047V20.4375H7.45862V9.48047H5.45862ZM6.45862 21.4375H18.4508V19.4375H6.45862V21.4375ZM19.4508 20.4375V9.48047H17.4508V20.4375H19.4508ZM18.4508 10.4805H24.2125V8.48047H18.4508V10.4805ZM23.2125 9.48047V37H25.2125V9.48047H23.2125ZM24.2125 36H18.4508V38H24.2125V36ZM19.4508 37V25.2031H17.4508V37H19.4508ZM18.4508 24.2031H6.45862V26.2031H18.4508V24.2031ZM36.9266 29.9688V28.9688H36.2152L35.9819 29.6407L36.9266 29.9688ZM34.4852 37V38H35.1965L35.4299 37.328L34.4852 37ZM28.7235 37L27.784 36.6573L27.2942 38H28.7235V37ZM38.7625 9.48047V8.48047H38.0629L37.8231 9.13776L38.7625 9.48047ZM45.5594 9.48047L46.4993 9.13894L46.26 8.48047H45.5594V9.48047ZM55.5594 37V38H56.9868L56.4993 36.6585L55.5594 37ZM49.8563 37L48.9116 37.328L49.1449 38H49.8563V37ZM47.4149 29.9688L48.3595 29.6407L48.1262 28.9688H47.4149V29.9688ZM42.161 13.7188L43.1142 13.4165L42.0471 10.0511L41.1908 13.4762L42.161 13.7188ZM41.1063 17.1367L40.1618 16.8082L40.1596 16.8146L41.1063 17.1367ZM38.2156 25.6328L37.2689 25.3107L36.8191 26.6328H38.2156V25.6328ZM46.1258 25.6328V26.6328H47.5251L47.0719 25.3089L46.1258 25.6328ZM43.1571 16.9609L42.2107 17.2841L42.211 17.2848L43.1571 16.9609ZM35.9819 29.6407L33.5405 36.672L35.4299 37.328L37.8713 30.2968L35.9819 29.6407ZM34.4852 36H28.7235V38H34.4852V36ZM29.6629 37.3427L39.702 9.82318L37.8231 9.13776L27.784 36.6573L29.6629 37.3427ZM38.7625 10.4805H45.5594V8.48047H38.7625V10.4805ZM44.6195 9.822L54.6195 37.3415L56.4993 36.6585L46.4993 9.13894L44.6195 9.822ZM55.5594 36H49.8563V38H55.5594V36ZM50.8009 36.672L48.3595 29.6407L46.4702 30.2968L48.9116 37.328L50.8009 36.672ZM47.4149 28.9688H36.9266V30.9688H47.4149V28.9688ZM41.1908 13.4762C41.0677 13.9688 40.8923 14.5715 40.6621 15.2877L42.5661 15.8998C42.8046 15.1577 42.9938 14.5103 43.1311 13.9613L41.1908 13.4762ZM40.6621 15.2877C40.4277 16.0169 40.2616 16.5211 40.1618 16.8082L42.0508 17.4652C42.1592 17.1534 42.3317 16.6289 42.5661 15.8998L40.6621 15.2877ZM40.1596 16.8146L37.2689 25.3107L39.1624 25.9549L42.053 17.4588L40.1596 16.8146ZM38.2156 26.6328H46.1258V24.6328H38.2156V26.6328ZM47.0719 25.3089L44.1031 16.637L42.211 17.2848L45.1797 25.9567L47.0719 25.3089ZM44.1034 16.6378C43.9266 16.1201 43.7624 15.5959 43.6108 15.0651L41.6877 15.6146C41.8486 16.1776 42.0229 16.7341 42.2107 17.2841L44.1034 16.6378ZM43.6108 15.0651C43.4519 14.5092 43.2864 13.9596 43.1142 13.4165L41.2077 14.021C41.3741 14.5456 41.5341 15.0768 41.6877 15.6146L43.6108 15.0651ZM79.1914 27.625L79.5445 26.6894L78.6146 26.3384L78.258 27.2663L79.1914 27.625ZM84.211 29.5195L85.1372 29.8964L85.5238 28.9462L84.5641 28.584L84.211 29.5195ZM79.4453 35.457L79.9715 36.3074L79.973 36.3065L79.4453 35.457ZM64.4258 35.7109L63.9458 36.5882L63.9501 36.5905L64.4258 35.7109ZM59.6797 30.8086L58.7875 31.2602L58.7897 31.2645L59.6797 30.8086ZM64.2305 10.7109L64.7002 11.5938L64.7046 11.5914L64.2305 10.7109ZM79.5821 11.0234L79.0424 11.8653L79.0462 11.8678L79.5821 11.0234ZM83.8594 16.7266L84.1228 17.6912L85.1359 17.4146L84.81 16.4163L83.8594 16.7266ZM78.7813 18.1133L77.8265 18.4105L78.1134 19.3323L79.0447 19.078L78.7813 18.1133ZM76.2422 14.832L75.6935 15.6681L75.7037 15.6746L76.2422 14.832ZM65.8711 16.0234L65.1049 15.3808L65.1019 15.3845L65.8711 16.0234ZM64.7774 28.4453L63.8565 28.8352L63.8595 28.8422L64.7774 28.4453ZM67.5117 31.7461L66.9784 32.5921L66.9892 32.5987L67.5117 31.7461ZM71.9453 33.8594C73.8633 33.8594 75.5537 33.377 76.9596 32.3614C78.3604 31.3495 79.4024 29.8637 80.1249 27.9837L78.258 27.2663C77.6394 28.8759 76.8031 30.0072 75.7885 30.7402C74.779 31.4694 73.517 31.8594 71.9453 31.8594V33.8594ZM78.8383 28.5606L83.8578 30.4551L84.5641 28.584L79.5445 26.6894L78.8383 28.5606ZM83.2847 29.1427C82.2702 31.636 80.8067 33.4343 78.9177 34.6076L79.973 36.3065C82.2767 34.8756 83.9902 32.7155 85.1372 29.8964L83.2847 29.1427ZM78.9192 34.6067C77.0218 35.7807 74.7119 36.3906 71.9453 36.3906V38.3906C75.0121 38.3906 77.7022 37.7115 79.9715 36.3074L78.9192 34.6067ZM71.9453 36.3906C69.1279 36.3906 66.7936 35.8547 64.9016 34.8314L63.9501 36.5905C66.1986 37.8067 68.8773 38.3906 71.9453 38.3906V36.3906ZM64.9058 34.8337C63.0144 33.7988 61.5738 32.3129 60.5698 30.3527L58.7897 31.2645C59.9732 33.5751 61.6966 35.3575 63.9458 36.5882L64.9058 34.8337ZM60.5719 30.357C59.5776 28.3924 59.0586 25.9897 59.0586 23.1133H57.0586C57.0586 26.2264 57.6203 28.954 58.7875 31.2602L60.5719 30.357ZM59.0586 23.1133C59.0586 20.2032 59.5608 17.8138 60.5155 15.9042L58.7267 15.0098C57.5981 17.267 57.0586 19.9817 57.0586 23.1133H59.0586ZM60.5155 15.9042C61.4655 14.0042 62.8547 12.5756 64.7002 11.5938L63.7608 9.82812C61.5437 11.0077 59.86 12.7432 58.7267 15.0098L60.5155 15.9042ZM64.7046 11.5914C66.5554 10.5948 68.8697 10.0703 71.6914 10.0703V8.07031C68.6277 8.07031 65.9681 8.63957 63.7564 9.83047L64.7046 11.5914ZM71.6914 10.0703C74.7924 10.0703 77.2182 10.6959 79.0424 11.8653L80.1217 10.1816C77.8834 8.74677 75.0488 8.07031 71.6914 8.07031V10.0703ZM79.0462 11.8678C80.8616 13.0199 82.1529 14.7213 82.9088 17.0369L84.81 16.4163C83.9253 13.7058 82.365 11.6051 80.1179 10.1791L79.0462 11.8678ZM83.596 15.7619L78.5178 17.1486L79.0447 19.078L84.1228 17.6912L83.596 15.7619ZM79.7361 17.816C79.2335 16.2018 78.2345 14.9186 76.7808 13.9894L75.7037 15.6746C76.776 16.36 77.4697 17.2644 77.8265 18.4105L79.7361 17.816ZM76.7909 13.996C75.3558 13.0542 73.681 12.6016 71.8086 12.6016V14.6016C73.3476 14.6016 74.6287 14.9692 75.6936 15.6681L76.7909 13.996ZM71.8086 12.6016C68.9849 12.6016 66.6931 13.4872 65.1049 15.3808L66.6373 16.666C67.7575 15.3305 69.424 14.6016 71.8086 14.6016V12.6016ZM65.1019 15.3845C63.5543 17.2476 62.8594 19.8768 62.8594 23.1133H64.8594C64.8594 20.1258 65.5056 18.0285 66.6404 16.6624L65.1019 15.3845ZM62.8594 23.1133C62.8594 25.3131 63.1777 27.232 63.8565 28.8352L65.6982 28.0554C65.1531 26.768 64.8594 25.1322 64.8594 23.1133H62.8594ZM63.8595 28.8422C64.5552 30.451 65.5912 31.7174 66.9784 32.592L68.045 30.9002C67.0365 30.2643 66.2495 29.3303 65.6952 28.0484L63.8595 28.8422ZM66.9892 32.5987C68.3898 33.4571 70.0582 33.8594 71.9453 33.8594V31.8594C70.3429 31.8594 69.0556 31.5194 68.0343 30.8935L66.9892 32.5987ZM94.0344 31.5312L94.9872 31.8349L94.9888 31.8299L94.0344 31.5312ZM85.3039 36.9805H84.3039V37.5726L84.8231 37.8573L85.3039 36.9805ZM85.3039 32.1562L85.778 31.2758L84.3039 30.482V32.1562H85.3039ZM87.1594 31.9609L87.7538 32.7651L87.7649 32.7569L87.7757 32.7484L87.1594 31.9609ZM87.9797 30.9258L88.8586 31.4029L88.8628 31.3949L87.9797 30.9258ZM88.6047 29.3633L87.654 29.0529L87.6502 29.065L88.6047 29.3633ZM89.2102 27.0977L90.186 27.3161L90.1869 27.3121L89.2102 27.0977ZM90.0696 22.2539L89.0831 22.0895L89.0818 22.0979L90.0696 22.2539ZM91.9446 9.48047V8.48047H91.0742L90.9541 9.34246L91.9446 9.48047ZM110.538 9.48047H111.538V8.48047H110.538V9.48047ZM110.538 37V38H111.538V37H110.538ZM104.991 37H103.991V38H104.991V37ZM104.991 14.2461H105.991V13.2461H104.991V14.2461ZM97.0422 14.2461V13.2461H96.1732L96.052 14.1067L97.0422 14.2461ZM96.0852 21.043L97.0749 21.1859L97.0754 21.1824L96.0852 21.043ZM93.0816 31.2276C92.4419 33.2344 91.6746 34.5185 90.8577 35.2306L92.172 36.7381C93.3864 35.6794 94.2987 33.9948 94.9872 31.8349L93.0816 31.2276ZM90.8577 35.2306C90.0811 35.9077 88.9199 36.3125 87.2375 36.3125V38.3125C89.2271 38.3125 90.9174 37.8319 92.172 36.7381L90.8577 35.2306ZM87.2375 36.3125C86.3917 36.3125 85.959 36.1992 85.7848 36.1037L84.8231 37.8573C85.4561 38.2044 86.3125 38.3125 87.2375 38.3125V36.3125ZM86.3039 36.9805V32.1562H84.3039V36.9805H86.3039ZM84.8298 33.0367C85.2307 33.2526 85.7252 33.293 86.1438 33.293V31.293C85.9838 31.293 85.8728 31.2834 85.8015 31.2718C85.7241 31.2592 85.7302 31.25 85.778 31.2758L84.8298 33.0367ZM86.1438 33.293C86.7321 33.293 87.2797 33.1156 87.7538 32.7651L86.565 31.1568C86.4402 31.249 86.3106 31.293 86.1438 31.293V33.293ZM87.7757 32.7484C88.2146 32.4049 88.5682 31.9378 88.8586 31.4029L87.1009 30.4487C86.8965 30.8252 86.7031 31.0482 86.5431 31.1734L87.7757 32.7484ZM88.8628 31.3949C89.1219 30.9072 89.352 30.3247 89.5592 29.6616L87.6502 29.065C87.4669 29.6518 87.2802 30.111 87.0966 30.4566L88.8628 31.3949ZM89.5553 29.6737C89.7761 28.9974 89.9859 28.2101 90.186 27.3161L88.2343 26.8792C88.0439 27.73 87.85 28.4531 87.6541 29.0529L89.5553 29.6737ZM90.1869 27.3121C90.3077 26.7618 90.4339 26.1168 90.5657 25.3789L88.5968 25.0273C88.4682 25.7478 88.347 26.3658 88.2334 26.8832L90.1869 27.3121ZM90.5657 25.3789C90.6976 24.6402 90.8616 23.6496 91.0573 22.4099L89.0818 22.0979C88.8869 23.3321 88.7253 24.3077 88.5968 25.0273L90.5657 25.3789ZM91.056 22.4183C91.2658 21.1591 91.5208 19.5047 91.8207 17.4574L89.8418 17.1676C89.5428 19.2088 89.29 20.8487 89.0832 22.0895L91.056 22.4183ZM91.8207 17.4574C92.1207 15.41 92.4921 12.7968 92.935 9.61848L90.9541 9.34246C90.5116 12.5183 90.1408 15.1265 89.8418 17.1676L91.8207 17.4574ZM91.9446 10.4805H110.538V8.48047H91.9446V10.4805ZM109.538 9.48047V37H111.538V9.48047H109.538ZM110.538 36H104.991V38H110.538V36ZM105.991 37V14.2461H103.991V37H105.991ZM104.991 13.2461H97.0422V15.2461H104.991V13.2461ZM96.052 14.1067L95.0949 20.9035L97.0754 21.1824L98.0324 14.3855L96.052 14.1067ZM95.0954 20.9001C94.3931 25.7646 93.7184 29.1924 93.08 31.2326L94.9888 31.8299C95.6786 29.6253 96.371 26.0609 97.0749 21.1859L95.0954 20.9001ZM123.233 29.9688V28.9688H122.521L122.288 29.6407L123.233 29.9688ZM120.791 37V38H121.503L121.736 37.328L120.791 37ZM115.03 37L114.09 36.6573L113.6 38H115.03V37ZM125.069 9.48047V8.48047H124.369L124.129 9.13776L125.069 9.48047ZM131.866 9.48047L132.806 9.13894L132.566 8.48047H131.866V9.48047ZM141.866 37V38H143.293L142.806 36.6585L141.866 37ZM136.163 37L135.218 37.328L135.451 38H136.163V37ZM133.721 29.9688L134.666 29.6407L134.432 28.9688H133.721V29.9688ZM128.467 13.7188L129.42 13.4165L128.353 10.0511L127.497 13.4762L128.467 13.7188ZM127.413 17.1367L126.468 16.8082L126.466 16.8146L127.413 17.1367ZM124.522 25.6328L123.575 25.3107L123.125 26.6328H124.522V25.6328ZM132.432 25.6328V26.6328H133.831L133.378 25.3089L132.432 25.6328ZM129.463 16.9609L128.517 17.2841L128.517 17.2848L129.463 16.9609ZM122.288 29.6407L119.847 36.672L121.736 37.328L124.178 30.2968L122.288 29.6407ZM120.791 36H115.03V38H120.791V36ZM115.969 37.3427L126.008 9.82318L124.129 9.13776L114.09 36.6573L115.969 37.3427ZM125.069 10.4805H131.866V8.48047H125.069V10.4805ZM130.926 9.822L140.926 37.3415L142.806 36.6585L132.806 9.13894L130.926 9.822ZM141.866 36H136.163V38H141.866V36ZM137.107 36.672L134.666 29.6407L132.776 30.2968L135.218 37.328L137.107 36.672ZM133.721 28.9688H123.233V30.9688H133.721V28.9688ZM127.497 13.4762C127.374 13.9688 127.199 14.5715 126.968 15.2877L128.872 15.8998C129.111 15.1577 129.3 14.5103 129.437 13.9613L127.497 13.4762ZM126.968 15.2877C126.734 16.0169 126.568 16.5211 126.468 16.8082L128.357 17.4652C128.465 17.1534 128.638 16.6289 128.872 15.8998L126.968 15.2877ZM126.466 16.8146L123.575 25.3107L125.469 25.9549L128.359 17.4588L126.466 16.8146ZM124.522 26.6328H132.432V24.6328H124.522V26.6328ZM133.378 25.3089L130.409 16.637L128.517 17.2848L131.486 25.9567L133.378 25.3089ZM130.41 16.6378C130.233 16.1201 130.069 15.5959 129.917 15.0651L127.994 15.6146C128.155 16.1776 128.329 16.7341 128.517 17.2841L130.41 16.6378ZM129.917 15.0651C129.758 14.5092 129.593 13.9596 129.42 13.4165L127.514 14.021C127.68 14.5456 127.84 15.0768 127.994 15.6146L129.917 15.0651ZM159.091 37H158.091V38H159.091V37ZM159.091 25.0469H160.091V24.0469H159.091V25.0469ZM157.705 24.8906L157.499 25.8692L157.504 25.8702L157.705 24.8906ZM156.611 24.5L157.166 23.6679L156.256 23.0617L155.733 24.0212L156.611 24.5ZM149.795 37V38H150.388L150.673 37.4788L149.795 37ZM143.623 37L142.759 36.4961L141.882 38H143.623V37ZM152.509 21.7656L153.373 22.2695L153.816 21.5112L153.121 20.9743L152.509 21.7656ZM149.384 17.4297L148.533 17.9546L148.533 17.9548L149.384 17.4297ZM144.482 9.48047V8.48047H142.69L143.631 10.0054L144.482 9.48047ZM150.341 9.48047L151.195 8.95902L150.902 8.48047H150.341V9.48047ZM154.209 15.8086L153.355 16.33L153.357 16.333L154.209 15.8086ZM157.255 20.2227L157.991 19.5456L157.984 19.5379L157.977 19.5304L157.255 20.2227ZM158.154 20.9453L157.691 21.8319L157.699 21.8359L157.707 21.8397L158.154 20.9453ZM159.072 21.1797V22.1797H160.072V21.1797H159.072ZM159.072 9.48047V8.48047H158.072V9.48047H159.072ZM164.619 9.48047H165.619V8.48047H164.619V9.48047ZM164.619 21.1797H163.619V22.1797H164.619V21.1797ZM165.517 20.9453L165.07 20.0509L165.062 20.0547L165.055 20.0587L165.517 20.9453ZM166.435 20.2422L165.728 19.5351L165.721 19.5426L165.713 19.5503L166.435 20.2422ZM169.502 15.8086L170.352 16.334L170.355 16.33L169.502 15.8086ZM173.369 9.48047V8.48047H172.808L172.515 8.95902L173.369 9.48047ZM179.228 9.48047L180.079 10.0054L181.02 8.48047H179.228V9.48047ZM174.326 17.4297L175.177 17.9548L175.177 17.9546L174.326 17.4297ZM171.201 21.7656L170.589 20.9743L169.895 21.5112L170.337 22.2695L171.201 21.7656ZM180.088 37V38H181.829L180.951 36.4961L180.088 37ZM173.916 37L173.038 37.4788L173.322 38H173.916V37ZM167.099 24.5L167.977 24.0212L167.515 23.174L166.652 23.6056L167.099 24.5ZM164.619 25.0469V24.0469H163.619V25.0469H164.619ZM164.619 37V38H165.619V37H164.619ZM160.091 37V25.0469H158.091V37H160.091ZM159.091 24.0469C158.756 24.0469 158.363 24.0048 157.906 23.911L157.504 25.8702C158.062 25.9848 158.593 26.0469 159.091 26.0469V24.0469ZM157.911 23.9121C157.457 23.8166 157.241 23.7183 157.166 23.6679L156.056 25.3321C156.45 25.5942 156.962 25.7563 157.499 25.8692L157.911 23.9121ZM155.733 24.0212L148.917 36.5212L150.673 37.4788L157.489 24.9788L155.733 24.0212ZM149.795 36H143.623V38H149.795V36ZM144.486 37.5039L153.373 22.2695L151.646 21.2618L142.759 36.4961L144.486 37.5039ZM153.121 20.9743C152.962 20.8516 152.633 20.4904 152.11 19.7649C151.609 19.0697 150.985 18.1189 150.235 16.9046L148.533 17.9548C149.295 19.1884 149.947 20.1842 150.487 20.9343C151.006 21.6541 151.484 22.2369 151.898 22.5569L153.121 20.9743ZM150.236 16.9048L145.333 8.95555L143.631 10.0054L148.533 17.9546L150.236 16.9048ZM144.482 10.4805H150.341V8.48047H144.482V10.4805ZM149.488 10.0019L153.355 16.33L155.062 15.2871L151.195 8.95902L149.488 10.0019ZM153.357 16.333C154.766 18.6206 155.835 20.1866 156.534 20.9149L157.977 19.5304C157.452 18.9827 156.49 17.6059 155.06 15.2842L153.357 16.333ZM156.52 20.8997C156.874 21.2855 157.263 21.6085 157.691 21.8319L158.617 20.0587C158.446 19.9697 158.235 19.8109 157.991 19.5456L156.52 20.8997ZM157.707 21.8397C158.135 22.0539 158.593 22.1797 159.072 22.1797V20.1797C158.952 20.1797 158.798 20.1493 158.601 20.0509L157.707 21.8397ZM160.072 21.1797V9.48047H158.072V21.1797H160.072ZM159.072 10.4805H164.619V8.48047H159.072V10.4805ZM163.619 9.48047V21.1797H165.619V9.48047H163.619ZM164.619 22.1797C165.099 22.1797 165.556 22.053 165.98 21.8319L165.055 20.0587C164.88 20.1501 164.738 20.1797 164.619 20.1797V22.1797ZM165.964 21.8397C166.401 21.6216 166.797 21.3103 167.157 20.9341L165.713 19.5503C165.475 19.799 165.259 19.9565 165.07 20.0509L165.964 21.8397ZM167.142 20.9493C167.814 20.2774 168.898 18.6893 170.352 16.334L168.651 15.2832C167.162 17.6935 166.202 19.0611 165.728 19.5351L167.142 20.9493ZM170.355 16.33L174.222 10.0019L172.515 8.95902L168.648 15.2871L170.355 16.33ZM173.369 10.4805H179.228V8.48047H173.369V10.4805ZM178.377 8.95555L173.475 16.9048L175.177 17.9546L180.079 10.0054L178.377 8.95555ZM173.475 16.9046C172.726 18.1189 172.102 19.0697 171.6 19.7649C171.078 20.4904 170.748 20.8516 170.589 20.9743L171.812 22.5569C172.226 22.2369 172.704 21.6541 173.223 20.9343C173.764 20.1842 174.416 19.1884 175.177 17.9548L173.475 16.9046ZM170.337 22.2695L179.224 37.5039L180.951 36.4961L172.065 21.2618L170.337 22.2695ZM180.088 36H173.916V38H180.088V36ZM174.794 36.5212L167.977 24.0212L166.221 24.9788L173.038 37.4788L174.794 36.5212ZM166.652 23.6056C166.365 23.7491 166.053 23.859 165.714 23.9333L166.141 25.8871C166.635 25.779 167.104 25.6155 167.546 25.3944L166.652 23.6056ZM165.714 23.9333C165.372 24.008 165.008 24.0469 164.619 24.0469V26.0469C165.141 26.0469 165.65 25.9946 166.141 25.8871L165.714 23.9333ZM163.619 25.0469V37H165.619V25.0469H163.619ZM164.619 36H159.091V38H164.619V36ZM185.946 37V36H184.946V37H185.946ZM185.946 44.9688V45.9688H186.946V44.9688H185.946ZM181.063 44.9688H180.063V45.9688H181.063V44.9688ZM181.063 32.2344V31.2344H180.063V32.2344H181.063ZM184.11 32.2344V33.2344H184.702L184.987 32.716L184.11 32.2344ZM186.61 25.9258L187.57 26.2058L187.571 26.2044L186.61 25.9258ZM188.27 18.1719L189.26 18.3126L189.261 18.3077L188.27 18.1719ZM189.462 9.48047V8.48047H188.589L188.471 9.34466L189.462 9.48047ZM204.872 9.48047H205.872V8.48047H204.872V9.48047ZM204.872 32.2344H203.872V33.2344H204.872V32.2344ZM208.485 32.2344H209.485V31.2344H208.485V32.2344ZM208.485 44.9688V45.9688H209.485V44.9688H208.485ZM203.602 44.9688H202.602V45.9688H203.602V44.9688ZM203.602 37H204.602V36H203.602V37ZM190.145 32.2344L189.241 31.8068L188.566 33.2344H190.145V32.2344ZM199.305 32.2344V33.2344H200.305V32.2344H199.305ZM199.305 14.2461H200.305V13.2461H199.305V14.2461ZM194.188 14.2461V13.2461H193.312L193.197 14.1148L194.188 14.2461ZM193.583 18.8164L194.573 18.9548L194.574 18.9477L193.583 18.8164ZM191.473 28.6797L192.43 28.9719L192.431 28.9695L191.473 28.6797ZM184.946 37V44.9688H186.946V37H184.946ZM185.946 43.9688H181.063V45.9688H185.946V43.9688ZM182.063 44.9688V32.2344H180.063V44.9688H182.063ZM181.063 33.2344H184.11V31.2344H181.063V33.2344ZM184.987 32.716C185.969 30.929 186.827 28.7539 187.57 26.2058L185.65 25.6458C184.935 28.0976 184.127 30.1283 183.234 31.7527L184.987 32.716ZM187.571 26.2044C188.313 23.6451 188.876 21.0143 189.26 18.3126L187.28 18.0311C186.909 20.6419 186.366 23.1804 185.65 25.6471L187.571 26.2044ZM189.261 18.3077L190.452 9.61628L188.471 9.34466L187.28 18.0361L189.261 18.3077ZM189.462 10.4805H204.872V8.48047H189.462V10.4805ZM203.872 9.48047V32.2344H205.872V9.48047H203.872ZM204.872 33.2344H208.485V31.2344H204.872V33.2344ZM207.485 32.2344V44.9688H209.485V32.2344H207.485ZM208.485 43.9688H203.602V45.9688H208.485V43.9688ZM204.602 44.9688V37H202.602V44.9688H204.602ZM203.602 36H185.946V38H203.602V36ZM190.145 33.2344H199.305V31.2344H190.145V33.2344ZM200.305 32.2344V14.2461H198.305V32.2344H200.305ZM199.305 13.2461H194.188V15.2461H199.305V13.2461ZM193.197 14.1148L192.592 18.6851L194.574 18.9477L195.18 14.3774L193.197 14.1148ZM192.592 18.678C192.348 20.4254 192.047 22.1331 191.687 23.8012L193.642 24.2223C194.012 22.5049 194.323 20.749 194.573 18.9548L192.592 18.678ZM191.687 23.8012C191.328 25.4715 190.937 27.0007 190.516 28.3899L192.431 28.9695C192.869 27.5202 193.273 25.9374 193.642 24.2223L191.687 23.8012ZM190.517 28.3875C190.097 29.7634 189.67 30.9 189.241 31.8068L191.049 32.6619C191.532 31.6417 191.991 30.4085 192.43 28.9719L190.517 28.3875ZM219.227 29.9688V28.9688H218.515L218.282 29.6407L219.227 29.9688ZM216.785 37V38H217.497L217.73 37.328L216.785 37ZM211.023 37L210.084 36.6573L209.594 38H211.023V37ZM221.063 9.48047V8.48047H220.363L220.123 9.13776L221.063 9.48047ZM227.859 9.48047L228.799 9.13894L228.56 8.48047H227.859V9.48047ZM237.859 37V38H239.287L238.799 36.6585L237.859 37ZM232.156 37L231.212 37.328L231.445 38H232.156V37ZM229.715 29.9688L230.66 29.6407L230.426 28.9688H229.715V29.9688ZM224.461 13.7188L225.414 13.4165L224.347 10.0511L223.491 13.4762L224.461 13.7188ZM223.406 17.1367L222.462 16.8082L222.46 16.8146L223.406 17.1367ZM220.516 25.6328L219.569 25.3107L219.119 26.6328H220.516V25.6328ZM228.426 25.6328V26.6328H229.825L229.372 25.3089L228.426 25.6328ZM225.457 16.9609L224.511 17.2841L224.511 17.2848L225.457 16.9609ZM218.282 29.6407L215.841 36.672L217.73 37.328L220.171 30.2968L218.282 29.6407ZM216.785 36H211.023V38H216.785V36ZM211.963 37.3427L222.002 9.82318L220.123 9.13776L210.084 36.6573L211.963 37.3427ZM221.063 10.4805H227.859V8.48047H221.063V10.4805ZM226.92 9.822L236.92 37.3415L238.799 36.6585L228.799 9.13894L226.92 9.822ZM237.859 36H232.156V38H237.859V36ZM233.101 36.672L230.66 29.6407L228.77 30.2968L231.212 37.328L233.101 36.672ZM229.715 28.9688H219.227V30.9688H229.715V28.9688ZM223.491 13.4762C223.368 13.9688 223.192 14.5715 222.962 15.2877L224.866 15.8998C225.105 15.1577 225.294 14.5103 225.431 13.9613L223.491 13.4762ZM222.962 15.2877C222.728 16.0169 222.562 16.5211 222.462 16.8082L224.351 17.4652C224.459 17.1534 224.632 16.6289 224.866 15.8998L222.962 15.2877ZM222.46 16.8146L219.569 25.3107L221.462 25.9549L224.353 17.4588L222.46 16.8146ZM220.516 26.6328H228.426V24.6328H220.516V26.6328ZM229.372 25.3089L226.403 16.637L224.511 17.2848L227.48 25.9567L229.372 25.3089ZM226.403 16.6378C226.227 16.1201 226.062 15.5959 225.911 15.0651L223.988 15.6146C224.149 16.1776 224.323 16.7341 224.511 17.2841L226.403 16.6378ZM225.911 15.0651C225.752 14.5092 225.586 13.9596 225.414 13.4165L223.508 14.021C223.674 14.5456 223.834 15.0768 223.988 15.6146L225.911 15.0651ZM260.847 15.8086L261.846 15.854L259.975 15.3191L260.847 15.8086ZM248.952 37V38H249.538L249.824 37.4895L248.952 37ZM242.39 37H241.39V38H242.39V37ZM242.39 9.48047V8.48047H241.39V9.48047H242.39ZM247.507 9.48047H248.507V8.48047H247.507V9.48047ZM247.351 30.8477L246.352 30.8001L248.223 31.3365L247.351 30.8477ZM259.323 9.48047V8.48047H258.737L258.451 8.99165L259.323 9.48047ZM265.808 9.48047H266.808V8.48047H265.808V9.48047ZM265.808 37V38H266.808V37H265.808ZM260.691 37H259.691V38H260.691V37ZM260.73 18.7773L261.729 18.8091V18.8086L260.73 18.7773ZM248.366 5.82812L247.729 6.59827L247.732 6.60139L248.366 5.82812ZM246.277 0.789062V-0.210938H245.23L245.278 0.83447L246.277 0.789062ZM250.652 0.789062L251.65 0.738874L251.603 -0.210938H250.652V0.789062ZM257.8 0.789062V-0.210938H256.849L256.801 0.738874L257.8 0.789062ZM262.175 0.789062L263.174 0.834214L263.221 -0.210938H262.175V0.789062ZM260.066 5.84766L260.699 6.62161L260.7 6.62092L260.066 5.84766ZM259.975 15.3191L248.08 36.5105L249.824 37.4895L261.719 16.2981L259.975 15.3191ZM248.952 36H242.39V38H248.952V36ZM243.39 37V9.48047H241.39V37H243.39ZM242.39 10.4805H247.507V8.48047H242.39V10.4805ZM246.507 9.48047V25.4766H248.507V9.48047H246.507ZM246.507 25.4766C246.507 26.1546 246.494 26.9389 246.468 27.8304L248.468 27.8883C248.494 26.983 248.507 26.1787 248.507 25.4766H246.507ZM246.468 27.8304C246.443 28.7215 246.404 29.7113 246.352 30.8001L248.35 30.8952C248.402 29.7966 248.441 28.7941 248.468 27.8883L246.468 27.8304ZM248.223 31.3365L260.196 9.96929L258.451 8.99165L246.478 30.3588L248.223 31.3365ZM259.323 10.4805H265.808V8.48047H259.323V10.4805ZM264.808 9.48047V37H266.808V9.48047H264.808ZM265.808 36H260.691V38H265.808V36ZM261.691 37V20.7695H259.691V37H261.691ZM261.691 20.7695C261.691 20.2767 261.703 19.6244 261.729 18.8091L259.73 18.7456C259.704 19.5709 259.691 20.2467 259.691 20.7695H261.691ZM261.729 18.8086C261.755 17.9813 261.794 16.9967 261.846 15.854L259.848 15.7632C259.796 16.9121 259.756 17.9067 259.73 18.7461L261.729 18.8086ZM254.226 6.42969C251.733 6.42969 250.049 5.91462 249.001 5.05486L247.732 6.60139C249.288 7.87705 251.51 8.42969 254.226 8.42969V6.42969ZM249.004 5.05799C248.004 4.22936 247.372 2.86206 247.276 0.743655L245.278 0.83447C245.39 3.29939 246.151 5.29148 247.729 6.59826L249.004 5.05799ZM246.277 1.78906H250.652V-0.210938H246.277V1.78906ZM249.653 0.839251C249.724 2.26086 250.093 3.49621 250.907 4.381C251.742 5.28883 252.903 5.67578 254.226 5.67578V3.67578C253.296 3.67578 252.735 3.41495 252.379 3.02721C252.001 2.61642 251.709 1.90841 251.65 0.738874L249.653 0.839251ZM254.226 5.67578C255.549 5.67578 256.71 5.28883 257.545 4.381C258.359 3.49621 258.727 2.26086 258.799 0.839251L256.801 0.738874C256.742 1.90841 256.451 2.61642 256.073 3.02721C255.716 3.41495 255.155 3.67578 254.226 3.67578V5.67578ZM257.8 1.78906H262.175V-0.210938H257.8V1.78906ZM261.176 0.743911C261.08 2.8743 260.442 4.24589 259.432 5.07439L260.7 6.62092C262.294 5.314 263.062 3.3132 263.174 0.834214L261.176 0.743911ZM259.432 5.0737C258.398 5.91977 256.722 6.42969 254.226 6.42969V8.42969C256.938 8.42969 259.155 7.88492 260.699 6.62161L259.432 5.0737ZM292.057 27.625L292.41 26.6894L291.48 26.3384L291.124 27.2663L292.057 27.625ZM297.077 29.5195L298.003 29.8964L298.389 28.9462L297.43 28.584L297.077 29.5195ZM292.311 35.457L292.837 36.3074L292.839 36.3065L292.311 35.457ZM277.291 35.7109L276.811 36.5882L276.816 36.5905L277.291 35.7109ZM272.545 30.8086L271.653 31.2602L271.655 31.2645L272.545 30.8086ZM277.096 10.7109L277.566 11.5938L277.57 11.5914L277.096 10.7109ZM292.448 11.0234L291.908 11.8653L291.912 11.8678L292.448 11.0234ZM296.725 16.7266L296.988 17.6912L298.002 17.4146L297.676 16.4163L296.725 16.7266ZM291.647 18.1133L290.692 18.4105L290.979 19.3323L291.91 19.078L291.647 18.1133ZM289.108 14.832L288.559 15.6681L288.569 15.6746L289.108 14.832ZM278.737 16.0234L277.971 15.3808L277.968 15.3845L278.737 16.0234ZM277.643 28.4453L276.722 28.8352L276.725 28.8422L277.643 28.4453ZM280.377 31.7461L279.844 32.5921L279.855 32.5987L280.377 31.7461ZM284.811 33.8594C286.729 33.8594 288.419 33.377 289.825 32.3614C291.226 31.3495 292.268 29.8637 292.991 27.9837L291.124 27.2663C290.505 28.8759 289.669 30.0072 288.654 30.7402C287.645 31.4694 286.383 31.8594 284.811 31.8594V33.8594ZM291.704 28.5606L296.723 30.4551L297.43 28.584L292.41 26.6894L291.704 28.5606ZM296.15 29.1427C295.136 31.636 293.672 33.4343 291.783 34.6076L292.839 36.3065C295.142 34.8756 296.856 32.7155 298.003 29.8964L296.15 29.1427ZM291.785 34.6067C289.887 35.7807 287.578 36.3906 284.811 36.3906V38.3906C287.878 38.3906 290.568 37.7115 292.837 36.3074L291.785 34.6067ZM284.811 36.3906C281.994 36.3906 279.659 35.8547 277.767 34.8314L276.816 36.5905C279.064 37.8067 281.743 38.3906 284.811 38.3906V36.3906ZM277.771 34.8337C275.88 33.7988 274.439 32.3129 273.435 30.3527L271.655 31.2645C272.839 33.5751 274.562 35.3575 276.811 36.5882L277.771 34.8337ZM273.438 30.357C272.443 28.3924 271.924 25.9897 271.924 23.1133H269.924C269.924 26.2264 270.486 28.954 271.653 31.2602L273.438 30.357ZM271.924 23.1133C271.924 20.2032 272.426 17.8138 273.381 15.9042L271.592 15.0098C270.464 17.267 269.924 19.9817 269.924 23.1133H271.924ZM273.381 15.9042C274.331 14.0042 275.72 12.5756 277.566 11.5938L276.626 9.82812C274.409 11.0077 272.726 12.7432 271.592 15.0098L273.381 15.9042ZM277.57 11.5914C279.421 10.5948 281.735 10.0703 284.557 10.0703V8.07031C281.493 8.07031 278.834 8.63957 276.622 9.83047L277.57 11.5914ZM284.557 10.0703C287.658 10.0703 290.084 10.6959 291.908 11.8653L292.987 10.1816C290.749 8.74677 287.914 8.07031 284.557 8.07031V10.0703ZM291.912 11.8678C293.727 13.0199 295.019 14.7213 295.774 17.0369L297.676 16.4163C296.791 13.7058 295.231 11.6051 292.984 10.1791L291.912 11.8678ZM296.462 15.7619L291.383 17.1486L291.91 19.078L296.988 17.6912L296.462 15.7619ZM292.602 17.816C292.099 16.2018 291.1 14.9186 289.646 13.9894L288.569 15.6746C289.642 16.36 290.335 17.2644 290.692 18.4105L292.602 17.816ZM289.656 13.996C288.221 13.0542 286.547 12.6016 284.674 12.6016V14.6016C286.213 14.6016 287.494 14.9692 288.559 15.6681L289.656 13.996ZM284.674 12.6016C281.851 12.6016 279.559 13.4872 277.971 15.3808L279.503 16.666C280.623 15.3305 282.29 14.6016 284.674 14.6016V12.6016ZM277.968 15.3845C276.42 17.2476 275.725 19.8768 275.725 23.1133H277.725C277.725 20.1258 278.371 18.0285 279.506 16.6624L277.968 15.3845ZM275.725 23.1133C275.725 25.3131 276.043 27.232 276.722 28.8352L278.564 28.0554C278.019 26.768 277.725 25.1322 277.725 23.1133H275.725ZM276.725 28.8422C277.421 30.451 278.457 31.7174 279.844 32.592L280.911 30.9002C279.902 30.2643 279.115 29.3303 278.561 28.0484L276.725 28.8422ZM279.855 32.5987C281.255 33.4571 282.924 33.8594 284.811 33.8594V31.8594C283.209 31.8594 281.921 31.5194 280.9 30.8935L279.855 32.5987ZM312.545 26.5508V25.5508H311.984L311.691 26.0293L312.545 26.5508ZM306.158 37V38H306.719L307.011 37.5215L306.158 37ZM299.673 37L298.833 36.4588L297.841 38H299.673V37ZM307.115 25.4375L307.956 25.9787L308.72 24.7913L307.346 24.4646L307.115 25.4375ZM302.681 22.6836L301.892 23.2975L301.895 23.3011L302.681 22.6836ZM303.716 11.6094L304.336 12.3947L304.336 12.3941L303.716 11.6094ZM325.064 9.48047H326.064V8.48047H325.064V9.48047ZM325.064 37V38H326.064V37H325.064ZM319.302 37H318.302V38H319.302V37ZM319.302 26.5508H320.302V25.5508H319.302V26.5508ZM308.072 20.9844L307.401 21.7259L307.407 21.7315L307.413 21.737L308.072 20.9844ZM319.302 22.0781V23.0781H320.302V22.0781H319.302ZM319.302 13.9531H320.302V12.9531H319.302V13.9531ZM311.691 26.0293L305.305 36.4785L307.011 37.5215L313.398 27.0723L311.691 26.0293ZM306.158 36H299.673V38H306.158V36ZM300.514 37.5412L307.956 25.9787L306.274 24.8963L298.833 36.4588L300.514 37.5412ZM307.346 24.4646C305.685 24.0697 304.41 23.2668 303.468 22.0661L301.895 23.3011C303.14 24.8869 304.821 25.9199 306.884 26.4104L307.346 24.4646ZM303.471 22.0697C302.525 20.8536 302.041 19.4077 302.041 17.6836H300.041C300.041 19.8137 300.65 21.7011 301.892 23.2975L303.471 22.0697ZM302.041 17.6836C302.041 15.2903 302.833 13.579 304.336 12.3947L303.097 10.8241C301.032 12.4523 300.041 14.7905 300.041 17.6836H302.041ZM304.336 12.3941C305.895 11.163 308.177 10.4805 311.314 10.4805V8.48047C307.915 8.48047 305.132 9.21725 303.097 10.8246L304.336 12.3941ZM311.314 10.4805H325.064V8.48047H311.314V10.4805ZM324.064 9.48047V37H326.064V9.48047H324.064ZM325.064 36H319.302V38H325.064V36ZM320.302 37V26.5508H318.302V37H320.302ZM319.302 25.5508H312.545V27.5508H319.302V25.5508ZM305.841 17.918C305.841 19.4479 306.334 20.7603 307.401 21.7259L308.743 20.2428C308.169 19.7241 307.841 18.9922 307.841 17.918H305.841ZM307.413 21.737C308.498 22.6861 310.005 23.0781 311.763 23.0781V21.0781C310.267 21.0781 309.312 20.7409 308.73 20.2318L307.413 21.737ZM311.763 23.0781H319.302V21.0781H311.763V23.0781ZM320.302 22.0781V13.9531H318.302V22.0781H320.302ZM319.302 12.9531H311.92V14.9531H319.302V12.9531ZM311.92 12.9531C310.123 12.9531 308.592 13.3008 307.494 14.1625L308.728 15.736C309.323 15.2695 310.33 14.9531 311.92 14.9531V12.9531ZM307.494 14.1625C306.352 15.0584 305.841 16.3715 305.841 17.918H307.841C307.841 16.8342 308.177 16.1682 308.728 15.736L307.494 14.1625ZM348.891 14.2461V13.2461H347.891V14.2461H348.891ZM348.891 37V38H349.891V37H348.891ZM343.148 37H342.148V38H343.148V37ZM343.148 9.48047V8.48047H342.148V9.48047H343.148ZM366.547 9.48047H367.547V8.48047H366.547V9.48047ZM366.547 37V38H367.547V37H366.547ZM360.98 37H359.98V38H360.98V37ZM360.98 14.2461H361.98V13.2461H360.98V14.2461ZM347.891 14.2461V37H349.891V14.2461H347.891ZM348.891 36H343.148V38H348.891V36ZM344.148 37V9.48047H342.148V37H344.148ZM343.148 10.4805H366.547V8.48047H343.148V10.4805ZM365.547 9.48047V37H367.547V9.48047H365.547ZM366.547 36H360.98V38H366.547V36ZM361.98 37V14.2461H359.98V37H361.98ZM360.98 13.2461H348.891V15.2461H360.98V13.2461ZM397.718 30.6328L396.838 30.1581L396.837 30.16L397.718 30.6328ZM392.855 35.6133L392.363 34.7427L392.36 34.744L392.855 35.6133ZM378.089 35.6719L377.601 36.5445L377.605 36.5468L378.089 35.6719ZM373.304 15.5547L372.42 15.0878L372.417 15.0921L373.304 15.5547ZM378.07 10.75L378.541 11.6319L378.543 11.6308L378.07 10.75ZM393.03 10.7695L392.55 11.6468L392.555 11.6491L393.03 10.7695ZM397.796 15.5938L398.68 15.1269L397.796 15.5938ZM391.468 16.1406L390.699 16.7796L390.701 16.7826L391.468 16.1406ZM379.573 16.1211L380.338 16.766L380.34 16.763L379.573 16.1211ZM381.214 31.6875L380.661 32.521L380.672 32.5278L381.214 31.6875ZM391.468 30.3203L390.699 29.6813L390.696 29.6848L391.468 30.3203ZM398.456 23.1133C398.456 25.841 397.905 28.1789 396.838 30.1581L398.598 31.1075C399.848 28.7898 400.456 26.1148 400.456 23.1133H398.456ZM396.837 30.16C395.78 32.1298 394.293 33.6516 392.363 34.7427L393.347 36.4838C395.609 35.2052 397.364 33.4066 398.599 31.1056L396.837 30.16ZM392.36 34.744C390.452 35.8294 388.18 36.3906 385.511 36.3906V38.3906C388.467 38.3906 391.091 37.7669 393.349 36.4825L392.36 34.744ZM385.511 36.3906C382.766 36.3906 380.467 35.8448 378.573 34.7969L377.605 36.5468C379.852 37.7906 382.5 38.3906 385.511 38.3906V36.3906ZM378.578 34.7993C376.68 33.7373 375.229 32.2347 374.211 30.2703L372.436 31.1906C373.631 33.4971 375.357 35.2887 377.601 36.5445L378.578 34.7993ZM374.211 30.2703C373.193 28.3054 372.663 25.9311 372.663 23.1133H370.663C370.663 26.1808 371.24 28.8847 372.436 31.1906L374.211 30.2703ZM372.663 23.1133C372.663 20.293 373.187 17.9401 374.191 16.0173L372.417 15.0921C371.233 17.362 370.663 20.0482 370.663 23.1133H372.663ZM374.188 16.0216C375.203 14.0998 376.648 12.6436 378.541 11.6319L377.598 9.86811C375.35 11.0699 373.619 12.8169 372.42 15.0878L374.188 16.0216ZM378.543 11.6308C380.451 10.6051 382.774 10.0703 385.55 10.0703V8.07031C382.518 8.07031 379.855 8.65527 377.596 9.86918L378.543 11.6308ZM385.55 10.0703C388.338 10.0703 390.658 10.6114 392.55 11.6468L393.51 9.89227C391.262 8.66205 388.595 8.07031 385.55 8.07031V10.0703ZM392.555 11.6491C394.45 12.6741 395.897 14.1379 396.912 16.0606L398.68 15.1269C397.482 12.8569 395.752 11.1046 393.506 9.88995L392.555 11.6491ZM396.912 16.0606C397.927 17.9836 398.456 20.3224 398.456 23.1133H400.456C400.456 20.0709 399.879 17.3966 398.68 15.1269L396.912 16.0606ZM394.577 23.1133C394.577 19.9933 393.838 17.4134 392.235 15.4987L390.701 16.7826C391.911 18.2272 392.577 20.2958 392.577 23.1133H394.577ZM392.237 15.5016C390.611 13.5436 388.335 12.6016 385.55 12.6016V14.6016C387.843 14.6016 389.513 15.3522 390.699 16.7796L392.237 15.5016ZM385.55 12.6016C382.734 12.6016 380.437 13.5315 378.807 15.4792L380.34 16.763C381.522 15.3513 383.21 14.6016 385.55 14.6016V12.6016ZM378.809 15.4762C377.202 17.3807 376.464 19.9703 376.464 23.1133H378.464C378.464 20.2666 379.132 18.1948 380.338 16.766L378.809 15.4762ZM376.464 23.1133C376.464 25.2242 376.807 27.1013 377.527 28.7162L379.354 27.9009C378.773 26.5992 378.464 25.0128 378.464 23.1133H376.464ZM377.527 28.7162C378.247 30.3279 379.288 31.6104 380.661 32.5209L381.767 30.8541C380.744 30.1761 379.936 29.2059 379.354 27.9009L377.527 28.7162ZM380.672 32.5278C382.067 33.428 383.694 33.8594 385.511 33.8594V31.8594C384.021 31.8594 382.783 31.5095 381.756 30.8472L380.672 32.5278ZM385.511 33.8594C388.329 33.8594 390.623 32.921 392.24 30.9558L390.696 29.6848C389.527 31.1051 387.849 31.8594 385.511 31.8594V33.8594ZM392.237 30.9593C393.844 29.0254 394.577 26.3635 394.577 23.1133H392.577C392.577 26.087 391.905 28.2298 390.699 29.6813L392.237 30.9593ZM427.073 32.5469H428.073V31.5469H427.073V32.5469ZM427.073 37V38H428.073V37H427.073ZM404.631 37H403.631V38H404.631V37ZM404.631 9.48047V8.48047H403.631V9.48047H404.631ZM426.272 9.48047H427.272V8.48047H426.272V9.48047ZM426.272 13.9336V14.9336H427.272V13.9336H426.272ZM410.393 13.9336V12.9336H409.393V13.9336H410.393ZM410.393 20.8477H409.393V21.8477H410.393V20.8477ZM425.081 20.8477H426.081V19.8477H425.081V20.8477ZM425.081 25.3008V26.3008H426.081V25.3008H425.081ZM410.393 25.3008V24.3008H409.393V25.3008H410.393ZM410.393 32.5469H409.393V33.5469H410.393V32.5469ZM426.073 32.5469V37H428.073V32.5469H426.073ZM427.073 36H404.631V38H427.073V36ZM405.631 37V9.48047H403.631V37H405.631ZM404.631 10.4805H426.272V8.48047H404.631V10.4805ZM425.272 9.48047V13.9336H427.272V9.48047H425.272ZM426.272 12.9336H410.393V14.9336H426.272V12.9336ZM409.393 13.9336V20.8477H411.393V13.9336H409.393ZM410.393 21.8477H425.081V19.8477H410.393V21.8477ZM424.081 20.8477V25.3008H426.081V20.8477H424.081ZM425.081 24.3008H410.393V26.3008H425.081V24.3008ZM409.393 25.3008V32.5469H411.393V25.3008H409.393ZM410.393 33.5469H427.073V31.5469H410.393V33.5469ZM434.474 35.5547L433.921 36.3877L433.928 36.3921L434.474 35.5547ZM430.334 29.8125L430.001 28.8693L429.063 29.1999L429.389 30.1401L430.334 29.8125ZM435.49 27.9961L436.431 27.6576L436.095 26.7228L435.158 27.0529L435.49 27.9961ZM445.724 31.9023L446.345 32.6867L446.352 32.6809L445.724 31.9023ZM445.47 26.1211L444.975 26.99L444.982 26.9937L444.988 26.9973L445.47 26.1211ZM439.474 25.2422H438.474V26.2422H439.474V25.2422ZM439.474 20.8086V19.8086H438.474V20.8086H439.474ZM445.177 14.2656L444.559 15.0515L444.565 15.0563L445.177 14.2656ZM438.4 14.5391L439.046 15.3021L439.053 15.2968L438.4 14.5391ZM436.252 18.1523L436.03 19.1274L436.935 19.3336L437.208 18.4453L436.252 18.1523ZM431.017 16.9609L430.07 16.6412L429.716 17.6903L430.795 17.936L431.017 16.9609ZM450.705 12.4688L449.908 13.0734L449.916 13.084L450.705 12.4688ZM446.486 22.8203L446.24 21.851L446.342 23.8099L446.486 22.8203ZM451.037 24.9297L450.313 25.6198L450.317 25.6241L451.037 24.9297ZM451.33 33.543L450.517 32.9609L450.515 32.9626L451.33 33.543ZM447.599 36.3945L447.982 37.3183L447.986 37.3167L447.599 36.3945ZM441.896 36.3906C438.947 36.3906 436.683 35.8025 435.021 34.7173L433.928 36.3921C436.015 37.7548 438.699 38.3906 441.896 38.3906V36.3906ZM435.028 34.7217C433.386 33.6312 432.122 31.9173 431.278 29.4849L429.389 30.1401C430.342 32.89 431.838 35.0042 433.921 36.3876L435.028 34.7217ZM430.666 30.7557L435.822 28.9393L435.158 27.0529L430.001 28.8693L430.666 30.7557ZM434.549 28.3345C435.187 30.1085 436.112 31.5238 437.369 32.494C438.637 33.4716 440.166 33.9375 441.896 33.9375V31.9375C440.541 31.9375 439.459 31.5799 438.591 30.9103C437.713 30.2333 436.978 29.178 436.431 27.6576L434.549 28.3345ZM441.896 33.9375C443.691 33.9375 445.226 33.5719 446.345 32.6866L445.104 31.1181C444.478 31.613 443.46 31.9375 441.896 31.9375V33.9375ZM446.352 32.6809C447.492 31.7622 448.033 30.4751 448.033 28.9531H446.033C446.033 29.9572 445.702 30.6362 445.097 31.1237L446.352 32.6809ZM448.033 28.9531C448.033 27.3207 447.353 26.0152 445.952 25.2449L444.988 26.9973C445.671 27.3728 446.033 27.9554 446.033 28.9531H448.033ZM445.965 25.2522C444.705 24.5343 442.875 24.2422 440.627 24.2422V26.2422C442.779 26.2422 444.178 26.536 444.975 26.99L445.965 25.2522ZM440.627 24.2422H439.474V26.2422H440.627V24.2422ZM440.474 25.2422V20.8086H438.474V25.2422H440.474ZM439.474 21.8086H440.627V19.8086H439.474V21.8086ZM440.627 21.8086C442.661 21.8086 444.353 21.4924 445.537 20.7031L444.427 19.039C443.736 19.4998 442.525 19.8086 440.627 19.8086V21.8086ZM445.537 20.7031C446.799 19.8615 447.388 18.5564 447.388 16.9805H445.388C445.388 18.0087 445.04 18.6307 444.427 19.039L445.537 20.7031ZM447.388 16.9805C447.388 15.5423 446.883 14.3212 445.79 13.4749L444.565 15.0563C445.087 15.4601 445.388 16.0488 445.388 16.9805H447.388ZM445.796 13.4798C444.768 12.6707 443.421 12.3281 441.877 12.3281V14.3281C443.145 14.3281 443.999 14.6105 444.559 15.0515L445.796 13.4798ZM441.877 12.3281C440.286 12.3281 438.888 12.7994 437.747 13.7813L439.053 15.2968C439.787 14.6641 440.706 14.3281 441.877 14.3281V12.3281ZM437.754 13.7761C436.625 14.7323 435.826 16.1279 435.295 17.8593L437.208 18.4453C437.667 16.9476 438.3 15.9343 439.046 15.302L437.754 13.7761ZM436.474 17.1773L431.239 15.9859L430.795 17.936L436.03 19.1274L436.474 17.1773ZM431.965 17.2807C432.799 14.8086 434.048 13.0338 435.668 11.8698C437.288 10.7058 439.368 10.0898 441.974 10.0898V8.08984C439.047 8.08984 436.533 8.78569 434.501 10.2455C432.469 11.7052 431.006 13.8659 430.07 16.6412L431.965 17.2807ZM441.974 10.0898C443.884 10.0898 445.507 10.3692 446.864 10.9L447.593 9.03751C445.954 8.39644 444.074 8.08984 441.974 8.08984V10.0898ZM446.864 10.9C448.222 11.4314 449.218 12.1644 449.908 13.0733L451.501 11.8642C450.551 10.6117 449.229 9.67796 447.593 9.03751L446.864 10.9ZM449.916 13.084C450.602 13.9621 450.955 15.0042 450.955 16.2578H452.955C452.955 14.5948 452.474 13.1108 451.493 11.8535L449.916 13.084ZM450.955 16.2578C450.955 17.7435 450.551 18.9073 449.797 19.8204L451.339 21.0937C452.434 19.7672 452.955 18.1315 452.955 16.2578H450.955ZM449.797 19.8204C449.041 20.7359 447.888 21.433 446.24 21.851L446.732 23.7896C448.677 23.2962 450.246 22.4177 451.339 21.0937L449.797 19.8204ZM446.342 23.8099C448.15 24.0734 449.439 24.7028 450.313 25.6198L451.76 24.2396C450.499 22.917 448.754 22.1402 446.63 21.8308L446.342 23.8099ZM450.317 25.6241C451.199 26.5373 451.658 27.6983 451.658 29.1875H453.658C453.658 27.2392 453.036 25.5617 451.756 24.2352L450.317 25.6241ZM451.658 29.1875C451.658 30.6664 451.269 31.91 450.517 32.9609L452.143 34.125C453.161 32.702 453.658 31.042 453.658 29.1875H451.658ZM450.515 32.9626C449.768 34.0115 448.684 34.8551 447.213 35.4723L447.986 37.3167C449.743 36.5798 451.147 35.5223 452.144 34.1234L450.515 32.9626ZM447.216 35.4708C445.764 36.0729 443.999 36.3906 441.896 36.3906V38.3906C444.194 38.3906 446.231 38.0442 447.982 37.3183L447.216 35.4708ZM460.548 37V36H459.548V37H460.548ZM460.548 44.9688V45.9688H461.548V44.9688H460.548ZM455.665 44.9688H454.665V45.9688H455.665V44.9688ZM455.665 32.2344V31.2344H454.665V32.2344H455.665ZM458.712 32.2344V33.2344H459.303L459.588 32.716L458.712 32.2344ZM461.212 25.9258L462.172 26.2058L462.172 26.2044L461.212 25.9258ZM462.872 18.1719L463.862 18.3126L463.863 18.3077L462.872 18.1719ZM464.063 9.48047V8.48047H463.191L463.073 9.34466L464.063 9.48047ZM479.473 9.48047H480.473V8.48047H479.473V9.48047ZM479.473 32.2344H478.473V33.2344H479.473V32.2344ZM483.087 32.2344H484.087V31.2344H483.087V32.2344ZM483.087 44.9688V45.9688H484.087V44.9688H483.087ZM478.204 44.9688H477.204V45.9688H478.204V44.9688ZM478.204 37H479.204V36H478.204V37ZM464.747 32.2344L463.843 31.8068L463.168 33.2344H464.747V32.2344ZM473.907 32.2344V33.2344H474.907V32.2344H473.907ZM473.907 14.2461H474.907V13.2461H473.907V14.2461ZM468.79 14.2461V13.2461H467.914L467.799 14.1148L468.79 14.2461ZM468.184 18.8164L469.175 18.9548L469.176 18.9477L468.184 18.8164ZM466.075 28.6797L467.031 28.9719L467.032 28.9695L466.075 28.6797ZM459.548 37V44.9688H461.548V37H459.548ZM460.548 43.9688H455.665V45.9688H460.548V43.9688ZM456.665 44.9688V32.2344H454.665V44.9688H456.665ZM455.665 33.2344H458.712V31.2344H455.665V33.2344ZM459.588 32.716C460.57 30.929 461.429 28.7539 462.172 26.2058L460.252 25.6458C459.537 28.0976 458.728 30.1283 457.835 31.7527L459.588 32.716ZM462.172 26.2044C462.915 23.6451 463.478 21.0143 463.862 18.3126L461.882 18.0311C461.511 20.6419 460.967 23.1804 460.251 25.6471L462.172 26.2044ZM463.863 18.3077L465.054 9.61628L463.073 9.34466L461.881 18.0361L463.863 18.3077ZM464.063 10.4805H479.473V8.48047H464.063V10.4805ZM478.473 9.48047V32.2344H480.473V9.48047H478.473ZM479.473 33.2344H483.087V31.2344H479.473V33.2344ZM482.087 32.2344V44.9688H484.087V32.2344H482.087ZM483.087 43.9688H478.204V45.9688H483.087V43.9688ZM479.204 44.9688V37H477.204V44.9688H479.204ZM478.204 36H460.548V38H478.204V36ZM464.747 33.2344H473.907V31.2344H464.747V33.2344ZM474.907 32.2344V14.2461H472.907V32.2344H474.907ZM473.907 13.2461H468.79V15.2461H473.907V13.2461ZM467.799 14.1148L467.193 18.6851L469.176 18.9477L469.781 14.3774L467.799 14.1148ZM467.194 18.678C466.95 20.4254 466.648 22.1331 466.289 23.8012L468.244 24.2223C468.614 22.5049 468.924 20.749 469.175 18.9548L467.194 18.678ZM466.289 23.8012C465.929 25.4715 465.539 27.0007 465.118 28.3899L467.032 28.9695C467.471 27.5202 467.875 25.9374 468.244 24.2223L466.289 23.8012ZM465.119 28.3875C464.698 29.7634 464.272 30.9 463.843 31.8068L465.651 32.6619C466.133 31.6417 466.592 30.4085 467.031 28.9719L465.119 28.3875ZM493.047 25.1836V24.1836H492.047V25.1836H493.047ZM493.047 37V38H494.047V37H493.047ZM487.305 37H486.305V38H487.305V37ZM487.305 9.48047V8.48047H486.305V9.48047H487.305ZM493.066 9.48047H494.066V8.48047H493.066V9.48047ZM493.066 21.1797H492.066V22.1797H493.066V21.1797ZM494.121 20.8867L494.593 21.7682L494.605 21.7617L494.617 21.755L494.121 20.8867ZM495.254 19.9688L495.973 20.6642L495.978 20.6587L495.983 20.6531L495.254 19.9688ZM498.262 15.8086L497.418 15.272L497.415 15.2765L498.262 15.8086ZM502.285 9.48047V8.48047H501.736L501.441 8.94393L502.285 9.48047ZM508.145 9.48047L508.981 10.028L509.994 8.48047H508.145V9.48047ZM502.969 17.3906L503.804 17.9402L503.806 17.9382L502.969 17.3906ZM499.629 21.7656L499.035 20.9614L498.292 21.51L498.78 22.2937L499.629 21.7656ZM509.102 37V38H510.901L509.951 36.472L509.102 37ZM502.832 37L501.969 37.5045L502.258 38H502.832V37ZM495.527 24.5L496.391 23.9955L495.862 23.09L494.982 23.6616L495.527 24.5ZM492.047 25.1836V37H494.047V25.1836H492.047ZM493.047 36H487.305V38H493.047V36ZM488.305 37V9.48047H486.305V37H488.305ZM487.305 10.4805H493.066V8.48047H487.305V10.4805ZM492.066 9.48047V21.1797H494.066V9.48047H492.066ZM493.066 22.1797C493.602 22.1797 494.115 22.0243 494.593 21.7682L493.649 20.0052C493.398 20.1398 493.208 20.1797 493.066 20.1797V22.1797ZM494.617 21.755C495.086 21.4871 495.537 21.1143 495.973 20.6642L494.535 19.2733C494.19 19.6305 493.885 19.8697 493.625 20.0185L494.617 21.755ZM495.983 20.6531C496.845 19.7342 497.889 18.2808 499.108 16.3406L497.415 15.2765C496.212 17.1905 495.251 18.5106 494.525 19.2844L495.983 20.6531ZM499.106 16.3451L503.129 10.017L501.441 8.94393L497.418 15.2721L499.106 16.3451ZM502.285 10.4805H508.145V8.48047H502.285V10.4805ZM507.308 8.93294L502.132 16.8431L503.806 17.9382L508.981 10.028L507.308 8.93294ZM502.133 16.841C501.326 18.0687 500.655 19.0302 500.118 19.7331C499.56 20.465 499.207 20.834 499.035 20.9614L500.223 22.5698C500.65 22.2546 501.153 21.673 501.708 20.9466C502.285 20.1912 502.984 19.1865 503.804 17.9402L502.133 16.841ZM498.78 22.2937L508.252 37.528L509.951 36.472L500.478 21.2376L498.78 22.2937ZM509.102 36H502.832V38H509.102V36ZM503.695 36.4955L496.391 23.9955L494.664 25.0045L501.969 37.5045L503.695 36.4955ZM494.982 23.6616C494.845 23.7508 494.572 23.8742 494.104 24.0063L494.646 25.9312C495.194 25.7769 495.689 25.5877 496.072 25.3384L494.982 23.6616ZM494.104 24.0063C493.652 24.1337 493.304 24.1836 493.047 24.1836V26.1836C493.545 26.1836 494.082 26.0903 494.646 25.9312L494.104 24.0063ZM537.538 30.6328L536.658 30.1581L536.657 30.16L537.538 30.6328ZM532.675 35.6133L532.183 34.7427L532.181 34.744L532.675 35.6133ZM517.909 35.6719L517.421 36.5445L517.425 36.5468L517.909 35.6719ZM513.124 15.5547L512.24 15.0878L512.238 15.0921L513.124 15.5547ZM517.89 10.75L518.361 11.6319L518.363 11.6308L517.89 10.75ZM532.851 10.7695L532.371 11.6468L532.375 11.6491L532.851 10.7695ZM537.616 15.5938L538.501 15.1269L537.616 15.5938ZM531.288 16.1406L530.519 16.7796L530.522 16.7826L531.288 16.1406ZM519.394 16.1211L520.158 16.766L520.161 16.763L519.394 16.1211ZM521.034 31.6875L520.482 32.521L520.492 32.5278L521.034 31.6875ZM531.288 30.3203L530.519 29.6813L530.516 29.6848L531.288 30.3203ZM538.277 23.1133C538.277 25.841 537.726 28.1789 536.658 30.1581L538.418 31.1075C539.669 28.7898 540.277 26.1148 540.277 23.1133H538.277ZM536.657 30.16C535.6 32.1298 534.113 33.6516 532.183 34.7427L533.167 36.4838C535.429 35.2052 537.185 33.4066 538.419 31.1056L536.657 30.16ZM532.181 34.744C530.272 35.8294 528.001 36.3906 525.331 36.3906V38.3906C528.287 38.3906 530.911 37.7669 533.169 36.4825L532.181 34.744ZM525.331 36.3906C522.587 36.3906 520.287 35.8448 518.394 34.7969L517.425 36.5468C519.673 37.7906 522.321 38.3906 525.331 38.3906V36.3906ZM518.398 34.7993C516.501 33.7373 515.05 32.2347 514.032 30.2703L512.256 31.1906C513.451 33.4971 515.178 35.2887 517.421 36.5445L518.398 34.7993ZM514.032 30.2703C513.013 28.3054 512.484 25.9311 512.484 23.1133H510.484C510.484 26.1808 511.061 28.8847 512.256 31.1906L514.032 30.2703ZM512.484 23.1133C512.484 20.293 513.008 17.9401 514.011 16.0173L512.238 15.0921C511.053 17.362 510.484 20.0482 510.484 23.1133H512.484ZM514.009 16.0216C515.023 14.0998 516.469 12.6436 518.361 11.6319L517.418 9.86811C515.17 11.0699 513.439 12.8169 512.24 15.0878L514.009 16.0216ZM518.363 11.6308C520.272 10.6051 522.595 10.0703 525.37 10.0703V8.07031C522.339 8.07031 519.675 8.65527 517.416 9.86918L518.363 11.6308ZM525.37 10.0703C528.158 10.0703 530.479 10.6114 532.371 11.6468L533.331 9.89227C531.082 8.66205 528.416 8.07031 525.37 8.07031V10.0703ZM532.375 11.6491C534.27 12.6741 535.717 14.1379 536.732 16.0606L538.501 15.1269C537.302 12.8569 535.572 11.1046 533.327 9.88995L532.375 11.6491ZM536.732 16.0606C537.747 17.9836 538.277 20.3224 538.277 23.1133H540.277C540.277 20.0709 539.699 17.3966 538.501 15.1269L536.732 16.0606ZM534.398 23.1133C534.398 19.9933 533.658 17.4134 532.055 15.4987L530.522 16.7826C531.731 18.2272 532.398 20.2958 532.398 23.1133H534.398ZM532.057 15.5016C530.431 13.5436 528.156 12.6016 525.37 12.6016V14.6016C527.663 14.6016 529.333 15.3522 530.519 16.7796L532.057 15.5016ZM525.37 12.6016C522.554 12.6016 520.258 13.5315 518.627 15.4792L520.161 16.763C521.342 15.3513 523.03 14.6016 525.37 14.6016V12.6016ZM518.629 15.4762C517.023 17.3807 516.284 19.9703 516.284 23.1133H518.284C518.284 20.2666 518.952 18.1948 520.158 16.766L518.629 15.4762ZM516.284 23.1133C516.284 25.2242 516.627 27.1013 517.348 28.7162L519.174 27.9009C518.593 26.5992 518.284 25.0128 518.284 23.1133H516.284ZM517.348 28.7162C518.067 30.3279 519.109 31.6104 520.482 32.5209L521.587 30.8541C520.564 30.1761 519.757 29.2059 519.174 27.9009L517.348 28.7162ZM520.492 32.5278C521.888 33.428 523.514 33.8594 525.331 33.8594V31.8594C523.841 31.8594 522.603 31.5095 521.577 30.8472L520.492 32.5278ZM525.331 33.8594C528.15 33.8594 530.443 32.921 532.06 30.9558L530.516 29.6848C529.347 31.1051 527.669 31.8594 525.331 31.8594V33.8594ZM532.057 30.9593C533.664 29.0254 534.398 26.3635 534.398 23.1133H532.398C532.398 26.087 531.725 28.2298 530.519 29.6813L532.057 30.9593ZM562.889 15.8086L563.888 15.854L562.017 15.3191L562.889 15.8086ZM550.995 37V38H551.58L551.867 37.4895L550.995 37ZM544.432 37H543.432V38H544.432V37ZM544.432 9.48047V8.48047H543.432V9.48047H544.432ZM549.549 9.48047H550.549V8.48047H549.549V9.48047ZM549.393 30.8477L548.394 30.8001L550.265 31.3365L549.393 30.8477ZM561.366 9.48047V8.48047H560.78L560.493 8.99165L561.366 9.48047ZM567.85 9.48047H568.85V8.48047H567.85V9.48047ZM567.85 37V38H568.85V37H567.85ZM562.733 37H561.733V38H562.733V37ZM562.772 18.7773L563.771 18.8091V18.8086L562.772 18.7773ZM550.409 5.82812L549.771 6.59827L549.775 6.60139L550.409 5.82812ZM548.319 0.789062V-0.210938H547.272L547.32 0.83447L548.319 0.789062ZM552.694 0.789062L553.693 0.738874L553.645 -0.210938H552.694V0.789062ZM559.842 0.789062V-0.210938H558.891L558.844 0.738874L559.842 0.789062ZM564.217 0.789062L565.216 0.834214L565.263 -0.210938H564.217V0.789062ZM562.108 5.84766L562.741 6.62161L562.742 6.62092L562.108 5.84766ZM562.017 15.3191L550.123 36.5105L551.867 37.4895L563.761 16.2981L562.017 15.3191ZM550.995 36H544.432V38H550.995V36ZM545.432 37V9.48047H543.432V37H545.432ZM544.432 10.4805H549.549V8.48047H544.432V10.4805ZM548.549 9.48047V25.4766H550.549V9.48047H548.549ZM548.549 25.4766C548.549 26.1546 548.536 26.9389 548.511 27.8304L550.51 27.8883C550.536 26.983 550.549 26.1787 550.549 25.4766H548.549ZM548.511 27.8304C548.485 28.7215 548.446 29.7113 548.394 30.8001L550.392 30.8952C550.444 29.7966 550.484 28.7941 550.51 27.8883L548.511 27.8304ZM550.265 31.3365L562.238 9.96929L560.493 8.99165L548.521 30.3588L550.265 31.3365ZM561.366 10.4805H567.85V8.48047H561.366V10.4805ZM566.85 9.48047V37H568.85V9.48047H566.85ZM567.85 36H562.733V38H567.85V36ZM563.733 37V20.7695H561.733V37H563.733ZM563.733 20.7695C563.733 20.2767 563.746 19.6244 563.771 18.8091L561.772 18.7456C561.746 19.5709 561.733 20.2467 561.733 20.7695H563.733ZM563.771 18.8086C563.797 17.9813 563.836 16.9967 563.888 15.854L561.89 15.7632C561.838 16.9121 561.799 17.9067 561.772 18.7461L563.771 18.8086ZM556.268 6.42969C553.775 6.42969 552.091 5.91462 551.043 5.05486L549.775 6.60139C551.33 7.87705 553.553 8.42969 556.268 8.42969V6.42969ZM551.047 5.05799C550.046 4.22936 549.414 2.86206 549.318 0.743655L547.32 0.83447C547.432 3.29939 548.193 5.29148 549.771 6.59826L551.047 5.05799ZM548.319 1.78906H552.694V-0.210938H548.319V1.78906ZM551.695 0.839251C551.766 2.26086 552.135 3.49621 552.949 4.381C553.784 5.28883 554.945 5.67578 556.268 5.67578V3.67578C555.338 3.67578 554.778 3.41495 554.421 3.02721C554.043 2.61642 553.751 1.90841 553.693 0.738874L551.695 0.839251ZM556.268 5.67578C557.591 5.67578 558.752 5.28883 559.587 4.381C560.401 3.49621 560.77 2.26086 560.841 0.839251L558.844 0.738874C558.785 1.90841 558.493 2.61642 558.115 3.02721C557.758 3.41495 557.198 3.67578 556.268 3.67578V5.67578ZM559.842 1.78906H564.217V-0.210938H559.842V1.78906ZM563.218 0.743911C563.122 2.8743 562.484 4.24589 561.474 5.07439L562.742 6.62092C564.336 5.314 565.104 3.3132 565.216 0.834214L563.218 0.743911ZM561.475 5.0737C560.441 5.91977 558.764 6.42969 556.268 6.42969V8.42969C558.98 8.42969 561.197 7.88492 562.741 6.62161L561.475 5.0737ZM579.685 31.043H580.685V30.043H579.685V31.043ZM579.685 37V38H580.685V37H579.685ZM574.041 37H573.041V38H574.041V37ZM574.041 31.043V30.043H573.041V31.043H574.041ZM578.685 31.043V37H580.685V31.043H578.685ZM579.685 36H574.041V38H579.685V36ZM575.041 37V31.043H573.041V37H575.041ZM574.041 32.043H579.685V30.043H574.041V32.043Z" fill="white"/>
</svg>
