<svg width="499" height="96" viewBox="0 0 499 96" fill="none" xmlns="http://www.w3.org/2000/svg">
<path d="M34.792 17.6416C34.792 21.2223 34.0677 24.3555 32.6191 27.041C31.1868 29.7103 29.1605 31.7855 26.54 33.2666C23.9359 34.7477 20.876 35.4883 17.3604 35.4883C13.7633 35.4883 10.6709 34.7721 8.08301 33.3398C5.49512 31.8913 3.50944 29.8324 2.12598 27.1631C0.742513 24.4938 0.0507812 21.32 0.0507812 17.6416C0.0507812 13.9632 0.734375 10.8138 2.10156 8.19336C3.48503 5.57292 5.4707 3.57096 8.05859 2.1875C10.6628 0.78776 13.7796 0.0878906 17.4092 0.0878906C21.055 0.0878906 24.1719 0.795898 26.7598 2.21191C29.3477 3.61165 31.3333 5.62174 32.7168 8.24219C34.1003 10.8626 34.792 13.9958 34.792 17.6416ZM27.4434 17.6416C27.4434 13.9307 26.5645 11.0254 24.8066 8.92578C23.0488 6.8099 20.583 5.75195 17.4092 5.75195C14.1865 5.75195 11.6963 6.80176 9.93848 8.90137C8.18066 10.9847 7.30176 13.8981 7.30176 17.6416C7.30176 20.1481 7.70866 22.3128 8.52246 24.1357C9.33626 25.9587 10.4919 27.3665 11.9893 28.3594C13.5029 29.3359 15.2933 29.8242 17.3604 29.8242C20.583 29.8242 23.0651 28.7663 24.8066 26.6504C26.5645 24.5345 27.4434 21.5316 27.4434 17.6416ZM47.4385 6.55762V35H40.2607V0.600586H69.5088V35H62.5508V6.55762H47.4385ZM104.494 11.4893C104.494 13.7191 103.981 15.6966 102.956 17.4219C101.947 19.1309 100.507 20.4736 98.6348 21.4502C96.763 22.4105 94.5332 22.8906 91.9453 22.8906H83.4004V35H76.1982V0.600586H91.6523C95.7702 0.600586 98.9359 1.55273 101.149 3.45703C103.379 5.34505 104.494 8.02246 104.494 11.4893ZM97.2432 11.6113C97.2432 7.99805 95.111 6.19141 90.8467 6.19141H83.4004V17.3486H91.042C93.0277 17.3486 94.5576 16.8604 95.6318 15.8838C96.7061 14.891 97.2432 13.4668 97.2432 11.6113ZM137.6 29.4336V35H109.548V0.600586H136.599V6.16699H116.75V14.8096H135.109V20.376H116.75V29.4336H137.6ZM146.096 35V44.9609H139.992V29.043H143.801C144.973 26.9108 146.014 24.2822 146.926 21.1572C147.837 18.016 148.529 14.7852 149.001 11.4648L150.49 0.600586H169.753V29.043H174.27V44.9609H168.166V35H146.096ZM151.345 29.043H162.795V6.55762H156.398L155.642 12.2705C155.332 14.484 154.95 16.6488 154.494 18.7646C154.038 20.8805 153.542 22.8255 153.005 24.5996C152.468 26.3574 151.914 27.8385 151.345 29.043ZM206.594 29.4336V35H178.542V0.600586H205.593V6.16699H185.744V14.8096H204.104V20.376H185.744V29.4336H206.594ZM219.655 28.1641C218.825 30.7682 217.775 32.6237 216.506 33.7305C215.236 34.8372 213.454 35.3906 211.159 35.3906C210.052 35.3906 209.247 35.2523 208.742 34.9756V28.9453C208.954 29.0592 209.304 29.1162 209.792 29.1162C210.264 29.1162 210.687 28.9779 211.062 28.7012C211.436 28.4082 211.778 27.9769 212.087 27.4072C212.364 26.8864 212.624 26.2354 212.868 25.4541C213.129 24.6566 213.381 23.7126 213.625 22.6221C213.771 21.9548 213.926 21.1654 214.089 20.2539C214.252 19.3424 214.455 18.1136 214.699 16.5674C214.96 15.0049 215.277 12.946 215.651 10.3906C216.026 7.83529 216.49 4.57194 217.043 0.600586H240.285V35H233.352V6.55762H223.415L222.219 15.0537C221.34 21.141 220.485 25.5111 219.655 28.1641ZM270.046 8.51074L255.178 35H246.975V0.600586H253.371V20.5957C253.371 21.4583 253.355 22.4512 253.322 23.5742C253.29 24.6973 253.241 25.9424 253.176 27.3096L268.142 0.600586H276.247V35H269.851V14.7119C269.851 14.0771 269.867 13.2471 269.899 12.2217C269.932 11.18 269.981 9.94303 270.046 8.51074ZM298.464 6.16699V35H291.262V6.16699H280.153V0.600586H309.597V6.16699H298.464ZM341.555 29.4336V35H313.503V0.600586H340.554V6.16699H320.705V14.8096H339.064V20.376H320.705V29.4336H341.555ZM376.833 29.8242C381.195 29.8242 384.214 27.6432 385.891 23.2812L392.165 25.6494C390.814 28.9697 388.828 31.4437 386.208 33.0713C383.604 34.6826 380.479 35.4883 376.833 35.4883C373.155 35.4883 370.021 34.7884 367.434 33.3887C364.846 31.9727 362.868 29.93 361.501 27.2607C360.15 24.5915 359.475 21.3851 359.475 17.6416C359.475 13.8656 360.126 10.6755 361.428 8.07129C362.73 5.46712 364.65 3.48958 367.189 2.13867C369.729 0.771484 372.837 0.0878906 376.516 0.0878906C380.552 0.0878906 383.84 0.901693 386.379 2.5293C388.918 4.14062 390.7 6.51693 391.726 9.6582L385.378 11.3916C384.841 9.66634 383.783 8.29915 382.204 7.29004C380.642 6.26465 378.794 5.75195 376.662 5.75195C373.407 5.75195 370.933 6.76107 369.24 8.7793C367.564 10.7975 366.726 13.7516 366.726 17.6416C366.726 20.2783 367.108 22.5 367.873 24.3066C368.654 26.1133 369.794 27.4886 371.291 28.4326C372.805 29.3604 374.652 29.8242 376.833 29.8242ZM427.395 25.1855C427.395 28.3105 426.223 30.7275 423.879 32.4365C421.535 34.1455 418.28 35 414.113 35H396.901V0.600586H412.648C416.848 0.600586 420.021 1.33301 422.17 2.79785C424.335 4.24642 425.417 6.39486 425.417 9.24316C425.417 11.1963 424.872 12.8483 423.781 14.1992C422.707 15.5339 421.063 16.4372 418.85 16.9092C421.633 17.2347 423.749 18.1136 425.197 19.5459C426.662 20.9619 427.395 22.8418 427.395 25.1855ZM418.166 10.2197C418.166 8.6735 417.67 7.57487 416.677 6.92383C415.7 6.27279 414.243 5.94727 412.307 5.94727H404.104V14.4678H412.355C414.39 14.4678 415.863 14.1178 416.774 13.418C417.702 12.7018 418.166 11.6357 418.166 10.2197ZM420.168 24.624C420.168 21.4014 417.857 19.79 413.234 19.79H404.104V29.6533H413.503C415.814 29.6533 417.499 29.2383 418.557 28.4082C419.631 27.5618 420.168 26.3005 420.168 24.624ZM465.261 17.6416C465.261 21.2223 464.536 24.3555 463.088 27.041C461.656 29.7103 459.629 31.7855 457.009 33.2666C454.405 34.7477 451.345 35.4883 447.829 35.4883C444.232 35.4883 441.14 34.7721 438.552 33.3398C435.964 31.8913 433.978 29.8324 432.595 27.1631C431.211 24.4938 430.52 21.32 430.52 17.6416C430.52 13.9632 431.203 10.8138 432.57 8.19336C433.954 5.57292 435.939 3.57096 438.527 2.1875C441.132 0.78776 444.248 0.0878906 447.878 0.0878906C451.524 0.0878906 454.641 0.795898 457.229 2.21191C459.816 3.61165 461.802 5.62174 463.186 8.24219C464.569 10.8626 465.261 13.9958 465.261 17.6416ZM457.912 17.6416C457.912 13.9307 457.033 11.0254 455.275 8.92578C453.518 6.8099 451.052 5.75195 447.878 5.75195C444.655 5.75195 442.165 6.80176 440.407 8.90137C438.649 10.9847 437.771 13.8981 437.771 17.6416C437.771 20.1481 438.177 22.3128 438.991 24.1357C439.805 25.9587 440.961 27.3665 442.458 28.3594C443.972 29.3359 445.762 29.8242 447.829 29.8242C451.052 29.8242 453.534 28.7663 455.275 26.6504C457.033 24.5345 457.912 21.5316 457.912 17.6416ZM498.781 29.4336V35H470.729V0.600586H497.78V6.16699H477.932V14.8096H496.291V20.376H477.932V29.4336H498.781Z" fill="white"/>
<path d="M32.6191 27.041L31.739 26.5663L31.738 26.5682L32.6191 27.041ZM26.54 33.2666L26.048 32.396L26.0457 32.3974L26.54 33.2666ZM8.08301 33.3398L7.59457 34.2125L7.59877 34.2148L8.08301 33.3398ZM2.10156 8.19336L1.21723 7.72648L1.21498 7.73079L2.10156 8.19336ZM8.05859 2.1875L8.53005 3.06939L8.53204 3.06832L8.05859 2.1875ZM26.7598 2.21191L26.2797 3.08919L26.284 3.0915L26.7598 2.21191ZM24.8066 8.92578L24.0374 9.56481L24.0399 9.56772L24.8066 8.92578ZM9.93848 8.90137L10.7028 9.54624L10.7052 9.5433L9.93848 8.90137ZM11.9893 28.3594L11.4366 29.1929L11.4471 29.1997L11.9893 28.3594ZM24.8066 26.6504L24.0374 26.0114L24.0345 26.0149L24.8066 26.6504ZM33.792 17.6416C33.792 21.0854 33.0963 24.05 31.739 26.5663L33.4993 27.5158C35.0391 24.6609 35.792 21.3592 35.792 17.6416H33.792ZM31.738 26.5682C30.3945 29.0719 28.5026 31.0086 26.048 32.396L27.0321 34.1372C29.8184 32.5623 31.9792 30.3487 33.5003 27.5138L31.738 26.5682ZM26.0457 32.3974C23.6165 33.779 20.7329 34.4883 17.3604 34.4883V36.4883C21.019 36.4883 24.2553 35.7165 27.0344 34.1358L26.0457 32.3974ZM17.3604 34.4883C13.8964 34.4883 10.9781 33.7992 8.56725 32.4649L7.59877 34.2148C10.3637 35.7451 13.6303 36.4883 17.3604 36.4883V34.4883ZM8.57144 32.4672C6.15662 31.1155 4.30863 29.2012 3.01381 26.7029L1.23814 27.6232C2.71025 30.4635 4.83362 32.667 7.59457 34.2124L8.57144 32.4672ZM3.01381 26.7029C1.71874 24.2042 1.05078 21.1951 1.05078 17.6416H-0.949219C-0.949219 21.4448 -0.23371 24.7834 1.23814 27.6232L3.01381 26.7029ZM1.05078 17.6416C1.05078 14.0856 1.7115 11.1028 2.98815 8.65593L1.21498 7.73079C-0.242749 10.5248 -0.949219 13.8408 -0.949219 17.6416H1.05078ZM2.98588 8.66024C4.27718 6.21438 6.11993 4.35782 8.53005 3.06939L7.58714 1.30561C4.82148 2.78411 2.69287 4.93146 1.21724 7.72648L2.98588 8.66024ZM8.53204 3.06832C10.9611 1.7627 13.9077 1.08789 17.4092 1.08789V-0.912109C13.6515 -0.912109 10.3644 -0.187179 7.58515 1.30668L8.53204 3.06832ZM17.4092 1.08789C20.9263 1.08789 23.8699 1.77057 26.2798 3.08918L27.2398 1.33465C24.4739 -0.178768 21.1837 -0.912109 17.4092 -0.912109V1.08789ZM26.284 3.0915C28.6966 4.3964 30.5407 6.26224 31.8325 8.70907L33.6011 7.77531C32.126 4.98125 29.9987 2.82691 27.2355 1.33233L26.284 3.0915ZM31.8325 8.70907C33.1244 11.1561 33.792 14.1215 33.792 17.6416H35.792C35.792 13.87 35.0761 10.5691 33.6011 7.77531L31.8325 8.70907ZM28.4434 17.6416C28.4434 13.7794 27.528 10.6185 25.5734 8.28384L24.0399 9.56772C25.6009 11.4323 26.4434 14.0819 26.4434 17.6416H28.4434ZM25.5758 8.28676C23.5976 5.9056 20.8292 4.75195 17.4092 4.75195V6.75195C20.3368 6.75195 22.5 7.71419 24.0375 9.5648L25.5758 8.28676ZM17.4092 4.75195C13.9486 4.75195 11.1539 5.89183 9.17172 8.25943L10.7052 9.5433C12.2387 7.71169 14.4244 6.75195 17.4092 6.75195V4.75195ZM9.17418 8.2565C7.21574 10.5776 6.30176 13.75 6.30176 17.6416H8.30176C8.30176 14.0463 9.14559 11.3918 10.7028 9.54624L9.17418 8.2565ZM6.30176 17.6416C6.30176 20.2538 6.7256 22.5639 7.60932 24.5434L9.4356 23.7281C8.69172 22.0618 8.30176 20.0424 8.30176 17.6416H6.30176ZM7.60932 24.5434C8.49159 26.5197 9.76389 28.0837 11.4367 29.1928L12.5419 27.5259C11.2198 26.6494 10.1809 25.3976 9.4356 23.7281L7.60932 24.5434ZM11.4471 29.1997C13.1452 30.2952 15.1301 30.8242 17.3604 30.8242V28.8242C15.4565 28.8242 13.8606 28.3767 12.5314 27.5191L11.4471 29.1997ZM17.3604 30.8242C20.8234 30.8242 23.6129 29.6742 25.5787 27.2859L24.0345 26.0149C22.5173 27.8583 20.3426 28.8242 17.3604 28.8242V30.8242ZM25.5758 27.2894C27.534 24.9323 28.4434 21.6698 28.4434 17.6416H26.4434C26.4434 21.3933 25.5949 24.1367 24.0375 26.0114L25.5758 27.2894ZM47.4385 6.55762V5.55762H46.4385V6.55762H47.4385ZM47.4385 35V36H48.4385V35H47.4385ZM40.2607 35H39.2607V36H40.2607V35ZM40.2607 0.600586V-0.399414H39.2607V0.600586H40.2607ZM69.5088 0.600586H70.5088V-0.399414H69.5088V0.600586ZM69.5088 35V36H70.5088V35H69.5088ZM62.5508 35H61.5508V36H62.5508V35ZM62.5508 6.55762H63.5508V5.55762H62.5508V6.55762ZM46.4385 6.55762V35H48.4385V6.55762H46.4385ZM47.4385 34H40.2607V36H47.4385V34ZM41.2607 35V0.600586H39.2607V35H41.2607ZM40.2607 1.60059H69.5088V-0.399414H40.2607V1.60059ZM68.5088 0.600586V35H70.5088V0.600586H68.5088ZM69.5088 34H62.5508V36H69.5088V34ZM63.5508 35V6.55762H61.5508V35H63.5508ZM62.5508 5.55762H47.4385V7.55762H62.5508V5.55762ZM102.956 17.4219L102.096 16.911L102.095 16.9134L102.956 17.4219ZM98.6348 21.4502L99.0912 22.34L99.0973 22.3368L98.6348 21.4502ZM83.4004 22.8906V21.8906H82.4004V22.8906H83.4004ZM83.4004 35V36H84.4004V35H83.4004ZM76.1982 35H75.1982V36H76.1982V35ZM76.1982 0.600586V-0.399414H75.1982V0.600586H76.1982ZM101.149 3.45703L100.497 4.21513L100.503 4.22021L101.149 3.45703ZM83.4004 6.19141V5.19141H82.4004V6.19141H83.4004ZM83.4004 17.3486H82.4004V18.3486H83.4004V17.3486ZM95.6318 15.8838L96.3045 16.6238L96.3106 16.6182L95.6318 15.8838ZM103.494 11.4893C103.494 13.5598 103.02 15.357 102.096 16.911L103.816 17.9328C104.943 16.0362 105.494 13.8784 105.494 11.4893H103.494ZM102.095 16.9134C101.187 18.4513 99.8894 19.6677 98.1722 20.5636L99.0973 22.3368C101.124 21.2796 102.707 19.8105 103.817 17.9303L102.095 16.9134ZM98.1783 20.5605C96.4766 21.4335 94.4104 21.8906 91.9453 21.8906V23.8906C94.656 23.8906 97.0494 23.3875 99.0912 22.3399L98.1783 20.5605ZM91.9453 21.8906H83.4004V23.8906H91.9453V21.8906ZM82.4004 22.8906V35H84.4004V22.8906H82.4004ZM83.4004 34H76.1982V36H83.4004V34ZM77.1982 35V0.600586H75.1982V35H77.1982ZM76.1982 1.60059H91.6523V-0.399414H76.1982V1.60059ZM91.6523 1.60059C95.6281 1.60059 98.5273 2.52037 100.497 4.21511L101.802 2.69896C99.3444 0.585098 95.9123 -0.399414 91.6523 -0.399414V1.60059ZM100.503 4.22021C102.466 5.88229 103.494 8.25594 103.494 11.4893H105.494C105.494 7.78898 104.292 4.80781 101.796 2.69386L100.503 4.22021ZM98.2432 11.6113C98.2432 9.60316 97.6429 7.92932 96.2905 6.78344C94.9699 5.66444 93.0963 5.19141 90.8467 5.19141V7.19141C92.8614 7.19141 94.186 7.62169 94.9976 8.30933C95.7774 8.97009 96.2432 10.0062 96.2432 11.6113H98.2432ZM90.8467 5.19141H83.4004V7.19141H90.8467V5.19141ZM82.4004 6.19141V17.3486H84.4004V6.19141H82.4004ZM83.4004 18.3486H91.042V16.3486H83.4004V18.3486ZM91.042 18.3486C93.1841 18.3486 94.9877 17.8208 96.3045 16.6237L94.9592 15.1438C94.1275 15.8999 92.8712 16.3486 91.042 16.3486V18.3486ZM96.3106 16.6182C97.6416 15.388 98.2432 13.666 98.2432 11.6113H96.2432C96.2432 13.2676 95.7705 14.3939 94.9531 15.1494L96.3106 16.6182ZM137.6 29.4336H138.6V28.4336H137.6V29.4336ZM137.6 35V36H138.6V35H137.6ZM109.548 35H108.548V36H109.548V35ZM109.548 0.600586V-0.399414H108.548V0.600586H109.548ZM136.599 0.600586H137.599V-0.399414H136.599V0.600586ZM136.599 6.16699V7.16699H137.599V6.16699H136.599ZM116.75 6.16699V5.16699H115.75V6.16699H116.75ZM116.75 14.8096H115.75V15.8096H116.75V14.8096ZM135.109 14.8096H136.109V13.8096H135.109V14.8096ZM135.109 20.376V21.376H136.109V20.376H135.109ZM116.75 20.376V19.376H115.75V20.376H116.75ZM116.75 29.4336H115.75V30.4336H116.75V29.4336ZM136.6 29.4336V35H138.6V29.4336H136.6ZM137.6 34H109.548V36H137.6V34ZM110.548 35V0.600586H108.548V35H110.548ZM109.548 1.60059H136.599V-0.399414H109.548V1.60059ZM135.599 0.600586V6.16699H137.599V0.600586H135.599ZM136.599 5.16699H116.75V7.16699H136.599V5.16699ZM115.75 6.16699V14.8096H117.75V6.16699H115.75ZM116.75 15.8096H135.109V13.8096H116.75V15.8096ZM134.109 14.8096V20.376H136.109V14.8096H134.109ZM135.109 19.376H116.75V21.376H135.109V19.376ZM115.75 20.376V29.4336H117.75V20.376H115.75ZM116.75 30.4336H137.6V28.4336H116.75V30.4336ZM146.096 35V34H145.096V35H146.096ZM146.096 44.9609V45.9609H147.096V44.9609H146.096ZM139.992 44.9609H138.992V45.9609H139.992V44.9609ZM139.992 29.043V28.043H138.992V29.043H139.992ZM143.801 29.043V30.043H144.392L144.677 29.5246L143.801 29.043ZM146.926 21.1572L147.886 21.4372L147.886 21.4359L146.926 21.1572ZM149.001 11.4648L149.991 11.6056L149.992 11.6007L149.001 11.4648ZM150.49 0.600586V-0.399414H149.618L149.499 0.464777L150.49 0.600586ZM169.753 0.600586H170.753V-0.399414H169.753V0.600586ZM169.753 29.043H168.753V30.043H169.753V29.043ZM174.27 29.043H175.27V28.043H174.27V29.043ZM174.27 44.9609V45.9609H175.27V44.9609H174.27ZM168.166 44.9609H167.166V45.9609H168.166V44.9609ZM168.166 35H169.166V34H168.166V35ZM151.345 29.043L150.441 28.6154L149.766 30.043H151.345V29.043ZM162.795 29.043V30.043H163.795V29.043H162.795ZM162.795 6.55762H163.795V5.55762H162.795V6.55762ZM156.398 6.55762V5.55762H155.522L155.407 6.42629L156.398 6.55762ZM155.642 12.2705L156.632 12.4089L156.633 12.4018L155.642 12.2705ZM153.005 24.5996L153.961 24.8918L153.962 24.8894L153.005 24.5996ZM145.096 35V44.9609H147.096V35H145.096ZM146.096 43.9609H139.992V45.9609H146.096V43.9609ZM140.992 44.9609V29.043H138.992V44.9609H140.992ZM139.992 30.043H143.801V28.043H139.992V30.043ZM144.677 29.5246C145.894 27.3112 146.96 24.6104 147.886 21.4372L145.966 20.8772C145.068 23.9541 144.052 26.5104 142.924 28.5613L144.677 29.5246ZM147.886 21.4359C148.811 18.2483 149.513 14.9713 149.991 11.6056L148.011 11.3241C147.545 14.599 146.863 17.7836 145.965 20.8786L147.886 21.4359ZM149.992 11.6007L151.481 0.736395L149.499 0.464777L148.01 11.329L149.992 11.6007ZM150.49 1.60059H169.753V-0.399414H150.49V1.60059ZM168.753 0.600586V29.043H170.753V0.600586H168.753ZM169.753 30.043H174.27V28.043H169.753V30.043ZM173.27 29.043V44.9609H175.27V29.043H173.27ZM174.27 43.9609H168.166V45.9609H174.27V43.9609ZM169.166 44.9609V35H167.166V44.9609H169.166ZM168.166 34H146.096V36H168.166V34ZM151.345 30.043H162.795V28.043H151.345V30.043ZM163.795 29.043V6.55762H161.795V29.043H163.795ZM162.795 5.55762H156.398V7.55762H162.795V5.55762ZM155.407 6.42629L154.65 12.1392L156.633 12.4018L157.39 6.68895L155.407 6.42629ZM154.651 12.1321C154.345 14.3223 153.967 16.4629 153.517 18.5541L155.472 18.9752C155.933 16.8347 156.319 14.6458 156.632 12.4089L154.651 12.1321ZM153.517 18.5541C153.066 20.6476 152.576 22.5658 152.048 24.3098L153.962 24.8894C154.508 23.0853 155.011 21.1135 155.472 18.9752L153.517 18.5541ZM152.049 24.3074C151.521 26.0349 150.984 27.4677 150.441 28.6154L152.249 29.4705C152.845 28.2094 153.415 26.6799 153.961 24.8918L152.049 24.3074ZM206.594 29.4336H207.594V28.4336H206.594V29.4336ZM206.594 35V36H207.594V35H206.594ZM178.542 35H177.542V36H178.542V35ZM178.542 0.600586V-0.399414H177.542V0.600586H178.542ZM205.593 0.600586H206.593V-0.399414H205.593V0.600586ZM205.593 6.16699V7.16699H206.593V6.16699H205.593ZM185.744 6.16699V5.16699H184.744V6.16699H185.744ZM185.744 14.8096H184.744V15.8096H185.744V14.8096ZM204.104 14.8096H205.104V13.8096H204.104V14.8096ZM204.104 20.376V21.376H205.104V20.376H204.104ZM185.744 20.376V19.376H184.744V20.376H185.744ZM185.744 29.4336H184.744V30.4336H185.744V29.4336ZM205.594 29.4336V35H207.594V29.4336H205.594ZM206.594 34H178.542V36H206.594V34ZM179.542 35V0.600586H177.542V35H179.542ZM178.542 1.60059H205.593V-0.399414H178.542V1.60059ZM204.593 0.600586V6.16699H206.593V0.600586H204.593ZM205.593 5.16699H185.744V7.16699H205.593V5.16699ZM184.744 6.16699V14.8096H186.744V6.16699H184.744ZM185.744 15.8096H204.104V13.8096H185.744V15.8096ZM203.104 14.8096V20.376H205.104V14.8096H203.104ZM204.104 19.376H185.744V21.376H204.104V19.376ZM184.744 20.376V29.4336H186.744V20.376H184.744ZM185.744 30.4336H206.594V28.4336H185.744V30.4336ZM219.655 28.1641L220.608 28.4678L220.61 28.4627L219.655 28.1641ZM216.506 33.7305L215.849 32.9767L216.506 33.7305ZM208.742 34.9756H207.742V35.5677L208.261 35.8524L208.742 34.9756ZM208.742 28.9453L209.216 28.0648L207.742 27.2711V28.9453H208.742ZM211.062 28.7012L211.656 29.5053L211.667 29.4972L211.678 29.4887L211.062 28.7012ZM212.087 27.4072L212.966 27.8843L212.97 27.8764L212.087 27.4072ZM212.868 25.4541L211.917 25.1437L211.914 25.1558L212.868 25.4541ZM213.625 22.6221L214.601 22.8405L214.602 22.8365L213.625 22.6221ZM214.699 16.5674L213.713 16.403L213.711 16.4114L214.699 16.5674ZM217.043 0.600586V-0.399414H216.173L216.053 0.462575L217.043 0.600586ZM240.285 0.600586H241.285V-0.399414H240.285V0.600586ZM240.285 35V36H241.285V35H240.285ZM233.352 35H232.352V36H233.352V35ZM233.352 6.55762H234.352V5.55762H233.352V6.55762ZM223.415 6.55762V5.55762H222.546L222.425 6.41819L223.415 6.55762ZM222.219 15.0537L223.208 15.1966L223.209 15.1931L222.219 15.0537ZM218.702 27.8604C217.897 30.388 216.919 32.0432 215.849 32.9767L217.163 34.4842C218.631 33.2042 219.754 31.1484 220.608 28.4678L218.702 27.8604ZM215.849 32.9767C214.818 33.8751 213.301 34.3906 211.159 34.3906V36.3906C213.608 36.3906 215.654 35.7994 217.163 34.4842L215.849 32.9767ZM211.159 34.3906C210.092 34.3906 209.498 34.2497 209.223 34.0988L208.261 35.8524C208.995 36.2549 210.013 36.3906 211.159 36.3906V34.3906ZM209.742 34.9756V28.9453H207.742V34.9756H209.742ZM208.268 29.8258C208.711 30.0644 209.276 30.1162 209.792 30.1162V28.1162C209.583 28.1162 209.43 28.1038 209.324 28.0865C209.212 28.0682 209.19 28.0505 209.216 28.0648L208.268 29.8258ZM209.792 30.1162C210.475 30.1162 211.107 29.9111 211.656 29.5053L210.467 27.897C210.267 28.0446 210.053 28.1162 209.792 28.1162V30.1162ZM211.678 29.4887C212.192 29.0866 212.614 28.5332 212.966 27.8843L211.208 26.9301C210.942 27.4206 210.68 27.7298 210.445 27.9137L211.678 29.4887ZM212.97 27.8764C213.284 27.2845 213.567 26.5718 213.823 25.7524L211.914 25.1558C211.681 25.8989 211.443 26.4883 211.204 26.9381L212.97 27.8764ZM213.819 25.7645C214.092 24.9287 214.352 23.9526 214.601 22.8405L212.649 22.4036C212.41 23.4725 212.165 24.3844 211.918 25.1437L213.819 25.7645ZM214.602 22.8365C214.752 22.1528 214.909 21.3499 215.073 20.4297L213.104 20.0781C212.943 20.9808 212.791 21.7567 212.648 22.4077L214.602 22.8365ZM215.073 20.4297C215.238 19.5087 215.442 18.2724 215.687 16.7233L213.711 16.4114C213.468 17.9549 213.265 19.1762 213.104 20.0781L215.073 20.4297ZM215.686 16.7318C215.948 15.1601 216.266 13.0939 216.641 10.5356L214.662 10.2457C214.288 12.798 213.972 14.8497 213.713 16.403L215.686 16.7318ZM216.641 10.5356C217.016 7.97703 217.48 4.71115 218.033 0.738597L216.053 0.462575C215.499 4.43273 215.036 7.69354 214.662 10.2457L216.641 10.5356ZM217.043 1.60059H240.285V-0.399414H217.043V1.60059ZM239.285 0.600586V35H241.285V0.600586H239.285ZM240.285 34H233.352V36H240.285V34ZM234.352 35V6.55762H232.352V35H234.352ZM233.352 5.55762H223.415V7.55762H233.352V5.55762ZM222.425 6.41819L221.229 14.9143L223.209 15.1931L224.405 6.69705L222.425 6.41819ZM221.229 14.9108C220.351 20.9928 219.505 25.2946 218.701 27.8655L220.61 28.4627C221.465 25.7275 222.329 21.2891 223.208 15.1966L221.229 14.9108ZM270.046 8.51074L271.045 8.55615L269.174 8.02128L270.046 8.51074ZM255.178 35V36H255.763L256.05 35.4895L255.178 35ZM246.975 35H245.975V36H246.975V35ZM246.975 0.600586V-0.399414H245.975V0.600586H246.975ZM253.371 0.600586H254.371V-0.399414H253.371V0.600586ZM253.176 27.3096L252.177 27.262L254.048 27.7984L253.176 27.3096ZM268.142 0.600586V-0.399414H267.556L267.269 0.111764L268.142 0.600586ZM276.247 0.600586H277.247V-0.399414H276.247V0.600586ZM276.247 35V36H277.247V35H276.247ZM269.851 35H268.851V36H269.851V35ZM269.899 12.2217L270.899 12.2534V12.2529L269.899 12.2217ZM269.174 8.02128L254.306 34.5105L256.05 35.4895L270.918 9.0002L269.174 8.02128ZM255.178 34H246.975V36H255.178V34ZM247.975 35V0.600586H245.975V35H247.975ZM246.975 1.60059H253.371V-0.399414H246.975V1.60059ZM252.371 0.600586V20.5957H254.371V0.600586H252.371ZM252.371 20.5957C252.371 21.4463 252.355 22.4291 252.323 23.5452L254.322 23.6032C254.355 22.4732 254.371 21.4704 254.371 20.5957H252.371ZM252.323 23.5452C252.29 24.6609 252.242 25.8997 252.177 27.262L254.175 27.3571C254.24 25.985 254.289 24.7336 254.322 23.6032L252.323 23.5452ZM254.048 27.7984L269.014 1.08941L267.269 0.111764L252.303 26.8207L254.048 27.7984ZM268.142 1.60059H276.247V-0.399414H268.142V1.60059ZM275.247 0.600586V35H277.247V0.600586H275.247ZM276.247 34H269.851V36H276.247V34ZM270.851 35V14.7119H268.851V35H270.851ZM270.851 14.7119C270.851 14.0921 270.867 13.2738 270.899 12.2534L268.9 12.1899C268.867 13.2203 268.851 14.0622 268.851 14.7119H270.851ZM270.899 12.2529C270.931 11.2174 270.98 9.98533 271.045 8.55615L269.047 8.46533C268.982 9.90074 268.933 11.1427 268.9 12.1904L270.899 12.2529ZM298.464 6.16699V5.16699H297.464V6.16699H298.464ZM298.464 35V36H299.464V35H298.464ZM291.262 35H290.262V36H291.262V35ZM291.262 6.16699H292.262V5.16699H291.262V6.16699ZM280.153 6.16699H279.153V7.16699H280.153V6.16699ZM280.153 0.600586V-0.399414H279.153V0.600586H280.153ZM309.597 0.600586H310.597V-0.399414H309.597V0.600586ZM309.597 6.16699V7.16699H310.597V6.16699H309.597ZM297.464 6.16699V35H299.464V6.16699H297.464ZM298.464 34H291.262V36H298.464V34ZM292.262 35V6.16699H290.262V35H292.262ZM291.262 5.16699H280.153V7.16699H291.262V5.16699ZM281.153 6.16699V0.600586H279.153V6.16699H281.153ZM280.153 1.60059H309.597V-0.399414H280.153V1.60059ZM308.597 0.600586V6.16699H310.597V0.600586H308.597ZM309.597 5.16699H298.464V7.16699H309.597V5.16699ZM341.555 29.4336H342.555V28.4336H341.555V29.4336ZM341.555 35V36H342.555V35H341.555ZM313.503 35H312.503V36H313.503V35ZM313.503 0.600586V-0.399414H312.503V0.600586H313.503ZM340.554 0.600586H341.554V-0.399414H340.554V0.600586ZM340.554 6.16699V7.16699H341.554V6.16699H340.554ZM320.705 6.16699V5.16699H319.705V6.16699H320.705ZM320.705 14.8096H319.705V15.8096H320.705V14.8096ZM339.064 14.8096H340.064V13.8096H339.064V14.8096ZM339.064 20.376V21.376H340.064V20.376H339.064ZM320.705 20.376V19.376H319.705V20.376H320.705ZM320.705 29.4336H319.705V30.4336H320.705V29.4336ZM340.555 29.4336V35H342.555V29.4336H340.555ZM341.555 34H313.503V36H341.555V34ZM314.503 35V0.600586H312.503V35H314.503ZM313.503 1.60059H340.554V-0.399414H313.503V1.60059ZM339.554 0.600586V6.16699H341.554V0.600586H339.554ZM340.554 5.16699H320.705V7.16699H340.554V5.16699ZM319.705 6.16699V14.8096H321.705V6.16699H319.705ZM320.705 15.8096H339.064V13.8096H320.705V15.8096ZM338.064 14.8096V20.376H340.064V14.8096H338.064ZM339.064 19.376H320.705V21.376H339.064V19.376ZM319.705 20.376V29.4336H321.705V20.376H319.705ZM320.705 30.4336H341.555V28.4336H320.705V30.4336ZM385.891 23.2812L386.244 22.3457L385.314 21.9947L384.957 22.9225L385.891 23.2812ZM392.165 25.6494L393.091 26.0263L393.478 25.0761L392.518 24.7138L392.165 25.6494ZM386.208 33.0713L386.734 33.9217L386.736 33.9208L386.208 33.0713ZM367.434 33.3887L366.954 34.2659L366.958 34.2683L367.434 33.3887ZM361.501 27.2607L360.609 27.7123L360.611 27.7166L361.501 27.2607ZM367.189 2.13867L367.659 3.02151L367.664 3.01914L367.189 2.13867ZM386.379 2.5293L385.839 3.37118L385.843 3.37363L386.379 2.5293ZM391.726 9.6582L391.989 10.6229L393.002 10.3462L392.676 9.34789L391.726 9.6582ZM385.378 11.3916L384.423 11.6889L384.71 12.6106L385.641 12.3563L385.378 11.3916ZM382.204 7.29004L381.655 8.12615L381.666 8.13263L382.204 7.29004ZM369.24 8.7793L368.474 8.13668L368.471 8.14033L369.24 8.7793ZM367.873 24.3066L366.952 24.6966L366.955 24.7036L367.873 24.3066ZM371.291 28.4326L370.758 29.2786L370.768 29.2852L371.291 28.4326ZM376.833 30.8242C379.187 30.8242 381.247 30.2328 382.954 28.9991C384.657 27.7691 385.934 25.9561 386.824 23.64L384.957 22.9225C384.171 24.9684 383.1 26.4268 381.783 27.3779C380.472 28.3251 378.841 28.8242 376.833 28.8242V30.8242ZM385.538 24.2168L391.812 26.585L392.518 24.7138L386.244 22.3457L385.538 24.2168ZM391.239 25.2725C389.954 28.43 388.093 30.723 385.68 32.2218L386.736 33.9208C389.563 32.1643 391.674 29.5095 393.091 26.0263L391.239 25.2725ZM385.682 32.2209C383.264 33.7172 380.329 34.4883 376.833 34.4883V36.4883C380.629 36.4883 383.944 35.6481 386.734 33.9217L385.682 32.2209ZM376.833 34.4883C373.28 34.4883 370.319 33.8124 367.909 32.5091L366.958 34.2683C369.724 35.7644 373.029 36.4883 376.833 36.4883V34.4883ZM367.914 32.5114C365.505 31.1933 363.668 29.2989 362.391 26.8049L360.611 27.7166C362.068 30.5611 364.187 32.752 366.954 34.2659L367.914 32.5114ZM362.393 26.8092C361.129 24.3106 360.475 21.2667 360.475 17.6416H358.475C358.475 21.5034 359.171 24.8723 360.609 27.7123L362.393 26.8092ZM360.475 17.6416C360.475 13.9763 361.107 10.9489 362.322 8.5185L360.533 7.62407C359.144 10.4021 358.475 13.7548 358.475 17.6416H360.475ZM362.322 8.5185C363.533 6.09767 365.306 4.27356 367.659 3.02149L366.72 1.25585C363.995 2.70561 361.927 4.83658 360.533 7.62407L362.322 8.5185ZM367.664 3.01914C370.022 1.7491 372.958 1.08789 376.516 1.08789V-0.912109C372.716 -0.912109 369.435 -0.206135 366.715 1.2582L367.664 3.01914ZM376.516 1.08789C380.424 1.08789 383.507 1.87628 385.839 3.37118L386.919 1.68742C384.172 -0.0728951 380.68 -0.912109 376.516 -0.912109V1.08789ZM385.843 3.37363C388.166 4.84798 389.814 7.02469 390.775 9.96851L392.676 9.34789C391.586 6.00916 389.67 3.43327 386.915 1.68497L385.843 3.37363ZM391.462 8.69353L385.115 10.4269L385.641 12.3563L391.989 10.6229L391.462 8.69353ZM386.333 11.0944C385.723 9.13502 384.512 7.57847 382.743 6.44745L381.666 8.13263C383.054 9.01984 383.959 10.1977 384.423 11.6889L386.333 11.0944ZM382.753 6.45399C381.005 5.30712 378.961 4.75195 376.662 4.75195V6.75195C378.628 6.75195 380.278 7.22218 381.655 8.12609L382.753 6.45399ZM376.662 4.75195C373.187 4.75195 370.401 5.83945 368.474 8.13668L370.006 9.42191C371.465 7.68269 373.626 6.75195 376.662 6.75195V4.75195ZM368.471 8.14033C366.588 10.4071 365.726 13.6272 365.726 17.6416H367.726C367.726 13.8761 368.539 11.188 370.009 9.41826L368.471 8.14033ZM365.726 17.6416C365.726 20.3688 366.12 22.732 366.952 24.6966L368.794 23.9167C368.096 22.268 367.726 20.1878 367.726 17.6416H365.726ZM366.955 24.7036C367.807 26.6736 369.071 28.2152 370.758 29.2785L371.824 27.5867C370.516 26.7621 369.501 25.5529 368.791 23.9097L366.955 24.7036ZM370.768 29.2852C372.472 30.3292 374.51 30.8242 376.833 30.8242V28.8242C374.794 28.8242 373.138 28.3915 371.814 27.58L370.768 29.2852ZM396.901 35H395.901V36H396.901V35ZM396.901 0.600586V-0.399414H395.901V0.600586H396.901ZM422.17 2.79785L421.607 3.62411L421.614 3.62894L422.17 2.79785ZM423.781 14.1992L423.003 13.5711L423.002 13.5722L423.781 14.1992ZM418.85 16.9092L418.641 15.9312L418.733 17.9024L418.85 16.9092ZM425.197 19.5459L424.494 20.257L424.502 20.2649L425.197 19.5459ZM416.677 6.92383L416.122 7.7559L416.128 7.76007L416.677 6.92383ZM404.104 5.94727V4.94727H403.104V5.94727H404.104ZM404.104 14.4678H403.104V15.4678H404.104V14.4678ZM416.774 13.418L417.383 14.2111L417.385 14.2096L416.774 13.418ZM404.104 19.79V18.79H403.104V19.79H404.104ZM404.104 29.6533H403.104V30.6533H404.104V29.6533ZM418.557 28.4082L419.174 29.1949L419.176 29.1937L418.557 28.4082ZM426.395 25.1855C426.395 28.0199 425.353 30.1241 423.29 31.6285L424.468 33.2445C427.092 31.3309 428.395 28.6012 428.395 25.1855H426.395ZM423.29 31.6285C421.177 33.1689 418.157 34 414.113 34V36C418.403 36 421.893 35.1221 424.468 33.2445L423.29 31.6285ZM414.113 34H396.901V36H414.113V34ZM397.901 35V0.600586H395.901V35H397.901ZM396.901 1.60059H412.648V-0.399414H396.901V1.60059ZM412.648 1.60059C416.759 1.60059 419.698 2.32264 421.607 3.62408L422.733 1.97162C420.345 0.343373 416.936 -0.399414 412.648 -0.399414V1.60059ZM421.614 3.62894C423.472 4.8723 424.417 6.69173 424.417 9.24316H426.417C426.417 6.09798 425.197 3.62054 422.726 1.96676L421.614 3.62894ZM424.417 9.24316C424.417 10.9979 423.932 12.4202 423.003 13.5711L424.559 14.8273C425.811 13.2764 426.417 11.3946 426.417 9.24316H424.417ZM423.002 13.5722C422.113 14.6774 420.702 15.4916 418.641 15.9312L419.058 17.8872C421.424 17.3827 423.301 16.3904 424.56 14.8262L423.002 13.5722ZM418.733 17.9024C421.377 18.2116 423.254 19.0312 424.494 20.257L425.9 18.8348C424.243 17.196 421.888 16.2578 418.966 15.916L418.733 17.9024ZM424.502 20.2649C425.742 21.4637 426.395 23.0684 426.395 25.1855H428.395C428.395 22.6151 427.582 20.4601 425.892 18.8269L424.502 20.2649ZM419.166 10.2197C419.166 8.45069 418.584 6.97838 417.225 6.08758L416.128 7.76007C416.756 8.17136 417.166 8.89631 417.166 10.2197H419.166ZM417.231 6.09178C416.015 5.28099 414.325 4.94727 412.307 4.94727V6.94727C414.162 6.94727 415.385 7.26458 416.122 7.75588L417.231 6.09178ZM412.307 4.94727H404.104V6.94727H412.307V4.94727ZM403.104 5.94727V14.4678H405.104V5.94727H403.104ZM404.104 15.4678H412.355V13.4678H404.104V15.4678ZM412.355 15.4678C414.459 15.4678 416.207 15.1146 417.383 14.2111L416.165 12.6248C415.519 13.1211 414.32 13.4678 412.355 13.4678V15.4678ZM417.385 14.2096C418.61 13.264 419.166 11.8736 419.166 10.2197H417.166C417.166 11.3979 416.794 12.1396 416.163 12.6264L417.385 14.2096ZM421.168 24.624C421.168 22.7401 420.472 21.2 419.006 20.1782C417.607 19.2022 415.631 18.79 413.234 18.79V20.79C415.46 20.79 416.951 21.1835 417.863 21.8189C418.708 22.4084 419.168 23.2853 419.168 24.624H421.168ZM413.234 18.79H404.104V20.79H413.234V18.79ZM403.104 19.79V29.6533H405.104V19.79H403.104ZM404.104 30.6533H413.503V28.6533H404.104V30.6533ZM413.503 30.6533C415.893 30.6533 417.852 30.2319 419.174 29.1949L417.939 27.6215C417.145 28.2446 415.736 28.6533 413.503 28.6533V30.6533ZM419.176 29.1937C420.545 28.1149 421.168 26.5303 421.168 24.624H419.168C419.168 26.0706 418.717 27.0088 417.938 27.6227L419.176 29.1937ZM463.088 27.041L462.208 26.5663L462.207 26.5682L463.088 27.041ZM457.009 33.2666L456.517 32.396L456.514 32.3974L457.009 33.2666ZM438.552 33.3398L438.063 34.2125L438.068 34.2148L438.552 33.3398ZM432.57 8.19336L431.686 7.72648L431.684 7.73079L432.57 8.19336ZM438.527 2.1875L438.999 3.06939L439.001 3.06832L438.527 2.1875ZM457.229 2.21191L456.749 3.08919L456.753 3.0915L457.229 2.21191ZM455.275 8.92578L454.506 9.56481L454.509 9.56772L455.275 8.92578ZM440.407 8.90137L441.172 9.54624L441.174 9.5433L440.407 8.90137ZM442.458 28.3594L441.905 29.1929L441.916 29.1997L442.458 28.3594ZM455.275 26.6504L454.506 26.0114L454.503 26.0149L455.275 26.6504ZM464.261 17.6416C464.261 21.0854 463.565 24.05 462.208 26.5663L463.968 27.5158C465.508 24.6609 466.261 21.3592 466.261 17.6416H464.261ZM462.207 26.5682C460.863 29.0719 458.971 31.0086 456.517 32.396L457.501 34.1372C460.287 32.5623 462.448 30.3487 463.969 27.5138L462.207 26.5682ZM456.514 32.3974C454.085 33.779 451.202 34.4883 447.829 34.4883V36.4883C451.488 36.4883 454.724 35.7165 457.503 34.1358L456.514 32.3974ZM447.829 34.4883C444.365 34.4883 441.447 33.7992 439.036 32.4649L438.068 34.2148C440.832 35.7451 444.099 36.4883 447.829 36.4883V34.4883ZM439.04 32.4672C436.625 31.1155 434.777 29.2012 433.483 26.7029L431.707 27.6232C433.179 30.4635 435.302 32.667 438.063 34.2124L439.04 32.4672ZM433.483 26.7029C432.188 24.2042 431.52 21.1951 431.52 17.6416H429.52C429.52 21.4448 430.235 24.7834 431.707 27.6232L433.483 26.7029ZM431.52 17.6416C431.52 14.0856 432.18 11.1028 433.457 8.65593L431.684 7.73079C430.226 10.5248 429.52 13.8408 429.52 17.6416H431.52ZM433.455 8.66024C434.746 6.21438 436.589 4.35782 438.999 3.06939L438.056 1.30561C435.29 2.78411 433.162 4.93146 431.686 7.72648L433.455 8.66024ZM439.001 3.06832C441.43 1.7627 444.376 1.08789 447.878 1.08789V-0.912109C444.12 -0.912109 440.833 -0.187179 438.054 1.30668L439.001 3.06832ZM447.878 1.08789C451.395 1.08789 454.339 1.77057 456.749 3.08918L457.709 1.33465C454.943 -0.178768 451.652 -0.912109 447.878 -0.912109V1.08789ZM456.753 3.0915C459.165 4.3964 461.009 6.26224 462.301 8.70907L464.07 7.77531C462.595 4.98125 460.467 2.82691 457.704 1.33233L456.753 3.0915ZM462.301 8.70907C463.593 11.1561 464.261 14.1215 464.261 17.6416H466.261C466.261 13.87 465.545 10.5691 464.07 7.77531L462.301 8.70907ZM458.912 17.6416C458.912 13.7794 457.997 10.6185 456.042 8.28384L454.509 9.56772C456.07 11.4323 456.912 14.0819 456.912 17.6416H458.912ZM456.045 8.28676C454.066 5.9056 451.298 4.75195 447.878 4.75195V6.75195C450.806 6.75195 452.969 7.71419 454.506 9.5648L456.045 8.28676ZM447.878 4.75195C444.417 4.75195 441.623 5.89183 439.64 8.25943L441.174 9.5433C442.707 7.71169 444.893 6.75195 447.878 6.75195V4.75195ZM439.643 8.2565C437.684 10.5776 436.771 13.75 436.771 17.6416H438.771C438.771 14.0463 439.614 11.3918 441.172 9.54624L439.643 8.2565ZM436.771 17.6416C436.771 20.2538 437.194 22.5639 438.078 24.5434L439.904 23.7281C439.16 22.0618 438.771 20.0424 438.771 17.6416H436.771ZM438.078 24.5434C438.96 26.5197 440.233 28.0837 441.905 29.1928L443.011 27.5259C441.689 26.6494 440.65 25.3976 439.904 23.7281L438.078 24.5434ZM441.916 29.1997C443.614 30.2952 445.599 30.8242 447.829 30.8242V28.8242C445.925 28.8242 444.329 28.3767 443 27.5191L441.916 29.1997ZM447.829 30.8242C451.292 30.8242 454.082 29.6742 456.047 27.2859L454.503 26.0149C452.986 27.8583 450.811 28.8242 447.829 28.8242V30.8242ZM456.045 27.2894C458.003 24.9323 458.912 21.6698 458.912 17.6416H456.912C456.912 21.3933 456.064 24.1367 454.506 26.0114L456.045 27.2894ZM498.781 29.4336H499.781V28.4336H498.781V29.4336ZM498.781 35V36H499.781V35H498.781ZM470.729 35H469.729V36H470.729V35ZM470.729 0.600586V-0.399414H469.729V0.600586H470.729ZM497.78 0.600586H498.78V-0.399414H497.78V0.600586ZM497.78 6.16699V7.16699H498.78V6.16699H497.78ZM477.932 6.16699V5.16699H476.932V6.16699H477.932ZM477.932 14.8096H476.932V15.8096H477.932V14.8096ZM496.291 14.8096H497.291V13.8096H496.291V14.8096ZM496.291 20.376V21.376H497.291V20.376H496.291ZM477.932 20.376V19.376H476.932V20.376H477.932ZM477.932 29.4336H476.932V30.4336H477.932V29.4336ZM497.781 29.4336V35H499.781V29.4336H497.781ZM498.781 34H470.729V36H498.781V34ZM471.729 35V0.600586H469.729V35H471.729ZM470.729 1.60059H497.78V-0.399414H470.729V1.60059ZM496.78 0.600586V6.16699H498.78V0.600586H496.78ZM497.78 5.16699H477.932V7.16699H497.78V5.16699ZM476.932 6.16699V14.8096H478.932V6.16699H476.932ZM477.932 15.8096H496.291V13.8096H477.932V15.8096ZM495.291 14.8096V20.376H497.291V14.8096H495.291ZM496.291 19.376H477.932V21.376H496.291V19.376ZM476.932 20.376V29.4336H478.932V20.376H476.932ZM477.932 30.4336H498.781V28.4336H477.932V30.4336ZM8.52246 66.5576V65.5576H7.52246V66.5576H8.52246ZM8.52246 95V96H9.52246V95H8.52246ZM1.34473 95H0.344727V96H1.34473V95ZM1.34473 60.6006V59.6006H0.344727V60.6006H1.34473ZM30.5928 60.6006H31.5928V59.6006H30.5928V60.6006ZM30.5928 95V96H31.5928V95H30.5928ZM23.6348 95H22.6348V96H23.6348V95ZM23.6348 66.5576H24.6348V65.5576H23.6348V66.5576ZM7.52246 66.5576V95H9.52246V66.5576H7.52246ZM8.52246 94H1.34473V96H8.52246V94ZM2.34473 95V60.6006H0.344727V95H2.34473ZM1.34473 61.6006H30.5928V59.6006H1.34473V61.6006ZM29.5928 60.6006V95H31.5928V60.6006H29.5928ZM30.5928 94H23.6348V96H30.5928V94ZM24.6348 95V66.5576H22.6348V95H24.6348ZM23.6348 65.5576H8.52246V67.5576H23.6348V65.5576ZM38.8203 95.0488L39.0694 94.0802L39.0563 94.0771L38.8203 95.0488ZM36.0859 94.0234L35.1373 93.7072L34.8827 94.471L35.5745 94.8827L36.0859 94.0234ZM38.0879 88.0176L38.5147 87.1132L37.4956 86.6323L37.1392 87.7013L38.0879 88.0176ZM43.9473 88.6035L43.4793 87.7197L43.4684 87.7256L43.9473 88.6035ZM45.5098 87.1875L46.3098 87.7875L46.3167 87.7782L46.3235 87.7687L45.5098 87.1875ZM47.5361 83.3545L48.4443 83.773L48.6648 83.2946L48.3949 82.8422L47.5361 83.3545ZM33.9619 60.6006V59.6006H32.2009L33.1031 61.1129L33.9619 60.6006ZM41.457 60.6006L42.3256 60.105L42.0378 59.6006H41.457V60.6006ZM50.9297 77.2021L50.0611 77.6977L51.0471 79.4257L51.8456 77.6035L50.9297 77.2021ZM58.2051 60.6006V59.6006H57.5515L57.2892 60.1992L58.2051 60.6006ZM65.5049 60.6006L66.406 61.0342L67.0958 59.6006H65.5049V60.6006ZM52.6875 87.2363L51.7864 86.8027L51.7857 86.8042L52.6875 87.2363ZM49.6113 92.3633L50.3674 93.0178L50.3682 93.0169L49.6113 92.3633ZM46.4375 94.7559L46.8267 95.677L46.833 95.6743L46.4375 94.7559ZM42.2627 94.4883C41.1926 94.4883 40.1288 94.3528 39.0694 94.0803L38.5713 96.0173C39.7905 96.3308 41.0216 96.4883 42.2627 96.4883V94.4883ZM39.0563 94.0771C37.9726 93.8139 37.1651 93.5021 36.5974 93.1641L35.5745 94.8827C36.3739 95.3586 37.3894 95.7304 38.5843 96.0206L39.0563 94.0771ZM37.0346 94.3397L39.0366 88.3338L37.1392 87.7013L35.1373 93.7072L37.0346 94.3397ZM37.6611 88.9219C39.1947 89.6457 40.6455 90.043 41.9941 90.043V88.043C41.0316 88.043 39.8782 87.7567 38.5147 87.1132L37.6611 88.9219ZM41.9941 90.043C42.8852 90.043 43.7098 89.8721 44.4261 89.4814L43.4684 87.7256C43.1105 87.9208 42.633 88.043 41.9941 88.043V90.043ZM44.4152 89.4873C45.1317 89.1079 45.7585 88.5225 46.3098 87.7875L44.7098 86.5875C44.2845 87.1546 43.8696 87.5131 43.4794 87.7197L44.4152 89.4873ZM46.3235 87.7687C46.8727 86.9998 47.5823 85.6434 48.4443 83.773L46.6279 82.9359C45.7647 84.8091 45.1234 86.008 44.696 86.6063L46.3235 87.7687ZM48.3949 82.8422L34.8207 60.0883L33.1031 61.1129L46.6773 83.8668L48.3949 82.8422ZM33.9619 61.6006H41.457V59.6006H33.9619V61.6006ZM40.5885 61.0962L50.0611 77.6977L51.7982 76.7066L42.3256 60.105L40.5885 61.0962ZM51.8456 77.6035L59.121 61.002L57.2892 60.1992L50.0138 76.8008L51.8456 77.6035ZM58.2051 61.6006H65.5049V59.6006H58.2051V61.6006ZM64.6038 60.167L51.7864 86.8027L53.5886 87.6699L66.406 61.0342L64.6038 60.167ZM51.7857 86.8042C50.6748 89.1225 49.6949 90.7365 48.8545 91.7097L50.3682 93.0169C51.3832 91.8416 52.4541 90.0376 53.5893 87.6684L51.7857 86.8042ZM48.8553 91.7088C47.9971 92.7002 47.0582 93.3998 46.042 93.8374L46.833 95.6743C48.1605 95.1028 49.3376 94.2074 50.3674 93.0178L48.8553 91.7088ZM46.0483 93.8347C45.0466 94.258 43.7946 94.4883 42.2627 94.4883V96.4883C43.986 96.4883 45.5172 96.2303 46.8267 95.677L46.0483 93.8347ZM83.9131 66.167V65.167H82.9131V66.167H83.9131ZM83.9131 95V96H84.9131V95H83.9131ZM76.7109 95H75.7109V96H76.7109V95ZM76.7109 66.167H77.7109V65.167H76.7109V66.167ZM65.6025 66.167H64.6025V67.167H65.6025V66.167ZM65.6025 60.6006V59.6006H64.6025V60.6006H65.6025ZM95.0459 60.6006H96.0459V59.6006H95.0459V60.6006ZM95.0459 66.167V67.167H96.0459V66.167H95.0459ZM82.9131 66.167V95H84.9131V66.167H82.9131ZM83.9131 94H76.7109V96H83.9131V94ZM77.7109 95V66.167H75.7109V95H77.7109ZM76.7109 65.167H65.6025V67.167H76.7109V65.167ZM66.6025 66.167V60.6006H64.6025V66.167H66.6025ZM65.6025 61.6006H95.0459V59.6006H65.6025V61.6006ZM94.0459 60.6006V66.167H96.0459V60.6006H94.0459ZM95.0459 65.167H83.9131V67.167H95.0459V65.167ZM121.999 68.5107L122.998 68.5562L121.127 68.0213L121.999 68.5107ZM107.131 95V96H107.716L108.003 95.4895L107.131 95ZM98.9277 95H97.9277V96H98.9277V95ZM98.9277 60.6006V59.6006H97.9277V60.6006H98.9277ZM105.324 60.6006H106.324V59.6006H105.324V60.6006ZM105.129 87.3096L104.13 87.262L106.001 87.7984L105.129 87.3096ZM120.095 60.6006V59.6006H119.509L119.222 60.1118L120.095 60.6006ZM128.2 60.6006H129.2V59.6006H128.2V60.6006ZM128.2 95V96H129.2V95H128.2ZM121.804 95H120.804V96H121.804V95ZM121.853 72.2217L122.852 72.2534L122.852 72.2529L121.853 72.2217ZM121.127 68.0213L106.259 94.5105L108.003 95.4895L122.871 69.0002L121.127 68.0213ZM107.131 94H98.9277V96H107.131V94ZM99.9277 95V60.6006H97.9277V95H99.9277ZM98.9277 61.6006H105.324V59.6006H98.9277V61.6006ZM104.324 60.6006V80.5957H106.324V60.6006H104.324ZM104.324 80.5957C104.324 81.4463 104.308 82.4292 104.276 83.5452L106.275 83.6032C106.308 82.4732 106.324 81.4704 106.324 80.5957H104.324ZM104.276 83.5452C104.243 84.6609 104.195 85.8997 104.13 87.262L106.128 87.3571C106.193 85.985 106.242 84.7336 106.275 83.6032L104.276 83.5452ZM106.001 87.7984L120.967 61.0894L119.222 60.1118L104.257 86.8207L106.001 87.7984ZM120.095 61.6006H128.2V59.6006H120.095V61.6006ZM127.2 60.6006V95H129.2V60.6006H127.2ZM128.2 94H121.804V96H128.2V94ZM122.804 95V74.7119H120.804V95H122.804ZM122.804 74.7119C122.804 74.0921 122.82 73.2738 122.852 72.2534L120.853 72.1899C120.82 73.2203 120.804 74.0622 120.804 74.7119H122.804ZM122.852 72.2529C122.884 71.2173 122.933 69.9853 122.998 68.5562L121 68.4653C120.935 69.9007 120.886 71.1427 120.853 72.1904L122.852 72.2529ZM178.444 60.6006H179.444V59.6006H178.444V60.6006ZM178.444 95V96H179.444V95H178.444ZM134.89 95H133.89V96H134.89V95ZM134.89 60.6006V59.6006H133.89V60.6006H134.89ZM141.848 60.6006H142.848V59.6006H141.848V60.6006ZM141.848 89.043H140.848V90.043H141.848V89.043ZM153.176 89.043V90.043H154.176V89.043H153.176ZM153.176 60.6006V59.6006H152.176V60.6006H153.176ZM160.134 60.6006H161.134V59.6006H160.134V60.6006ZM160.134 89.043H159.134V90.043H160.134V89.043ZM171.486 89.043V90.043H172.486V89.043H171.486ZM171.486 60.6006V59.6006H170.486V60.6006H171.486ZM177.444 60.6006V95H179.444V60.6006H177.444ZM178.444 94H134.89V96H178.444V94ZM135.89 95V60.6006H133.89V95H135.89ZM134.89 61.6006H141.848V59.6006H134.89V61.6006ZM140.848 60.6006V89.043H142.848V60.6006H140.848ZM141.848 90.043H153.176V88.043H141.848V90.043ZM154.176 89.043V60.6006H152.176V89.043H154.176ZM153.176 61.6006H160.134V59.6006H153.176V61.6006ZM159.134 60.6006V89.043H161.134V60.6006H159.134ZM160.134 90.043H171.486V88.043H160.134V90.043ZM172.486 89.043V60.6006H170.486V89.043H172.486ZM171.486 61.6006H178.444V59.6006H171.486V61.6006ZM213.186 89.4336H214.186V88.4336H213.186V89.4336ZM213.186 95V96H214.186V95H213.186ZM185.134 95H184.134V96H185.134V95ZM185.134 60.6006V59.6006H184.134V60.6006H185.134ZM212.185 60.6006H213.185V59.6006H212.185V60.6006ZM212.185 66.167V67.167H213.185V66.167H212.185ZM192.336 66.167V65.167H191.336V66.167H192.336ZM192.336 74.8096H191.336V75.8096H192.336V74.8096ZM210.695 74.8096H211.695V73.8096H210.695V74.8096ZM210.695 80.376V81.376H211.695V80.376H210.695ZM192.336 80.376V79.376H191.336V80.376H192.336ZM192.336 89.4336H191.336V90.4336H192.336V89.4336ZM212.186 89.4336V95H214.186V89.4336H212.186ZM213.186 94H185.134V96H213.186V94ZM186.134 95V60.6006H184.134V95H186.134ZM185.134 61.6006H212.185V59.6006H185.134V61.6006ZM211.185 60.6006V66.167H213.185V60.6006H211.185ZM212.185 65.167H192.336V67.167H212.185V65.167ZM191.336 66.167V74.8096H193.336V66.167H191.336ZM192.336 75.8096H210.695V73.8096H192.336V75.8096ZM209.695 74.8096V80.376H211.695V74.8096H209.695ZM210.695 79.376H192.336V81.376H210.695V79.376ZM191.336 80.376V89.4336H193.336V80.376H191.336ZM192.336 90.4336H213.186V88.4336H192.336V90.4336ZM243.605 83.2812L243.959 82.3457L243.029 81.9947L242.672 82.9225L243.605 83.2812ZM249.88 85.6494L250.806 86.0263L251.193 85.0761L250.233 84.7138L249.88 85.6494ZM243.923 93.0713L244.449 93.9217L244.45 93.9208L243.923 93.0713ZM225.148 93.3887L224.668 94.2659L224.673 94.2682L225.148 93.3887ZM219.216 87.2607L218.324 87.7123L218.326 87.7166L219.216 87.2607ZM224.904 62.1387L225.374 63.0215L225.378 63.0191L224.904 62.1387ZM244.094 62.5293L243.554 63.3712L243.558 63.3736L244.094 62.5293ZM249.44 69.6582L249.704 70.6229L250.717 70.3462L250.391 69.3479L249.44 69.6582ZM243.093 71.3916L242.138 71.6889L242.425 72.6106L243.356 72.3563L243.093 71.3916ZM239.919 67.29L239.37 68.1261L239.38 68.1326L239.919 67.29ZM226.955 68.7793L226.189 68.1367L226.186 68.1403L226.955 68.7793ZM225.588 84.3066L224.667 84.6966L224.67 84.7036L225.588 84.3066ZM229.006 88.4326L228.473 89.2786L228.483 89.2852L229.006 88.4326ZM234.548 90.8242C236.902 90.8242 238.961 90.2328 240.669 88.9991C242.372 87.7691 243.649 85.9561 244.539 83.64L242.672 82.9225C241.886 84.9684 240.815 86.4268 239.498 87.3779C238.187 88.3251 236.556 88.8242 234.548 88.8242V90.8242ZM243.252 84.2168L249.527 86.585L250.233 84.7138L243.959 82.3457L243.252 84.2168ZM248.954 85.2726C247.669 88.43 245.808 90.723 243.395 92.2218L244.45 93.9208C247.278 92.1644 249.389 89.5095 250.806 86.0263L248.954 85.2726ZM243.397 92.2209C240.978 93.7172 238.044 94.4883 234.548 94.4883V96.4883C238.344 96.4883 241.659 95.6481 244.449 93.9217L243.397 92.2209ZM234.548 94.4883C230.995 94.4883 228.034 93.8124 225.624 92.5091L224.673 94.2682C227.439 95.7644 230.744 96.4883 234.548 96.4883V94.4883ZM225.628 92.5114C223.219 91.1933 221.383 89.2989 220.106 86.8049L218.326 87.7166C219.783 90.5611 221.902 92.752 224.668 94.2659L225.628 92.5114ZM220.108 86.8092C218.844 84.3106 218.189 81.2667 218.189 77.6416H216.189C216.189 81.5034 216.886 84.8723 218.324 87.7123L220.108 86.8092ZM218.189 77.6416C218.189 73.9763 218.822 70.9489 220.037 68.5185L218.248 67.6241C216.859 70.4021 216.189 73.7548 216.189 77.6416H218.189ZM220.037 68.5185C221.247 66.0977 223.021 64.2736 225.374 63.0215L224.435 61.2559C221.71 62.7056 219.642 64.8366 218.248 67.6241L220.037 68.5185ZM225.378 63.0191C227.737 61.7491 230.673 61.0879 234.23 61.0879V59.0879C230.431 59.0879 227.15 59.7939 224.43 61.2582L225.378 63.0191ZM234.23 61.0879C238.139 61.0879 241.222 61.8763 243.554 63.3712L244.633 61.6874C241.887 59.9271 238.395 59.0879 234.23 59.0879V61.0879ZM243.558 63.3736C245.881 64.848 247.529 67.0247 248.49 69.9685L250.391 69.3479C249.301 66.0092 247.384 63.4333 244.63 61.685L243.558 63.3736ZM249.177 68.6935L242.829 70.4269L243.356 72.3563L249.704 70.6229L249.177 68.6935ZM244.048 71.0944C243.438 69.135 242.227 67.5785 240.458 66.4474L239.38 68.1326C240.768 69.0198 241.674 70.1977 242.138 71.6889L244.048 71.0944ZM240.468 66.454C238.72 65.3071 236.676 64.752 234.377 64.752V66.752C236.342 66.752 237.993 67.2222 239.37 68.1261L240.468 66.454ZM234.377 64.752C230.902 64.752 228.116 65.8394 226.189 68.1367L227.721 69.4219C229.18 67.6827 231.341 66.752 234.377 66.752V64.752ZM226.186 68.1403C224.303 70.4071 223.44 73.6272 223.44 77.6416H225.44C225.44 73.8761 226.254 71.188 227.724 69.4183L226.186 68.1403ZM223.44 77.6416C223.44 80.3688 223.835 82.732 224.667 84.6965L226.509 83.9167C225.811 82.268 225.44 80.1878 225.44 77.6416H223.44ZM224.67 84.7036C225.522 86.6736 226.786 88.2152 228.473 89.2785L229.539 87.5867C228.231 86.7621 227.216 85.5529 226.506 83.9097L224.67 84.7036ZM228.483 89.2852C230.187 90.3292 232.225 90.8242 234.548 90.8242V88.8242C232.509 88.8242 230.852 88.3915 229.528 87.58L228.483 89.2852ZM268.923 66.167V65.167H267.923V66.167H268.923ZM268.923 95V96H269.923V95H268.923ZM261.721 95H260.721V96H261.721V95ZM261.721 66.167H262.721V65.167H261.721V66.167ZM250.612 66.167H249.612V67.167H250.612V66.167ZM250.612 60.6006V59.6006H249.612V60.6006H250.612ZM280.056 60.6006H281.056V59.6006H280.056V60.6006ZM280.056 66.167V67.167H281.056V66.167H280.056ZM267.923 66.167V95H269.923V66.167H267.923ZM268.923 94H261.721V96H268.923V94ZM262.721 95V66.167H260.721V95H262.721ZM261.721 65.167H250.612V67.167H261.721V65.167ZM251.612 66.167V60.6006H249.612V66.167H251.612ZM250.612 61.6006H280.056V59.6006H250.612V61.6006ZM279.056 60.6006V66.167H281.056V60.6006H279.056ZM280.056 65.167H268.923V67.167H280.056V65.167ZM283.962 95H282.962V96H283.962V95ZM283.962 60.6006V59.6006H282.962V60.6006H283.962ZM309.23 62.7979L308.667 63.6241L308.674 63.6289L309.23 62.7979ZM310.842 74.1992L310.064 73.5711L310.063 73.5722L310.842 74.1992ZM305.91 76.9092L305.702 75.9312L305.794 77.9024L305.91 76.9092ZM312.258 79.5459L311.555 80.257L311.563 80.2649L312.258 79.5459ZM303.737 66.9238L303.183 67.7559L303.189 67.7601L303.737 66.9238ZM291.164 65.9473V64.9473H290.164V65.9473H291.164ZM291.164 74.4678H290.164V75.4678H291.164V74.4678ZM303.835 73.418L304.444 74.2111L304.446 74.2096L303.835 73.418ZM291.164 79.79V78.79H290.164V79.79H291.164ZM291.164 89.6533H290.164V90.6533H291.164V89.6533ZM305.617 88.4082L306.234 89.1949L306.236 89.1937L305.617 88.4082ZM313.455 85.1855C313.455 88.0199 312.413 90.1241 310.35 91.6285L311.529 93.2445C314.153 91.3309 315.455 88.6012 315.455 85.1855H313.455ZM310.35 91.6285C308.238 93.1689 305.218 94 301.174 94V96C305.463 96 308.954 95.1221 311.529 93.2445L310.35 91.6285ZM301.174 94H283.962V96H301.174V94ZM284.962 95V60.6006H282.962V95H284.962ZM283.962 61.6006H299.709V59.6006H283.962V61.6006ZM299.709 61.6006C303.82 61.6006 306.758 62.3226 308.667 63.6241L309.794 61.9716C307.406 60.3434 303.996 59.6006 299.709 59.6006V61.6006ZM308.674 63.6289C310.532 64.8723 311.478 66.6917 311.478 69.2432H313.478C313.478 66.098 312.258 63.6205 309.787 61.9668L308.674 63.6289ZM311.478 69.2432C311.478 70.9979 310.993 72.4202 310.064 73.5711L311.62 74.8273C312.872 73.2764 313.478 71.3946 313.478 69.2432H311.478ZM310.063 73.5722C309.173 74.6774 307.763 75.4916 305.702 75.9312L306.119 77.8872C308.484 77.3827 310.362 76.3904 311.621 74.8262L310.063 73.5722ZM305.794 77.9024C308.438 78.2116 310.315 79.0312 311.555 80.257L312.961 78.8348C311.303 77.196 308.949 76.2578 306.026 75.9159L305.794 77.9024ZM311.563 80.2649C312.803 81.4637 313.455 83.0684 313.455 85.1855H315.455C315.455 82.6152 314.642 80.4601 312.953 78.8269L311.563 80.2649ZM306.227 70.2197C306.227 68.4507 305.644 66.9784 304.286 66.0876L303.189 67.7601C303.816 68.1714 304.227 68.8963 304.227 70.2197H306.227ZM304.292 66.0918C303.076 65.281 301.386 64.9473 299.367 64.9473V66.9473C301.222 66.9473 302.446 67.2646 303.183 67.7559L304.292 66.0918ZM299.367 64.9473H291.164V66.9473H299.367V64.9473ZM290.164 65.9473V74.4678H292.164V65.9473H290.164ZM291.164 75.4678H299.416V73.4678H291.164V75.4678ZM299.416 75.4678C301.52 75.4678 303.267 75.1146 304.444 74.2111L303.226 72.6248C302.58 73.1211 301.381 73.4678 299.416 73.4678V75.4678ZM304.446 74.2096C305.671 73.264 306.227 71.8736 306.227 70.2197H304.227C304.227 71.3979 303.854 72.1396 303.224 72.6264L304.446 74.2096ZM308.229 84.624C308.229 82.7401 307.533 81.2 306.067 80.1782C304.667 79.2022 302.692 78.79 300.295 78.79V80.79C302.521 80.79 304.012 81.1835 304.923 81.8188C305.769 82.4084 306.229 83.2853 306.229 84.624H308.229ZM300.295 78.79H291.164V80.79H300.295V78.79ZM290.164 79.79V89.6533H292.164V79.79H290.164ZM291.164 90.6533H300.563V88.6533H291.164V90.6533ZM300.563 90.6533C302.953 90.6533 304.913 90.2319 306.234 89.1949L305 87.6215C304.206 88.2446 302.796 88.6533 300.563 88.6533V90.6533ZM306.236 89.1937C307.605 88.1149 308.229 86.5303 308.229 84.624H306.229C306.229 86.0706 305.778 87.0088 304.998 87.6227L306.236 89.1937ZM343.142 68.5107L344.141 68.5562L342.27 68.0213L343.142 68.5107ZM328.273 95V96H328.859L329.145 95.4895L328.273 95ZM320.07 95H319.07V96H320.07V95ZM320.07 60.6006V59.6006H319.07V60.6006H320.07ZM326.467 60.6006H327.467V59.6006H326.467V60.6006ZM326.271 87.3096L325.273 87.262L327.144 87.7984L326.271 87.3096ZM341.237 60.6006V59.6006H340.651L340.365 60.1118L341.237 60.6006ZM349.343 60.6006H350.343V59.6006H349.343V60.6006ZM349.343 95V96H350.343V95H349.343ZM342.946 95H341.946V96H342.946V95ZM342.995 72.2217L343.995 72.2534V72.2529L342.995 72.2217ZM342.27 68.0213L327.401 94.5105L329.145 95.4895L344.014 69.0002L342.27 68.0213ZM328.273 94H320.07V96H328.273V94ZM321.07 95V60.6006H319.07V95H321.07ZM320.07 61.6006H326.467V59.6006H320.07V61.6006ZM325.467 60.6006V80.5957H327.467V60.6006H325.467ZM325.467 80.5957C325.467 81.4463 325.451 82.4292 325.418 83.5452L327.418 83.6032C327.45 82.4732 327.467 81.4704 327.467 80.5957H325.467ZM325.418 83.5452C325.386 84.6609 325.337 85.8997 325.273 87.262L327.27 87.3571C327.336 85.985 327.385 84.7336 327.418 83.6032L325.418 83.5452ZM327.144 87.7984L342.11 61.0894L340.365 60.1118L325.399 86.8207L327.144 87.7984ZM341.237 61.6006H349.343V59.6006H341.237V61.6006ZM348.343 60.6006V95H350.343V60.6006H348.343ZM349.343 94H342.946V96H349.343V94ZM343.946 95V74.7119H341.946V95H343.946ZM343.946 74.7119C343.946 74.0921 343.962 73.2738 343.995 72.2534L341.996 72.1899C341.963 73.2203 341.946 74.0622 341.946 74.7119H343.946ZM343.995 72.2529C344.027 71.2173 344.076 69.9853 344.141 68.5562L342.143 68.4653C342.077 69.9007 342.028 71.1427 341.996 72.1904L343.995 72.2529ZM384.084 89.4336H385.084V88.4336H384.084V89.4336ZM384.084 95V96H385.084V95H384.084ZM356.032 95H355.032V96H356.032V95ZM356.032 60.6006V59.6006H355.032V60.6006H356.032ZM383.083 60.6006H384.083V59.6006H383.083V60.6006ZM383.083 66.167V67.167H384.083V66.167H383.083ZM363.234 66.167V65.167H362.234V66.167H363.234ZM363.234 74.8096H362.234V75.8096H363.234V74.8096ZM381.594 74.8096H382.594V73.8096H381.594V74.8096ZM381.594 80.376V81.376H382.594V80.376H381.594ZM363.234 80.376V79.376H362.234V80.376H363.234ZM363.234 89.4336H362.234V90.4336H363.234V89.4336ZM383.084 89.4336V95H385.084V89.4336H383.084ZM384.084 94H356.032V96H384.084V94ZM357.032 95V60.6006H355.032V95H357.032ZM356.032 61.6006H383.083V59.6006H356.032V61.6006ZM382.083 60.6006V66.167H384.083V60.6006H382.083ZM383.083 65.167H363.234V67.167H383.083V65.167ZM362.234 66.167V74.8096H364.234V66.167H362.234ZM363.234 75.8096H381.594V73.8096H363.234V75.8096ZM380.594 74.8096V80.376H382.594V74.8096H380.594ZM381.594 79.376H363.234V81.376H381.594V79.376ZM362.234 80.376V89.4336H364.234V80.376H362.234ZM363.234 90.4336H384.084V88.4336H363.234V90.4336Z" fill="white"/>
</svg>
